<svg width="103" height="32" viewBox="0 0 103 32" fill="none" xmlns="http://www.w3.org/2000/svg">
<g clip-path="url(#clip0_801_5772)">
<path d="M4.73069 14.7522C4.73069 15.1623 5.00217 15.4974 5.5509 15.7573C6.09964 16.0172 6.7639 16.2425 7.54368 16.4389C8.32924 16.6353 9.10902 16.8836 9.89458 17.1782C10.6801 17.4786 11.3444 17.9753 11.8874 18.68C12.4361 19.3789 12.7076 20.2569 12.7076 21.3082C12.7076 22.8966 12.1126 24.1154 10.9285 24.9703C9.7444 25.8252 8.2657 26.2526 6.49242 26.2526C3.3213 26.2526 1.15523 25.028 0 22.5732L3.45993 20.6266C3.91047 21.9667 4.9213 22.6367 6.48664 22.6367C7.90758 22.6367 8.61805 22.1919 8.61805 21.3082C8.61805 20.8981 8.34657 20.5631 7.79783 20.3031C7.2491 20.0432 6.58484 19.8122 5.80505 19.61C5.01949 19.402 4.23971 19.1479 3.45415 18.836C2.66859 18.5241 2.00433 18.0389 1.46137 17.3688C0.912635 16.6988 0.641155 15.8613 0.641155 14.8504C0.641155 13.3255 1.20144 12.1241 2.3278 11.2519C3.44838 10.3739 4.84621 9.94067 6.51552 9.94067C7.77473 9.94067 8.91841 10.2237 9.94657 10.7898C10.9747 11.3558 11.7892 12.1645 12.3899 13.2158L8.98773 15.0699C8.49097 14.0187 7.67076 13.493 6.51552 13.493C6.00144 13.493 5.57401 13.6085 5.23321 13.8338C4.89242 14.0591 4.72491 14.371 4.72491 14.7638L4.73069 14.7522Z" fill="white"/>
<path d="M31.7169 10.3625H35.5465L31.0411 25.8196H27.1307L24.2079 16.4564L21.2852 25.8196H17.3747L12.8289 10.3625H17.0455L19.691 19.8528L22.5039 10.3625H26.2758L29.0888 19.8875L31.7112 10.3625H31.7169Z" fill="white"/>
<path d="M59.7314 13.0252C60.3899 12.0375 61.2217 11.2923 62.2209 10.8014C63.2202 10.3046 64.2484 10.062 65.2996 10.062L64.7913 11.818C64.3986 13.1696 63.3704 14.2959 62.0072 14.6541C61.5105 14.7811 61.0195 14.9833 60.5285 15.2606C59.3848 15.9017 58.5935 16.9588 58.1661 18.4432L56.0116 25.831H52.026L56.5314 10.3739H60.517L59.743 13.031L59.7314 13.0252Z" fill="white"/>
<path d="M77.0715 4.18188H81.057V25.8194H77.0715V23.9942C75.8989 25.496 74.2296 26.2526 72.0635 26.2526C69.8975 26.2526 68.205 25.4671 66.7321 23.8902C65.2592 22.3133 64.5198 20.3841 64.5198 18.0967C64.5198 15.8093 65.2534 13.8801 66.7321 12.3032C68.2108 10.7263 69.9841 9.94073 72.0635 9.94073C74.1429 9.94073 75.8989 10.6916 77.0715 12.1992V4.18188ZM69.7299 21.2274C70.5444 22.0418 71.5668 22.4461 72.8086 22.4461C74.0505 22.4461 75.0671 22.0418 75.87 21.2274C76.6729 20.4129 77.0772 19.3674 77.0772 18.0909C77.0772 16.8144 76.6729 15.7689 75.87 14.9544C75.0671 14.14 74.0448 13.7357 72.8086 13.7357C71.5725 13.7357 70.5444 14.14 69.7299 14.9544C68.9155 15.7689 68.5112 16.8144 68.5112 18.0909C68.5112 19.3674 68.9155 20.4129 69.7299 21.2274Z" fill="white"/>
<path d="M85.6318 8.5083C84.9733 8.5083 84.4015 8.2657 83.9163 7.7805C83.4311 7.2953 83.1885 6.72346 83.1885 6.06498C83.1885 5.40649 83.4311 4.82887 83.9163 4.33212C84.4015 3.83537 84.9733 3.59277 85.6318 3.59277C86.2903 3.59277 86.891 3.84115 87.3762 4.33212C87.8614 4.82887 88.104 5.40649 88.104 6.06498C88.104 6.72346 87.8614 7.2953 87.3762 7.7805C86.891 8.2657 86.3076 8.5083 85.6318 8.5083ZM83.6506 25.8195V10.3624H87.6361V25.8195H83.6506Z" fill="white"/>
<path d="M94.3133 14.7522C94.3133 15.1623 94.5848 15.4974 95.1335 15.7573C95.6765 16.0172 96.3408 16.2425 97.1263 16.4389C97.9119 16.6353 98.6917 16.8836 99.4772 17.1782C100.263 17.4786 100.927 17.9753 101.47 18.68C102.019 19.3789 102.29 20.2569 102.29 21.3082C102.29 22.8966 101.695 24.1154 100.511 24.9703C99.327 25.8252 97.8483 26.2526 96.0751 26.2526C92.9039 26.2526 90.7379 25.028 89.5826 22.5732L93.0426 20.6266C93.4931 21.9667 94.5039 22.6367 96.0693 22.6367C97.4902 22.6367 98.2007 22.1919 98.2007 21.3082C98.2007 20.8981 97.9292 20.5631 97.3805 20.3031C96.8317 20.0432 96.1675 19.8122 95.3877 19.61C94.6021 19.402 93.8224 19.1479 93.0368 18.836C92.2512 18.5241 91.587 18.0389 91.044 17.3688C90.4953 16.6988 90.2238 15.8613 90.2238 14.8504C90.2238 13.3255 90.7841 12.1241 91.9104 11.2519C93.031 10.3739 94.4288 9.94067 96.0982 9.94067C97.3574 9.94067 98.5011 10.2237 99.5292 10.7898C100.557 11.3558 101.372 12.1645 101.973 13.2158L98.5704 15.0699C98.0736 14.0187 97.2534 13.493 96.0982 13.493C95.5841 13.493 95.1566 13.6085 94.8159 13.8338C94.4751 14.0591 94.3076 14.371 94.3076 14.7638L94.3133 14.7522Z" fill="white"/>
<path d="M47.8094 19.3444C47.7978 19.3848 47.7863 19.4252 47.7747 19.4657L45.8686 25.9985C47.2606 25.652 48.5025 24.9588 49.5769 23.8902C51.1653 22.3133 51.9567 20.3841 51.9567 18.0967C51.9567 15.8094 51.2289 14.0707 49.7964 12.54L47.8094 19.3444Z" fill="white"/>
<path d="M39.9827 25.3747L41.1264 21.4642C41.0108 21.366 40.8953 21.2678 40.7856 21.1523C39.9942 20.3494 39.5957 19.327 39.5957 18.0909C39.5957 16.8548 39.9942 15.8324 40.7856 15.0296C41.4845 14.3191 42.3394 13.9263 43.3502 13.8397L44.4823 9.95808C44.2455 9.94075 44.0087 9.9292 43.7661 9.9292C41.4787 9.9292 39.5495 10.7148 37.9726 12.2917C36.3957 13.8685 35.6101 15.7978 35.6101 18.0852C35.6101 20.3725 36.3957 22.3018 37.9726 23.8787C38.5906 24.4967 39.2607 24.9877 39.9884 25.3631L39.9827 25.3747Z" fill="white"/>
<path d="M45.7357 9.23024L39.0931 32.0057C41.4556 32.0057 43.535 30.4461 44.1993 28.1761L50.6166 6.18042L47.2375 7.5667C46.5097 7.86706 45.961 8.47934 45.7415 9.23024H45.7357Z" fill="white"/>
<path d="M51.1942 4.18195L52.413 0H49.3921C48.8202 0 48.3177 0.375451 48.156 0.924188L47.2029 4.18195H43.2751C42.5646 4.18195 41.987 4.75957 41.987 5.47004V6.17473H54.3191C55.0296 6.17473 55.6072 5.59711 55.6072 4.88664V4.18195H51.1942ZM49.7733 1.213L50.6513 2.09097L49.7733 2.96895L48.8953 2.09097L49.7733 1.213Z" fill="white"/>
</g>
<defs>
<clipPath id="clip0_801_5772">
<rect width="102.29" height="32" fill="white"/>
</clipPath>
</defs>
</svg>
