<svg width="16" height="16" viewBox="0 0 16 16" fill="none" xmlns="http://www.w3.org/2000/svg">
    <path d="M7.52144 2.30302C7.6751 1.99173 7.75193 1.83609 7.85623 1.78636C7.94697 1.74309 8.0524 1.74309 8.14314 1.78636C8.24744 1.83609 8.32427 1.99173 8.47793 2.30302L9.93571 5.25634C9.98108 5.34824 10.0038 5.39419 10.0369 5.42986C10.0663 5.46145 10.1015 5.48705 10.1406 5.50523C10.1847 5.52576 10.2354 5.53317 10.3368 5.548L13.5977 6.02462C13.9411 6.07481 14.1127 6.0999 14.1922 6.18377C14.2613 6.25674 14.2938 6.35701 14.2807 6.45666C14.2656 6.5712 14.1413 6.69227 13.8927 6.9344L11.534 9.23176C11.4604 9.30338 11.4237 9.33918 11.4 9.38179C11.379 9.41951 11.3655 9.46096 11.3603 9.50382C11.3544 9.55223 11.3631 9.60281 11.3804 9.70397L11.937 12.9489C11.9957 13.2911 12.025 13.4623 11.9699 13.5638C11.9219 13.6522 11.8366 13.7141 11.7377 13.7325C11.6241 13.7535 11.4704 13.6727 11.1631 13.5111L8.24793 11.978C8.1571 11.9303 8.11168 11.9064 8.06384 11.897C8.02147 11.8887 7.9779 11.8887 7.93554 11.897C7.88769 11.9064 7.84228 11.9303 7.75145 11.978L4.83629 13.5111C4.52895 13.6727 4.37528 13.7535 4.26166 13.7325C4.1628 13.7141 4.07749 13.6522 4.0295 13.5638C3.97434 13.4623 4.00369 13.2911 4.06239 12.9489L4.61893 9.70397C4.63628 9.60281 4.64496 9.55223 4.63909 9.50382C4.63389 9.46096 4.62042 9.41951 4.59941 9.38179C4.57569 9.33918 4.53893 9.30337 4.4654 9.23176L2.10671 6.9344C1.85812 6.69227 1.73382 6.5712 1.71869 6.45666C1.70553 6.35701 1.73804 6.25674 1.80717 6.18377C1.88663 6.0999 2.05832 6.07481 2.4017 6.02462L5.66255 5.548C5.76396 5.53317 5.81466 5.52576 5.85882 5.50523C5.89792 5.48705 5.93312 5.46145 5.96246 5.42986C5.99561 5.39419 6.01829 5.34824 6.06366 5.25634L7.52144 2.30302Z" fill="#D0D5DD" stroke="#D0D5DD" stroke-width="1.5" stroke-linecap="round" stroke-linejoin="round"/>
    <path d="M5.12047 13.7247L8.03562 12.1917C8.12645 12.1439 8.17187 12.12 8.21972 12.1106C8.24084 12.1065 8.26227 12.1044 8.28369 12.1044V2H8.14041C8.03611 2.04973 7.95928 2.20537 7.80563 2.51666L7.80562 2.51667L6.34784 5.46998C6.30247 5.56188 6.27979 5.60783 6.24664 5.64351C6.2173 5.6751 6.1821 5.70069 6.143 5.71887C6.09884 5.73941 6.04814 5.74682 5.94673 5.76164L2.68588 6.23826C2.3425 6.28845 2.17081 6.31355 2.09135 6.39742C2.02222 6.47039 1.98971 6.57066 2.00287 6.67031C2.018 6.78484 2.1423 6.90591 2.39089 7.14804L4.74958 9.4454L4.74958 9.44541C4.82311 9.51702 4.85987 9.55283 4.88359 9.59543C4.9046 9.63315 4.91807 9.6746 4.92327 9.71746C4.92914 9.76587 4.92046 9.81645 4.90311 9.91762L4.34657 13.1625C4.28787 13.5048 4.25852 13.6759 4.31368 13.7775C4.36167 13.8658 4.44698 13.9278 4.54584 13.9461C4.65946 13.9672 4.81313 13.8864 5.12047 13.7247Z" fill="#F2A439"/>
    <path d="M8.34802 12.1106C8.32678 12.1065 8.30523 12.1044 8.28369 12.1044M8.28369 12.1044C8.26227 12.1044 8.24084 12.1065 8.21972 12.1106C8.17187 12.12 8.12645 12.1439 8.03562 12.1917L5.12047 13.7247C4.81313 13.8864 4.65946 13.9672 4.54584 13.9461C4.44698 13.9278 4.36167 13.8658 4.31368 13.7775C4.25852 13.6759 4.28787 13.5048 4.34657 13.1625L4.90311 9.91762C4.92046 9.81645 4.92914 9.76587 4.92327 9.71746C4.91807 9.6746 4.9046 9.63315 4.88359 9.59543C4.85987 9.55283 4.82311 9.51702 4.74958 9.4454L2.39089 7.14804C2.1423 6.90591 2.018 6.78484 2.00287 6.67031C1.98971 6.57066 2.02222 6.47039 2.09135 6.39742C2.17081 6.31355 2.3425 6.28845 2.68588 6.23826L5.94673 5.76164C6.04814 5.74682 6.09884 5.73941 6.143 5.71887C6.1821 5.70069 6.2173 5.6751 6.24664 5.64351C6.27979 5.60783 6.30247 5.56188 6.34784 5.46998L7.80562 2.51667C7.95928 2.20538 8.03611 2.04973 8.14041 2H8.28369V12.1044Z" stroke="#F2A439" stroke-width="1.5" stroke-linecap="round" stroke-linejoin="round"/>
</svg>
