<svg width="20" height="20" viewBox="0 0 20 20" fill="none" xmlns="http://www.w3.org/2000/svg">
<g clip-path="url(#clip0_2524_192086)">
<path d="M10.0001 1.66406L11.4633 2.64151L13.1891 2.2984L14.1669 3.76137L15.8926 4.10484L16.2361 5.83062L17.6991 6.80837L17.356 8.53422L18.3334 9.9974L17.356 11.4606L17.6991 13.1864L16.2361 14.1642L15.8926 15.89L14.1669 16.2334L13.1891 17.6964L11.4633 17.3533L10.0001 18.3307L8.5369 17.3533L6.81105 17.6964L5.8333 16.2334L4.10752 15.89L3.76406 14.1642L2.30109 13.1864L2.64419 11.4606L1.66675 9.9974L2.64419 8.53422L2.30109 6.80837L3.76406 5.83062L4.10752 4.10484L5.8333 3.76137L6.81105 2.2984L8.5369 2.64151L10.0001 1.66406Z" stroke="#344054" stroke-width="1.5" stroke-linejoin="round"/>
<path d="M7.91683 14.1615H6.66683C6.44582 14.1615 6.23385 14.0737 6.07757 13.9174C5.92129 13.7611 5.8335 13.5491 5.8335 13.3281V10.4115C5.8335 10.1904 5.92129 9.97848 6.07757 9.8222C6.23385 9.66592 6.44582 9.57812 6.66683 9.57812H7.91683M10.8335 8.74479V7.07812C10.8335 6.7466 10.7018 6.42866 10.4674 6.19424C10.233 5.95982 9.91502 5.82813 9.5835 5.82812L7.91683 9.57812V14.1615H12.6168C12.8178 14.1637 13.0128 14.0933 13.166 13.9631C13.3191 13.833 13.42 13.6518 13.4502 13.4531L14.0252 9.70312C14.0433 9.58369 14.0352 9.46174 14.0016 9.34573C13.9679 9.22972 13.9094 9.12241 13.8301 9.03126C13.7508 8.9401 13.6527 8.86726 13.5425 8.8178C13.4323 8.76833 13.3126 8.74342 13.1918 8.74479H10.8335Z" stroke="#344054" stroke-width="1.5" stroke-linecap="round" stroke-linejoin="round"/>
</g>
<defs>
<clipPath id="clip0_2524_192086">
<rect width="20" height="20" fill="white"/>
</clipPath>
</defs>
</svg>
