<svg width="43" height="42" viewBox="0 0 43 42" fill="none" xmlns="http://www.w3.org/2000/svg">
<path d="M0.333344 14.9333C0.333344 9.70618 0.333344 7.0926 1.35062 5.09609C2.24543 3.33991 3.67325 1.91209 5.42943 1.01727C7.42594 0 10.0395 0 15.2667 0H27.4C32.6272 0 35.2407 0 37.2373 1.01727C38.9934 1.91209 40.4213 3.33991 41.3161 5.09609C42.3333 7.0926 42.3333 9.70618 42.3333 14.9333V27.0667C42.3333 32.2938 42.3333 34.9074 41.3161 36.9039C40.4213 38.6601 38.9934 40.0879 37.2373 40.9827C35.2407 42 32.6272 42 27.4 42H15.2667C10.0395 42 7.42594 42 5.42943 40.9827C3.67325 40.0879 2.24543 38.6601 1.35062 36.9039C0.333344 34.9074 0.333344 32.2938 0.333344 27.0667V14.9333Z" fill="#F9FAFB"/>
<path d="M21.6667 7.66602L25.7867 16.0127L35.0001 17.3593L28.3334 23.8527L29.9067 33.026L21.6667 28.6927L13.4267 33.026L15.0001 23.8527L8.33339 17.3593L17.5467 16.0127L21.6667 7.66602Z" stroke="#101828" stroke-width="1.5" stroke-linecap="round" stroke-linejoin="round"/>
</svg>
