<svg width="551" height="138" viewBox="0 0 551 138" fill="none" xmlns="http://www.w3.org/2000/svg">
<path d="M424.288 180.06C424.288 180.06 417.502 172.592 423.562 166.773C429.623 160.94 455.532 160.56 463.591 152.636C471.663 144.711 462.751 138.017 496.083 128.799C502.882 126.923 508.471 126.023 512.889 125.148C517.307 124.273 530.828 115.081 538.212 118.073C545.597 121.065 553.656 132.476 549.607 136.293C545.559 140.109 543.585 142.759 540.44 139.754C537.296 136.749 532.267 134.061 532.381 139.982C532.496 145.903 530.319 152.788 525.391 160.04C520.464 167.293 517.345 176.13 496.936 176.168C476.539 176.206 476.157 173.226 462.191 178.12C448.224 183.014 434.397 190.749 424.263 180.073L424.288 180.06Z" fill="#381E39"/>
<path d="M131.239 95.923C130.22 95.8723 129.393 95.1116 129.278 94.1099C127.763 81.7987 119.004 7.24661 127.814 5.48424C137.63 3.51901 395.386 -1.97097 396.061 4.29242C396.736 10.5685 385.506 93.2858 382.692 95.8216C379.879 98.3447 375.537 99.5745 374.124 97.5332C372.914 95.8089 372.736 71.2498 372.711 63.858C372.711 62.7042 371.768 61.7787 370.61 61.7913L147.714 63.3889C146.695 63.3889 145.842 64.1243 145.664 65.1132C144.544 71.7443 140.431 95.3905 138.56 95.8216C137.083 96.1639 133.441 96.0371 131.264 95.923H131.239Z" fill="#783E33"/>
<path d="M111.2 -19.2524C109.952 -19.2524 108.908 -18.4536 108.705 -17.3759C107.801 -12.4311 105.42 0.805674 105.42 2.33982C105.42 4.22898 105.662 6.89156 107.228 8.51446C108.794 10.1374 414.027 14.6891 415.834 13.4212C417.642 12.1533 417.439 7.60158 418.088 6.71405C418.635 5.966 416.968 -13.3947 416.395 -19.8483C416.293 -21.0148 415.172 -21.915 413.823 -21.9023L111.2 -19.2397V-19.2524Z" fill="#FFE3D1"/>
<path d="M412.194 7.56359L109.406 4.35582C109.049 4.35582 108.769 4.06421 108.782 3.7092C108.782 3.36687 109.074 3.08793 109.418 3.08793L412.206 6.2957C412.563 6.2957 412.843 6.58731 412.843 6.94232C412.843 7.28465 412.55 7.56359 412.206 7.56359H412.194Z" fill="#DCC7B2"/>
<path d="M30.4284 40.6302L115.808 37.4858C117.349 37.4351 118.596 38.6903 118.507 40.2245C117.934 49.9492 116.075 81.5071 115.808 86.3251C115.49 92.0306 114.853 174.444 113.58 174.761C112.307 175.078 105.304 176.662 105.304 174.761C105.304 173.379 104.451 165.961 103.993 162.056C103.827 160.7 102.643 159.698 101.268 159.774L38.3604 162.944C37.2654 162.995 36.3233 163.73 36.005 164.77L32.3509 176.434C32.0072 177.525 31.0014 178.26 29.8555 178.26H28.5059C27.1309 178.26 25.985 177.195 25.8959 175.813L20.6504 88.5692C20.6504 88.3791 20.6504 88.1889 20.6759 87.9987L27.933 42.8237C28.124 41.5938 29.168 40.6809 30.4157 40.6429L30.4284 40.6302Z" fill="#463040"/>
<path d="M124.108 362.827C124.108 362.827 136.013 43.6098 139.603 37.6126C143.206 31.6155 367.63 27.6343 372.226 33.6441C376.822 39.6539 379.369 360.05 376.186 360.05C373.003 360.05 124.096 362.814 124.096 362.814L124.108 362.827Z" fill="#FFE3D1"/>
<path d="M274.078 12.4195C274.078 12.4195 304.685 1.95944 319.963 4.17825C335.242 6.39706 344.154 17.1741 350.52 17.1741C356.886 17.1741 353.384 24.7815 350.52 31.121C347.655 37.4604 347.655 72.0105 342.244 82.1536C336.833 92.2968 338.501 92.7532 326.966 91.5868C315.431 90.4203 282.468 78.0837 269.354 79.6178C256.241 81.152 239.256 95.999 243.483 45.8032C247.71 -4.3927 274.078 12.4195 274.078 12.4195Z" fill="#FFE3D1"/>
<path d="M195.165 85.3234C195.165 85.3234 178.958 82.4707 168.454 80.5688C157.95 78.667 157.848 77.5005 159.542 71.5922C161.235 65.6711 158.269 33.5554 162.508 19.393C166.748 5.23067 162.508 1.00859 168.021 1.22413C173.534 1.43967 170.567 2.75828 202.613 6.75214C234.659 10.7333 232.979 13.827 241.344 10.3149C249.708 6.80286 253.808 3.55706 252.675 11.1644C251.542 18.7718 259.117 73.5447 252.675 78.5656C246.233 83.5864 224.945 90.6866 195.178 85.3361L195.165 85.3234Z" fill="#FFE3D1"/>
<path d="M197.726 72.4416C197.726 72.4416 192.201 72.4036 188.597 62.4633C186.267 56.0097 191.335 46.2343 200.909 45.8159C210.483 45.3975 207.912 44.586 208.128 35.2797C208.344 25.986 213.081 22.9684 221.713 22.6134C233.324 22.1316 229.454 15.5386 242.822 11.8237C250.194 9.76969 265.752 14.8032 265.854 29.8785C266.032 54.577 274.244 65.0498 259.972 71.8584C243.102 79.8968 226.869 64.0989 218.759 66.6347C210.649 69.1705 212.711 72.3909 197.752 72.4416H197.726Z" fill="#381E39"/>
<path d="M284.403 50.8367C284.403 50.8367 283.461 65.0624 287.917 66.6346C292.373 68.2068 297.198 56.4788 309.294 60.2825C319.632 63.5283 320.803 74.1279 315.494 94.1986C315.494 94.1986 281.971 97.7867 271.786 98.2178C261.6 98.6362 254.318 98.2178 254.318 98.2178C254.318 98.2178 248.372 79.6178 259.016 70.9581C269.66 62.2984 270.716 67.5729 270.513 57.2269C270.296 46.8682 284.403 50.8367 284.403 50.8367Z" fill="#E8A48D"/>
<path d="M257.946 37.993C257.946 37.993 256.698 47.8699 258.939 54.615C261.753 63.1099 262.657 69.3353 271.531 67.5856C277.871 66.3304 282.658 57.1635 283.741 51.9018C283.741 51.9018 288.439 52.3836 288.922 44.5226C289.394 36.9279 284.696 37.2069 283.384 39.9962C283.384 39.9962 283.461 38.0944 281.576 35.0261C278.852 30.5885 264.847 23.6278 258.595 34.7091C258.111 35.5713 257.959 37.9803 257.959 37.9803L257.946 37.993Z" fill="#E8A48D"/>
<path d="M287.943 44.6874C287.943 44.6874 291.228 46.0314 291.788 40.7823C292.297 36.0911 296.193 31.6535 292.386 28.788C288.58 25.9226 290.158 20.1917 286.173 18.7083C282.188 17.2249 280.749 19.5451 277.936 18.1504C275.122 16.7684 270.462 11.494 263.472 17.5038C256.483 23.5136 252.256 30.9561 254.878 34.8613C257.501 38.7664 253.796 43.5844 257.603 46.6273C257.603 46.6273 257.947 38.9946 259.449 35.977C260.62 33.6441 264.733 29.9799 269.1 31.9197C273.467 33.8596 274.88 36.332 278.216 35.0134C281.552 33.6948 281.552 41.188 282.328 41.5938C283.092 42.0122 283.792 42.8363 285.18 39.9962C286.568 37.1561 288.618 42.2531 287.943 44.6621V44.6874Z" fill="#381E39"/>
<path d="M196.032 103.391C196.032 103.391 193.384 83.206 198.579 70.0073C203.773 56.7958 215.55 62.9324 220.961 64.0862C226.372 65.2527 231.363 67.4715 230.727 54.577C230.727 54.577 224.577 51.9398 226.169 45.1693C227.76 38.3987 232.636 43.166 232.636 43.166C232.636 43.166 233.808 30.9055 243.879 29.9545C248.08 29.5615 251.072 30.6265 253.135 32.0085C255.719 33.7455 257.222 36.6871 257.362 39.7934C257.654 46.3357 256.98 61.0306 246.221 68.5238C246.221 68.5238 254.802 62.9197 259.895 68.8408C264.988 74.7619 259.017 99.2702 259.017 99.2702C259.017 99.2702 244.044 94.9848 227.811 97.5205C220.592 98.649 207.707 94.6678 196.032 103.378V103.391Z" fill="#E8A48D"/>
<path d="M232.635 43.166C232.635 43.166 234.176 38.8044 237.435 38.3353C240.694 37.8662 242.362 40.0089 245.991 37.2956C250.167 34.1766 256.431 33.3905 257.22 38.4748C257.22 38.4748 256.036 21.8147 238.95 28.8388C228.828 32.9975 232.635 43.166 232.635 43.166Z" fill="#381E39"/>
<path d="M151.776 139.843C151.776 139.843 143.984 127.646 148.593 124.945C153.202 122.244 159.734 131.766 165.616 127.798C171.498 123.829 173.408 108.298 187.731 107.512C202.054 106.725 199.711 99.2956 214.353 97.5966C228.995 95.8849 245.903 95.9357 255.273 98.2559C264.644 100.576 300.548 87.2252 314.642 92.9308C328.736 98.6363 331.282 106.561 345.287 103.391C359.292 100.221 365.658 89.1271 372.024 94.5156C378.39 99.9042 379.026 118.872 369.796 131.741C360.565 144.61 364.385 149.669 360.247 159.495C356.109 169.321 348.152 181.683 349.425 202.92C350.698 224.158 350.38 241.908 358.337 263.145C366.295 284.383 357.701 281.53 342.104 290.405C326.508 299.28 346.306 334.718 332.301 337.888C318.296 341.057 244.553 338.864 228.638 340.766C212.723 342.668 130.298 361.94 128.146 321.874C126.516 291.47 165.132 263.082 162.267 236.456C159.403 209.83 186.763 203.871 185.808 185.487C184.853 167.102 163.426 169.638 151.751 139.843H151.776Z" fill="#FF5981"/>
<path d="M413.794 151.986C428.198 147.726 437.644 136.79 434.892 127.56C432.14 118.33 418.231 114.301 403.826 118.561C389.421 122.821 379.975 133.757 382.728 142.987C385.48 152.217 399.389 156.246 413.794 151.986Z" fill="#FAF4ED"/>
<path d="M476.501 -36.128C475.94 -36.128 475.482 -35.6843 475.469 -35.1264C475.278 -28.2671 474.12 11.5828 472.948 13.3198C471.675 15.2216 449.815 53.512 450.451 55.287C451.012 56.8592 451.241 57.7087 453.813 57.8735C454.398 57.9115 454.857 58.406 454.793 59.0019C454.029 66.7614 449.446 113.344 450.426 114.117C451.495 114.967 454.258 114.979 454.895 112.646C455.531 110.314 462.114 57.9115 463.807 57.2776C465.5 56.6437 503.709 54.6657 504.014 56.8972C504.358 59.4077 500.933 116.336 502.206 116.919C503.479 117.502 504.905 118.022 505.886 116.919C506.866 115.816 511.768 58.5455 512.926 56.6437C513.703 55.3758 518.236 44.2437 521.151 37.0294C521.597 35.939 523.226 36.3067 523.15 37.4858C521.991 53.4993 519.267 93.0322 520.451 94.0465C521.941 95.3144 522.997 93.2224 523.634 92.0559C524.27 90.8894 529.58 20.3059 530.42 16.5022C531.197 13.0535 535.805 -26.6188 536.659 -33.9092C536.735 -34.5178 536.251 -35.0503 535.627 -35.0503H531.591C531.057 -35.0503 530.598 -34.6446 530.56 -34.1121C530 -27.6205 526.715 10.3783 525.544 10.3783C524.372 10.3783 487.514 11.2404 480.6 11.4053C480.002 11.4179 479.518 10.9235 479.544 10.3275L481.772 -35.025C481.797 -35.6209 481.326 -36.1027 480.74 -36.1027H476.475L476.501 -36.128Z" fill="#463040"/>
<path d="M495.064 130.853C495.064 130.853 493.943 129.89 496.974 126.327C500.004 122.764 502.143 118.491 505.249 119.125C506.79 119.442 508.432 122.777 509.705 120.71C510.979 118.644 518.465 103.442 515.588 102.96C512.71 102.478 508.738 100.576 510.979 96.9373C513.219 93.2984 518.63 87.3901 521.317 88.379C524.016 89.368 526.562 97.4064 518.452 112.786C510.342 128.165 509.896 134.429 502.385 134.492C495.866 134.556 495.064 130.841 495.064 130.841V130.853Z" fill="#FF5981"/>
<path d="M80.9115 37.5872C75.0931 26.3284 74.2018 11.2658 74.0618 6.91692C74.0363 6.23226 73.4761 5.69974 72.7886 5.69974H66.5755C65.888 5.69974 65.3278 6.23226 65.3023 6.91692C65.1623 11.2531 64.271 26.3157 58.4526 37.5872C53.067 48.022 55.1296 58.2158 59.9931 62.4886C60.5661 62.9958 60.5915 63.8707 60.0313 64.3778L59.242 65.0878C58.5926 65.6837 58.7327 66.7234 59.5093 67.1418C61.0626 67.9913 64.1182 69.0437 69.6693 69.0437C75.2204 69.0437 78.2888 67.9786 79.8293 67.1418C80.606 66.7234 80.746 65.6837 80.0967 65.0878L79.3073 64.3778C78.7471 63.858 78.7726 62.9958 79.3455 62.4886C84.2091 58.2285 86.2843 48.022 80.886 37.5872H80.9115Z" fill="#FFE3D1"/>
<path d="M53.7544 71.6935C52.9013 66.2796 40.4623 63.7185 25.9608 65.9753C11.4592 68.2322 0.382564 74.4449 1.2356 79.8588C2.08863 85.2727 14.5276 87.8338 29.0292 85.577C43.5307 83.3201 54.6074 77.1074 53.7544 71.6935Z" fill="#FAF4ED"/>
<path d="M415.886 87.276C414.778 88.2396 413.849 96.4936 413.493 96.7725C413.123 97.0514 392.409 90.9909 391.39 90.6232C390.372 90.2555 397.832 82.7496 398.851 82.5594C399.869 82.3692 400.417 84.8543 400.875 85.6784C401.334 86.5026 402.632 85.9574 402.53 84.7656C402.441 83.5737 400.15 80.087 398.482 80.8224C396.827 81.5451 385.979 90.9275 385.674 94.9467C385.381 98.8011 390.002 99.9042 390.002 99.9042C395.159 102.11 398.291 95.6948 400.226 95.961C402.161 96.24 397.832 102.465 404.186 104.393C410.539 106.32 414.32 99.1688 414.511 98.8899C414.689 98.611 416.446 89.723 416.892 88.8989C417.35 88.0748 419.973 89.9132 421.03 89.1778C422.086 88.4424 416.981 86.3377 415.886 87.3013V87.276ZM390.601 98.2306C387.38 97.6347 386.323 94.7439 389.544 91.8531L398.151 94.6424C398.151 94.6424 393.835 98.8138 390.601 98.2179V98.2306ZM404.287 102.668C401.423 101.4 402.721 96.3034 402.721 96.3034L412.207 98.8265C411.175 100.906 407.139 103.923 404.3 102.668H404.287Z" fill="#381E39"/>
<path d="M523.177 89.4694C522.769 89.4694 522.349 89.33 522.018 89.0637C521.649 88.7721 521.458 88.3537 521.47 87.9099L522.744 87.9606C522.744 87.9606 522.795 88.0621 522.82 88.0874C522.935 88.1888 523.126 88.2269 523.266 88.2015C523.584 88.1255 523.902 87.8465 524.246 87.314C525.265 85.7925 525.774 83.9287 525.71 82.0903C525.596 82.2298 525.468 82.3692 525.328 82.496C524.679 83.0539 523.597 83.3201 522.769 82.7623C522.362 82.4833 522.094 82.0649 522.005 81.5578C521.852 80.6576 522.26 79.694 522.693 79.0854C523.431 78.0711 524.704 77.4118 525.697 78.0964C525.723 78.1091 525.748 78.1345 525.774 78.1471C526.156 75.9283 525.99 73.5954 525.29 71.4653C524.768 72.9234 524.17 73.7602 523.457 74.0645C523.1 74.2167 522.553 74.3054 521.916 73.8997C521.509 73.6334 521.292 73.2404 521.305 72.784C521.356 71.4527 523.52 70.0073 524.271 69.6015C524.348 69.5635 524.45 69.5128 524.552 69.4748C524.666 68.993 524.793 68.4478 524.921 67.8265C525.303 65.8486 525.175 63.8073 524.984 61.5251C524.921 60.7263 524.844 59.8134 524.462 59.1034C524.335 58.8752 524.157 58.6469 523.953 58.4568C523.393 59.1161 522.693 59.6486 521.865 60.0163L521.343 60.2445L521.063 59.75C520.77 59.2302 520.757 58.5962 521.063 58.013C521.407 57.3537 522.043 56.8846 522.744 56.8085C523.024 56.7831 523.291 56.8085 523.558 56.8592C524.577 55.1729 524.87 52.8527 524.628 50.786C524.424 49.0617 524.004 47.8318 523.304 46.8936C523.024 46.5259 522.693 46.2089 522.323 45.9553C522.082 46.6273 521.687 47.3247 520.999 47.7938C520.388 48.2122 519.522 48.3009 518.809 48.022C518.211 47.7938 517.791 47.3373 517.651 46.7795C517.524 46.2723 517.625 45.7652 517.918 45.3087C518.313 44.7001 519.039 44.2437 519.803 44.1169C520.337 44.0281 520.897 44.0535 521.445 44.1803C521.801 42.0629 521.649 39.9329 520.987 37.9803C520.719 37.1942 520.172 36.2179 519.446 35.622C519.14 35.901 518.809 36.1419 518.44 36.332C517.727 36.7124 516.747 36.7758 516.276 36.0151C516.072 35.6727 516.047 35.2797 516.212 34.912C516.429 34.4175 516.963 33.9991 517.536 33.885C518.122 33.7709 518.669 33.8216 519.166 34.0118C519.904 32.9468 520.325 31.3873 520.439 29.3206C520.528 27.7104 520.49 25.8592 519.586 24.4392C519.293 23.9701 518.86 23.5644 518.364 23.2854C518.338 23.3742 518.326 23.4629 518.3 23.5517C518.084 24.4012 517.485 25.5676 516.505 26.0494C515.996 26.303 515.448 26.3284 514.939 26.1001C514.302 25.8339 513.908 25.2507 513.857 24.5026C513.793 23.5263 514.315 22.512 515.117 22.0302C515.817 21.6118 516.594 21.4977 517.345 21.5991C517.498 20.1918 517.384 18.759 517.002 17.4024C516.772 16.5529 516.25 15.7795 515.716 15.4879C515.474 15.3611 515.257 15.3231 515.015 15.3991L514.646 14.182C515.206 14.0044 515.792 14.0678 516.327 14.3721C517.333 14.9173 517.969 16.1218 518.224 17.0601C518.657 18.6576 518.784 20.3312 518.58 21.9668C519.421 22.3599 520.159 22.9938 520.643 23.7545C521.738 25.4789 521.789 27.5582 521.687 29.3713C521.572 31.6155 521.088 33.3778 520.248 34.6331C521.127 35.3558 521.801 36.4461 522.171 37.5492C522.935 39.7807 523.087 42.2277 522.629 44.6367C523.253 44.9917 523.826 45.4862 524.297 46.1075C525.137 47.2359 525.646 48.6686 525.876 50.6212C526.143 52.9034 525.812 55.4645 524.679 57.4044C525.061 57.7087 525.366 58.1018 525.583 58.4948C526.092 59.4457 526.181 60.5361 526.258 61.411C526.461 63.7819 526.589 65.9246 526.168 68.0547C526.054 68.6379 525.939 69.1705 525.812 69.6649C526.067 69.8932 526.181 70.1975 526.245 70.3496C527.416 73.3545 527.569 76.7905 526.678 79.8968C527.378 82.6228 526.869 85.6784 525.303 88.0113C524.959 88.5185 524.411 89.2285 523.558 89.4314C523.431 89.4567 523.291 89.4821 523.164 89.4821L523.177 89.4694ZM524.806 79.06C524.488 79.06 524.03 79.4024 523.749 79.8081C523.406 80.2899 523.215 80.9112 523.278 81.3169C523.317 81.5451 523.431 81.6338 523.508 81.6972C523.749 81.8621 524.208 81.786 524.513 81.5197C524.895 81.1901 525.112 80.6449 525.29 80.1504C525.315 80.0616 525.354 79.9729 525.379 79.8842C525.366 79.8208 525.341 79.77 525.328 79.7066C525.252 79.4911 525.15 79.2248 525.01 79.1234C524.959 79.0854 524.895 79.0727 524.832 79.0727L524.806 79.06ZM524.017 71.2498C523.215 71.8457 522.591 72.543 522.604 72.8093C522.833 72.9361 522.922 72.8981 522.973 72.8727C523.126 72.8093 523.533 72.5177 524.017 71.2498ZM520.439 45.2834C520.299 45.2834 520.159 45.2834 520.019 45.3214C519.612 45.3975 519.191 45.6511 518.988 45.9553C518.886 46.1202 518.848 46.2723 518.886 46.4245C518.937 46.6273 519.115 46.7414 519.268 46.7922C519.599 46.9189 520.019 46.8809 520.299 46.6907C520.668 46.4371 520.961 46.0187 521.165 45.3721C520.923 45.3087 520.681 45.2834 520.439 45.2834ZM518.046 35.0641C517.956 35.0641 517.867 35.0768 517.778 35.1022C517.574 35.1402 517.384 35.3177 517.358 35.3938C517.371 35.3304 517.6 35.305 517.829 35.1909C517.906 35.1529 517.969 35.1149 518.033 35.0768L518.046 35.0641ZM516.836 22.8163C516.467 22.8163 516.098 22.9051 515.754 23.1079C515.359 23.3488 515.079 23.9067 515.104 24.4012C515.13 24.7942 515.346 24.883 515.41 24.921C515.576 24.9971 515.728 24.9844 515.919 24.8956C516.378 24.6674 516.849 23.9574 517.04 23.222C517.065 23.0952 517.103 22.9811 517.129 22.8543C517.027 22.8543 516.925 22.8417 516.823 22.8417L516.836 22.8163Z" fill="#381E39"/>
<path d="M400.542 62.4633C399.931 62.4633 399.435 62.9578 399.448 63.5664C399.511 66.7995 399.702 75.9664 399.957 75.9664C400.275 75.9664 414.598 76.4989 414.598 75.9664C414.598 75.5353 415.019 66.7868 415.184 63.6044C415.21 62.9831 414.713 62.4633 414.089 62.4633H400.555H400.542Z" fill="#FFE3D1"/>
<path d="M41.9638 11.1263C44.7648 14.8539 57.6621 28.6486 93.5532 26.3791C94.3425 26.3284 94.9537 25.6183 94.8645 24.8322L90.5994 -14.1554C90.5739 -14.409 90.4848 -14.6372 90.332 -14.8401C88.9188 -16.742 80.9996 -26.1244 66.2689 -19.7215C66.0651 -19.6327 65.8742 -19.4933 65.7341 -19.3158L42.002 9.41468C41.5946 9.90915 41.5691 10.6192 41.9638 11.139V11.1263Z" fill="#381E39"/>
<path d="M195.878 81.7353C195.878 81.7353 192.428 131.817 209.399 134.15C226.371 136.47 247.175 100.551 249.505 92.5251C251.835 84.4993 257.882 80.7463 257.882 77.8936C257.882 75.0408 248.881 80.1124 246.22 83.5991C243.559 87.0858 247.799 80.0617 247.799 79.1108C247.799 78.1598 246.36 77.0568 242.922 84.0809C240.325 89.3934 228.917 110.39 215.396 115.144C215.396 115.144 219.216 96.1259 215.396 79.3263L195.878 81.748V81.7353Z" fill="#E8A48D"/>
<path d="M268.028 67.8138C267.761 67.8138 267.493 67.8138 267.213 67.7758C266.87 67.7377 266.602 67.4334 266.64 67.0911C266.679 66.7361 266.997 66.4825 267.328 66.5205C269.62 66.7361 271.975 65.8866 273.605 64.251C273.859 63.9974 274.254 63.9974 274.509 64.251C274.763 64.4919 274.763 64.8977 274.509 65.1512C272.803 66.8629 270.422 67.8265 268.028 67.8265V67.8138Z" fill="#D67B5C"/>
<path d="M241.547 69.4114C241.471 69.4114 241.394 69.3987 241.318 69.3733C237.817 68.0547 234.939 65.1893 233.615 61.7026C233.488 61.3729 233.653 61.0053 233.984 60.8911C234.315 60.7644 234.685 60.9292 234.799 61.2588C235.996 64.4159 238.593 67.0024 241.764 68.1942C242.095 68.321 242.26 68.6887 242.133 69.0057C242.031 69.2592 241.789 69.4114 241.534 69.4114H241.547Z" fill="#D67B5C"/>
<path d="M217.548 95.8342C217.204 95.8342 216.924 95.5679 216.911 95.2256C216.72 90.078 215.905 84.9684 214.479 80.0109C214.378 79.6686 214.581 79.3263 214.912 79.2248C215.243 79.1361 215.6 79.3262 215.702 79.6559C217.153 84.7021 217.981 89.9258 218.172 95.1749C218.184 95.5299 217.904 95.8215 217.561 95.8342C217.561 95.8342 217.548 95.8342 217.535 95.8342H217.548Z" fill="#D67B5C"/>
<path d="M228.588 47.1851C228.18 47.1471 227.926 46.8428 227.951 46.5005C228.002 45.9299 228.053 45.2706 228.333 44.662C228.677 43.9013 229.339 43.3688 230.064 43.2674C230.548 43.204 231.058 43.3561 231.427 43.6858C231.771 43.9774 231.961 44.3704 231.961 44.7888C231.961 45.1438 231.681 45.4228 231.338 45.4355C230.968 45.3974 230.701 45.1565 230.688 44.8142C230.688 44.7381 230.625 44.6747 230.586 44.6494C230.485 44.5606 230.332 44.5226 230.23 44.5353C229.95 44.5733 229.657 44.8269 229.492 45.1946C229.301 45.613 229.262 46.1201 229.211 46.6146C229.186 46.9443 228.906 47.1978 228.575 47.1978L228.588 47.1851Z" fill="#D67B5C"/>
<path d="M286.236 48.8207C286.134 48.8207 286.045 48.7954 285.943 48.7574C285.625 48.6052 285.51 48.2122 285.663 47.9079C286.504 46.2469 286.402 44.1676 285.396 42.6081C285.205 42.3165 285.294 41.9234 285.587 41.7332C285.88 41.5431 286.274 41.6318 286.465 41.9234C287.713 43.8633 287.84 46.4371 286.784 48.4911C286.669 48.7066 286.453 48.8334 286.211 48.8334L286.236 48.8207Z" fill="#D67B5C"/>
<path d="M247.228 57.9497C246.871 57.9497 246.528 57.8989 246.286 57.8736C245.942 57.8229 245.7 57.5059 245.738 57.1636C245.789 56.8212 246.108 56.5677 246.451 56.6184C247.725 56.7959 248.157 56.6311 248.425 55.8957C248.705 55.1096 248.641 54.2221 248.578 53.2838C248.565 53.0429 248.539 52.7893 248.527 52.5484C248.425 50.4818 248.794 48.5039 249.583 46.8429C249.736 46.526 250.118 46.3865 250.436 46.5386C250.755 46.6908 250.895 47.0712 250.742 47.3881C250.042 48.8716 249.723 50.6339 249.8 52.4977C249.8 52.726 249.825 52.9669 249.851 53.1951C249.927 54.2221 250.004 55.2744 249.634 56.3141C249.15 57.6834 248.106 57.9623 247.228 57.9623V57.9497Z" fill="#D67B5C"/>
<path d="M253.732 52.2821C253.235 52.2821 252.726 52.1553 252.268 51.889C251.567 51.496 250.969 50.8367 250.485 49.9111C250.32 49.5942 250.447 49.2138 250.752 49.0617C251.058 48.9095 251.453 49.0236 251.605 49.3279C251.962 50.0252 252.395 50.507 252.879 50.7733C253.401 51.0649 254.025 51.0776 254.419 50.7987C254.712 50.5958 255.107 50.6719 255.31 50.9635C255.501 51.2551 255.438 51.6482 255.145 51.8383C254.738 52.1173 254.241 52.2567 253.732 52.2567V52.2821Z" fill="#D67B5C"/>
<path d="M242.502 51.3566C242.35 51.3566 242.197 51.3566 242.044 51.3312C240.758 51.1917 239.663 50.4056 239.256 49.3406C239.128 49.011 239.294 48.6433 239.625 48.5165C239.956 48.3897 240.325 48.5545 240.453 48.8842C240.695 49.5054 241.382 49.9746 242.184 50.0633C242.91 50.1394 243.712 49.9492 244.603 49.4928C244.909 49.3279 245.303 49.4547 245.456 49.759C245.622 50.076 245.494 50.4564 245.189 50.6085C244.247 51.0903 243.343 51.3439 242.502 51.3439V51.3566Z" fill="#D67B5C"/>
<path d="M246.463 60.4474C245.419 60.4474 244.362 60.2065 243.433 59.7373C243.115 59.5852 242.987 59.1921 243.153 58.8879C243.318 58.5709 243.7 58.4568 244.006 58.6089C245.253 59.2429 246.73 59.357 248.067 58.9513C248.398 58.8371 248.755 59.0273 248.869 59.3697C248.971 59.6993 248.793 60.0543 248.449 60.1684C247.8 60.3713 247.138 60.4727 246.463 60.4727V60.4474Z" fill="#D67B5C"/>
<path d="M265.547 56.8973C265.191 56.8973 264.834 56.8466 264.516 56.7324C263.943 56.5296 263.548 56.1492 263.357 55.6167C263.09 54.856 263.001 54.0952 263.077 53.3725C263.166 52.5991 263.319 51.7243 263.472 50.8114C263.777 49.0363 264.121 47.0331 264.083 45.2327C264.083 44.8776 264.35 44.5987 264.707 44.586C265.063 44.586 265.343 44.865 265.356 45.2073C265.394 47.1218 265.038 49.2012 264.732 51.0269C264.579 51.9145 264.439 52.7513 264.35 53.512C264.287 54.0572 264.35 54.6151 264.567 55.1983C264.605 55.3124 264.681 55.4519 264.949 55.5406C265.573 55.7562 266.566 55.5153 266.833 55.3504C267.126 55.1729 267.52 55.2617 267.711 55.5533C267.89 55.8576 267.801 56.238 267.508 56.4281C267.113 56.669 266.336 56.8846 265.56 56.8846L265.547 56.8973Z" fill="#D67B5C"/>
<path d="M271.378 47.8572C270.156 47.8572 268.998 47.3627 268.297 46.5386C268.068 46.2723 268.094 45.8666 268.374 45.6384C268.641 45.4102 269.048 45.4482 269.265 45.7145C269.749 46.2723 270.538 46.5766 271.429 46.5893C272.206 46.5893 273.034 46.3357 273.95 45.8286C274.256 45.6638 274.638 45.7779 274.816 46.0822C274.981 46.3865 274.867 46.7795 274.561 46.9443C273.454 47.5402 272.435 47.8445 271.442 47.8572C271.417 47.8572 271.404 47.8572 271.378 47.8572Z" fill="#D67B5C"/>
<path d="M260.365 48.4784C259.818 48.4784 259.283 48.339 258.825 48.0727C258.519 47.8952 258.417 47.5022 258.608 47.1979C258.787 46.8936 259.181 46.8048 259.487 46.9823C259.882 47.2106 260.391 47.2739 260.887 47.1472C261.384 47.0204 261.804 46.7161 262.033 46.3357C262.212 46.0314 262.606 45.93 262.899 46.1075C263.205 46.285 263.307 46.678 263.128 46.9697C262.734 47.6543 262.033 48.1615 261.206 48.377C260.926 48.4531 260.646 48.4784 260.378 48.4784H260.365Z" fill="#D67B5C"/>
<path d="M265.825 59.6739C265.392 59.6739 264.959 59.6105 264.527 59.4838C264.195 59.3823 263.992 59.0273 264.106 58.6977C264.208 58.368 264.565 58.1778 264.896 58.2666C266.194 58.6596 267.735 58.1525 268.563 57.0874C268.779 56.8085 269.174 56.7578 269.454 56.9606C269.734 57.1762 269.785 57.5692 269.568 57.8482C268.69 59.002 267.264 59.6739 265.825 59.6739Z" fill="#D67B5C"/>
<path d="M280.596 57.379C280.507 57.379 280.405 57.3537 280.316 57.3156C279.998 57.1635 279.871 56.7831 280.023 56.4661C280.456 55.5659 280.698 54.5643 280.698 53.5754C280.698 53.2203 280.978 52.9414 281.335 52.9414C281.691 52.9414 281.971 53.233 281.971 53.5754C281.971 54.7672 281.691 55.959 281.169 57.024C281.055 57.2522 280.838 57.379 280.596 57.379Z" fill="#D67B5C"/>
<path d="M268.768 39.4891C268.768 40.5668 275.083 41.9995 276.177 41.2007C277.96 39.9202 268.768 37.359 268.768 39.4891Z" fill="#381E39"/>
<path d="M263.841 40.5921C264.07 38.6269 256.609 42.0755 258.061 43.6224C258.786 44.4085 263.701 41.8093 263.841 40.5921Z" fill="#381E39"/>
<path d="M246.653 43.1153C247.862 41.822 237.944 43.6605 239.268 44.4212C240.644 45.2073 245.914 43.9141 246.653 43.1153Z" fill="#381E39"/>
<path d="M256.471 46.6527C257.922 45.93 251.034 42.4052 251.365 43.8887C251.441 44.2183 255.579 47.0964 256.471 46.6527Z" fill="#381E39"/>
<path d="M318.258 137.041C317.952 137.041 317.685 136.825 317.634 136.508C316.093 127.012 319.327 116.843 326.101 109.984C326.343 109.73 326.75 109.73 327.005 109.984C327.259 110.225 327.259 110.631 327.005 110.884C320.524 117.465 317.405 127.215 318.894 136.318C318.945 136.66 318.716 136.99 318.372 137.041C318.334 137.041 318.309 137.041 318.271 137.041H318.258Z" fill="#D7325A"/>
<path d="M210.138 152.129C207.082 152.129 204.256 151.127 202.231 149.289C200.665 147.856 199.647 146.005 198.654 144.204L198.361 143.672C192.95 133.909 186.559 128.204 179.365 126.733C179.021 126.657 178.805 126.327 178.869 125.985C178.945 125.642 179.276 125.427 179.62 125.49C187.195 127.05 193.879 132.958 199.481 143.063L199.774 143.596C200.716 145.307 201.684 147.07 203.097 148.363C205.389 150.468 208.928 151.317 212.557 150.645C215.498 150.1 218.439 148.667 221.8 146.144C222.08 145.929 222.475 145.992 222.691 146.271C222.908 146.55 222.844 146.943 222.564 147.159C219.037 149.808 215.931 151.317 212.786 151.888C211.895 152.053 211.016 152.129 210.138 152.129Z" fill="#D7325A"/>
<path d="M251.377 131.969C250.982 131.944 250.714 131.639 250.74 131.297C251.16 125.199 254.037 119.379 258.646 115.347C258.914 115.119 259.308 115.144 259.55 115.41C259.78 115.677 259.754 116.07 259.487 116.311C255.12 120.127 252.395 125.63 252.013 131.399C251.988 131.728 251.708 131.995 251.377 131.995V131.969Z" fill="#D7325A"/>
<path d="M355.561 129.154C355.459 129.154 355.344 129.129 355.243 129.066C354.937 128.888 354.835 128.508 355.001 128.204C357.025 124.641 357.471 120.19 356.172 116.311C356.057 115.981 356.248 115.613 356.579 115.512C356.923 115.398 357.267 115.588 357.382 115.918C358.782 120.14 358.311 124.97 356.108 128.837C355.994 129.04 355.777 129.154 355.561 129.154Z" fill="#D7325A"/>
<path d="M195.357 86.8576C185.019 86.5786 170.173 82.3946 160.357 79.6306C159.44 79.377 158.435 78.984 157.913 78.0711C157.556 77.4498 157.531 76.7398 157.543 76.0678C157.607 74.2167 157.938 72.3782 158.256 70.6032C158.447 69.5635 158.638 68.4858 158.778 67.4208C159.148 64.4539 159.084 61.3983 159.02 58.4441L158.562 37.004C158.562 36.649 158.829 36.3701 159.186 36.3574C159.542 36.3574 159.822 36.6363 159.835 36.9787L160.294 58.4187C160.357 61.4236 160.421 64.53 160.039 67.5856C159.899 68.676 159.708 69.7791 159.517 70.8314C159.199 72.5557 158.88 74.3562 158.829 76.1058C158.817 76.5623 158.829 77.0694 159.033 77.4371C159.326 77.957 160.052 78.2105 160.714 78.4007C170.466 81.1521 185.222 85.2981 195.382 85.577C195.739 85.577 196.006 85.8813 196.006 86.2236C196.006 86.566 195.713 86.8449 195.37 86.8449L195.357 86.8576Z" fill="#DCC7B2"/>
<path d="M330.378 91.8658C325.883 91.8658 321.402 91.3079 317.048 90.1921C316.704 90.1034 316.5 89.7611 316.589 89.4187C316.678 89.0764 317.022 88.8735 317.366 88.9623C321.644 90.0527 326.113 90.6232 330.48 90.5979C332.033 90.5979 333.663 90.5091 335.089 89.9386C337.89 88.8101 339.545 85.9701 340.436 83.7766C342.257 79.3263 342.588 74.3435 342.919 69.5255L342.957 69.0437C343.059 67.4715 343.161 65.9374 343.25 64.4539C343.963 52.8527 344.523 43.6858 349.641 32.7059C349.794 32.3889 350.176 32.2494 350.481 32.4016C350.8 32.5537 350.94 32.9214 350.787 33.2384C345.771 44.0028 345.21 53.0682 344.51 64.53C344.421 66.0261 344.319 67.5603 344.217 69.1324L344.179 69.6142C343.848 74.5337 343.504 79.6052 341.607 84.2584C340.614 86.6801 338.768 89.8244 335.56 91.1177C333.943 91.7643 332.16 91.8658 330.48 91.8658H330.378Z" fill="#DCC7B2"/>
<path d="M291.445 49.2899C291.343 49.2899 291.241 49.2645 291.139 49.2138C290.834 49.049 290.719 48.656 290.884 48.3517C294.551 41.6952 300.37 36.256 307.27 33.0355C307.589 32.8834 307.971 33.0228 308.111 33.3398C308.263 33.6568 308.123 34.0371 307.805 34.1893C301.146 37.2956 295.532 42.5574 291.992 48.9729C291.877 49.1885 291.661 49.3026 291.432 49.3026L291.445 49.2899Z" fill="#DCC7B2"/>
<path d="M288.157 57.3029C288.004 57.3029 287.852 57.2522 287.737 57.1381C287.47 56.9099 287.444 56.5042 287.686 56.2379C290.232 53.3725 293.174 50.8874 296.446 48.8588C296.738 48.6813 297.133 48.77 297.324 49.0616C297.515 49.3533 297.426 49.7463 297.12 49.9365C293.963 51.9017 291.111 54.298 288.641 57.0747C288.514 57.2142 288.335 57.2903 288.17 57.2903L288.157 57.3029Z" fill="#DCC7B2"/>
<path d="M204.7 40.757C204.535 40.757 204.369 40.6936 204.242 40.5668C201.416 37.7013 197.329 36.0784 193.293 36.1925C191.841 36.2433 190.415 36.4968 188.836 36.8011C188.493 36.8645 188.162 36.649 188.085 36.294C188.022 35.9516 188.238 35.622 188.595 35.5459C190.224 35.2289 191.701 34.9627 193.242 34.912C197.634 34.7725 202.078 36.5476 205.133 39.6666C205.375 39.9201 205.375 40.3132 205.133 40.5668C205.006 40.6936 204.853 40.7443 204.688 40.7443L204.7 40.757Z" fill="#DCC7B2"/>
<path d="M205.747 34.6584C205.505 34.6584 205.276 34.5189 205.174 34.2907C203.939 31.6282 202.309 29.1811 200.336 27.0003C200.094 26.7341 200.119 26.341 200.374 26.1001C200.629 25.8719 201.036 25.8846 201.278 26.1382C203.341 28.4077 205.034 30.9689 206.32 33.7455C206.473 34.0625 206.32 34.4429 206.014 34.5823C205.925 34.6204 205.836 34.6457 205.747 34.6457V34.6584Z" fill="#DCC7B2"/>
<path d="M357.088 -19.0749C357.088 -19.0749 348.659 -6.15507 360.423 -7.25813C360.423 -7.25813 361.366 0.197077 363.365 1.13532C365.363 2.08624 375.549 5.42079 376.657 4.4572C377.522 3.72182 384.563 -2.51621 384.983 -5.15343C385.276 -6.94116 385.212 -9.28676 385.085 -11.4675C385.085 -11.4675 390.814 -9.33748 393.042 -12.8242C395.27 -16.3109 391.616 -25.0213 390.178 -25.8201C388.739 -26.6189 375.052 -27.5698 372.99 -27.5698C370.927 -27.5698 357.075 -19.1002 357.075 -19.1002L357.088 -19.0749Z" fill="#FAF4ED"/>
<path d="M318.894 -26.0356C318.894 -26.0356 306.799 -17.0083 308.708 -13.8385C310.618 -10.6688 320.014 -13.8385 320.014 -13.8385C320.014 -13.8385 320.969 -5.28024 321.44 -4.17718C321.911 -3.07411 341.175 1.37619 341.175 1.37619C341.175 1.37619 352.633 -13.6864 352.786 -14.3203C352.939 -14.9543 354.085 -17.731 354.085 -17.731C354.085 -17.731 362.5 -18.7579 363.29 -22.5616C364.079 -26.3653 358.044 -28.115 357.56 -28.5841C357.077 -29.0532 329.703 -31.906 328.596 -31.7538C327.488 -31.6017 318.894 -26.0483 318.894 -26.0483V-26.0356Z" fill="#FAF4ED"/>
<path d="M25.9102 92.1574L111.583 87.5169L110.73 100.931L25.9102 104.938V92.1574Z" fill="#362134"/>
<path d="M57.6112 -5.8381C57.6112 -5.8381 56.1088 -6.24382 56.8091 -7.93012C57.5093 -9.62909 60.1193 -13.9019 62.4238 -17.8577C64.7283 -21.8135 70.9414 -25.389 75.4485 -26.2385C79.9682 -27.1007 91.898 -24.9072 91.7452 -13.9653C91.5924 -3.03605 92.751 -5.24218 96.8379 -3.01069C100.925 -0.779203 105.89 4.30505 101.982 12.6985C98.0729 21.0919 102.58 29.3713 101.829 36.4588C101.078 43.5463 98.5185 48.6432 97.6145 50.8113C96.7106 52.9794 95.0555 51.2424 96.5578 45.6003C98.0602 39.9582 100.021 31.6154 96.405 22.5373C92.8019 13.4592 86.0286 3.49359 87.3782 -1.03278C88.7277 -5.55916 89.7845 -10.6561 88.1293 -12.3043C86.4742 -13.9526 75.1938 -15.7657 73.3859 -19.582C71.578 -23.3857 66.1669 -19.3665 64.9702 -17.8577C63.7734 -16.3489 57.5984 -5.81274 57.5984 -5.81274L57.6112 -5.8381Z" fill="#FF5981"/>
<path d="M90.6874 125.313C90.6874 125.313 86.766 124.539 83.7995 128.521C80.833 132.502 75.1036 133.415 74.2506 128.521C73.3976 123.626 80.9475 120.241 82.1571 108.83C83.3666 97.4191 80.1836 89.5962 80.6165 83.4723C81.0367 77.3484 80.7566 74.597 85.8875 71.6428C91.0184 68.6887 104.82 54.7926 108.41 50.748C112 46.7034 117.106 42.7349 119.016 47.2613C120.925 51.7876 123.255 68.4731 126.018 72.4923C128.781 76.5115 123.816 79.2248 120.289 87.5295C116.762 95.8216 116.508 112.013 111.389 120.038C106.284 128.064 105.1 136.521 100.491 136.419C95.882 136.318 93.8958 124.945 90.6747 125.325L90.6874 125.313Z" fill="#FFE3D1"/>
<path d="M22.025 88.1508C21.694 88.1508 21.4139 87.8972 21.3884 87.5549C21.3629 87.1999 21.6303 86.9083 21.9868 86.8829L78.6434 83.4723C78.9872 83.4723 79.2927 83.7132 79.3182 84.0682C79.3437 84.4232 79.0763 84.7148 78.7198 84.7402L22.0632 88.1508C22.0632 88.1508 22.0377 88.1508 22.025 88.1508Z" fill="#362134"/>
<path d="M24.1527 127.633C23.8089 127.633 23.5288 127.367 23.5161 127.024C23.5033 126.669 23.7707 126.378 24.1272 126.365L74.1632 124.248C74.4815 124.222 74.8126 124.501 74.8253 124.856C74.838 125.211 74.5707 125.503 74.2142 125.516L24.1781 127.633C24.1781 127.633 24.1654 127.633 24.1527 127.633Z" fill="#362134"/>
<path d="M69.6798 115.334C69.6798 117.414 67.9865 119.087 65.9112 119.087C63.8359 119.087 62.1426 117.401 62.1426 115.334C62.1426 113.268 63.8359 111.581 65.9112 111.581C67.9865 111.581 69.6798 113.268 69.6798 115.334Z" fill="#877788"/>
<path d="M73.3868 134.251C73.3868 136.331 71.6935 138.004 69.6182 138.004C67.5429 138.004 65.8496 136.318 65.8496 134.251C65.8496 132.185 67.5429 130.498 69.6182 130.498C71.6935 130.498 73.3868 132.185 73.3868 134.251Z" fill="#877788"/>
<path d="M510.673 57.4424C510.673 57.4424 510.584 57.4424 510.533 57.4297C508.954 57.0747 507.286 57.0493 505.708 57.3663C505.364 57.4297 505.033 57.2141 504.956 56.8718C504.893 56.5295 505.109 56.1998 505.453 56.1238C507.21 55.7814 509.056 55.8068 510.813 56.1998C511.157 56.2759 511.373 56.6182 511.297 56.9606C511.233 57.2522 510.966 57.4551 510.673 57.4551V57.4424Z" fill="#362134"/>
<path d="M455.761 58.4568C455.443 58.4568 455.176 58.2286 455.138 57.9116C455.087 57.5693 455.329 57.2396 455.672 57.1889L461.402 56.3775C461.745 56.3267 462.076 56.5676 462.127 56.91C462.178 57.2523 461.936 57.582 461.593 57.6327L455.863 58.4441C455.863 58.4441 455.8 58.4441 455.774 58.4441L455.761 58.4568Z" fill="#362134"/>
<path d="M504.689 -43C498.552 -26.3145 491.588 -7.13131 491.333 -2.63029C490.913 5.04045 491.766 25.7578 486.24 29.9799C480.727 34.202 464.8 41.2388 464.8 33.2003C464.8 25.1619 466.722 18.1505 466.722 18.1505C466.722 18.1505 455.926 18.1505 449.433 21.5231C442.952 24.9083 433.62 11.811 441.679 -9.74318C445.677 -20.4062 446.644 -32.6667 447.905 -43H504.689Z" fill="#381E39"/>
<path d="M469.6 45.6003C467.512 44.1549 464.826 38.6269 466.099 36.0912C467.372 33.5554 478.041 21.1934 478.512 19.9255C478.983 18.6576 478.36 11.3673 479.938 9.63024C481.517 7.89323 486.151 6.77748 486.788 9.63024C487.425 12.483 486.47 15.6527 489.971 15.4879C493.472 15.3231 502.219 16.1219 502.856 14.537C503.492 12.9521 505.402 6.92963 507.948 6.77748C510.495 6.62533 512.086 6.77748 512.557 7.56358C513.028 8.34967 512.073 9.78239 512.557 19.4564C513.041 29.1304 513.983 45.2961 508.585 46.8682C503.187 48.4404 474.043 48.656 469.6 45.6003Z" fill="#FF5981"/>
<path d="M68.2797 65.6964C64.2437 65.6964 61.9902 64.568 61.8501 64.4919C61.5446 64.3271 61.4172 63.9468 61.5828 63.6425C61.7483 63.3382 62.1302 63.2114 62.4358 63.3635C62.4867 63.3889 67.8595 66.0388 77.001 62.8056C77.332 62.6915 77.7012 62.8564 77.8158 63.186C77.9304 63.5157 77.7649 63.8834 77.4339 63.9975C73.7926 65.2907 70.7242 65.6964 68.2924 65.6964H68.2797Z" fill="#DCC7B2"/>
<path d="M341.252 13.7762C341.112 13.7762 340.985 13.7381 340.87 13.6494C340.794 13.5987 333.295 7.94388 319.824 4.7995C311.74 2.91034 299.033 5.56024 288.81 7.70298C281.718 9.18641 275.594 10.467 272.5 9.93447C265.459 8.71729 257.82 11.9377 257.744 11.9758C257.426 12.1152 257.044 11.9758 256.904 11.6461C256.764 11.3291 256.904 10.9488 257.235 10.8093C257.566 10.6698 265.281 7.39868 272.717 8.69193C275.556 9.18641 281.578 7.9312 288.542 6.47312C298.88 4.3177 311.74 1.62977 320.104 3.58233C333.867 6.7901 341.328 12.4195 341.647 12.6604C341.927 12.876 341.978 13.269 341.761 13.548C341.634 13.7128 341.443 13.8015 341.252 13.8015V13.7762Z" fill="#DCC7B2"/>
<path d="M234.215 12.4576C233.502 12.4576 232.827 12.3815 232.191 12.204C226.092 10.5431 192.327 5.21793 185.223 5.26865C180.614 5.26865 174.808 3.87397 170.556 2.8343C168.392 2.30178 166.52 1.84534 165.794 1.84534C165.756 1.84534 165.731 1.84534 165.641 1.93409C164.776 2.87233 164.776 7.37335 165.043 10.2768C165.069 10.6318 164.814 10.9361 164.47 10.9615C164.114 10.9995 163.808 10.7333 163.783 10.3909C163.668 9.13572 163.171 2.7709 164.712 1.0846C165.018 0.754951 165.387 0.590126 165.794 0.590126C166.673 0.590126 168.43 1.02121 170.862 1.61712C175.05 2.64411 180.78 4.02612 185.21 4.01344H185.299C192.709 4.01344 226.423 9.31323 232.522 10.9868C235.692 11.849 240.555 9.78235 244.464 8.10873C248.436 6.40975 251.314 5.19257 252.702 6.46047C254.535 8.14676 253.313 11.2658 253.262 11.3926C253.135 11.7222 252.765 11.8744 252.434 11.7476C252.103 11.6208 251.95 11.2531 252.078 10.9234C252.078 10.8981 253.033 8.4891 251.849 7.39871C251.072 6.68869 247.838 8.05801 244.973 9.27519C241.434 10.784 237.513 12.4576 234.228 12.4576H234.215Z" fill="#DCC7B2"/>
<path d="M500.414 40.6556C490.406 40.6556 470.201 39.4257 467.336 39.2482C466.98 39.2229 466.713 38.9313 466.738 38.5763C466.763 38.2339 467.018 37.9677 467.413 37.9803C481.176 38.8298 503.635 39.9075 505.303 39.1468C507.403 38.1705 510.064 34.1006 511.49 29.701C511.592 29.3714 511.961 29.1812 512.292 29.2953C512.623 29.3967 512.814 29.7644 512.7 30.0941C511.134 34.9501 508.307 39.1468 505.85 40.3006C505.303 40.5542 503.278 40.6556 500.414 40.6556Z" fill="#D15B46"/>
<path d="M505.58 37.5112C505.58 37.5112 505.466 37.5112 505.415 37.4858C505.071 37.3971 504.88 37.0421 504.969 36.7124C505.58 34.4683 507.159 20.5088 507.49 16.0711C507.834 11.6082 510.125 9.27524 510.227 9.17381C510.482 8.93291 510.877 8.93291 511.131 9.17381C511.386 9.41471 511.386 9.82043 511.131 10.074C511.106 10.0994 509.069 12.2041 508.763 16.1726C508.458 20.2425 506.866 34.5697 506.191 37.0548C506.115 37.3337 505.86 37.5239 505.58 37.5239V37.5112Z" fill="#D15B46"/>
<path d="M493.51 19.355C488.876 19.355 483.962 19.1394 483.172 18.7464C481.721 18.0237 481.975 13.0155 482.255 10.0867C482.294 9.73167 482.599 9.47809 482.956 9.51613C483.299 9.55417 483.567 9.85847 483.529 10.2135C483.185 13.7889 483.3 17.1869 483.771 17.6306C485.095 18.1758 499.456 18.2519 501.404 17.7321C501.71 16.8699 502.168 15.1075 502.181 15.0822C502.27 14.7399 502.614 14.537 502.957 14.6257C503.301 14.7145 503.505 15.0568 503.416 15.3992C503.39 15.4879 502.843 17.5926 502.512 18.4041C502.385 18.721 502.092 18.8351 501.99 18.8732C501.137 19.2028 497.432 19.355 493.523 19.355H493.51Z" fill="#D15B46"/>
<path d="M128.121 19.3423C127.79 19.3423 127.498 19.0761 127.485 18.7464C127.472 18.3914 127.739 18.0998 128.083 18.0871C129.165 18.0364 154.514 16.7685 161.466 17.0728C161.823 17.0855 162.09 17.3898 162.077 17.7321C162.064 18.0871 161.746 18.3534 161.415 18.3407C154.514 18.0364 128.414 19.3423 128.147 19.355C128.147 19.355 128.121 19.355 128.109 19.355L128.121 19.3423Z" fill="#662F25"/>
<path d="M392.866 19.3423C388.817 19.1394 355.892 18.8225 355.549 18.8098C355.192 18.8098 354.912 18.5182 354.912 18.1758C354.912 17.8208 355.205 17.5292 355.549 17.5419C356.911 17.5546 388.842 17.8715 392.878 18.0744C393.235 18.0871 393.502 18.3914 393.477 18.7337C393.464 19.076 393.184 19.3296 392.84 19.3296L392.866 19.3423Z" fill="#662F25"/>
<path d="M105.941 99.9421C105.61 99.9421 105.33 99.6759 105.305 99.3462C105.165 96.8992 103.815 94.4902 101.791 93.0829C100.263 92.0178 98.4167 91.4853 96.7998 91.1049C93.3367 90.2935 89.7718 89.9131 86.2196 89.9765C85.8759 89.9511 85.583 89.7103 85.5703 89.3552C85.5703 89.0002 85.8377 88.7213 86.1942 88.7086C89.8609 88.6325 93.5277 89.0256 97.0926 89.8751C98.8241 90.2808 100.823 90.864 102.516 92.0432C104.884 93.7041 106.387 96.4047 106.565 99.2702C106.591 99.6252 106.323 99.9168 105.967 99.9421C105.967 99.9421 105.941 99.9421 105.929 99.9421H105.941Z" fill="#DCC7B2"/>
<path d="M87.123 123.69C86.9957 123.69 86.8684 123.652 86.7665 123.576C86.4737 123.373 86.41 122.98 86.601 122.688C89.2238 118.923 91.8847 115.334 95.5769 112.938C99.8421 110.174 104.973 109.705 108.653 111.759C108.958 111.924 109.073 112.317 108.894 112.621C108.729 112.925 108.334 113.04 108.029 112.862C104.757 111.036 100.135 111.48 96.2644 114.003C92.7632 116.273 90.1914 119.747 87.645 123.411C87.5177 123.588 87.3267 123.69 87.123 123.69Z" fill="#DCC7B2"/>
<path d="M97.6795 116.907C97.3994 116.907 97.1575 116.729 97.0684 116.45C96.9665 116.121 97.1575 115.766 97.5013 115.664C99.8821 114.954 102.454 114.713 104.924 114.992C105.268 115.03 105.522 115.347 105.484 115.689C105.446 116.032 105.128 116.285 104.784 116.247C102.479 115.994 100.086 116.209 97.8705 116.881C97.8068 116.894 97.7432 116.907 97.6922 116.907H97.6795Z" fill="#DCC7B2"/>
<path d="M116.152 79.8207C115.821 79.8207 115.528 79.5545 115.515 79.2248C115.261 74.1659 115.681 69.0944 116.789 64.1623C116.865 63.8199 117.196 63.6044 117.552 63.6805C117.896 63.7565 118.113 64.0989 118.036 64.4412C116.954 69.2719 116.547 74.2293 116.801 79.1741C116.814 79.5291 116.547 79.8207 116.203 79.8334C116.203 79.8334 116.177 79.8334 116.165 79.8334L116.152 79.8207Z" fill="#DCC7B2"/>
<path d="M85.4432 96.3794C85.1758 96.3794 84.9339 96.2145 84.8448 95.961C84.7302 95.6313 84.8957 95.2636 85.2268 95.1495C87.2384 94.4395 89.3264 94.0718 91.4654 94.0718C91.8218 94.0718 92.1019 94.3507 92.1019 94.7058C92.1019 95.0608 91.8218 95.3397 91.4654 95.3397C89.4792 95.3397 87.5185 95.682 85.6596 96.3413C85.5832 96.3667 85.5196 96.3794 85.4432 96.3794Z" fill="#DCC7B2"/>
<path d="M31.4083 56.6817C30.9245 56.986 30.6444 57.4805 30.6316 58.013C30.568 60.7136 31.0391 69.0057 39.2765 70.2228C48.749 71.6175 52.3649 64.53 51.4991 56.9987C51.4354 56.4028 51.0026 55.883 50.4042 55.6421C47.5904 54.5136 39.0983 51.8384 31.4083 56.6817Z" fill="#FAF4ED"/>
<path d="M51.7294 66.5713C50.5453 66.5713 49.5777 66.3304 49.3867 66.2797L50.0488 63.8326C50.6599 63.9975 52.5951 64.3018 53.4736 63.6044C53.601 63.503 53.9956 63.1987 53.9829 62.159C53.9702 61.2461 53.741 60.6122 53.2954 60.2699C52.6206 59.75 51.4493 59.8768 51.1692 59.9402L50.5835 57.4678C50.8381 57.4044 53.1299 56.9226 54.8487 58.2539C55.5871 58.8245 56.4783 59.9656 56.5165 62.0956C56.5547 63.9975 55.7272 65.0371 55.0269 65.5823C54.0466 66.3431 52.7988 66.5459 51.7166 66.5459L51.7294 66.5713Z" fill="#FAF4ED"/>
<path d="M247.913 97.1021C247.824 97.1021 247.722 97.0767 247.633 97.0387C247.315 96.8865 247.188 96.5062 247.341 96.1892C247.404 96.0751 253.108 84.3978 251.835 79.6179C250.511 74.6731 245.698 70.8948 243.686 70.7933C241.879 70.7046 240.402 71.1356 240.172 71.5921C240.083 71.7569 240.236 72.0105 240.376 72.2007L240.822 72.7839C242.617 75.1295 244.871 78.0457 243.394 79.4784C242.948 79.9221 242.388 80.0489 241.815 79.8461C240.427 79.3643 239.409 77.0821 239.23 75.7001C239.167 75.1802 238.988 75.0027 238.938 74.99C238.861 75.0154 238.568 75.3831 238.505 76.3087C238.416 77.7287 238.848 78.6796 239.447 79.9855C239.765 80.6702 240.122 81.4436 240.453 82.4072L240.656 82.9905C241.688 85.8432 242.592 88.2902 236.506 96.3033C236.289 96.5823 235.895 96.633 235.614 96.4301C235.334 96.2146 235.283 95.8215 235.487 95.5426C241.153 88.0747 240.402 86.0207 239.46 83.4215L239.243 82.8256C238.925 81.9254 238.581 81.1774 238.288 80.5181C237.652 79.1487 237.117 77.9696 237.231 76.2326C237.359 74.4195 238.212 73.7602 238.912 73.7348C239.625 73.7602 240.325 74.28 240.478 75.5606C240.631 76.8031 241.548 78.4387 242.21 78.6669C242.299 78.6923 242.362 78.705 242.477 78.5909C243.152 77.9316 240.618 74.6477 239.791 73.57L239.332 72.9741C238.683 72.1119 238.81 71.4273 239.027 71.0215C239.676 69.8044 241.968 69.4747 243.737 69.5508C246.411 69.6776 251.606 73.925 253.057 79.3136C254.458 84.55 248.728 96.278 248.474 96.7724C248.359 97.0007 248.143 97.1274 247.901 97.1274L247.913 97.1021Z" fill="#D67B5C"/>
<path d="M315.493 94.1986C315.493 94.1986 305.524 136.534 285.624 131.284C266.412 126.213 260.594 98.3193 251.147 79.453C248.74 74.635 239.535 72.3275 241.649 70.7426C243.775 69.1577 254.164 70.6665 257.131 74.242C260.11 77.8174 255.437 72.543 255.017 70.844C254.597 69.1577 259.117 71.2498 260.746 75.7001C264.884 87.0604 277.298 105.901 288.12 109.071C291.952 110.187 294.167 86.8955 294.804 84.0428C295.441 81.19 317.721 80.8731 315.493 94.1859V94.1986Z" fill="#E8A48D"/>
<path d="M259.069 98.4841C258.814 98.4841 258.572 98.332 258.47 98.0784C255.746 90.9148 251.162 79.7954 249.736 78.4641C248.769 77.5639 246.782 76.258 245.038 75.1042C242.403 73.3545 241.295 72.5937 240.989 72.0486C240.709 71.5541 240.735 71.0216 241.066 70.5905C242.021 69.3226 245.637 69.1704 248.412 69.8044C250.004 70.1721 251.913 70.9074 253.518 71.5921C253.428 71.4146 253.378 71.2371 253.378 71.0723C253.352 70.4764 253.734 69.9439 254.358 69.7156C255.084 69.4494 257.108 69.2719 260.278 73.3798C261.793 75.3451 261.933 76.2199 262.112 77.323C262.417 79.2248 262.875 82.1029 272.246 94.8453C272.45 95.1242 272.399 95.5299 272.106 95.7328C271.826 95.9356 271.419 95.8722 271.215 95.5933C261.666 82.5974 261.169 79.5418 260.851 77.5258C260.698 76.5242 260.584 75.8649 259.272 74.1659C256.522 70.6032 255.02 70.8567 254.854 70.9074C254.714 70.9455 254.651 71.0089 254.651 71.0342C254.702 71.3893 255.835 72.4543 257.032 73.2657L256.382 74.3561C256.382 74.3561 251.404 71.8203 248.119 71.0723C245.051 70.3623 242.25 70.9455 242.059 71.4019C242.339 71.833 244.3 73.1263 245.726 74.0772C247.597 75.3197 249.533 76.6003 250.589 77.5639C252.703 79.5164 258.954 95.8089 259.654 97.66C259.782 97.9896 259.616 98.3573 259.285 98.4714C259.209 98.4968 259.132 98.5095 259.056 98.5095L259.069 98.4841Z" fill="#D67B5C"/>
<path d="M293.443 91.5614C293.443 91.5614 293.354 91.5614 293.316 91.5614C292.972 91.498 292.743 91.1557 292.819 90.8134C293.596 86.9209 294.169 82.9398 294.513 78.9839C294.538 78.6416 294.857 78.3754 295.2 78.4134C295.557 78.4387 295.811 78.7557 295.786 79.0981C295.442 83.0919 294.857 87.1238 294.08 91.0543C294.016 91.3586 293.749 91.5614 293.456 91.5614H293.443Z" fill="#D67B5C"/>
<path d="M261.332 77.2596C260.963 77.2596 260.683 76.9553 260.696 76.6003C260.823 72.6191 260.25 70.6539 260.25 70.6412C260.148 70.3116 260.339 69.9565 260.683 69.8551C261.014 69.7537 261.37 69.9439 261.472 70.2862C261.498 70.3749 262.109 72.4416 261.969 76.651C261.969 76.9934 261.676 77.2596 261.332 77.2596Z" fill="#D67B5C"/>
<path d="M480.997 150.252C480.475 150.252 479.928 150.151 479.508 149.872C479.126 149.618 478.897 149.251 478.833 148.819C478.795 148.553 478.986 148.325 479.24 148.287C479.508 148.249 479.737 148.439 479.775 148.693C479.801 148.857 479.877 148.984 480.03 149.086C480.412 149.339 481.201 149.377 481.901 149.187C485.734 148.135 489.171 145.815 491.59 142.67C492.736 141.174 493.385 139.805 493.551 138.486C493.755 136.889 493.195 135.342 492.1 134.53C491.896 134.378 491.845 134.074 492.01 133.858C492.176 133.655 492.469 133.605 492.685 133.77C494.035 134.784 494.748 136.686 494.506 138.613C494.315 140.096 493.615 141.618 492.354 143.253C489.808 146.563 486.192 148.997 482.156 150.113C481.825 150.201 481.405 150.265 480.985 150.265L480.997 150.252Z" fill="#1A0A1B"/>
<path d="M528.907 141.643C528.652 141.643 528.436 141.44 528.436 141.187C528.283 136.889 530.333 132.616 533.783 130.017C533.987 129.864 534.292 129.903 534.445 130.105C534.598 130.321 534.56 130.613 534.356 130.777C531.16 133.186 529.251 137.155 529.391 141.149C529.391 141.415 529.187 141.631 528.932 141.643H528.92H528.907Z" fill="#1A0A1B"/>
<path d="M41.6848 71.0342C34.0839 71.0342 31.9068 66.2289 31.8177 66.0261C31.6776 65.7091 31.8177 65.3287 32.1487 65.1893C32.467 65.0498 32.8489 65.1892 32.989 65.5189C33.0654 65.6964 34.9752 69.7663 41.6976 69.7663C45.9245 69.7663 48.5855 66.7868 48.6109 66.7614C48.8401 66.4952 49.2475 66.4698 49.5149 66.698C49.7823 66.9263 49.8077 67.332 49.5786 67.5856C49.4512 67.725 46.5229 71.0216 41.6976 71.0216L41.6848 71.0342Z" fill="#FFE3D1"/>
<path d="M42.2183 61.5758C34.6301 61.9815 32.262 58.5582 32.1601 58.4187C32.0074 58.1905 32.1347 57.9116 32.453 57.7848C32.7713 57.6707 33.1532 57.7594 33.306 57.975C33.3951 58.1018 35.4577 60.9926 42.1674 60.6376C46.3943 60.4093 48.928 58.0891 48.9534 58.0637C49.1699 57.8609 49.5773 57.8228 49.8446 57.975C50.112 58.1271 50.1629 58.4188 49.9465 58.6216C49.8319 58.7357 47.0309 61.3095 42.2183 61.5631V61.5758Z" fill="#FFE3D1"/>
<path d="M24.2796 79.1488C20.9057 79.1488 18.1556 78.4134 17.8882 76.6891C17.5063 74.2674 22.3826 72.2261 27.3862 71.44C32.3898 70.6666 37.6608 71.1357 38.03 73.5574C38.1573 74.3435 37.7754 75.548 35.2545 76.8032C33.4975 77.6907 31.1166 78.3881 28.532 78.7938C27.0934 79.022 25.6292 79.1361 24.2796 79.1361V79.1488ZM31.6132 72.3656C30.4291 72.3656 29.0668 72.467 27.5772 72.6952C22.1916 73.532 18.9832 75.4973 19.1487 76.4862C19.3015 77.4752 22.9682 78.3881 28.3411 77.5386C30.7983 77.1582 33.0518 76.4862 34.6943 75.6621C36.2221 74.8887 36.8459 74.1406 36.7823 73.7349C36.6677 73.0249 34.7197 72.3529 31.6132 72.3529V72.3656Z" fill="#FFE3D1"/>
<path d="M375.869 3.49363C375.869 3.49363 375.792 3.49363 375.754 3.49363C375.411 3.43023 375.181 3.10058 375.245 2.75825C376.276 -2.70636 376.085 -9.81924 376.085 -9.89531C376.085 -10.2503 376.353 -10.5419 376.709 -10.5419C377.066 -10.5419 377.358 -10.2757 377.358 -9.92067C377.358 -9.62906 377.562 -2.60493 376.493 2.99915C376.442 3.30345 376.174 3.51899 375.869 3.51899V3.49363Z" fill="#FFE3D1"/>
<path d="M341.25 0.526754C341.186 0.526754 341.123 0.526752 341.046 0.501396C340.715 0.387285 340.524 0.0322742 340.639 -0.297379C342.052 -4.59553 342.434 -15.1064 342.447 -15.2078C342.447 -15.5628 342.778 -15.8164 343.109 -15.8164C343.465 -15.8164 343.733 -15.5121 343.72 -15.1571C343.707 -14.7133 343.325 -4.36731 341.848 0.108347C341.759 0.374605 341.517 0.539431 341.237 0.539431L341.25 0.526754Z" fill="#FFE3D1"/>
<path d="M406.03 144.471C401.574 144.471 397.843 142.455 396.85 139.133C395.526 134.708 399.537 129.611 405.788 127.76C412.039 125.909 418.189 128.013 419.513 132.426C420.162 134.606 419.564 137.003 417.82 139.171C416.126 141.275 413.555 142.911 410.575 143.799C409.035 144.255 407.494 144.471 406.043 144.471H406.03ZM410.372 128.343C409.022 128.343 407.596 128.546 406.145 128.977C400.568 130.625 396.952 135.012 398.06 138.765C399.18 142.518 404.63 144.23 410.193 142.581C412.931 141.77 415.286 140.274 416.814 138.385C418.291 136.559 418.813 134.568 418.278 132.793C417.45 130.004 414.242 128.343 410.359 128.343H410.372Z" fill="#FFE3D1"/>
<path d="M399.832 134.53C398.928 134.277 398.291 132.476 398.992 131.855C403.231 128.115 413.06 121.116 417.007 123.411C422.176 126.416 423.602 138.93 421.183 140.198C418.764 141.466 402.722 141.073 402.429 140.832C402.187 140.629 403.384 135.545 399.832 134.518V134.53Z" fill="#CFAA86"/>
<path d="M399.372 132.654C398.939 132.654 398.697 132.172 398.99 131.868C402.045 128.647 412.613 118.022 417.005 120.571C422.174 123.576 423.6 136.09 421.181 137.358C418.762 138.626 402.72 138.233 402.427 137.992C402.147 137.776 404.439 132.54 399.372 132.654Z" fill="#DCC7B2"/>
<path d="M466.633 15.4498C466.328 15.4245 466.137 15.1836 466.162 14.93C467.856 -1.59063 471.955 -17.7436 478.359 -33.0851C478.461 -33.326 478.741 -33.4401 478.983 -33.3387C479.225 -33.2372 479.34 -32.9583 479.238 -32.7174C472.872 -17.4646 468.785 -1.40045 467.105 15.0314C467.079 15.2723 466.875 15.4625 466.633 15.4625V15.4498Z" fill="#1A0A1B"/>
<path d="M446.211 19.076C446.084 19.076 445.957 19.0253 445.855 18.9239C444.582 17.5545 444.314 15.602 444.225 13.8776C444.072 10.8981 444.263 7.90587 444.772 4.98971C444.823 4.73614 445.065 4.55863 445.32 4.60935C445.575 4.66006 445.753 4.90096 445.702 5.15454C445.205 8.0073 445.014 10.9235 445.167 13.8269C445.244 15.3864 445.473 17.1361 446.542 18.2772C446.72 18.4674 446.708 18.7717 446.517 18.9492C446.428 19.038 446.313 19.076 446.198 19.076H446.211Z" fill="#1A0A1B"/>
<path d="M254.827 33.5934C254.827 33.5934 254.764 33.5934 254.725 33.5934C254.433 33.5173 254.267 33.2637 254.203 33.0609C253.707 31.5394 253.796 29.7263 254.458 27.685C255.566 24.2744 257.807 21.2821 260.799 19.2662C261.015 19.1267 261.321 19.1774 261.461 19.393C261.613 19.6085 261.55 19.9001 261.333 20.0523C258.532 21.9415 256.406 24.7562 255.375 27.9766C254.789 29.7643 254.7 31.3365 255.082 32.6551C255.158 32.6805 255.235 32.7185 255.286 32.7819C255.477 32.9721 255.464 33.2764 255.286 33.4539C255.184 33.5427 254.993 33.6187 254.84 33.6187L254.827 33.5934Z" fill="#1A0A1B"/>
<path d="M84.7298 22.0809C73.0293 21.9922 61.5706 18.721 51.6016 12.6098C51.3724 12.4703 51.3088 12.1787 51.4488 11.9505C51.5889 11.7222 51.8817 11.6588 52.1109 11.7983C61.9271 17.8081 73.2203 21.0413 84.7425 21.13C85.0099 21.13 85.2136 21.3455 85.2136 21.6118C85.2136 21.8781 84.9972 22.0809 84.7298 22.0809Z" fill="#1A0A1B"/>
<path d="M87.7225 14.8412C87.5442 14.8412 87.3787 14.7398 87.2896 14.5749C83.6865 7.43671 81.6239 -0.551016 81.3184 -8.53874C81.3184 -8.805 81.5093 -9.02054 81.7767 -9.03322C82.0568 -9.05858 82.2605 -8.84303 82.2732 -8.57678C82.5788 -0.728521 84.6032 7.13241 88.1426 14.1439C88.2572 14.3848 88.1681 14.6637 87.9262 14.7778C87.8625 14.8158 87.7861 14.8285 87.7097 14.8285L87.7225 14.8412Z" fill="#1A0A1B"/>
<path d="M483.21 35.6347C483.401 35.6347 483.579 35.5079 483.617 35.3431C483.796 34.4175 484.279 31.8817 484.203 31.8817C484.114 31.8817 479.989 31.5141 479.951 31.6535C479.925 31.7676 479.187 34.1386 478.919 35.0388C478.868 35.2163 478.97 35.3684 479.161 35.3811L483.21 35.6347Z" fill="#FFE3D1"/>
<path d="M489.157 36.0151C489.348 36.0151 489.526 35.8883 489.552 35.7108C489.679 34.7725 490.048 32.186 489.972 32.186C489.87 32.186 485.605 31.8183 485.579 31.9578C485.554 32.0719 484.93 34.4936 484.701 35.4065C484.65 35.584 484.777 35.7488 484.968 35.7615L489.157 36.0278V36.0151Z" fill="#FFE3D1"/>
<path d="M495.318 36.4081C495.522 36.4208 495.7 36.2813 495.713 36.1038C495.802 35.1402 496.019 32.503 495.942 32.503C495.84 32.503 491.422 32.1226 491.397 32.2621C491.384 32.3762 490.875 34.8486 490.684 35.7742C490.646 35.9517 490.786 36.1165 490.977 36.1292L495.318 36.4081Z" fill="#FFE3D1"/>
<path d="M484.279 30.7152C484.457 30.7152 484.635 30.6011 484.661 30.4363C484.826 29.5995 485.272 27.2666 485.196 27.2666C485.106 27.2666 481.134 26.975 481.109 27.1018C481.083 27.2032 480.408 29.3966 480.154 30.2081C480.103 30.3729 480.205 30.5124 480.383 30.5251L484.279 30.7152Z" fill="#FFE3D1"/>
<path d="M489.983 30.9942C490.161 30.9942 490.339 30.8801 490.364 30.7153C490.492 29.8531 490.81 27.4821 490.734 27.4821C490.645 27.4821 486.545 27.1905 486.519 27.3173C486.494 27.4187 485.921 29.6502 485.705 30.4744C485.666 30.6392 485.781 30.7786 485.959 30.7913L489.983 30.9942Z" fill="#FFE3D1"/>
<path d="M495.89 31.2859C496.081 31.2859 496.246 31.1717 496.259 30.9942C496.335 30.1194 496.539 27.7104 496.463 27.6977C496.361 27.6977 492.134 27.3934 492.108 27.5329C492.096 27.647 491.624 29.9038 491.446 30.7533C491.408 30.9182 491.535 31.0703 491.726 31.083L495.877 31.2859H495.89Z" fill="#FFE3D1"/>
<path d="M485.26 26.1889C485.425 26.1889 485.591 26.0748 485.629 25.9353C485.782 25.1619 486.189 23.0192 486.113 23.0192C486.024 23.0192 482.204 22.7909 482.179 22.9177C482.153 23.0192 481.53 25.0351 481.288 25.7832C481.237 25.9353 481.351 26.0621 481.517 26.0621L485.26 26.2016V26.1889Z" fill="#FFE3D1"/>
<path d="M490.748 26.3917C490.926 26.3917 491.091 26.2776 491.104 26.1255C491.219 25.3394 491.512 23.1586 491.435 23.1586C491.346 23.1586 487.399 22.9304 487.374 23.0445C487.348 23.1459 486.814 25.1872 486.623 25.9606C486.584 26.1128 486.699 26.2396 486.877 26.2523L490.735 26.3917H490.748Z" fill="#FFE3D1"/>
<path d="M496.413 26.5946C496.591 26.5946 496.756 26.4805 496.769 26.3284C496.833 25.5296 497.024 23.3108 496.947 23.3108C496.858 23.3108 492.784 23.0699 492.759 23.1967C492.746 23.2981 492.313 25.3775 492.147 26.1636C492.109 26.3157 492.237 26.4552 492.428 26.4552L496.413 26.5946Z" fill="#FFE3D1"/>
</svg>
