<svg width="84" height="84" viewBox="0 0 84 84" fill="none" xmlns="http://www.w3.org/2000/svg">
<path d="M48.4869 68.325C47.6234 69.9805 44.7957 70.316 43.5876 71.721C42.3751 73.1259 42.4601 75.9715 40.9568 77.0677C39.4624 78.1549 36.7868 77.2108 35.0597 77.9357C33.3684 78.6471 32.1783 81.2332 30.317 81.5464C28.5228 81.8462 26.5541 79.8014 24.6526 79.6806C22.2633 79.5285 19.5117 81.1079 17.3551 80.2936C15.1448 79.4614 14.1202 76.4368 12.2679 75.0229C10.4021 73.6001 7.2209 73.4077 5.83388 71.5151C4.45581 69.6359 5.23433 66.5532 4.44239 64.325C3.67282 62.155 1.10907 60.2534 1.00169 57.8597C0.9301 56.3027 3.15827 54.8843 3.37304 53.4034C3.59228 51.8732 1.86969 49.8776 2.36633 48.4548C2.87192 47.0052 5.46699 46.513 6.22761 45.202C6.99719 43.8777 6.13814 41.3855 7.1359 40.2356C8.13813 39.0857 10.0799 40.0924 12.2097 36.7949" stroke="#1A0A1B" stroke-miterlimit="10" stroke-linecap="round"/>
<path d="M32.0529 27.3362H13.0373V34.24C13.0373 35.1706 12.7376 36.0565 12.2096 36.7992" stroke="#1A0A1B" stroke-miterlimit="10" stroke-linecap="round"/>
<path d="M25.807 42.8124C25.8696 42.8124 22.6437 40.9511 21.1851 41.4254C19.6728 41.9176 19.2343 44.5439 17.977 45.4567C16.7063 46.3829 14.0755 45.9936 13.1493 47.2643C12.2321 48.5216 13.4088 50.8974 12.9166 52.4097C12.4424 53.8683 10.08 55.0942 10.08 56.7094C10.08 58.3246 12.4424 59.5506 12.9166 61.0092C13.4088 62.5215 12.2321 64.8973 13.1493 66.1591C14.0755 67.4297 16.7063 67.0405 17.977 67.9667C19.2343 68.8839 19.6728 71.5103 21.1851 71.998C22.6437 72.4722 24.5363 70.6199 26.1515 70.6199C27.3506 70.6199 28.7644 72.6109 29.883 72.347C31.0374 72.074 31.3998 69.649 32.4333 69.1255C33.4848 68.593 35.6503 69.7295 36.5407 68.9734C37.4356 68.2172 36.6705 65.8906 37.364 64.9465C38.053 64.007 40.5049 64.0517 40.9613 62.9645" stroke="#1A0A1B" stroke-miterlimit="10" stroke-linecap="round"/>
<path d="M12.2052 36.7949H29.3058" stroke="#1A0A1B" stroke-miterlimit="10" stroke-linecap="round"/>
<path d="M36.6839 30.6694C36.6794 33.251 34.0978 34.562 33.7354 36.043C33.3685 37.5195 35.2701 39.3494 35.1895 40.8796C35.109 42.3919 33.024 44.0116 33.2343 45.5329C33.4401 47.0273 35.883 48.0161 36.3841 49.4792C36.8674 50.8975 35.5296 53.1749 36.3036 54.5261C37.4893 56.6066 40.6347 57.1346 42.3125 58.714C44.0306 60.3382 44.7421 63.4343 46.8226 64.4813C48.9165 65.5372 51.8382 64.2576 54.1469 64.6737C56.4422 65.0898 58.7286 67.3135 61.0776 67.0496C63.3684 66.7901 65.0954 64.1323 67.2968 63.1793C69.7889 62.0966 73.158 62.4456 75.0551 60.7319C77.0327 58.9422 77.0014 55.5328 78.2676 53.2599C79.5473 50.9557 82.4511 49.1794 82.9298 46.5977C83.4041 44.034 81.3325 41.345 80.9522 38.7141C80.5808 36.1727 81.8247 33.0005 80.5943 30.5933C79.8784 29.1929 77.2296 29.0497 76.2945 27.8551C75.3325 26.6247 75.8157 24.0251 74.6614 23.0274C73.4847 22.0117 70.9791 22.8752 69.6457 22.1146C68.3035 21.345 67.7755 18.75 66.3169 18.2533C64.8583 17.7567 63.0015 18.4189 61.4713 18.2041" fill="#D7D7FF"/>
<path d="M36.6839 30.6694C36.6794 33.2511 34.0978 34.562 33.7354 36.043C33.3685 37.5195 35.2701 39.3494 35.1895 40.8796C35.109 42.3919 33.024 44.0116 33.2343 45.5329C33.4401 47.0273 35.883 48.0161 36.3841 49.4792C36.8674 50.8975 35.5296 53.1749 36.3036 54.5261C37.4893 56.6066 40.6347 57.1346 42.3125 58.714C44.0306 60.3382 44.7421 63.4343 46.8226 64.4813C48.9165 65.5372 51.8382 64.2576 54.1469 64.6737C56.4422 65.0898 58.7286 67.3136 61.0776 67.0496C63.3684 66.7901 65.0954 64.1323 67.2968 63.1793C69.7889 62.0966 73.158 62.4456 75.0551 60.7319C77.0327 58.9422 77.0014 55.5328 78.2676 53.2599C79.5473 50.9557 82.4511 49.1794 82.9298 46.5977C83.4041 44.034 81.3325 41.345 80.9522 38.7141C80.5808 36.1727 81.8247 33.0005 80.5943 30.5933C79.8784 29.1929 77.2296 29.0497 76.2945 27.8551C75.3325 26.6247 75.8157 24.0251 74.6614 23.0274C73.4847 22.0117 70.9791 22.8752 69.6457 22.1146C68.3035 21.345 67.7755 18.75 66.3169 18.2533C64.8583 17.7567 63.0015 18.4189 61.4713 18.2041" stroke="#1A0A1B" stroke-miterlimit="10" stroke-linecap="round"/>
<path d="M36.6837 30.6694C36.8134 29.77 36.6792 28.8439 36.2542 28.0117L33.1088 21.864L57.0639 9.61353L61.4532 18.1951C60.4151 20.8618 58.3793 22.9289 56.2004 24.7052C53.838 26.6336 51.4845 28.5843 49.0326 30.4009C47.8917 31.2465 46.7373 32.0698 45.6367 32.9602C45.0148 33.4658 44.2049 34.0385 43.8335 34.7723C43.1221 36.1772 44.6657 38.3382 44.4197 39.8908C44.1781 41.4299 42.0394 43.0138 42.2899 44.5843C42.5316 46.1011 45.0416 46.9377 45.7799 48.3784C46.5181 49.8192 45.7306 52.3471 46.8134 53.4299C47.9409 54.5529 50.4778 53.7476 51.8648 54.45C53.2697 55.1614 54.1199 57.6804 55.6724 57.922C57.2116 58.1637 58.791 56.0339 60.3614 55.7833C61.8782 55.5417 64.0438 57.0898 65.4845 56.3516C66.9252 55.6133 66.9386 52.9511 68.0214 51.8684C69.1444 50.7408 71.7932 50.7096 72.5001 49.3181C73.2115 47.9131 71.6679 45.7521 71.914 44.1995C72.1556 42.6604 74.2943 41.0765 74.0437 39.506C73.8021 37.9892 71.2921 37.1525 70.5538 35.7118C70.1914 35.0049 71.6231 33.2152 71.1713 32.5933C70.7104 31.9535 68.5628 32.7588 68.0169 32.213C67.4621 31.6582 68.2719 29.515 67.6455 29.0586C67.0147 28.5978 65.2205 30.0251 64.527 29.6716C63.8335 29.3137 63.9453 27.0273 63.2071 26.7812" fill="#D7D7FF"/>
<path d="M36.6837 30.6694C36.8134 29.77 36.6792 28.8439 36.2542 28.0117L33.1088 21.864L57.0639 9.61353L61.4532 18.1951C60.4151 20.8618 58.3793 22.9289 56.2004 24.7052C53.838 26.6336 51.4845 28.5843 49.0326 30.4009C47.8917 31.2465 46.7373 32.0698 45.6367 32.9602C45.0148 33.4658 44.2049 34.0385 43.8335 34.7723C43.1221 36.1772 44.6657 38.3382 44.4197 39.8908C44.1781 41.4299 42.0394 43.0138 42.2899 44.5843C42.5316 46.1011 45.0416 46.9377 45.7799 48.3784C46.5181 49.8192 45.7306 52.3471 46.8134 53.4299C47.9409 54.5529 50.4778 53.7476 51.8648 54.45C53.2697 55.1614 54.1199 57.6804 55.6724 57.922C57.2116 58.1637 58.791 56.0339 60.3614 55.7833C61.8782 55.5417 64.0438 57.0898 65.4845 56.3516C66.9252 55.6133 66.9386 52.9511 68.0214 51.8684C69.1444 50.7408 71.7932 50.7096 72.5001 49.3181C73.2115 47.9131 71.6679 45.7521 71.914 44.1995C72.1556 42.6604 74.2943 41.0765 74.0437 39.506C73.8021 37.9892 71.2921 37.1525 70.5538 35.7118C70.1914 35.0049 71.6232 33.2152 71.1713 32.5933C70.7104 31.9535 68.5628 32.7588 68.0169 32.213C67.4621 31.6582 68.2719 29.515 67.6455 29.0586C67.0147 28.5978 65.2205 30.0251 64.527 29.6716C63.8335 29.3136 63.9453 27.0273 63.2071 26.7812" stroke="#1A0A1B" stroke-miterlimit="10" stroke-linecap="round"/>
<path d="M36.6794 30.6695L44.5362 26.6516" stroke="#1A0A1B" stroke-miterlimit="10" stroke-linecap="round"/>
<path d="M52.9703 22.3385C51.6862 22.9962 50.1157 22.4862 49.458 21.2021C48.8002 19.918 49.3103 18.3475 50.5944 17.6898C51.8786 17.0321 53.449 17.5421 54.1067 18.8262" stroke="#1A0A1B" stroke-miterlimit="10" stroke-linecap="round"/>
<path d="M21.1627 27.3362V15.3138C21.1627 8.76801 26.2768 3.21546 32.8226 3.00517C33.0284 3.00069 33.2343 2.99622 33.4356 3.00517C37.0776 3.07228 40.4557 4.92015 42.666 7.81947L47.6906 14.4145" stroke="#1A0A1B" stroke-miterlimit="10" stroke-linecap="round"/>
<path d="M40.6078 12.504L39.1045 10.5309C37.6772 8.66064 35.5295 7.5197 33.3551 7.47943C33.3103 7.47943 33.2611 7.47943 33.2164 7.47943C33.1313 7.47943 33.0463 7.47943 32.9613 7.47943C28.9211 7.60918 25.637 11.1215 25.637 15.3139V21.9313" stroke="#1A0A1B" stroke-miterlimit="10" stroke-linecap="round"/>
</svg>
