<svg width="84" height="84" viewBox="0 0 84 84" fill="none" xmlns="http://www.w3.org/2000/svg">
<path d="M75.2989 76.0085V22.2103C75.2989 18.4931 73.7908 15.1356 71.3557 12.6959C69.7139 11.054 67.6524 9.83644 65.3418 9.22306V4.50506C65.3418 3.53655 64.9543 2.66029 64.3133 2.02845C63.6814 1.39201 62.8052 1 61.8367 1C59.9043 1 58.3316 2.56805 58.3316 4.50506V9.22306C52.5944 10.7542 48.3791 15.9934 48.3791 22.2103V76.0085" fill="#FFDBC4"/>
<path d="M75.2989 76.0085V22.2103C75.2989 18.4931 73.7908 15.1356 71.3557 12.6959C69.7139 11.054 67.6524 9.83644 65.3418 9.22306V4.50506C65.3418 3.53655 64.9543 2.66029 64.3133 2.02845C63.6814 1.39201 62.8052 1 61.8367 1C59.9043 1 58.3316 2.56805 58.3316 4.50506V9.22306C52.5944 10.7542 48.3791 15.9934 48.3791 22.2103V76.0085" stroke="#1A0A1B" stroke-miterlimit="10" stroke-linecap="round"/>
<path d="M48.1899 76.0083H75.4879C77.4203 76.0083 78.9837 77.5763 78.9837 79.5041C78.9837 81.4365 77.4157 83 75.4879 83H48.1899C46.2575 83 44.694 81.4319 44.694 79.5041C44.694 77.5717 46.2621 76.0083 48.1899 76.0083Z" fill="#FFDBC4" stroke="#1A0A1B" stroke-miterlimit="10" stroke-linecap="round"/>
<path d="M56.6574 20.7668C56.6574 21.6754 55.9195 22.4133 55.0109 22.4133C54.1024 22.4133 53.3644 21.6754 53.3644 20.7668" stroke="#1A0A1B" stroke-miterlimit="10" stroke-linecap="round"/>
<path d="M69.8798 20.7668C69.8798 21.6754 69.1418 22.4133 68.2333 22.4133C67.3247 22.4133 66.5869 21.6754 66.5869 20.7668" stroke="#1A0A1B" stroke-miterlimit="10" stroke-linecap="round"/>
<path d="M56.6574 34.026C56.6574 34.9346 55.9195 35.6725 55.0109 35.6725C54.1024 35.6725 53.3644 34.9346 53.3644 34.026" stroke="#1A0A1B" stroke-miterlimit="10" stroke-linecap="round"/>
<path d="M69.8798 34.026C69.8798 34.9346 69.1418 35.6725 68.2333 35.6725C67.3247 35.6725 66.5869 34.9346 66.5869 34.026" stroke="#1A0A1B" stroke-miterlimit="10" stroke-linecap="round"/>
<path d="M56.6574 47.3914C56.6574 48.2999 55.9195 49.0378 55.0109 49.0378C54.1024 49.0378 53.3644 48.2999 53.3644 47.3914" stroke="#1A0A1B" stroke-miterlimit="10" stroke-linecap="round"/>
<path d="M69.8798 47.3914C69.8798 48.2999 69.1418 49.0378 68.2333 49.0378C67.3247 49.0378 66.5869 48.2999 66.5869 47.3914" stroke="#1A0A1B" stroke-miterlimit="10" stroke-linecap="round"/>
<path d="M56.6574 61.4761C56.6574 62.3846 55.9195 63.1225 55.0109 63.1225C54.1024 63.1225 53.3644 62.3846 53.3644 61.4761" stroke="#1A0A1B" stroke-miterlimit="10" stroke-linecap="round"/>
<path d="M69.8798 61.4761C69.8798 62.3846 69.1418 63.1225 68.2333 63.1225C67.3247 63.1225 66.5869 62.3846 66.5869 61.4761" stroke="#1A0A1B" stroke-miterlimit="10" stroke-linecap="round"/>
<path d="M63.5015 27.4308C63.5015 28.3393 62.7636 29.0772 61.8551 29.0772C60.9465 29.0772 60.2086 28.3393 60.2086 27.4308" stroke="#1A0A1B" stroke-miterlimit="10" stroke-linecap="round"/>
<path d="M63.5015 40.9395C63.5015 41.848 62.7636 42.5859 61.8551 42.5859C60.9465 42.5859 60.2086 41.848 60.2086 40.9395" stroke="#1A0A1B" stroke-miterlimit="10" stroke-linecap="round"/>
<path d="M63.5015 54.4521C63.5015 55.3607 62.7636 56.0986 61.8551 56.0986C60.9465 56.0986 60.2086 55.3607 60.2086 54.4521" stroke="#1A0A1B" stroke-miterlimit="10" stroke-linecap="round"/>
<path d="M63.5015 67.9653C63.5015 68.8739 62.7636 69.6118 61.8551 69.6118C60.9465 69.6118 60.2086 68.8739 60.2086 67.9653" stroke="#1A0A1B" stroke-miterlimit="10" stroke-linecap="round"/>
<path d="M58.3362 9.2276H61.6891" stroke="#1A0A1B" stroke-miterlimit="10" stroke-linecap="round"/>
<path d="M9.49582 76.0083H36.7939C38.7263 76.0083 40.2897 77.5763 40.2897 79.5041C40.2897 81.4365 38.7217 83 36.7939 83H9.49582C7.56342 83 6 81.4319 6 79.5041C6 77.5717 7.56804 76.0083 9.49582 76.0083Z" stroke="#1A0A1B" stroke-miterlimit="10" stroke-linecap="round"/>
<path d="M9.68494 34.5053V34.4551" stroke="#1A0A1B" stroke-miterlimit="10" stroke-linecap="round"/>
<path d="M9.68494 44.647V44.5502" stroke="#1A0A1B" stroke-miterlimit="10" stroke-linecap="round"/>
<path d="M9.68494 54.7798V54.683" stroke="#1A0A1B" stroke-miterlimit="10" stroke-linecap="round"/>
<path d="M9.68494 76.0083V64.8243" stroke="#1A0A1B" stroke-miterlimit="10" stroke-linecap="round"/>
<path d="M9.68494 59.8527V59.7559" stroke="#1A0A1B" stroke-miterlimit="10" stroke-linecap="round"/>
<path d="M9.68494 49.7111V49.6143" stroke="#1A0A1B" stroke-miterlimit="10" stroke-linecap="round"/>
<path d="M9.68494 39.5741V39.4773" stroke="#1A0A1B" stroke-miterlimit="10" stroke-linecap="round"/>
<path d="M9.68494 29.391V22.2148C9.68494 15.9979 13.9002 10.7587 19.6375 9.22757V4.50957C19.6375 2.57717 21.2056 1.00452 23.1426 1.00452C24.1111 1.00452 24.9874 1.39191 25.6192 2.03297C26.2556 2.6648 26.6476 3.54107 26.6476 4.50957V9.22757C28.9582 9.84096 31.0197 11.0585 32.6616 12.7004C35.0967 15.1401 36.6048 18.4976 36.6048 22.2148V29.391" stroke="#1A0A1B" stroke-miterlimit="10" stroke-linecap="round"/>
<path d="M19.6374 9.2276H22.9903" stroke="#1A0A1B" stroke-miterlimit="10" stroke-linecap="round"/>
<path d="M10.1415 34.4547C8.96547 34.4547 8.0108 33.5001 8.0108 32.324V31.5169C8.0108 30.3363 8.96547 29.3862 10.1415 29.3862H23.6637" stroke="#1A0A1B" stroke-miterlimit="10" stroke-linecap="round"/>
<path d="M10.1415 39.5236C9.98471 39.5236 9.83252 39.5051 9.68494 39.4729C8.73027 39.2653 8.0108 38.4167 8.0108 37.3929V36.5858C8.0108 35.5712 8.73027 34.7133 9.68494 34.5058C9.83252 34.4735 9.98471 34.4551 10.1415 34.4551" stroke="#1A0A1B" stroke-miterlimit="10" stroke-linecap="round"/>
<path d="M10.1415 44.5966C9.98471 44.5966 9.83252 44.5781 9.68494 44.5458C8.73027 44.3383 8.0108 43.4805 8.0108 42.4612V41.6588C8.0108 40.6349 8.73027 39.7771 9.68494 39.5742C9.83252 39.5419 9.98471 39.5234 10.1415 39.5234H27.1596" stroke="#1A0A1B" stroke-miterlimit="10" stroke-linecap="round"/>
<path d="M10.1415 49.6649C9.98471 49.6649 9.83252 49.6465 9.68494 49.6142C8.73027 49.4067 8.0108 48.5489 8.0108 47.5342V46.7271C8.0108 45.7033 8.73027 44.8547 9.68494 44.6472C9.83252 44.6149 9.98471 44.5964 10.1415 44.5964" stroke="#1A0A1B" stroke-miterlimit="10" stroke-linecap="round"/>
<path d="M10.1415 54.7288C9.98471 54.7288 9.83252 54.7103 9.68494 54.6781C8.73027 54.4705 8.0108 53.6219 8.0108 52.5981V51.791C8.0108 50.7764 8.73027 49.9185 9.68494 49.711C9.83252 49.6787 9.98471 49.6603 10.1415 49.6603H18.3369" stroke="#1A0A1B" stroke-miterlimit="10" stroke-linecap="round"/>
<path d="M10.1415 59.8023C9.98471 59.8023 9.83252 59.7838 9.68494 59.7515C8.73027 59.544 8.0108 58.6862 8.0108 57.6669V56.8645C8.0108 55.8406 8.73027 54.9828 9.68494 54.7799C9.83252 54.7476 9.98471 54.7291 10.1415 54.7291" stroke="#1A0A1B" stroke-miterlimit="10" stroke-linecap="round"/>
<path d="M9.68494 64.8244C8.73027 64.6169 8.0108 63.7591 8.0108 62.7444V61.9374C8.0108 60.9135 8.73027 60.0649 9.68494 59.8574C9.83252 59.8251 9.98471 59.8066 10.1415 59.8066H22.0403" stroke="#1A0A1B" stroke-miterlimit="10" stroke-linecap="round"/>
<path d="M36.6047 29.3907C37.7808 29.3907 38.7354 30.3408 38.7354 31.5215V32.3285C38.7354 33.5046 37.7808 34.4593 36.6047 34.4593" stroke="#1A0A1B" stroke-miterlimit="10" stroke-linecap="round"/>
<path d="M28.6307 34.4551H36.6047C36.7615 34.4551 36.9137 34.4735 37.0613 34.5058C38.016 34.7133 38.7354 35.5712 38.7354 36.5858V37.3929C38.7354 38.4167 38.016 39.2653 37.0613 39.4729C36.9137 39.5051 36.7615 39.5236 36.6047 39.5236" stroke="#1A0A1B" stroke-miterlimit="10" stroke-linecap="round"/>
<path d="M36.6047 39.5234C36.7615 39.5234 36.9137 39.5419 37.0613 39.5742C38.016 39.7817 38.7354 40.6395 38.7354 41.6588V42.4612C38.7354 43.4851 38.016 44.3429 37.0613 44.5458C36.9137 44.5781 36.7615 44.5966 36.6047 44.5966" stroke="#1A0A1B" stroke-miterlimit="10" stroke-linecap="round"/>
<path d="M21.2286 44.5964H36.6001C36.7569 44.5964 36.9091 44.6149 37.0567 44.6472C38.0114 44.8547 38.7308 45.7033 38.7308 46.7271V47.5342C38.7308 48.5489 38.0114 49.4067 37.0567 49.6142C36.9091 49.6465 36.7569 49.6649 36.6001 49.6649" stroke="#1A0A1B" stroke-miterlimit="10" stroke-linecap="round"/>
<path d="M36.6047 49.6649C36.7615 49.6649 36.9137 49.6834 37.0613 49.7156C38.016 49.9232 38.7354 50.781 38.7354 51.7956V52.6027C38.7354 53.6266 38.016 54.4752 37.0613 54.6827C36.9137 54.715 36.7615 54.7334 36.6047 54.7334" stroke="#1A0A1B" stroke-miterlimit="10" stroke-linecap="round"/>
<path d="M26.8551 54.7291H36.6001C36.7569 54.7291 36.9091 54.7476 37.0567 54.7799C38.0114 54.9874 38.7308 55.8452 38.7308 56.8645V57.6669C38.7308 58.6908 38.0114 59.5486 37.0567 59.7515C36.9091 59.7838 36.7569 59.8023 36.6001 59.8023" stroke="#1A0A1B" stroke-miterlimit="10" stroke-linecap="round"/>
<path d="M36.6047 59.802C36.7615 59.802 36.9137 59.8204 37.0613 59.8527C38.016 60.0603 38.7354 60.9089 38.7354 61.9327V62.7398C38.7354 63.7544 38.016 64.6122 37.0613 64.8198" stroke="#1A0A1B" stroke-miterlimit="10" stroke-linecap="round"/>
<path d="M36.6047 76.0083V64.8243H28.6307" stroke="#1A0A1B" stroke-miterlimit="10" stroke-linecap="round"/>
</svg>
