<svg width="84" height="84" viewBox="0 0 84 84" fill="none" xmlns="http://www.w3.org/2000/svg">
<path d="M20.0023 16.6996C21.1565 15.6621 22.5084 14.8492 24.0758 14.6831C26.4202 14.4405 28.8274 15.5274 30.4622 17.1892C32.0925 15.5274 34.5043 14.4405 36.8487 14.6831C38.4162 14.8448 39.768 15.6577 40.9222 16.6996C43.5406 19.0575 43.4732 23.0591 41.9597 25.9874C41.1513 27.5458 39.8937 28.7719 38.6362 29.9666C37.0643 31.4621 35.3487 32.778 33.6824 34.1613C32.6315 35.0326 30.4847 36.8471 30.4622 36.8291C30.4398 36.8471 28.293 35.0326 27.2466 34.1613C25.5804 32.7825 23.8647 31.4621 22.2928 29.9666C21.0353 28.7719 19.7732 27.5458 18.9693 25.9874C17.4558 23.0591 17.3884 19.0575 20.0068 16.6996H20.0023Z" fill="#FFABD2" stroke="#1A0A1B" stroke-miterlimit="10" stroke-linecap="round"/>
<path d="M59.4079 32.3648C60.0636 31.7719 60.8361 31.3094 61.7298 31.2151C63.0637 31.0758 64.438 31.6956 65.3677 32.6432C66.2974 31.6956 67.6717 31.0758 69.0055 31.2151C69.8993 31.3094 70.6718 31.7719 71.3275 32.3648C72.8186 33.7076 72.7826 35.9892 71.9203 37.6599C71.4622 38.5491 70.7436 39.2452 70.025 39.9279C69.1268 40.7812 68.1522 41.5313 67.2001 42.3172C66.6027 42.8158 65.3767 43.8487 65.3677 43.8398C65.3542 43.8487 64.1326 42.8158 63.5353 42.3172C62.5876 41.5313 61.6086 40.7767 60.7103 39.9279C59.9917 39.2452 59.2731 38.5491 58.815 37.6599C57.9527 35.9892 57.9123 33.7076 59.4079 32.3648Z" fill="#FFABD2" stroke="#1A0A1B" stroke-miterlimit="10" stroke-linecap="round"/>
<path d="M8.42393 59.9138C9.83866 61.9079 15.8479 70.5804 15.8479 74.2452C15.8479 78.3367 12.5154 81.6691 8.42393 81.6691C4.33247 81.6691 1 78.3367 1 74.2452C1 70.5804 7.00921 61.9079 8.42393 59.9138Z" stroke="#1A0A1B" stroke-miterlimit="10" stroke-linecap="round"/>
<path d="M50.5962 36.4384L47.8745 2H65.0937H83.0001L78.72 48.1334L77.4894 61.4093L76.8022 68.8063H65.0937H60.8001" stroke="#1A0A1B" stroke-miterlimit="10" stroke-linecap="round"/>
<path d="M48.6381 11.6828H82.1018" stroke="#1A0A1B" stroke-miterlimit="10" stroke-linecap="round"/>
<path d="M76.8023 68.8064V81.6646H58.8466" stroke="#1A0A1B" stroke-miterlimit="10" stroke-linecap="round"/>
<path d="M77.2827 2V6.23071" stroke="#1A0A1B" stroke-miterlimit="10" stroke-linecap="round"/>
<path d="M71.359 2V6.23071" stroke="#1A0A1B" stroke-miterlimit="10" stroke-linecap="round"/>
<path d="M65.4351 2V6.23071" stroke="#1A0A1B" stroke-miterlimit="10" stroke-linecap="round"/>
<path d="M59.5112 2V6.23071" stroke="#1A0A1B" stroke-miterlimit="10" stroke-linecap="round"/>
<path d="M53.5874 2V6.23071" stroke="#1A0A1B" stroke-miterlimit="10" stroke-linecap="round"/>
<path d="M8.42395 81.6642H51.6291C53.3672 81.6642 54.7774 80.254 54.7774 78.5159V55.3235C54.7774 54.3668 54.0049 53.5944 53.0483 53.5944H10.1575C9.20092 53.5944 8.42845 54.3668 8.42845 55.3235" stroke="#1A0A1B" stroke-miterlimit="10" stroke-linecap="round"/>
<path d="M12.4391 53.5991V44.5763C12.4391 43.6377 13.1846 42.8787 14.1053 42.8787H49.0916C50.0123 42.8787 50.7578 43.6377 50.7578 44.5763V53.5991" stroke="#1A0A1B" stroke-miterlimit="10" stroke-linecap="round"/>
<path d="M18.7985 69.1343H45.2964" stroke="#1A0A1B" stroke-miterlimit="10" stroke-linecap="round"/>
<path d="M24.6012 62.4962H38.2993" stroke="#1A0A1B" stroke-miterlimit="10" stroke-linecap="round"/>
<path d="M58.2177 48.7803H73.3305" stroke="#1A0A1B" stroke-miterlimit="10" stroke-linecap="round"/>
</svg>
