<svg width="84" height="84" viewBox="0 0 84 84" fill="none" xmlns="http://www.w3.org/2000/svg">
<path d="M65.3952 1C69.6855 1.85806 73.7686 3.9647 77.0659 7.31018C80.1269 10.4194 82.1034 14.194 83 18.1613" stroke="#1A0A1B" stroke-miterlimit="10" stroke-linecap="round"/>
<path d="M57.798 6.83296C63.0814 5.8351 68.7504 7.39694 72.7997 11.5089C76.3958 15.1629 77.9625 20.0702 77.5046 24.8137" stroke="#1A0A1B" stroke-miterlimit="10" stroke-linecap="round"/>
<path d="M46.4262 22.4708L45.5922 23.2903C44.3389 24.5244 44.3245 26.5442 45.5585 27.7976L56.0722 38.4799C57.3063 39.7333 59.3261 39.7526 60.5794 38.5185L61.4134 37.699L68.4177 30.8056C72.6212 26.6696 72.6743 19.9063 68.5334 15.7027C64.3925 11.4992 57.634 11.4413 53.4305 15.5774L46.4262 22.4708Z" fill="#FF83BC" stroke="#1A0A1B" stroke-miterlimit="10" stroke-linecap="round"/>
<path d="M47.7518 21.1691L59.1814 32.777" stroke="#1A0A1B" stroke-miterlimit="10" stroke-linecap="round"/>
<path d="M48.8124 31.1046L44.4209 35.4287" stroke="#1A0A1B" stroke-miterlimit="10" stroke-linecap="round"/>
<path d="M52.8231 35.1781L48.4315 39.5021" stroke="#1A0A1B" stroke-miterlimit="10" stroke-linecap="round"/>
<path d="M12.4797 81.2673L15.9987 74.9669L49.8777 47.7161C51.8782 46.1061 51.6083 42.722 49.2896 40.3696L43.5628 34.5512C41.2441 32.1987 37.8648 31.8757 36.2258 33.8473L8.44004 67.2877L2.0865 70.7055C0.625863 71.4913 0.640324 73.6701 2.11542 75.1693L8.01101 81.1613C9.4861 82.6605 11.665 82.7135 12.4749 81.2625L12.4797 81.2673Z" fill="#FFAFD4" stroke="#1A0A1B" stroke-miterlimit="10" stroke-linecap="round"/>
<path d="M8.44009 67.2972L12.2194 71.1344" stroke="#1A0A1B" stroke-miterlimit="10" stroke-linecap="round"/>
<path d="M32.162 51.5052C31.0003 50.3242 31.0147 48.4249 32.1958 47.2583L34.9773 44.5202C36.1583 43.3584 38.0576 43.3729 39.2242 44.554C40.3859 45.735 40.3715 47.6343 39.1904 48.8009L36.409 51.539" stroke="#1A0A1B" stroke-miterlimit="10" stroke-linecap="round"/>
</svg>
