<svg width="40" height="28" viewBox="0 0 40 28" fill="none" xmlns="http://www.w3.org/2000/svg">
<path d="M35.712 27.113H4.28813C2.31517 27.113 0.712891 25.5132 0.712891 23.5433V3.56969C0.712891 1.5998 2.31517 0 4.28813 0H35.712C37.6849 0 39.2872 1.5998 39.2872 3.56969V23.5433C39.2753 25.5132 37.6849 27.113 35.712 27.113Z" fill="#0066B2"/>
<path d="M18.3619 17.8006H16.353L17.6085 10.1001H19.6174L18.3619 17.8006Z" fill="white"/>
<path d="M14.667 10.1001L12.7539 15.4009L12.5267 14.2548L11.8451 10.7925C11.8451 10.7925 11.7614 10.1001 10.8885 10.1001H7.73179L7.69592 10.2314C7.69592 10.2314 8.66446 10.4344 9.80041 11.1149L11.5462 17.8125H13.6387L16.8194 10.1001H14.667Z" fill="white"/>
<path d="M30.4627 17.8006H32.3042L30.7019 10.1001H29.0876C28.3463 10.1001 28.155 10.6732 28.155 10.6732L25.1537 17.8006H27.2462L27.6647 16.6545H30.2236L30.4627 17.8006ZM28.2506 15.0786L29.3029 12.2013L29.9007 15.0786H28.2506Z" fill="white"/>
<path d="M25.3211 11.9508L25.608 10.2913C25.608 10.2913 24.7232 9.95703 23.8025 9.95703C22.81 9.95703 20.4425 10.3868 20.4425 12.5119C20.4425 14.5057 23.2166 14.5296 23.2166 15.5683C23.2166 16.6069 20.7295 16.4278 19.9044 15.7712L19.6055 17.5023C19.6055 17.5023 20.5023 17.9321 21.8774 17.9321C23.2525 17.9321 25.3211 17.2277 25.3211 15.2937C25.3211 13.2879 22.5231 13.1089 22.5231 12.2373C22.4991 11.3658 24.4601 11.4852 25.3211 11.9508Z" fill="white"/>
<path d="M12.5267 14.2548L11.8451 10.7925C11.8451 10.7925 11.7614 10.1001 10.8885 10.1001H7.73179L7.69592 10.2314C7.69592 10.2314 9.2145 10.5418 10.6733 11.7238C12.0603 12.858 12.5267 14.2548 12.5267 14.2548Z" fill="#F9A533"/>
</svg>
