<svg width="102" height="49" viewBox="0 0 102 49" fill="none" xmlns="http://www.w3.org/2000/svg">
<path d="M42.1278 1.23446C40.6828 8.54661 38.6105 15.7274 35.9462 22.688C33.5853 28.853 30.7655 34.8441 27.5183 40.5928C26.2528 42.8334 24.6356 45.6754 21.8325 46.1176C18.9758 46.5672 16.6482 44.7836 15.7767 42.1636C15.3715 40.9425 15.242 39.6658 15.1347 38.391C14.9903 36.661 14.8867 34.9273 14.8238 33.1918C14.6999 29.7744 14.7295 26.3478 14.9126 22.9322C15.0903 19.5888 15.4215 16.2566 15.8896 12.9428C15.4326 13.7439 14.9829 14.5506 14.5444 15.3629C9.2028 25.2894 5.32839 35.9986 3.13401 47.0575C3.18212 47.0834 3.23022 47.1075 3.27648 47.1352C3.63357 47.3554 4.16274 47.9937 3.52811 48.2546C3.21542 48.3823 2.90273 48.5099 2.59004 48.6376C1.95541 48.8985 -0.18347 48.6154 0.0126552 47.5589C0.623234 44.2784 1.37813 41.0276 2.28105 37.8137C5.48937 26.3922 10.5183 15.5072 17.0423 5.60103C17.0811 5.54182 17.1348 5.49556 17.1958 5.45486C17.4382 4.29106 17.6898 3.12911 17.9655 1.97086C18.2042 0.971729 21.0776 1.72663 20.8353 2.74056C19.1164 9.94169 18.0599 17.2982 17.7306 24.6955C17.5844 27.9741 17.5825 31.2602 17.7306 34.5388C17.8027 36.1318 17.9082 37.723 18.0506 39.3105C18.158 40.4928 18.3245 41.6826 18.7426 42.8001C18.9184 43.2738 19.146 43.7456 19.4716 44.136C19.5808 44.2673 19.6992 44.395 19.838 44.4931C19.8916 44.5319 20.0822 44.5689 19.9878 44.5652C20.9222 44.6115 21.938 43.6105 22.5338 42.9463C23.4404 41.9379 24.1194 40.7648 24.78 39.5899C25.5349 38.2467 26.2657 36.8923 26.9743 35.525C32.6842 24.4883 36.8472 12.6615 39.2581 0.470314C39.4542 -0.517714 42.3332 0.202029 42.1278 1.23816V1.23446Z" fill="#1A0A1B"/>
<path d="M47.9875 38.5853C46.3815 39.6252 44.7145 40.5928 42.7532 40.6816C41.6227 40.7334 40.4645 40.5059 39.4542 40.0026C39.062 40.3449 38.6623 40.6779 38.246 40.9906C37.5503 41.5179 36.8306 42.1415 35.9203 42.1914C34.984 42.2432 33.7721 41.8806 33.2966 40.998C32.9377 40.3338 33.1486 39.54 33.3706 38.8666C33.8461 37.4141 34.7454 35.7415 36.0424 34.87C36.9212 34.278 38.048 34.2983 39.0083 34.698C39.8058 35.0292 40.6162 35.6656 40.4793 36.6148C40.3756 37.3272 38.8011 37.1514 38.0277 36.5889C37.7816 36.8498 37.5522 37.131 37.3468 37.4215C36.9527 37.9747 36.6382 38.5798 36.3939 39.2144C36.8435 38.8407 37.282 38.454 37.702 38.0487C38.3885 37.3882 39.8613 37.9692 40.3701 38.5798C40.8623 39.1681 41.3877 39.1515 42.2018 38.9683C43.4803 38.6797 44.6201 37.9007 45.7043 37.1976C46.4981 36.6833 49.131 37.8471 47.9894 38.5853H47.9875Z" fill="#1A0A1B"/>
<path d="M64.438 38.763C62.1844 40.6724 59.8013 42.3358 56.7022 42.0231C55.2294 41.8732 53.8343 41.3219 52.4725 40.7761C51.4715 40.3764 50.3817 39.8639 49.2753 40.0267C48.7535 40.1044 48.1929 40.0138 47.7155 39.7751C47.2067 42.0675 46.8274 44.3877 46.5869 46.7209C46.4888 47.6737 43.6062 47.0317 43.7172 45.9512C44.2759 40.5281 45.5637 35.1939 47.5398 30.1113C49.2827 25.6318 51.5548 21.3504 54.2839 17.3927C55.6142 15.4629 57.0241 13.4351 58.7134 11.8013C60.5322 10.0436 63.0744 9.36823 65.3483 10.7744C70.0035 13.6515 65.8979 19.6204 63.598 22.6178C60.8115 26.2461 57.2295 29.2287 53.1886 31.3694C52.602 31.6803 51.6751 31.4212 51.157 31.1012C50.8758 30.9272 50.5853 30.6016 50.6315 30.3148C50.0135 31.8616 49.4585 33.4343 48.9682 35.0274C49.5972 34.674 50.2504 34.3594 50.9239 34.0967C52.8167 33.3603 55.2164 32.6128 57.1943 33.4417C58.0103 33.784 58.9613 34.5426 58.6375 35.5491C58.3563 36.4261 57.3109 36.8591 56.5486 37.2014C55.0536 37.8712 53.5345 38.4855 52.0007 39.0609C53.0424 39.4161 54.0767 39.8472 55.1646 40.1858C57.7623 40.9944 59.8864 39.2367 61.77 37.6418C62.2714 37.2162 63.1206 37.3809 63.6702 37.614C63.9718 37.7417 64.9357 38.3411 64.4362 38.7648L64.438 38.763ZM52.6039 36.5335C53.4161 36.193 54.2654 35.8729 55.0388 35.4511C55.2886 35.3141 55.6105 35.1199 55.7345 34.8479C55.74 34.8368 55.7456 34.8035 55.753 34.7609C55.1813 34.8775 54.4227 35.0829 54.3098 35.1162C53.5549 35.3308 52.8204 35.625 52.1136 35.9654C51.0404 36.4816 50.0542 37.1255 49.1476 37.8804C50.3096 37.4567 51.4641 37.0164 52.6039 36.5353V36.5335ZM50.6889 30.176C50.7333 30.1057 50.798 30.0391 50.9054 29.9818C55.0591 27.7818 58.6653 24.6364 61.4277 20.8323C62.6673 19.1282 64.0236 17.1725 64.4769 15.0818C64.6841 14.1271 64.6415 13.0946 64.1142 12.2454C63.9977 12.0566 63.8422 11.9142 63.7109 11.7421C63.6739 11.6921 63.6073 11.657 63.5721 11.6366C63.2909 11.6329 62.993 11.7717 62.758 11.8901C61.8662 12.3397 61.1538 13.1113 60.5137 13.8606C59.7847 14.7136 59.0871 15.5961 58.4118 16.4935C57.1111 18.2216 55.9047 20.0182 54.7964 21.8759C53.2126 24.5291 51.8453 27.3082 50.6926 30.1742L50.6889 30.176Z" fill="#1A0A1B"/>
<path d="M75.7282 38.7351C73.2007 40.7019 70.3347 42.5596 67.3003 43.6345C65.8183 44.1582 64.2197 44.3006 62.7487 43.6401C61.5812 43.1146 60.6635 42.1118 60.5044 40.8074C60.1991 38.3207 62.4878 36.2003 64.66 35.4324C66.1717 34.8977 68.0127 35.1031 69.2616 36.1707C70.2718 37.0329 70.3847 38.3614 69.4429 39.3235C67.9683 40.8333 65.4982 40.75 63.5295 39.9137C63.4389 40.1709 63.3778 40.4373 63.3612 40.7167C63.339 41.0812 63.3982 41.4568 63.5203 41.7991C63.6128 42.06 63.8274 42.2395 63.9495 42.4596C64.0402 42.4541 64.1327 42.4559 64.2197 42.4448C64.6249 42.3893 65.0171 42.2543 65.3964 42.1025C66.2956 41.7436 67.1727 41.3106 68.0293 40.861C69.8037 39.9285 71.4856 38.8424 73.0675 37.6102C73.593 37.2013 74.396 37.34 74.9677 37.5824C75.2527 37.7027 76.2536 38.3281 75.7337 38.7351H75.7282ZM64.3492 38.5741C64.7285 38.8128 65.1133 38.8905 65.6388 38.7999C66.3586 38.6759 67.2707 38.0357 67.2319 37.2142C67.2245 37.0569 67.1634 36.9256 67.0986 36.7887C67.045 36.7998 66.9913 36.8127 66.9876 36.8127C66.8008 36.8756 66.6231 36.9404 66.4437 37.0255C65.6721 37.3937 64.9561 37.9118 64.3769 38.5408C64.3677 38.5501 64.3584 38.563 64.351 38.5723L64.3492 38.5741Z" fill="#1A0A1B"/>
<path d="M96.6303 20.4769C95.8199 22.3345 94.5488 24.0108 93.0353 25.3504C90.9797 27.1692 88.5244 28.3774 85.9082 28.9491C84.1468 32.2278 82.7905 35.7395 81.9357 39.3623C81.7599 40.1098 81.6119 40.8887 81.7359 41.6566C81.7748 41.899 81.8895 42.1006 81.982 42.3042C82.785 41.9304 83.303 41.1182 83.8026 40.4262C84.3392 39.6842 84.8887 39.0459 85.6825 38.5704C86.4947 38.0838 89.1221 39.2642 87.9675 39.9581C86.9055 40.5964 86.4003 41.8268 85.577 42.7057C84.7074 43.6308 83.501 44.1822 82.2207 44.0563C80.9995 43.9361 79.7062 43.3366 79.1548 42.1876C78.8754 41.6066 78.7885 40.9609 78.8088 40.3152C78.2352 40.9646 77.6654 41.651 77.0067 42.1932C76.1056 42.9314 75.0306 43.0998 73.9205 42.7205C73.049 42.4226 72.2645 41.8065 72.1369 40.8443C71.9241 39.2291 72.9251 37.6231 73.8095 36.363C74.7716 34.9939 75.7874 33.4748 77.5007 33.0289C78.4388 32.7847 79.6544 32.9272 80.6073 33.4249C81.1457 32.0279 81.7581 30.6551 82.4353 29.3266C82.056 29.3266 81.6748 29.321 81.2937 29.2988C80.8274 29.2692 79.7432 28.9121 79.6618 28.3256C79.573 27.6743 80.4759 27.6854 80.9014 27.7113C81.7266 27.7631 82.5537 27.715 83.3697 27.5874C83.5917 27.1914 83.8137 26.7955 84.0431 26.4088C85.2106 24.4383 86.5317 22.5584 87.9953 20.7951C88.752 19.8811 89.5476 19.0004 90.3784 18.153C91.1499 17.3666 91.9492 16.4748 93.0723 16.238C94.2713 15.9864 95.7866 16.4563 96.5286 17.4591C97.2076 18.3769 97.067 19.4852 96.634 20.4769H96.6303ZM79.8005 35.7229C79.5045 35.536 79.2732 35.2733 79.2732 34.918C79.2732 34.8329 79.2325 34.7071 79.1918 34.6164C79.0438 34.6738 78.8958 34.7496 78.7607 34.8347C78.4961 34.9994 78.2685 35.2215 78.0558 35.4472C77.2398 36.3131 76.4979 37.3585 75.891 38.3798C75.5561 38.9423 75.1916 39.662 75.0547 40.3781C75.2952 40.1172 75.5283 39.8489 75.7652 39.5917C76.7421 38.5334 77.719 37.4769 78.6978 36.4186C78.8939 36.2058 79.2621 36.1466 79.6673 36.1836C79.7117 36.0319 79.7543 35.8783 79.8024 35.7247L79.8005 35.7229ZM79.0382 34.4055L94.114 18.2918C93.9512 18.4157 93.7847 18.536 93.6477 18.6711C93.2962 19.0134 92.952 19.363 92.6135 19.7201C90.7244 21.7054 89.0203 23.8739 87.5401 26.183C88.7576 25.5391 89.8806 24.7232 90.852 23.787C92.0787 22.6028 93.1482 21.18 93.8087 19.5999C93.9789 19.1928 94.1307 18.7432 94.114 18.2936L79.0382 34.4055Z" fill="#1A0A1B"/>
<path d="M99.4456 37.5096C99.0817 37.4181 98.7002 37.4238 98.3396 37.5263C97.979 37.6287 97.6522 37.8242 97.392 38.093C97.3011 37.7301 97.1158 37.3974 96.8548 37.1284C96.5937 36.8594 96.2662 36.6637 95.9053 36.561C95.3209 36.4312 94.7091 36.537 94.2037 36.8554C93.6982 37.1737 93.3402 37.6787 93.2078 38.26C92.8173 39.7174 93.9312 41.7218 94.9339 43.1471C95.1577 43.4657 95.4869 43.6958 95.8637 43.7968C96.2405 43.8977 96.6406 43.8631 96.9938 43.699C98.5748 42.966 100.542 41.7871 100.932 40.3297C101.108 39.7601 101.051 39.1438 100.772 38.6153C100.494 38.0869 100.017 37.6894 99.4456 37.5096Z" fill="#FF5981"/>
</svg>
