<svg width="289" height="84" viewBox="0 0 289 84" fill="none" xmlns="http://www.w3.org/2000/svg">
<rect x="249" width="1" height="83" fill="#ECECEC"/>
<rect y="18" width="1" height="267" transform="rotate(-90 0 18)" fill="#ECECEC"/>
<rect y="65" width="1" height="267" transform="rotate(-90 0 65)" fill="#ECECEC"/>
<rect x="17" y="1" width="1" height="83" fill="#ECECEC"/>
<path d="M48.177 61.084C47.4303 61.084 46.8307 60.79 46.378 60.202L46.658 59.971C47.0687 60.4937 47.5773 60.755 48.184 60.755C48.5247 60.755 48.8117 60.6523 49.045 60.447C49.2783 60.2417 49.395 59.978 49.395 59.656C49.395 59.32 49.2527 59.0587 48.968 58.872C48.688 58.6853 48.3217 58.592 47.869 58.592H47.603L47.512 58.389L49.199 56.443H46.63V56.1H49.696V56.359L48.037 58.256C48.2563 58.27 48.4617 58.3073 48.653 58.368C48.849 58.424 49.0333 58.5057 49.206 58.613C49.3787 58.7157 49.5163 58.858 49.619 59.04C49.7217 59.2173 49.773 59.4227 49.773 59.656C49.773 60.0713 49.6143 60.4143 49.297 60.685C48.9843 60.951 48.611 61.084 48.177 61.084ZM52.5895 61.084C52.0855 61.084 51.6701 60.9207 51.3435 60.594C51.1288 60.3793 50.9701 60.1273 50.8675 59.838C50.7695 59.5487 50.7205 59.159 50.7205 58.669C50.7205 57.913 50.9025 57.283 51.2665 56.779C51.6351 56.2703 52.1181 56.016 52.7155 56.016C53.1961 56.016 53.6675 56.205 54.1295 56.583L53.8985 56.863C53.5111 56.5177 53.1075 56.345 52.6875 56.345C52.2068 56.345 51.8195 56.569 51.5255 57.017C51.2315 57.465 51.0845 58.0483 51.0845 58.767V58.886C51.4391 58.2793 51.9501 57.976 52.6175 57.976C53.0748 57.976 53.4691 58.1183 53.8005 58.403C54.1365 58.683 54.3045 59.04 54.3045 59.474C54.3045 59.936 54.1388 60.321 53.8075 60.629C53.4808 60.9323 53.0748 61.084 52.5895 61.084ZM52.6175 60.755C53.0048 60.755 53.3198 60.6313 53.5625 60.384C53.8051 60.1367 53.9265 59.8333 53.9265 59.474C53.9265 59.138 53.8005 58.858 53.5485 58.634C53.3011 58.41 52.9838 58.298 52.5965 58.298C52.2091 58.298 51.8848 58.4217 51.6235 58.669C51.3621 58.9163 51.2315 59.201 51.2315 59.523C51.2315 59.873 51.3621 60.167 51.6235 60.405C51.8895 60.6383 52.2208 60.755 52.6175 60.755ZM57.2417 61.084C56.635 61.084 56.145 60.839 55.7717 60.349C55.403 59.8543 55.2187 59.2547 55.2187 58.55C55.2187 58.0973 55.3003 57.6797 55.4637 57.297C55.627 56.9143 55.865 56.6063 56.1777 56.373C56.495 56.135 56.8543 56.016 57.2557 56.016C57.8623 56.016 58.35 56.2633 58.7187 56.758C59.092 57.248 59.2787 57.8453 59.2787 58.55C59.2787 59.0027 59.197 59.4203 59.0337 59.803C58.8703 60.1857 58.63 60.496 58.3127 60.734C58 60.9673 57.643 61.084 57.2417 61.084ZM56.0587 60.097C56.3667 60.5357 56.7657 60.755 57.2557 60.755C57.7457 60.755 58.1423 60.538 58.4457 60.104C58.749 59.6653 58.9007 59.1473 58.9007 58.55C58.9007 57.9527 58.7467 57.437 58.4387 57.003C58.1307 56.5643 57.7317 56.345 57.2417 56.345C56.7517 56.345 56.355 56.562 56.0517 56.996C55.7483 57.43 55.5967 57.948 55.5967 58.55C55.5967 59.1427 55.7507 59.6583 56.0587 60.097ZM62.0434 57.808C61.8334 58.0133 61.5884 58.116 61.3084 58.116C61.0284 58.116 60.7811 58.0133 60.5664 57.808C60.3564 57.6027 60.2514 57.36 60.2514 57.08C60.2514 56.8093 60.3564 56.5713 60.5664 56.366C60.7811 56.1607 61.0284 56.058 61.3084 56.058C61.5884 56.058 61.8334 56.1607 62.0434 56.366C62.2581 56.5713 62.3654 56.814 62.3654 57.094C62.3654 57.3647 62.2581 57.6027 62.0434 57.808ZM60.8044 57.598C60.9397 57.738 61.1077 57.808 61.3084 57.808C61.5091 57.808 61.6771 57.7357 61.8124 57.591C61.9477 57.4463 62.0154 57.276 62.0154 57.08C62.0154 56.8887 61.9477 56.723 61.8124 56.583C61.6771 56.4383 61.5091 56.366 61.3084 56.366C61.1077 56.366 60.9397 56.4383 60.8044 56.583C60.6691 56.7277 60.6014 56.898 60.6014 57.094C60.6014 57.2853 60.6691 57.4533 60.8044 57.598Z" fill="#979797"/>
<circle cx="34" cy="47" r="7.6" stroke="#C4C4C4" stroke-width="0.8"/>
<path d="M274.5 1V9.5H266" stroke="#C4C4C4"/>
<path d="M278.051 18.084C277.547 18.084 277.055 17.881 276.574 17.475L276.805 17.195C277.22 17.5683 277.638 17.755 278.058 17.755C278.534 17.755 278.924 17.5357 279.227 17.097C279.53 16.6537 279.682 16.0867 279.682 15.396V15.228C279.332 15.858 278.823 16.173 278.156 16.173C277.666 16.173 277.26 16.0283 276.938 15.739C276.621 15.4497 276.462 15.0903 276.462 14.661C276.462 14.199 276.623 13.8093 276.945 13.492C277.267 13.1747 277.68 13.016 278.184 13.016C278.683 13.016 279.099 13.1817 279.43 13.513C279.841 13.9237 280.046 14.5653 280.046 15.438C280.046 16.2033 279.857 16.8357 279.479 17.335C279.101 17.8343 278.625 18.084 278.051 18.084ZM278.17 15.851C278.571 15.851 278.898 15.725 279.15 15.473C279.407 15.2163 279.535 14.9223 279.535 14.591C279.535 14.241 279.402 13.947 279.136 13.709C278.875 13.4663 278.543 13.345 278.142 13.345C277.755 13.345 277.44 13.4757 277.197 13.737C276.959 13.9937 276.84 14.3017 276.84 14.661C276.84 15.0063 276.964 15.291 277.211 15.515C277.463 15.739 277.783 15.851 278.17 15.851ZM282.969 18.084C282.363 18.084 281.873 17.839 281.499 17.349C281.131 16.8543 280.946 16.2547 280.946 15.55C280.946 15.0973 281.028 14.6797 281.191 14.297C281.355 13.9143 281.593 13.6063 281.905 13.373C282.223 13.135 282.582 13.016 282.983 13.016C283.59 13.016 284.078 13.2633 284.446 13.758C284.82 14.248 285.006 14.8453 285.006 15.55C285.006 16.0027 284.925 16.4203 284.761 16.803C284.598 17.1857 284.358 17.496 284.04 17.734C283.728 17.9673 283.371 18.084 282.969 18.084ZM281.786 17.097C282.094 17.5357 282.493 17.755 282.983 17.755C283.473 17.755 283.87 17.538 284.173 17.104C284.477 16.6653 284.628 16.1473 284.628 15.55C284.628 14.9527 284.474 14.437 284.166 14.003C283.858 13.5643 283.459 13.345 282.969 13.345C282.479 13.345 282.083 13.562 281.779 13.996C281.476 14.43 281.324 14.948 281.324 15.55C281.324 16.1427 281.478 16.6583 281.786 17.097ZM287.771 14.808C287.561 15.0133 287.316 15.116 287.036 15.116C286.756 15.116 286.509 15.0133 286.294 14.808C286.084 14.6027 285.979 14.36 285.979 14.08C285.979 13.8093 286.084 13.5713 286.294 13.366C286.509 13.1607 286.756 13.058 287.036 13.058C287.316 13.058 287.561 13.1607 287.771 13.366C287.986 13.5713 288.093 13.814 288.093 14.094C288.093 14.3647 287.986 14.6027 287.771 14.808ZM286.532 14.598C286.667 14.738 286.835 14.808 287.036 14.808C287.237 14.808 287.405 14.7357 287.54 14.591C287.675 14.4463 287.743 14.276 287.743 14.08C287.743 13.8887 287.675 13.723 287.54 13.583C287.405 13.4383 287.237 13.366 287.036 13.366C286.835 13.366 286.667 13.4383 286.532 13.583C286.397 13.7277 286.329 13.898 286.329 14.094C286.329 14.2853 286.397 14.4533 286.532 14.598Z" fill="#979797"/>
</svg>
