<svg xmlns="http://www.w3.org/2000/svg" viewBox="0 0 111.77 131.87"><defs><style>.cls-1{fill:#31dbce;}.cls-2{fill:#fc6a42;}.cls-3{fill:none;stroke:#141414;stroke-miterlimit:10;stroke-width:4px;}.cls-4{fill:#141414;}.cls-5{fill:#f9bd3a;}</style></defs><title>12Cup</title><g id="Слой_2" data-name="Слой 2"><g id="Illustrations"><circle id="_Контур_" data-name="&lt;Контур&gt;" class="cls-1" cx="108.18" cy="69.41" r="3.59"/><polygon class="cls-1" points="99.11 66.74 76.06 63.09 65.46 83.88 81.96 100.38 102.76 89.79 99.11 66.74"/><polygon id="_Контур_2" data-name="&lt;Контур&gt;" class="cls-2" points="29.32 0 45.35 18.41 69.6 15.64 57.05 36.57 67.18 58.78 43.39 53.31 25.4 69.81 23.25 45.49 2 33.48 24.46 23.92 29.32 0"/><circle id="_Контур_3" data-name="&lt;Контур&gt;" class="cls-3" cx="54.41" cy="52.96" r="14.96"/><path id="_Контур_4" data-name="&lt;Контур&gt;" class="cls-3" d="M34,76.68c14.52,13.66,29,9,29,9s35-7.31,19-67.9l-34.48,9.1L13,36a132.4,132.4,0,0,0,5.78,17.3L2.06,57.72s-1,8.4,5,11.3,11.13,1.81,12,5.2.81,11.87,3.59,12.59,8-4,8-4"/><path id="_Контур_5" data-name="&lt;Контур&gt;" class="cls-3" d="M85.61,35.75l16.76-4.42s5,6.82,1.23,12.3-8.79,7.07-7.89,10.45,5.15,10.72,3.1,12.72-8.93.47-8.93.47"/><path id="_Контур_6" data-name="&lt;Контур&gt;" class="cls-3" d="M63.05,85.69l7.38,28s-18.88,4.2-16.13,14.6l33.15-8.75"/><circle id="_Контур_7" data-name="&lt;Контур&gt;" class="cls-2" cx="53.24" cy="6.84" r="3.42"/><circle id="_Контур_8" data-name="&lt;Контур&gt;" class="cls-2" cx="53.24" cy="60.27" r="3.42"/><circle id="_Контур_9" data-name="&lt;Контур&gt;" class="cls-4" cx="29.78" cy="73.1" r="3.3"/><polygon id="_Контур_10" data-name="&lt;Контур&gt;" class="cls-5" points="34.35 131.87 20.58 94.41 59.91 101.21 34.35 131.87"/><circle id="_Контур_11" data-name="&lt;Контур&gt;" class="cls-5" cx="16.29" cy="113.49" r="4.59"/></g></g></svg>