<svg xmlns="http://www.w3.org/2000/svg" viewBox="0 0 365.59 800.56"><defs><style>.cls-1{fill:#f0f0f0;}.cls-2{fill:#fc6a42;}.cls-3,.cls-5{fill:none;stroke-miterlimit:10;stroke-width:4px;}.cls-3{stroke:#f9bd3a;}.cls-4{fill:#141414;}.cls-5{stroke:#141414;}</style></defs><title>12Left</title><g id="Слой_2" data-name="Слой 2"><g id="Illustrations"><path class="cls-1" d="M50.94,492.17s-38.56,141.2,19,271.25L11.88,781.63S-5.81,548.82,50.94,492.17Z"/><path class="cls-1" d="M234,87.73l95.65,24S289.25,255.17,127.41,359.54C127.41,359.54,213.94,259.08,234,87.73Z"/><path class="cls-1" d="M18.15,22.17l92.46-8.44S143.68,199.42,64.15,315c0,0-18.85-12.56-15.28-33.49S42.47,51.7,18.15,22.17Z"/><path class="cls-2" d="M62.92,717.1c-.24-.72-.47-1.45-.66-2.19-2.82-10.91-6.38-20.47-7.32-31.7l-22.31,2.55L0,648.3V787.61l28.37-26,51.69,11.88-22-48.25Z"/><polygon class="cls-2" points="37.28 560.48 0 554.58 0 621.73 4.02 625.75 44.36 605.2 37.28 560.48"/><path class="cls-2" d="M11.88,432A49.43,49.43,0,0,0,0,433.41v95.18A49,49,0,1,0,11.88,432Z"/><path class="cls-3" d="M113.54,632.82c11.34-6.26,19.26,9.76,18.7,11.72s-29,15.63-29,15.63-3.63-10.33-3.68-15.91,9-9.12,9-9.12-29.3-53.58-35.16-108,12.5-110.32,12.5-110.32-15.24,37.67,2,63.07c30.7,45.21-21,49.22,35.72,120.55,0,0-7,5.45-5.16,11.45s13.84,15.76,13.84,15.76,18.95-23.16,19.09-25.39-13-17.44-23.86-6"/><polygon id="_Контур_" data-name="&lt;Контур&gt;" class="cls-2" points="81.6 7.91 123.33 55.82 186.45 48.6 153.78 103.1 180.15 160.9 118.23 146.67 71.4 189.61 65.8 126.32 10.49 95.05 68.95 70.17 81.6 7.91"/><circle id="_Контур_2" data-name="&lt;Контур&gt;" class="cls-2" cx="246.94" cy="147.34" r="3.42"/><circle id="_Контур_3" data-name="&lt;Контур&gt;" class="cls-2" cx="70.5" cy="289.56" r="3.42"/><circle id="_Контур_4" data-name="&lt;Контур&gt;" class="cls-2" cx="21.84" cy="551.16" r="3.42"/><circle id="_Контур_5" data-name="&lt;Контур&gt;" class="cls-2" cx="21.84" cy="662.52" r="3.42"/><circle id="_Контур_6" data-name="&lt;Контур&gt;" class="cls-2" cx="73.36" cy="778.21" r="3.42"/><circle id="_Контур_7" data-name="&lt;Контур&gt;" class="cls-1" cx="50.94" cy="776.63" r="3.42"/><circle id="_Контур_8" data-name="&lt;Контур&gt;" class="cls-1" cx="214.84" cy="96.73" r="3.42"/><circle id="_Контур_9" data-name="&lt;Контур&gt;" class="cls-1" cx="211.42" cy="116.25" r="3.42"/><circle id="_Контур_10" data-name="&lt;Контур&gt;" class="cls-1" cx="18.15" cy="44.49" r="3.42"/><circle id="_Контур_11" data-name="&lt;Контур&gt;" class="cls-1" cx="124.63" cy="34.64" r="3.42"/><circle id="_Контур_12" data-name="&lt;Контур&gt;" class="cls-1" cx="38.12" cy="192.47" r="3.42"/><circle id="_Контур_13" data-name="&lt;Контур&gt;" class="cls-2" cx="163.36" cy="102.18" r="3.42"/><circle id="_Контур_14" data-name="&lt;Контур&gt;" class="cls-2" cx="128.05" cy="47.91" r="3.42"/><circle id="_Контур_15" data-name="&lt;Контур&gt;" class="cls-2" cx="55.91" cy="129" r="3.42"/><circle id="_Контур_16" data-name="&lt;Контур&gt;" class="cls-2" cx="60.51" cy="205.84" r="3.42"/><circle id="_Контур_17" data-name="&lt;Контур&gt;" class="cls-2" cx="220.57" cy="256.41" r="3.42"/><circle id="_Контур_18" data-name="&lt;Контур&gt;" class="cls-2" cx="240.1" cy="34.64" r="3.42"/><circle class="cls-2" cx="228.54" cy="173.44" r="26.1"/><circle class="cls-2" cx="71.5" cy="334.69" r="37.87"/><circle class="cls-2" cx="149.54" cy="247.32" r="63.33"/><polygon class="cls-2" points="344.75 17.52 281.5 163.34 220.56 45.09 344.75 17.52"/><polygon class="cls-2" points="66.6 212.73 21.89 205.65 1.33 245.99 33.35 278 73.68 257.44 66.6 212.73"/><circle id="_Контур_19" data-name="&lt;Контур&gt;" class="cls-4" cx="8.19" cy="481" r="3.69"/><circle id="_Контур_20" data-name="&lt;Контур&gt;" class="cls-4" cx="86.03" cy="230.21" r="3.69"/><circle id="_Контур_21" data-name="&lt;Контур&gt;" class="cls-4" cx="21.84" cy="307.36" r="3.69"/><circle id="_Контур_22" data-name="&lt;Контур&gt;" class="cls-4" cx="21.84" cy="407.82" r="3.69"/><circle id="_Контур_23" data-name="&lt;Контур&gt;" class="cls-4" cx="209.33" cy="136.04" r="3.69"/><circle id="_Контур_24" data-name="&lt;Контур&gt;" class="cls-4" cx="316.01" cy="63.86" r="3.69"/><circle id="_Контур_25" data-name="&lt;Контур&gt;" class="cls-4" cx="7.36" cy="723.65" r="3.69"/><path class="cls-5" d="M84.52,384.45S363.59,226,363.59.48"/><path class="cls-5" d="M73.36,384.45s237.76-181,237.76-384"/><path class="cls-5" d="M64.15,384.45s198.42-181,198.42-384"/><path class="cls-5" d="M56.61,384.45S214.84,205.08,214.84.48"/><path class="cls-5" d="M37.37,383.23S152.05,224.34,152.05.48"/><path class="cls-5" d="M27.83,383.23S98.47,221,98.47.48"/><path class="cls-5" d="M19.59,382.62S77.26,200.34,27.31.48"/><path class="cls-5" d="M79.5,416.82S32.7,561.47,50.94,665.1s43.35,96,43.35,135.38"/><path class="cls-5" d="M70.5,416.18S29,495.79,27.31,596.26s22.6,154.92,29.3,168.3,13.89,20.8,13.89,35.92"/><path class="cls-5" d="M50.94,416.18s-32,54.5-39.54,130.68S9.73,711.74,27.31,748.18s23,33.83,23.63,52.3"/><path class="cls-5" d="M29.56,784.44S13.34,761,8.19,734.58"/><path class="cls-5" d="M24.24,429.47S13.45,452.91,10.1,470.4"/><path class="cls-5" d="M111.87,38.06S113.54,140.84,89.26,220"/><path class="cls-5" d="M206.75,143.33s-20.09,64.31-51.35,113.08"/><path class="cls-5" d="M313.91,72.21s-2.79,54.16-56.37,127.66"/><line class="cls-3" x1="103.22" y1="660.17" x2="109.91" y2="678.3"/><line class="cls-3" x1="106.57" y1="658.54" x2="114.66" y2="675.79"/><line class="cls-3" x1="111.78" y1="655.97" x2="118.57" y2="673.28"/><line class="cls-3" x1="115.17" y1="654.27" x2="124.43" y2="670.77"/><line class="cls-3" x1="121.08" y1="651.25" x2="128.61" y2="669.24"/><line class="cls-3" x1="124.85" y1="649.25" x2="133.36" y2="667.17"/><line class="cls-3" x1="129.1" y1="646.86" x2="137.54" y2="664.63"/><line class="cls-3" x1="132.24" y1="644.54" x2="142.84" y2="660.24"/><line class="cls-3" x1="132.27" y1="627.65" x2="146.47" y2="642.58"/><line class="cls-3" x1="135.37" y1="623.83" x2="149.54" y2="635.12"/><line class="cls-3" x1="139.37" y1="619.98" x2="151.36" y2="631.98"/><line class="cls-3" x1="141.64" y1="615.94" x2="157.08" y2="629.47"/><line class="cls-3" x1="144.32" y1="612.5" x2="160.15" y2="625.98"/><line class="cls-3" x1="147.23" y1="608.65" x2="163.5" y2="621.37"/><line class="cls-3" x1="149.54" y1="605.43" x2="164.61" y2="615.94"/><line class="cls-3" x1="151.36" y1="602.26" x2="167.68" y2="610.69"/><path class="cls-4" d="M10.62,384c.31,0,.64,0,1,0,10.81.77,51,2.69,71.51,2.69a88,88,0,0,0,11.25-.43c.92,1.26,2.6,5.67,3.13,13.8.49,7.63-.36,12.81-1.06,14.54a78,78,0,0,1-10.29.4c-4.43,0-9.74-.1-15.36-.2-6.56-.12-13.34-.24-19.95-.24S39,414.7,34.61,415a78.33,78.33,0,0,0-14.74,2.63c-3.53.88-6.58,1.65-8.91,1.65a4.11,4.11,0,0,1-3.33-1.13c-2.7-2.75-3.9-11.17-3.58-25v-.46c-.11-1.25,0-4.95,1.87-7A6.08,6.08,0,0,1,10.62,384m0-4C-1.23,380,.05,393,.05,393-.51,417.52,3.54,423.24,11,423.24c6,0,14.16-3.72,23.88-4.29,4.78-.28,10.27-.37,16-.37,12.35,0,25.76.44,35.31.44,6.16,0,10.72-.18,12.34-.79,5.19-2,4-36-3.67-36a3,3,0,0,0-.51.05,80.58,80.58,0,0,1-11.19.47c-20.47,0-60.8-1.93-71.22-2.68-.44,0-.85,0-1.26,0Z"/><path class="cls-5" d="M24.24,90.31s12.36,123.3,0,206.51"/><path class="cls-5" d="M14.94,401.61s7.72-3.32,12-1.13,7.14,2.66,12.61,1.13,9.2-2.95,17-1.13,31.63.59,31.63.59"/></g></g></svg>