<svg width="278" height="89" viewBox="0 0 278 89" fill="none" xmlns="http://www.w3.org/2000/svg">
<g opacity="0.5">
<path d="M0 0H14.7772L57.3729 88.875H42.5488L0 0Z" fill="#EDEDED"/>
<path d="M24.5141 0H39.2913L81.887 88.875H67.0629L24.5141 0Z" fill="#EDEDED"/>
<path d="M49.0282 0H63.8054L106.401 88.875H91.5771L49.0282 0Z" fill="#EDEDED"/>
<path d="M73.5424 0H88.3195L130.915 88.875H116.091L73.5424 0Z" fill="#EDEDED"/>
<path d="M98.0565 0H112.834L155.429 88.875H140.605L98.0565 0Z" fill="#EDEDED"/>
<path d="M122.571 0H137.348L179.944 88.875H165.119L122.571 0Z" fill="#EDEDED"/>
<path d="M147.085 0H161.862L204.458 88.875H189.634L147.085 0Z" fill="#EDEDED"/>
<path d="M171.599 0H186.376L228.972 88.875H214.148L171.599 0Z" fill="#EDEDED"/>
<path d="M196.113 0H210.89L253.486 88.875H238.662L196.113 0Z" fill="#EDEDED"/>
<path d="M220.627 0H235.404L278 88.875H263.176L220.627 0Z" fill="#EDEDED"/>
</g>
</svg>
