<svg xmlns="http://www.w3.org/2000/svg" viewBox="0 0 259.88 69.6"><defs><style>.cls-1{fill:#141414;}.cls-2{fill:#31dbce;}.cls-3{fill:#fc6a42;}.cls-4{fill:#f9bd3a;}.cls-5,.cls-6{fill:none;stroke:#141414;stroke-miterlimit:10;stroke-width:3px;}.cls-5{stroke-linecap:square;}</style></defs><title>12Logo</title><g id="Слой_2" data-name="Слой 2"><g id="Logo"><g id="_Группа_" data-name="&lt;Группа&gt;"><path id="_Составной_контур_" data-name="&lt;Составной контур&gt;" class="cls-1" d="M99.7,43.54c0,3.9-3.07,7.05-9.32,7.05a13.15,13.15,0,0,1-8.82-3.11l2.68-5a10.08,10.08,0,0,0,5.17,2.36c2.39.25,3.57-.17,3.57-1,0-1-1.13-1.09-3.07-1.47-6.67-1.3-7.35-4.41-7.35-6.72,0-3.4,2.9-6.55,8.53-6.55a14.07,14.07,0,0,1,7,2.1l-2.56,5a7.38,7.38,0,0,0-4-1.52c-1.43-.12-2.27.21-2.27.76s.42.88,2.1,1.18C96.13,37.4,99.7,39.42,99.7,43.54Z"/><path id="_Составной_контур_2" data-name="&lt;Составной контур&gt;" class="cls-1" d="M116.57,42.78,120,47.27a11.54,11.54,0,0,1-8.23,3.32c-7,0-11.25-4.79-11.25-10.75s4.24-10.75,11.25-10.75c2.9,0,8,1.38,9.58,8.06l-11.93,7.14a4.52,4.52,0,0,0,2.1.42A7.47,7.47,0,0,0,116.57,42.78ZM107,40.22l7-4.16A2.52,2.52,0,0,0,111.78,35,4.55,4.55,0,0,0,107,40.22Z"/><path id="_Составной_контур_3" data-name="&lt;Составной контур&gt;" class="cls-1" d="M133.05,49.92V48.24a7,7,0,0,1-5.46,2.35c-4.7,0-7.3-3.28-7.3-7,0-5.5,6.76-7.65,12.68-5.84-.09-1.76-1.26-3.11-3.61-3.11a10.63,10.63,0,0,0-4.71,1.3l-2-4.83a15.16,15.16,0,0,1,7.73-2c4.91,0,9.4,2.77,9.4,10.33v10.5Zm-6-6.22a2.25,2.25,0,0,0,2.39,2.19c1.51,0,3.36-1.26,3.65-4C129.9,41,127,41.44,127,43.7Z"/><path id="_Составной_контур_4" data-name="&lt;Составной контур&gt;" class="cls-1" d="M155.11,29.09v7.39a6.47,6.47,0,0,0-3.7,0c-1.93.55-3.69,2.73-3.69,6v7.43H141V29.76h6.72V33.5C149.1,30.6,151.33,29.34,155.11,29.09Z"/><path id="_Составной_контур_5" data-name="&lt;Составной контур&gt;" class="cls-1" d="M171.21,42.78l3.44,4.49a10.17,10.17,0,0,1-7.55,3.32c-7,0-11.26-4.79-11.26-10.75s4.24-10.75,11.26-10.75a10.13,10.13,0,0,1,7.55,3.32l-3.44,4.49a4.92,4.92,0,0,0-3.78-1.76,4.7,4.7,0,1,0,0,9.4A4.92,4.92,0,0,0,171.21,42.78Z"/><path id="_Составной_контур_6" data-name="&lt;Составной контур&gt;" class="cls-1" d="M196,38.5V49.92h-6.72V39.17c0-3.36-1.89-4-3.36-4s-3.36,1.26-3.36,4.7V49.92h-6.72V19h6.72V31.78A6.28,6.28,0,0,1,188,29.09C192.22,29.09,196,32.2,196,38.5Z"/><path id="_Составной_контур_7" data-name="&lt;Составной контур&gt;" class="cls-2" d="M196.57,23a4,4,0,1,1,4,4A4,4,0,0,1,196.57,23Zm.68,6.72H204V49.92h-6.72Z"/><path id="_Составной_контур_8" data-name="&lt;Составной контур&gt;" class="cls-1" d="M208,29.76l4,8.48,4-8.48h7.39L212,50.59,200.61,29.76Z"/><path id="_Составной_контур_9" data-name="&lt;Составной контур&gt;" class="cls-1" d="M236.84,42.78l3.44,4.49a11.57,11.57,0,0,1-8.23,3.32c-7,0-11.26-4.79-11.26-10.75S225,29.09,232.05,29.09c2.9,0,8,1.38,9.57,8.06L229.7,44.29a4.49,4.49,0,0,0,2.1.42A7.49,7.49,0,0,0,236.84,42.78Zm-9.58-2.56,7-4.16A2.5,2.5,0,0,0,232.05,35,4.56,4.56,0,0,0,227.26,40.22Z"/><path id="_Составной_контур_10" data-name="&lt;Составной контур&gt;" class="cls-1" d="M259.88,43.54c0,3.9-3.06,7.05-9.32,7.05a13.18,13.18,0,0,1-8.82-3.11l2.69-5a10.08,10.08,0,0,0,5.17,2.36c2.39.25,3.57-.17,3.57-1,0-1-1.14-1.09-3.07-1.47-6.68-1.3-7.35-4.41-7.35-6.72,0-3.4,2.9-6.55,8.53-6.55a14.07,14.07,0,0,1,7,2.1l-2.56,5a7.38,7.38,0,0,0-3.95-1.52c-1.43-.12-2.27.21-2.27.76s.42.88,2.1,1.18C256.32,37.4,259.88,39.42,259.88,43.54Z"/><polygon id="_Контур_" data-name="&lt;Контур&gt;" class="cls-1" points="121.57 31.73 107 40.22 109.43 44.29 123.33 35.94 121.57 31.73"/></g><g id="_Группа_2" data-name="&lt;Группа&gt;"><circle id="_Контур_2" data-name="&lt;Контур&gt;" class="cls-3" cx="42.12" cy="40.02" r="9.43"/></g><g id="_Группа_3" data-name="&lt;Группа&gt;"><circle id="_Контур_3" data-name="&lt;Контур&gt;" class="cls-4" cx="24.85" cy="32.87" r="7.49"/></g><path id="_Контур_4" data-name="&lt;Контур&gt;" class="cls-2" d="M44.39,25.19A34.31,34.31,0,0,0,50.65,34l3.13,3.13S60,29,59.33,20.93A20.39,20.39,0,0,0,64.88,4.69a20.39,20.39,0,0,0-16.24,5.55c-8.09-.62-16.23,5.55-16.23,5.55l3.12,3.13A34.46,34.46,0,0,0,44.39,25.19Z"/><circle id="_Контур_5" data-name="&lt;Контур&gt;" class="cls-5" cx="38.19" cy="31.41" r="29.91"/><path id="_Контур_6" data-name="&lt;Контур&gt;" class="cls-5" d="M6.32,44A33.9,33.9,0,0,1,4,34"/><path id="_Контур_7" data-name="&lt;Контур&gt;" class="cls-5" d="M71.16,22.07a34.47,34.47,0,0,1,.46,16.85"/><line id="_Контур_8" data-name="&lt;Контур&gt;" class="cls-5" x1="49.61" y1="16.66" x2="28.06" y2="38.21"/><line id="_Контур_9" data-name="&lt;Контур&gt;" class="cls-5" x1="49.95" y1="22.98" x2="37.68" y2="35.26"/><path id="_Контур_10" data-name="&lt;Контур&gt;" class="cls-5" d="M23,27.87a6.1,6.1,0,0,1,5.11,1.73,6,6,0,0,1,.15,8.46"/><path id="_Контур_11" data-name="&lt;Контур&gt;" class="cls-5" d="M8.64,26.77A8.33,8.33,0,0,1,11,22a8.11,8.11,0,0,1,13.84,5.65"/><path id="_Контур_12" data-name="&lt;Контур&gt;" class="cls-5" d="M37.68,35.26a6.27,6.27,0,0,1,8.75.26,6.37,6.37,0,0,1,.7,8.19"/><path id="_Контур_13" data-name="&lt;Контур&gt;" class="cls-5" d="M43.44,44.29a8,8,0,0,1,7.5,13.46,8.49,8.49,0,0,1-3.56,2.13"/><path id="_Контур_14" data-name="&lt;Контур&gt;" class="cls-5" d="M17.4,63.69,14.13,67a3.91,3.91,0,0,1-5.52,0l-6-6a3.91,3.91,0,0,1,0-5.52L15.05,43.06a3.91,3.91,0,0,1,5.52,0l6,6a3.91,3.91,0,0,1,0,5.52l-2.29,2.29"/><circle class="cls-6" cx="39.18" cy="45.26" r="0.26"/><circle class="cls-6" cx="18.66" cy="28.45" r="0.26"/><circle class="cls-6" cx="3.81" cy="29.66" r="0.26"/><circle class="cls-6" cx="20.31" cy="60.57" r="0.26"/><circle class="cls-6" cx="52.94" cy="20.02" r="0.26"/><circle class="cls-6" cx="70.53" cy="43.2" r="0.26"/></g></g></svg>