<svg xmlns="http://www.w3.org/2000/svg" viewBox="0 0 387.31 289.66"><defs><style>.cls-1{fill:#f0f0f0;}.cls-2{fill:#f9bd3a;}.cls-3{fill:#fc6a42;}.cls-4{fill:#31dbce;}.cls-5,.cls-6{fill:none;stroke-miterlimit:10;stroke-width:4px;}.cls-5{stroke:#231f20;}.cls-6{stroke:#f0f0f0;}</style></defs><title>12Marketing</title><g id="Слой_2" data-name="Слой 2"><g id="Illustrations"><polygon class="cls-1" points="185.44 110.62 224.99 139.46 183.79 78.37 185.44 110.62"/><polygon class="cls-1" points="340.05 99.46 340.05 150.24 326.82 151.82 314.69 103.54 340.05 99.46"/><polygon class="cls-1" points="140.36 123.61 134.34 169.57 147.34 172.33 157 127.58 140.36 123.61"/><polygon class="cls-2" points="194.29 204.18 282.59 215.48 282.59 234 194.29 225.34 194.29 204.18"/><polygon class="cls-2" points="193.02 239.68 281.32 250.98 281.32 269.5 193.02 260.84 193.02 239.68"/><polygon class="cls-3" points="0 70.14 141.65 23.56 155.78 74.22 28.86 142.61 0 70.14"/><path class="cls-4" d="M168.11,31.5s9.25,17.32,36.37,17.32,45.88-2.17,66.8,16.59,26,37.07,32.47,34.05,32.47-62.91,19.48-77.34-62.79,2.16-83.34-3.61S168.11-26.94,168.11,31.5Z"/><circle id="_Контур_" data-name="&lt;Контур&gt;" class="cls-4" cx="292.33" cy="103.54" r="4.08"/><circle id="_Контур_2" data-name="&lt;Контур&gt;" class="cls-4" cx="268.67" cy="11.54" r="4.08"/><polygon id="_Контур_3" data-name="&lt;Контур&gt;" class="cls-3" points="34.92 149.56 69.05 131.57 51.07 165.71 34.92 149.56"/><circle id="_Контур_4" data-name="&lt;Контур&gt;" class="cls-3" cx="135.05" cy="17.97" r="3.88"/><circle id="_Контур_5" data-name="&lt;Контур&gt;" class="cls-3" cx="77.89" cy="124.66" r="3.88"/><circle id="_Контур_6" data-name="&lt;Контур&gt;" class="cls-2" cx="185.44" cy="196.05" r="5.21"/><circle id="_Контур_7" data-name="&lt;Контур&gt;" class="cls-2" cx="287.8" cy="274.71" r="5.21"/><circle id="_Контур_8" data-name="&lt;Контур&gt;" class="cls-1" cx="314.69" cy="137.56" r="4.2"/><circle id="_Контур_9" data-name="&lt;Контур&gt;" class="cls-1" cx="318.07" cy="150.38" r="4.2"/><circle id="_Контур_10" data-name="&lt;Контур&gt;" class="cls-1" cx="157" cy="172.33" r="4.2"/><circle id="_Контур_11" data-name="&lt;Контур&gt;" class="cls-1" cx="159.02" cy="160.6" r="4.2"/><circle id="_Контур_12" data-name="&lt;Контур&gt;" class="cls-1" cx="152.81" cy="27.59" r="4.2"/><path class="cls-5" d="M247.47,65.75s-11-9.75-38-8.45-30.21-1.95-29.92-13.64,1.1-32.4,12.39-32.12,37.46,15.87,55.56,16.52,56.81-3.89,50.77,23.39-28.12,33.14-14.48,50"/><path class="cls-5" d="M190.2,57l4.45,69.87s31.77,26,36.4,27.16,4,0,11,0,17.34-13.29,26-22.53,6.93-30,6.93-30"/><circle class="cls-5" cx="218.7" cy="87.4" r="9.03"/><circle class="cls-5" cx="253.25" cy="87.4" r="9.03"/><polyline class="cls-5" points="236.82 99.46 244.22 118.24 229.31 118.24"/><path class="cls-5" d="M190.2,137.56s39.11,25.43,57,49.06c17.59,23.27,21.22,62.77,76.05,71.43"/><path class="cls-5" d="M345.6,137.56c33.19,2.16,33.55,4.33,37.88-6.49s.36-19.48-5.16-22.22-39.94,0-39.94,0-26,4.9-36.07,22.94-20.48,50.5-45.6,50.5-15.74,6.74-27.4-2.4-29.9-22.06-47.25-31.51c-16.56-9-40.09-18.06-59.17-15.39-32.7,4.57-27.24,16.77-28,21.58s-2.82,18.52,14.74,11.85c19-7.22,18-5.77,19-7.22s3-20.2,3-20.2"/><line class="cls-5" x1="118.99" y1="162.99" x2="141.65" y2="219.81"/><line class="cls-5" x1="94.46" y1="101.48" x2="108.32" y2="136.24"/><polygon class="cls-5" points="33.01 124.66 146.27 82.06 125.06 15.63 5.43 59.68 33.01 124.66"/><path class="cls-5" d="M146.27,146.16c21.65,6.73,38.67,15.81,56.47,28.92,10.33,7.6,27.11,17.91,29.91,22.72,0,0,3.28,1.57,8.33,0s11.56-3,11.56-3"/><path class="cls-5" d="M199.41,186.62s16.55,7.7,29.9,40.89,10.58,49.54,10.58,49.54l35.21,10.1L282.59,254s-15.34-5.56-35.13-46.66"/><polyline class="cls-6" points="125.68 101.48 168.11 83.09 154.83 37.93"/></g></g></svg>