<svg xmlns="http://www.w3.org/2000/svg" viewBox="0 0 114.87 115.03"><defs><style>.cls-1{fill:#31dbce;}.cls-2{fill:#fc6a42;}.cls-3{fill:#f9bd3a;}.cls-4,.cls-5{fill:none;stroke:#141414;stroke-linecap:square;stroke-miterlimit:10;}.cls-4{stroke-width:3px;}.cls-5{stroke-width:4px;}</style></defs><title>12Pencil</title><g id="Слой_2" data-name="Слой 2"><g id="Illustrations"><circle class="cls-1" cx="11.96" cy="103.07" r="11.96"/><rect class="cls-2" x="81.33" y="1.5" width="17.72" height="46.35" transform="translate(8.96 71) rotate(-45)"/><rect class="cls-3" x="17.2" y="42.46" width="54.47" height="23.19" transform="translate(-25.21 47.25) rotate(-45)"/><polygon class="cls-3" points="33.38 81.51 49.31 98.33 88.27 59.37 71.89 42.99 33.38 81.51"/><line class="cls-4" x1="71.89" y1="42.98" x2="31.96" y2="82.9"/><path class="cls-4" d="M29.22,85.65c2.93-2.93,1.64-9-2.89-13.5s-10.57-5.82-13.5-2.89L55.5,26.6,88.27,59.37,45.61,102c2.93-2.94,1.64-9-2.89-13.51s-10.57-5.81-13.5-2.88"/><polyline class="cls-4" points="12.83 69.26 10.74 71.35 9.06 105.81 43.52 104.13 45.61 102.04"/><line class="cls-5" x1="62.99" y1="26.26" x2="88.58" y2="51.86"/><line class="cls-5" x1="67.18" y1="22.07" x2="92.77" y2="47.67"/><path class="cls-4" d="M68.48,14.68h44.35a1,1,0,0,1,1,1V33.74a0,0,0,0,1,0,0H67.48a0,0,0,0,1,0,0V15.68a1,1,0,0,1,1-1Z" transform="translate(43.67 -57.02) rotate(45)"/><line class="cls-4" x1="11.96" y1="102.91" x2="16.98" y2="97.89"/></g></g></svg>