<svg width="170" height="168" viewBox="0 0 170 168" fill="none" xmlns="http://www.w3.org/2000/svg">
<path d="M159.458 167.731H72.5795C63.0872 167.732 53.6876 165.884 44.9175 162.293C36.1474 158.701 28.1786 153.436 21.4661 146.799C14.7536 140.161 9.42885 132.282 5.79603 123.609C2.16321 114.937 0.293457 105.641 0.293457 96.2541V10.3384C0.293457 7.61928 1.38572 5.01154 3.32996 3.08883C5.27421 1.16612 7.91118 0.0859375 10.6608 0.0859375H97.5388C107.031 0.0859374 116.43 1.93503 125.2 5.52761C133.97 9.12019 141.938 14.3859 148.65 21.024C155.361 27.6622 160.685 35.5427 164.317 44.2157C167.949 52.8886 169.817 62.1841 169.816 71.5713V157.487C169.814 160.203 168.722 162.807 166.78 164.728C164.838 166.649 162.204 167.729 159.458 167.731Z" fill="url(#paint0_linear)"/>
<defs>
<linearGradient id="paint0_linear" x1="145731" y1="92493.2" x2="178994" y2="92493.2" gradientUnits="userSpaceOnUse">
<stop stop-color="#B65490"/>
<stop offset="0.97" stop-color="#EA2191"/>
</linearGradient>
</defs>
</svg>
