<?xml version="1.0" encoding="utf-8"?><!DOCTYPE svg PUBLIC "-//W3C//DTD SVG 1.1//EN" "http://www.w3.org/Graphics/SVG/1.1/DTD/svg11.dtd"><svg xmlns="http://www.w3.org/2000/svg" xmlns:xlink="http://www.w3.org/1999/xlink"><symbol viewBox="0 0 82.31 86.5" id="121" xmlns="http://www.w3.org/2000/svg"><defs><style>.aacls-1{fill:#f0f0f0}.aacls-2,.aacls-4{fill:none;stroke-miterlimit:10;stroke-width:4px}.aacls-2{stroke:#f0f0f0}.aacls-3{fill:#fc6a42}.aacls-4{stroke:#141414}</style></defs><g id="aaСлой_2" data-name="Слой 2"><g id="aaIllustrations"><path id="aa_Контур_" data-name="&lt;Контур>" class="aacls-1" d="M17.42 48.51l20.02-23.72 28.75 11.7-2.26 30.96-30.13 7.42-16.38-26.36z"/><circle id="aa_Контур_2" data-name="&lt;Контур>" class="aacls-1" cx="76.5" cy="73.47" r="5.81"/><path class="aacls-2" d="M12.11 51.36L29 84.21l38.21-8.54"/><circle class="aacls-3" cx="29.64" cy="26.54" r="18.45"/><path id="aa_Контур_3" data-name="&lt;Контур>" class="aacls-4" d="M33.21 38.95l2.19-29.6 28.82-7.06 15.62 25.22-19.16 22.66-27.47-11.22z"/><circle id="aa_Контур_4" data-name="&lt;Контур>" class="aacls-3" cx="3.69" cy="32.26" r="3.69"/></g></g></symbol><symbol viewBox="0 0 46.74 58.99" id="122" xmlns="http://www.w3.org/2000/svg"><defs><style>.abcls-1{fill:#31dbce}.abcls-2{fill:#f0f0f0}.abcls-3{fill:none;stroke:#141414;stroke-miterlimit:10;stroke-width:4px}</style></defs><g id="abСлой_2" data-name="Слой 2"><g id="abIllustrations"><path id="ab_Контур_" data-name="&lt;Контур>" class="abcls-1" d="M20.53 58.99l.77-23.84 20.26 12.58-21.03 11.26z"/><path id="ab_Контур_2" data-name="&lt;Контур>" class="abcls-2" d="M0 39.19L1.25 0l33.31 20.68L0 39.19z"/><path id="ab_Контур_3" data-name="&lt;Контур>" class="abcls-3" d="M8.18 54.67l1.25-39.18 33.31 20.67L8.18 54.67z"/></g></g></symbol><symbol viewBox="0 0 259.88 69.6" id="12Logo" xmlns="http://www.w3.org/2000/svg"><defs><style>.accls-1{fill:#141414}.accls-2{fill:#31dbce}.accls-3{fill:#fc6a42}.accls-4{fill:#f9bd3a}.accls-5,.accls-6{fill:none;stroke:#141414;stroke-miterlimit:10;stroke-width:3px}.accls-5{stroke-linecap:square}</style></defs><g id="acСлой_2" data-name="Слой 2"><g id="acLogo"><g id="ac_Группа_" data-name="&lt;Группа>"><path id="ac_Составной_контур_" data-name="&lt;Составной контур>" class="accls-1" d="M99.7 43.54c0 3.9-3.07 7.05-9.32 7.05a13.15 13.15 0 0 1-8.82-3.11l2.68-5a10.08 10.08 0 0 0 5.17 2.36c2.39.25 3.57-.17 3.57-1 0-1-1.13-1.09-3.07-1.47-6.67-1.3-7.35-4.41-7.35-6.72 0-3.4 2.9-6.55 8.53-6.55a14.07 14.07 0 0 1 7 2.1l-2.56 5a7.38 7.38 0 0 0-4-1.52c-1.43-.12-2.27.21-2.27.76s.42.88 2.1 1.18c4.77.78 8.34 2.8 8.34 6.92z"/><path id="ac_Составной_контур_2" data-name="&lt;Составной контур>" class="accls-1" d="M116.57 42.78l3.43 4.49a11.54 11.54 0 0 1-8.23 3.32c-7 0-11.25-4.79-11.25-10.75s4.24-10.75 11.25-10.75c2.9 0 8 1.38 9.58 8.06l-11.93 7.14a4.52 4.52 0 0 0 2.1.42 7.47 7.47 0 0 0 5.05-1.93zM107 40.22l7-4.16a2.52 2.52 0 0 0-2.22-1.06 4.55 4.55 0 0 0-4.78 5.22z"/><path id="ac_Составной_контур_3" data-name="&lt;Составной контур>" class="accls-1" d="M133.05 49.92v-1.68a7 7 0 0 1-5.46 2.35c-4.7 0-7.3-3.28-7.3-7 0-5.5 6.76-7.65 12.68-5.84-.09-1.76-1.26-3.11-3.61-3.11a10.63 10.63 0 0 0-4.71 1.3l-2-4.83a15.16 15.16 0 0 1 7.73-2c4.91 0 9.4 2.77 9.4 10.33v10.5zm-6-6.22a2.25 2.25 0 0 0 2.39 2.19c1.51 0 3.36-1.26 3.65-4-3.19-.89-6.09-.45-6.09 1.81z"/><path id="ac_Составной_контур_4" data-name="&lt;Составной контур>" class="accls-1" d="M155.11 29.09v7.39a6.47 6.47 0 0 0-3.7 0c-1.93.55-3.69 2.73-3.69 6v7.43H141V29.76h6.72v3.74c1.38-2.9 3.61-4.16 7.39-4.41z"/><path id="ac_Составной_контур_5" data-name="&lt;Составной контур>" class="accls-1" d="M171.21 42.78l3.44 4.49a10.17 10.17 0 0 1-7.55 3.32c-7 0-11.26-4.79-11.26-10.75s4.24-10.75 11.26-10.75a10.13 10.13 0 0 1 7.55 3.32l-3.44 4.49a4.92 4.92 0 0 0-3.78-1.76 4.7 4.7 0 1 0 0 9.4 4.92 4.92 0 0 0 3.78-1.76z"/><path id="ac_Составной_контур_6" data-name="&lt;Составной контур>" class="accls-1" d="M196 38.5v11.42h-6.72V39.17c0-3.36-1.89-4-3.36-4s-3.36 1.26-3.36 4.7v10.05h-6.72V19h6.72v12.78a6.28 6.28 0 0 1 5.44-2.69c4.22 0 8 3.11 8 9.41z"/><path id="ac_Составной_контур_7" data-name="&lt;Составной контур>" class="accls-2" d="M196.57 23a4 4 0 1 1 4 4 4 4 0 0 1-4-4zm.68 6.72H204v20.2h-6.72z"/><path id="ac_Составной_контур_8" data-name="&lt;Составной контур>" class="accls-1" d="M208 29.76l4 8.48 4-8.48h7.39L212 50.59l-11.39-20.83z"/><path id="ac_Составной_контур_9" data-name="&lt;Составной контур>" class="accls-1" d="M236.84 42.78l3.44 4.49a11.57 11.57 0 0 1-8.23 3.32c-7 0-11.26-4.79-11.26-10.75s4.21-10.75 11.26-10.75c2.9 0 8 1.38 9.57 8.06l-11.92 7.14a4.49 4.49 0 0 0 2.1.42 7.49 7.49 0 0 0 5.04-1.93zm-9.58-2.56l7-4.16a2.5 2.5 0 0 0-2.21-1.06 4.56 4.56 0 0 0-4.79 5.22z"/><path id="ac_Составной_контур_10" data-name="&lt;Составной контур>" class="accls-1" d="M259.88 43.54c0 3.9-3.06 7.05-9.32 7.05a13.18 13.18 0 0 1-8.82-3.11l2.69-5a10.08 10.08 0 0 0 5.17 2.36c2.39.25 3.57-.17 3.57-1 0-1-1.14-1.09-3.07-1.47-6.68-1.3-7.35-4.41-7.35-6.72 0-3.4 2.9-6.55 8.53-6.55a14.07 14.07 0 0 1 7 2.1l-2.56 5a7.38 7.38 0 0 0-3.95-1.52c-1.43-.12-2.27.21-2.27.76s.42.88 2.1 1.18c4.72.78 8.28 2.8 8.28 6.92z"/><path id="ac_Контур_" data-name="&lt;Контур>" class="accls-1" d="M121.57 31.73L107 40.22l2.43 4.07 13.9-8.35-1.76-4.21z"/></g><g id="ac_Группа_2" data-name="&lt;Группа>"><circle id="ac_Контур_2" data-name="&lt;Контур>" class="accls-3" cx="42.12" cy="40.02" r="9.43"/></g><g id="ac_Группа_3" data-name="&lt;Группа>"><circle id="ac_Контур_3" data-name="&lt;Контур>" class="accls-4" cx="24.85" cy="32.87" r="7.49"/></g><path id="ac_Контур_4" data-name="&lt;Контур>" class="accls-2" d="M44.39 25.19A34.31 34.31 0 0 0 50.65 34l3.13 3.13S60 29 59.33 20.93a20.39 20.39 0 0 0 5.55-16.24 20.39 20.39 0 0 0-16.24 5.55c-8.09-.62-16.23 5.55-16.23 5.55l3.12 3.13a34.46 34.46 0 0 0 8.86 6.27z"/><circle id="ac_Контур_5" data-name="&lt;Контур>" class="accls-5" cx="38.19" cy="31.41" r="29.91"/><path id="ac_Контур_6" data-name="&lt;Контур>" class="accls-5" d="M6.32 44A33.9 33.9 0 0 1 4 34"/><path id="ac_Контур_7" data-name="&lt;Контур>" class="accls-5" d="M71.16 22.07a34.47 34.47 0 0 1 .46 16.85"/><path id="ac_Контур_8" data-name="&lt;Контур>" class="accls-5" d="M49.61 16.66L28.06 38.21"/><path id="ac_Контур_9" data-name="&lt;Контур>" class="accls-5" d="M49.95 22.98L37.68 35.26"/><path id="ac_Контур_10" data-name="&lt;Контур>" class="accls-5" d="M23 27.87a6.1 6.1 0 0 1 5.11 1.73 6 6 0 0 1 .15 8.46"/><path id="ac_Контур_11" data-name="&lt;Контур>" class="accls-5" d="M8.64 26.77A8.33 8.33 0 0 1 11 22a8.11 8.11 0 0 1 13.84 5.65"/><path id="ac_Контур_12" data-name="&lt;Контур>" class="accls-5" d="M37.68 35.26a6.27 6.27 0 0 1 8.75.26 6.37 6.37 0 0 1 .7 8.19"/><path id="ac_Контур_13" data-name="&lt;Контур>" class="accls-5" d="M43.44 44.29a8 8 0 0 1 7.5 13.46 8.49 8.49 0 0 1-3.56 2.13"/><path id="ac_Контур_14" data-name="&lt;Контур>" class="accls-5" d="M17.4 63.69L14.13 67a3.91 3.91 0 0 1-5.52 0l-6-6a3.91 3.91 0 0 1 0-5.52l12.44-12.42a3.91 3.91 0 0 1 5.52 0l6 6a3.91 3.91 0 0 1 0 5.52l-2.29 2.29"/><circle class="accls-6" cx="39.18" cy="45.26" r=".26"/><circle class="accls-6" cx="18.66" cy="28.45" r=".26"/><circle class="accls-6" cx="3.81" cy="29.66" r=".26"/><circle class="accls-6" cx="20.31" cy="60.57" r=".26"/><circle class="accls-6" cx="52.94" cy="20.02" r=".26"/><circle class="accls-6" cx="70.53" cy="43.2" r=".26"/></g></g></symbol><symbol viewBox="0 0 114.87 115.03" id="12Pencil" xmlns="http://www.w3.org/2000/svg"><defs><style>.adcls-1{fill:#31dbce}.adcls-2{fill:#fc6a42}.adcls-3{fill:#f9bd3a}.adcls-4,.adcls-5{fill:none;stroke:#141414;stroke-linecap:square;stroke-miterlimit:10}.adcls-4{stroke-width:3px}.adcls-5{stroke-width:4px}</style></defs><g id="adСлой_2" data-name="Слой 2"><g id="adIllustrations"><circle class="adcls-1" cx="11.96" cy="103.07" r="11.96"/><path class="adcls-2" transform="rotate(-45 90.185 24.684)" d="M81.33 1.5h17.72v46.35H81.33z"/><path class="adcls-3" transform="rotate(-45 44.43 54.056)" d="M17.2 42.46h54.47v23.19H17.2z"/><path class="adcls-3" d="M33.38 81.51l15.93 16.82 38.96-38.96-16.38-16.38-38.51 38.52z"/><path class="adcls-4" d="M71.89 42.98L31.96 82.9M29.22 85.65c2.93-2.93 1.64-9-2.89-13.5s-10.57-5.82-13.5-2.89L55.5 26.6l32.77 32.77L45.61 102c2.93-2.94 1.64-9-2.89-13.51s-10.57-5.81-13.5-2.88"/><path class="adcls-4" d="M12.83 69.26l-2.09 2.09-1.68 34.46 34.46-1.68 2.09-2.09"/><path class="adcls-5" d="M62.99 26.26l25.59 25.6M67.18 22.07l25.59 25.6"/><path class="adcls-4" d="M68.48 14.68h44.35a1 1 0 0 1 1 1v18.06H67.48V15.68a1 1 0 0 1 1-1z" transform="rotate(45 90.664 24.204)"/><path class="adcls-4" d="M11.96 102.91l5.02-5.02"/></g></g></symbol><symbol viewBox="0 0 95.8 76.39" id="12Star" xmlns="http://www.w3.org/2000/svg"><defs><style>.aecls-1{fill:#f9bd3a}.aecls-2,.aecls-3{fill:none;stroke-miterlimit:10}.aecls-2{stroke:#141414;stroke-width:4px}.aecls-3{stroke:#f9bd3a;stroke-width:3px}</style></defs><g id="aeСлой_2" data-name="Слой 2"><g id="aeIllustrations"><path class="aecls-1" d="M27.17 2.28l15.26 18.2 23.64-2.26-12.59 20.13 9.45 21.78-23.03-5.75L22.1 70.1l-1.65-23.68L0 34.35l22.02-8.89 5.15-23.18z"/><circle id="ae_Контур_" data-name="&lt;Контур>" class="aecls-1" cx="42.47" cy="4.39" r="3.69"/><circle id="ae_Контур_2" data-name="&lt;Контур>" class="aecls-1" cx="11.44" cy="53.7" r="3.69"/><path class="aecls-2" d="M53.07 4.39l15.25 18.19 23.64-2.26-12.59 20.14 9.45 21.78-23.03-5.75-17.8 15.72-1.65-23.69-20.45-12.06 22.02-8.89 5.16-23.18z"/><path class="aecls-3" d="M20.37 4.39l-3.56 17.74-11.32 4.28"/></g></g></symbol><symbol viewBox="0 0 365.59 800.56" id="12right" xmlns="http://www.w3.org/2000/svg"><defs><style>.afcls-1{fill:#f0f0f0}.afcls-2{fill:#fc6a42}.afcls-3,.afcls-5{fill:none;stroke-miterlimit:10;stroke-width:4px}.afcls-3{stroke:#f9bd3a}.afcls-4{fill:#141414}.afcls-5{stroke:#141414}</style></defs><g id="afСлой_2" data-name="Слой 2"><g id="afIllustrations"><path class="afcls-1" d="M314.65 492.17s38.56 141.2-19 271.25l58.06 18.21s17.69-232.81-39.06-289.46z"/><path class="afcls-2" d="M326 684.14a53.29 53.29 0 0 0-14.71 2.07 22.85 22.85 0 0 1-1.47 6.65c-1.64 4-3.09 8.07-4.5 12.13-3 13.55-7.27 27.78-13.39 40.2-1 2-2.08 4-3.22 5.9a68.11 68.11 0 0 1-7.89 14.51 53.25 53.25 0 0 0 84.77 7.4v-71.21A53.11 53.11 0 0 0 326 684.14zM365.59 597.28l-30.93 2.29-12.87 52.57 43.8 27.11v-81.97zM365.59 439.96l-63.95-2.39 31.66 141.64 32.29-36.59V439.96z"/><path class="afcls-1" d="M141.53 85.28l-95.64 24S86.32 252.72 248.16 357.1c0 0-86.53-100.47-106.63-271.82zM347.44 22.17L255 13.73S221.91 199.42 301.44 315c0 0 18.84-12.56 15.28-33.49s6.4-229.81 30.72-259.34z"/><path class="afcls-3" d="M252.05 632.82c-11.34-6.26-19.26 9.76-18.7 11.72s29 15.63 29 15.63 3.65-10.33 3.65-15.91-9-9.12-9-9.12 47.87-48.65 35.16-108c-11.45-53.52-12.5-110.32-12.5-110.32s-5 32.5-2 63.07C283 534.4 298.67 529.11 242 600.44c0 0 7 5.45 5.16 11.45s-13.84 15.76-13.84 15.76-18.95-23.16-19.09-25.39 13-17.44 23.86-6"/><path class="afcls-2" d="M165.18 102.09l12.74-74.74-67.07 35.35-67.14-35.21L56.6 102.2 31.21 127c.35.86.69 1.73 1 2.61.22.62.46 1.23.69 1.85 4.93 10.45 10.9 20.35 16.44 30.54l28.07 4L111 234l33.48-68 75-11z"/><circle id="af_Контур_" data-name="&lt;Контур>" class="afcls-2" cx="118.65" cy="147.34" r="3.42"/><circle id="af_Контур_2" data-name="&lt;Контур>" class="afcls-2" cx="316.72" cy="279.59" r="3.42"/><circle id="af_Контур_3" data-name="&lt;Контур>" class="afcls-2" cx="348.42" cy="591.44" r="3.42"/><circle id="af_Контур_4" data-name="&lt;Контур>" class="afcls-2" cx="360.24" cy="687.56" r="3.42"/><circle id="af_Контур_5" data-name="&lt;Контур>" class="afcls-2" cx="331.96" cy="432.4" r="3.42"/><circle id="af_Контур_6" data-name="&lt;Контур>" class="afcls-1" cx="284.22" cy="781.63" r="3.42"/><circle id="af_Контур_7" data-name="&lt;Контур>" class="afcls-1" cx="169.93" cy="192.98" r="3.42"/><circle id="af_Контур_8" data-name="&lt;Контур>" class="afcls-1" cx="198.81" cy="176.7" r="3.42"/><circle id="af_Контур_9" data-name="&lt;Контур>" class="afcls-1" cx="347.44" cy="44.49" r="3.42"/><circle id="af_Контур_10" data-name="&lt;Контур>" class="afcls-1" cx="240.95" cy="34.64" r="3.42"/><circle id="af_Контур_11" data-name="&lt;Контур>" class="afcls-1" cx="327.47" cy="192.47" r="3.42"/><circle id="af_Контур_12" data-name="&lt;Контур>" class="afcls-2" cx="210.19" cy="70.97" r="3.42"/><circle id="af_Контур_13" data-name="&lt;Контур>" class="afcls-2" cx="237.53" cy="47.91" r="3.42"/><circle id="af_Контур_14" data-name="&lt;Контур>" class="afcls-2" cx="297.8" cy="147.34" r="3.42"/><circle id="af_Контур_15" data-name="&lt;Контур>" class="afcls-2" cx="305.07" cy="205.84" r="3.42"/><circle id="af_Контур_16" data-name="&lt;Контур>" class="afcls-2" cx="145.02" cy="256.41" r="3.42"/><circle id="af_Контур_17" data-name="&lt;Контур>" class="afcls-2" cx="125.49" cy="44.49" r="3.42"/><circle class="afcls-2" cx="324.05" cy="236.03" r="29.81"/><circle class="afcls-2" cx="216.05" cy="247.32" r="63.33"/><path class="afcls-2" d="M259.25 176.7L356.4 23.59 205.74 41.8l53.51 134.9zM274.9 294.61l53.45-8.47 24.57 48.22-38.27 38.27-48.21-24.57 8.46-53.45z"/><circle id="af_Контур_18" data-name="&lt;Контур>" class="afcls-4" cx="357.4" cy="481" r="3.69"/><circle id="af_Контур_19" data-name="&lt;Контур>" class="afcls-4" cx="279.55" cy="230.21" r="3.69"/><circle id="af_Контур_20" data-name="&lt;Контур>" class="afcls-4" cx="343.75" cy="307.36" r="3.69"/><circle id="af_Контур_21" data-name="&lt;Контур>" class="afcls-4" cx="343.75" cy="407.82" r="3.69"/><circle id="af_Контур_22" data-name="&lt;Контур>" class="afcls-4" cx="156.26" cy="136.04" r="3.69"/><circle id="af_Контур_23" data-name="&lt;Контур>" class="afcls-4" cx="49.58" cy="63.86" r="3.69"/><circle id="af_Контур_24" data-name="&lt;Контур>" class="afcls-4" cx="358.23" cy="723.65" r="3.69"/><path class="afcls-5" d="M281.07 384.45S2 226 2 .48M292.23 384.45S54.47 203.41 54.47.48M301.44 384.45S103 203.41 103 .48M309 384.45S150.74 205.08 150.74.48"/><path class="afcls-2" d="M365.59 113.35a42.23 42.23 0 1 0 0 74.81z"/><path class="afcls-5" d="M328.21 383.23S213.53 224.34 213.53.48M337.76 383.23S267.12 221 267.12.48M346 382.62S288.33 200.34 338.28.48M286.09 416.82s46.79 144.65 28.56 248.28-43.35 96-43.35 135.38"/><path class="afcls-5" d="M295.09 416.18s41.51 79.61 43.19 180.08-22.61 154.92-29.28 168.3-13.89 20.8-13.89 35.92"/><path class="afcls-5" d="M314.65 416.18s32 54.5 39.54 130.68 1.67 164.88-15.91 201.32-23 33.83-23.63 52.3M336 784.44s16.25-23.44 21.4-49.86M341.35 429.47s10.79 23.44 14.14 40.93M253.72 38.06S252.05 140.84 276.33 220M158.84 143.33s20.09 64.31 51.35 113.08M51.67 72.21s2.8 54.16 56.38 127.66"/><path class="afcls-3" d="M262.37 660.17l-6.7 18.13M259.02 658.54l-8.09 17.25M253.81 655.97l-6.79 17.31M250.42 654.27l-9.26 16.5M244.5 651.25l-7.52 17.99M240.74 649.25l-8.51 17.92M236.49 646.86l-8.44 17.77M233.35 644.54l-10.61 15.7M233.32 627.65l-14.2 14.93M230.22 623.83l-14.17 11.29M226.22 619.98l-11.99 12M223.95 615.94l-15.44 13.53M221.27 612.5l-15.83 13.48M218.36 608.65l-16.27 12.72M216.05 605.43l-15.07 10.51M214.23 602.26l-16.32 8.43"/><path class="afcls-4" d="M355 380v4a6 6 0 0 1 4.7 1.67c1.87 2 2 5.73 1.88 7v.48c.32 13.85-.89 22.27-3.58 25a4.11 4.11 0 0 1-3.33 1.13c-2.33 0-5.38-.77-8.91-1.65A78.33 78.33 0 0 0 331 415c-4.39-.26-9.69-.38-16.21-.38s-13.39.12-19.95.24c-5.62.1-10.93.2-15.36.2a77.62 77.62 0 0 1-10.29-.4c-.71-1.73-1.56-6.9-1.06-14.54.53-8.13 2.2-12.54 3.12-13.8a88.26 88.26 0 0 0 11.26.43c20.48 0 60.7-1.92 71.51-2.69h1v-4m0 0h-1.26c-10.43.75-50.75 2.68-71.22 2.68a80.58 80.58 0 0 1-11.19-.47 3.05 3.05 0 0 0-.52-.05c-7.63 0-8.85 34.09-3.66 36 1.62.61 6.18.79 12.34.79 9.55 0 23-.44 35.31-.44 5.71 0 11.2.09 16 .37 9.72.57 17.9 4.29 23.89 4.29 7.42 0 11.47-5.72 10.91-30.24 0 0 1.27-13-10.57-13z"/><path class="afcls-5" d="M341.35 90.31s-12.36 123.3 0 206.51M350.65 401.61s-7.73-3.32-12-1.13-7.14 2.66-12.62 1.13-9.19-2.95-17-1.13-31.63.59-31.63.59"/></g></g></symbol><symbol viewBox="0 0 96.25 107.59" id="12Ресурс_1" xmlns="http://www.w3.org/2000/svg"><defs><style>.agcls-1{fill:#fc6a42}.agcls-2{fill:none;stroke:#000;stroke-miterlimit:10;stroke-width:4px}</style></defs><g id="agСлой_2" data-name="Слой 2"><g id="agIllustrations"><path class="agcls-1" transform="rotate(-29.99 48.132 52.144)" d="M-2.66 43.87H98.92v16.55H-2.66z"/><path class="agcls-2" d="M61.26 35.19A25 25 0 0 0 55.73 31a12.55 12.55 0 0 0-5.88-1.32 7.84 7.84 0 0 0-4.67 1.57 4.83 4.83 0 0 0-2.28 4.16q0 3.64 5 5.78t10.4 4.21a23.64 23.64 0 0 1 9.32 6.74q3.91 4.66 3.91 13.69 0 11.56-7 17.75T47 89.79a34.36 34.36 0 0 1-12-2.13 28.6 28.6 0 0 1-10.24-6.38l9.53-13.59a14.58 14.58 0 0 0 12 5.78A10.82 10.82 0 0 0 52 71.79 5.23 5.23 0 0 0 54.72 67c0-2.47-1.68-4.43-5-5.88q-2.23-1-5.18-2.18l-2.65-1.04-2.69-1.11A24.11 24.11 0 0 1 29.92 50q-3.86-4.45-3.85-13.33a21.06 21.06 0 0 1 3.34-11.87 21.55 21.55 0 0 1 8.68-7.7 24.87 24.87 0 0 1 11.3-2.64 29.46 29.46 0 0 1 11 2.13 30.06 30.06 0 0 1 9.59 6.18zM42.86 2v100.29M54.89 2v100.29M90.47 77.14S80.2 73.62 78.15 78.9s5 12.25 4.15 15.77-4.63 10.92-4.63 10.92H96M73.67 91.37h22.58M19.86 31.59a14.8 14.8 0 1 1 0-29.59M0 13.31h19.86M0 20.28h19.86"/></g></g></symbol><symbol viewBox="0 0 77.86 104.29" id="12Ресурс_3" xmlns="http://www.w3.org/2000/svg"><defs><style>.ahcls-1{fill:#141414}.ahcls-2{fill:none;stroke:#000;stroke-miterlimit:10;stroke-width:4px}.ahcls-3{fill:#31dbce}</style></defs><g id="ahСлой_2" data-name="Слой 2"><g id="ahIllustrations"><circle id="ah_Контур_" data-name="&lt;Контур>" class="ahcls-1" cx="3.69" cy="9.05" r="3.69"/><circle id="ah_Контур_2" data-name="&lt;Контур>" class="ahcls-1" cx="74.17" cy="9.05" r="3.69"/><path class="ahcls-2" d="M0 2h77.86"/><circle id="ah_Контур_3" data-name="&lt;Контур>" class="ahcls-1" cx="3.69" cy="95.24" r="3.69"/><circle id="ah_Контур_4" data-name="&lt;Контур>" class="ahcls-1" cx="74.17" cy="95.24" r="3.69"/><path class="ahcls-2" d="M0 102.29h77.86"/><path d="M62.44 36.09c4.68-2.21 5.17-12.53 5.21-15.67V7.05H10.21v13.4c0 3.11.53 13.43 5.21 15.64 4.94 2.34 13.29 7.52 14.19 16.06-.9 8.53-9.25 13.71-14.19 16.05-4.68 2.22-5.17 12.53-5.21 15.67v13.37h57.44v-13.4c0-3.11-.53-13.42-5.21-15.64-4.93-2.34-13.29-7.52-14.19-16.05.9-8.54 9.26-13.72 14.19-16.06zM44.24 52v.37c.72 7.88 6.58 14.8 16.48 19.48 1.64.78 2.86 7 2.93 12.06v9.37H14.21v-9.39c.06-5.09 1.28-11.3 2.92-12.08C27 67.12 32.9 60.2 33.62 52.33V52C32.9 44.09 27 37.17 17.13 32.48c-1.63-.78-2.85-7-2.92-12.06v-9.37h49.44v9.35c-.06 5.09-1.28 11.3-2.92 12.08C50.82 37.17 45 44.09 44.24 52z"/><path class="ahcls-3" d="M58.7 76.41c-3.43-5.6-9.21-1.94-12.37-.92s-5.67-3.15-5.67-3.16c0-.44-.09-.9-.13-1.39-.27-4-.29-18.61-.29-18.61V52v-.36c.74-8.06 5.81-15.18 14.41-20.4a2.68 2.68 0 0 1-1.74-.59c-1.49-1.26-9.67-1.35-15.44 0s-7.72-.88-13.68-1a12.11 12.11 0 0 0-3 .24c10 5.31 16 13 16.77 21.73v.73s.54 15-.5 20c-2 6.14-9.12 3.72-13.49 4.37s-5.15 3.41-5.15 3.41a34.34 34.34 0 0 0-.27 3.83v5.3h41.5v-5.39a32.55 32.55 0 0 0-.95-7.46z"/></g></g></symbol><symbol viewBox="0 0 101.28 105.06" id="12Ресурс_4" xmlns="http://www.w3.org/2000/svg"><defs><style>.aicls-1{fill:#f9bd3a}.aicls-2{fill:none;stroke:#000;stroke-miterlimit:10;stroke-width:4px}</style></defs><g id="aiСлой_2" data-name="Слой 2"><g id="aiIllustrations"><path class="aicls-1" d="M65.1 13.57l10.14 20.56 22.7 3.3-16.42 16.01 3.87 22.6L65.1 65.37 44.8 76.04l3.88-22.6-16.42-16.01 22.69-3.3L65.1 13.57z"/><path class="aicls-2" d="M50.64 4.52l14.13 28.62 31.59 4.59L73.5 60.01l5.39 31.46-28.25-14.85-28.25 14.85 5.39-31.46L4.92 37.73l31.59-4.59L50.64 4.52z"/><path class="aicls-1" d="M21.43 8.82a.23.23 0 0 0-.2-.1.28.28 0 0 0-.15 0l-2.8 2a.23.23 0 0 0-.1.16.25.25 0 0 0 0 .19l5.92 8.14a.25.25 0 0 0 .2.1l1.85-.26a.26.26 0 0 0 .18-.14l.93-1.87a.27.27 0 0 0 0-.26zM80.19 8.76a.23.23 0 0 0-.14 0 .22.22 0 0 0-.2.1l-5.85 8a.27.27 0 0 0 0 .26l.91 1.88a.26.26 0 0 0 .18.14l1.85.26a.25.25 0 0 0 .2-.1l5.92-8.14a.25.25 0 0 0 0-.19.27.27 0 0 0-.1-.16zM101.25 66.83a.29.29 0 0 0-.14-.13l-9.21-3h-.08a.24.24 0 0 0-.18.07l-1.55 1.51a.23.23 0 0 0-.07.22l.3 1.73a.25.25 0 0 0 .17.2l9.39 3h.12a.25.25 0 0 0 .23-.17l1.08-3.3a.25.25 0 0 0-.06-.13zM9.64 63.77a.24.24 0 0 0-.18-.07h-.08l-9.21 3a.29.29 0 0 0-.14.13A.25.25 0 0 0 0 67l1.07 3.3a.27.27 0 0 0 .24.17h.09l9.39-3a.25.25 0 0 0 .17-.2l.3-1.73a.26.26 0 0 0-.07-.22zM52.49 94.94L50.76 94a.25.25 0 0 0-.24 0l-1.73.91a.26.26 0 0 0-.13.22v9.65a.25.25 0 0 0 .25.25h3.46a.25.25 0 0 0 .25-.25v-9.62a.26.26 0 0 0-.13-.22z"/></g></g></symbol><symbol viewBox="0 0 104.53 104.29" id="12Ресурс_5" xmlns="http://www.w3.org/2000/svg"><defs><style>.ajcls-1{fill:none;stroke:#000;stroke-miterlimit:10;stroke-width:4px}.ajcls-2{fill:#c8c8c8}</style></defs><g id="ajСлой_2" data-name="Слой 2"><g id="ajIllustrations"><path d="M104.53 104.29H0V89.37h104.53zM4 100.29h96.53v-6.92H4z"/><circle class="ajcls-1" cx="10.8" cy="10.8" r="8.8"/><circle class="ajcls-1" cx="88.71" cy="15.82" r="13.82"/><path class="ajcls-1" d="M76.67 9.05H19.59M19.34 12.85l57.86 10.6M10.8 19.59v25.89M2 45.48h17.34v6.33H2zM17.25 72.45a8.67 8.67 0 1 1-6.58-14.31v-4.62M84.49 28.97l-19.42 62.4h29.77v-62.4M81.24 39.4l13.6 4.84M94.84 46.22L77.2 52.5M77.2 52.5l17.64 6.29M94.84 60.77l-22.77 8.11M72.07 68.88l22.77 8.77M94.84 79.63l-29.77 10.6"/><path class="ajcls-2" d="M0 81.35h26v8.02H0zM32.53 81.35h26v8.02h-26zM29.01 71.34h26v8.02h-26zM35.34 61.32h26v8.02h-26zM25.71 51.3h26v8.02h-26zM39.26 41.36h26v8.02h-26zM31.03 31.43h26v8.02h-26z"/></g></g></symbol><symbol viewBox="0 0 64.28 64.28" id="12Ресурс_6" xmlns="http://www.w3.org/2000/svg"><defs><style>.akcls-1,.akcls-3{fill:none;stroke-miterlimit:10;stroke-width:4px}.akcls-1{stroke:#000}.akcls-2{fill:#141414}.akcls-3{stroke:#141414}</style></defs><g id="akСлой_2" data-name="Слой 2"><g id="akIllustrations"><circle class="akcls-1" cx="32.14" cy="32.14" r="30.14"/><circle class="akcls-2" cx="45.16" cy="24.46" r="5.1"/><circle class="akcls-2" cx="19.12" cy="24.46" r="5.1"/><path class="akcls-3" d="M45.16 34.91a13 13 0 1 1-26 0"/></g></g></symbol><symbol fill="none" viewBox="0 0 15 15" id="Check" xmlns="http://www.w3.org/2000/svg"><path d="M5 5H3l4 6 8-8.5V0L7 8 5 5zm8 8H2V2h8V0H0v15h15V6.667h-2V13z" fill="#FA6B4B"/></symbol><symbol fill="none" viewBox="0 0 15 15" id="Clock_2" xmlns="http://www.w3.org/2000/svg"><path fill-rule="evenodd" clip-rule="evenodd" d="M7.5 13a5.5 5.5 0 1 0 0-11 5.5 5.5 0 0 0 0 11zm0 2a7.5 7.5 0 1 0 0-15 7.5 7.5 0 0 0 0 15z" fill="#C4C4C4"/><path d="M7 4h1.5v3.5L7 8V4z" fill="#C4C4C4"/><path d="M10.5 6v1.5L7 9.5V8l3.5-2z" fill="#C4C4C4"/></symbol><symbol fill="none" viewBox="0 0 15 15" id="Flag" xmlns="http://www.w3.org/2000/svg"><path d="M0 0h3v15H0V0z" fill="#F8BC4A"/><path d="M15 0l-3 3H0V0h15zM15 10l-3-3H0v3h15z" fill="#F8BC4A"/><path d="M15 10L9.5 7 8 5h3l4 5zM15 0L9.5 3 8 5h3l4-5z" fill="#F8BC4A"/></symbol><symbol viewBox="0 0 678.56 432.63" id="Main_ilustrations" xmlns="http://www.w3.org/2000/svg"><defs><style>.aocls-1{fill:#f9bd3a}.aocls-2,.aocls-7,.aocls-8,.aocls-9{fill:none;stroke-miterlimit:10}.aocls-2{stroke:#f0f0f0}.aocls-2,.aocls-7,.aocls-9{stroke-width:4px}.aocls-3{fill:#fc6a42}.aocls-4{fill:#f0f0f0}.aocls-5{fill:#141414}.aocls-6{fill:#31dbce}.aocls-7,.aocls-8{stroke:#141414}.aocls-8{stroke-width:8px}.aocls-9{stroke:#000}</style></defs><g id="aoСлой_2" data-name="Слой 2"><g id="aoIllustrations"><path class="aocls-1" d="M192.7 316.86l-2.03 23.12 25.47 55.18 12.93-1.08-36.37-77.22zM106.12 309.56h20.94l5.13 92.9h-14.61l-11.46-92.9z"/><path class="aocls-2" d="M439.82 390.54s-9.24-10.63 0-19.28c0 0 11.06 10.63 0 19.28z"/><circle class="aocls-3" cx="614.83" cy="143.69" r="28.62"/><path id="ao_Контур_" data-name="&lt;Контур>" class="aocls-4" d="M508.58 386.16l20.02-23.72 28.75 11.71-2.25 30.96-30.14 7.42-16.38-26.37z"/><circle id="ao_Контур_2" data-name="&lt;Контур>" class="aocls-4" cx="567.67" cy="411.12" r="5.81"/><path class="aocls-2" d="M503.27 389.02l16.89 32.85 38.22-8.55"/><path class="aocls-4" d="M101.56 284.45H236.7v19.99H101.56z"/><path class="aocls-5" d="M52.57 391.91h17.82v10.55H52.57z"/><circle class="aocls-3" cx="520.8" cy="364.2" r="18.45"/><path id="ao_Контур_3" data-name="&lt;Контур>" class="aocls-6" d="M21.56 313.87l.76-23.84 20.26 12.58-21.02 11.26z"/><path id="ao_Контур_4" data-name="&lt;Контур>" class="aocls-1" d="M18.23 357.19L7.14 327.06l31.64 5.46-20.55 24.67z"/><circle id="ao_Контур_5" data-name="&lt;Контур>" class="aocls-5" cx="44.21" cy="397.18" r="3.69"/><circle id="ao_Контур_6" data-name="&lt;Контур>" class="aocls-6" cx="298.91" cy="339.65" r="11.98"/><path class="aocls-4" d="M478.97 50.52l68.54-43.41 24.14 49.11-92.68-5.7zM385.77 390.54s-12.28-27.41-37.37-24.11-28.13 24.11-28.13 24.11-13.62-23.8-42-30.74-33.83 19.1-33.83 19.1v18.29c0 7.84-2.31 8.41 8.22 9.49 16.1 1.66 16 23.95 16 23.95h239.09c-51.75-69.96-121.98-40.09-121.98-40.09z"/><circle class="aocls-3" cx="284.1" cy="85.89" r="31.58"/><circle class="aocls-1" cx="356.3" cy="107.46" r="23.57"/><path id="ao_Контур_7" data-name="&lt;Контур>" class="aocls-4" d="M1.02 294.07l1.25-39.19 33.32 20.68-34.57 18.51z"/><circle id="ao_Контур_8" data-name="&lt;Контур>" class="aocls-1" cx="399.22" cy="390.42" r="9.51"/><path class="aocls-3" d="M119.41 211.28l90.98-25.66v14.85l-90.98 26.11v-15.3zM127.06 235.24l90.98-25.65v14.85l-90.98 26.1v-15.3zM117.58 264.18l90.98-25.65v14.85l-90.98 26.1v-15.3zM457.13 61.38l-21.57 56.67-25.28-44.01 46.85-12.66z"/><path class="aocls-6" d="M592.61 196.01l-21.94-3.48-10.09 19.8 15.71 15.71 19.79-10.09-3.47-21.94zM392.97 269.85v-57.04h-20.79l33.78-36.38 33.78 36.38h-20.79v57.04"/><path class="aocls-1" d="M526.85 90.11l-113.24 56.35s-.72 10.51 12.95 8.13 31.75-12.49 54.26 0 20.9 36.87 35 37.95 49.62-77.4 49.62-77.4z"/><path class="aocls-6" d="M117.87 94S113.05 73 134 65s21.71-8.3 35-8.77 22.91-3.29 27.33-8.51 26.93-4.35 27.33 23.15-23.71 11-45.42 10.21-40.59 41.59-54.86 41.49-1.08-10.41-5.51-28.57z"/><circle id="ao_Контур_9" data-name="&lt;Контур>" class="aocls-7" cx="187.12" cy="99.22" r="5.22"/><path id="ao_Контур_10" data-name="&lt;Контур>" class="aocls-7" d="M9.2 309.56l1.25-39.19 33.31 20.68L9.2 309.56z"/><path id="ao_Контур_11" data-name="&lt;Контур>" class="aocls-7" d="M524.37 376.6l2.19-29.59 28.82-7.07L571 365.17l-19.16 22.65-27.47-11.22z"/><path id="ao_Контур_12" data-name="&lt;Контур>" class="aocls-7" d="M497.82 59a39.28 39.28 0 1 1-37.5-27.57c1 0 2 0 3 .11"/><circle id="ao_Контур_13" data-name="&lt;Контур>" class="aocls-7" cx="547.51" cy="161.85" r="17.9"/><path id="ao_Контур_14" data-name="&lt;Контур>" class="aocls-2" d="M259.63 315.8h411.1"/><path id="ao_Контур_15" data-name="&lt;Контур>" class="aocls-2" d="M308.44 325.79h215.98"/><path id="ao_Контур_16" data-name="&lt;Контур>" class="aocls-2" d="M319.91 334.97h142.46"/><circle id="ao_Контур_17" data-name="&lt;Контур>" class="aocls-4" cx="478.97" cy="337.81" r="5.81"/><circle id="ao_Контур_18" data-name="&lt;Контур>" class="aocls-4" cx="580.4" cy="50.52" r="5.81"/><circle id="ao_Контур_19" data-name="&lt;Контур>" class="aocls-4" cx="538.12" cy="329.17" r="5.81"/><circle id="ao_Контур_20" data-name="&lt;Контур>" class="aocls-6" cx="186.41" cy="46.83" r="3.69"/><circle id="ao_Контур_21" data-name="&lt;Контур>" class="aocls-6" cx="218.05" cy="92.35" r="3.69"/><circle id="ao_Контур_22" data-name="&lt;Контур>" class="aocls-6" cx="382.85" cy="190.09" r="3.69"/><circle id="ao_Контур_23" data-name="&lt;Контур>" class="aocls-6" cx="317.27" cy="346.8" r="3.69"/><circle id="ao_Контур_24" data-name="&lt;Контур>" class="aocls-1" cx="401.08" cy="373.59" r="3.69"/><circle id="ao_Контур_25" data-name="&lt;Контур>" class="aocls-1" cx="422.37" cy="133.65" r="3.69"/><circle id="ao_Контур_26" data-name="&lt;Контур>" class="aocls-1" cx="348.03" cy="78.61" r="3.69"/><circle id="ao_Контур_27" data-name="&lt;Контур>" class="aocls-1" cx="470.33" cy="158.15" r="3.69"/><circle id="ao_Контур_28" data-name="&lt;Контур>" class="aocls-1" cx="651.02" cy="204.06" r="3.69"/><circle id="ao_Контур_29" data-name="&lt;Контур>" class="aocls-1" cx="3.69" cy="342.4" r="3.69"/><circle id="ao_Контур_30" data-name="&lt;Контур>" class="aocls-4" cx="43.77" cy="190.01" r="3.09"/><circle id="ao_Контур_31" data-name="&lt;Контур>" class="aocls-4" cx="216.57" cy="310.57" r="3.69"/><circle id="ao_Контур_32" data-name="&lt;Контур>" class="aocls-4" cx="17.62" cy="414.57" r="3.69"/><circle id="ao_Контур_33" data-name="&lt;Контур>" class="aocls-4" cx="122.34" cy="20.11" r="3.69"/><circle id="ao_Контур_34" data-name="&lt;Контур>" class="aocls-3" cx="452.84" cy="54.22" r="3.69"/><circle id="ao_Контур_35" data-name="&lt;Контур>" class="aocls-3" cx="445.45" cy="223.14" r="3.69"/><circle id="ao_Контур_36" data-name="&lt;Контур>" class="aocls-3" cx="494.86" cy="369.92" r="3.69"/><circle id="ao_Контур_37" data-name="&lt;Контур>" class="aocls-3" cx="196.25" cy="180.12" r="3.69"/><circle id="ao_Контур_38" data-name="&lt;Контур>" class="aocls-3" cx="203.64" cy="274.48" r="3.69"/><circle id="ao_Контур_39" data-name="&lt;Контур>" class="aocls-5" cx="155.56" cy="138.49" r="3.56"/><circle id="ao_Контур_40" data-name="&lt;Контур>" class="aocls-5" cx="59.32" cy="257.92" r="3.56"/><circle id="ao_Контур_41" data-name="&lt;Контур>" class="aocls-5" cx="236.7" cy="164.6" r="3.56"/><circle id="ao_Контур_42" data-name="&lt;Контур>" class="aocls-5" cx="297.01" cy="263.95" r="3.56"/><circle id="ao_Контур_43" data-name="&lt;Контур>" class="aocls-5" cx="244.48" cy="296.82" r="3.56"/><circle id="ao_Контур_44" data-name="&lt;Контур>" class="aocls-5" cx="375.41" cy="399.8" r="3.56"/><circle id="ao_Контур_45" data-name="&lt;Контур>" class="aocls-5" cx="397.65" cy="414.83" r="3.56"/><circle id="ao_Контур_46" data-name="&lt;Контур>" class="aocls-5" cx="333.35" cy="380.51" r="3.56"/><circle id="ao_Контур_47" data-name="&lt;Контур>" class="aocls-5" cx="604.27" cy="98.47" r="3.56"/><circle id="ao_Контур_48" data-name="&lt;Контур>" class="aocls-5" cx="324.07" cy="154.59" r="3.56"/><path class="aocls-7" d="M499.59 192.54v84.9a1.09 1.09 0 0 1-1.08 1.08H318.35a1.09 1.09 0 0 1-1.08-1.08v-19.76M317.27 223.92v-56.81a1.09 1.09 0 0 1 1.08-1.08h121.21M408.43 278.52v16.29M377.3 294.81h62.26M267.18 304.44h374.01M180.11 171.64c24.21-6.71 43.87-4.45 43.87-4.45v117.9H111.85l13.26 122.18h36.17l12.06-90.53 37.38 88.1h33.76v-100.4M140.79 161.85c-22 12-40.72 32.55-58.49 66-30.14 56.81-18.69 107.21-18.69 107.21h21.71s-10.85-44.48 26.53-110.46a110.28 110.28 0 0 1 29.79-34.29"/><path class="aocls-7" d="M238.45 170.75s18.09 61.95 44.62 76.77 76 12.17 76 12.17V231.8s-36.17-2.72-56.67-14.07-37.4-39.95-43.4-54.37-19.59-19.51-66.61-15.67a168.84 168.84 0 0 0-17 2.22M125.11 407.27s-17.18 3.41-18.09 13.38l-.9 10h58.78l-3.62-23.36M210.72 404.84l-3.62 25.79h61.5s3.62-25.79-24.12-25.79"/><path class="aocls-7" d="M359 231.8h49.4s6.67-.31 4.86 4.51-30.14 7.24-30.14 7.24 9.71 16.14-24.12 16.14M85.32 335.06H56.38s-4 28.67 8.44 32.69 31.75-5.49 20.5-32.69zM123.3 273.69S155 202 135.51 134.42c0 0-14.62-38-8.59-50s27.13-22.3 45.22-19.89 23.51-9 35-6.63 13.27 15.07 8.44 19.29S194.44 87.4 179.37 88s-19.9 5.43-23.51 15.07-1.21 28.35-1.21 28.35"/><path class="aocls-7" d="M200.23 84.27l3 14.58 6.69 5.13-7.81 9.33s-1 19.21-2.59 20.11-25.83.1-24.62 12.76 9 39.19 9 39.19l17.49 66-23.52 20.19-22.3-22L172.44 183M323.96 146.46v-38.65h19.29L311.9 74.04l-31.35 33.77h19.29v48.42M368.02 156.23v-35.58h-12.97l21.08-22.7 21.07 22.7h-12.97v35.58"/><path class="aocls-3" d="M459.3 269.85v-35.59h-12.97l21.08-22.69 21.07 22.69h-12.96v35.59"/><path class="aocls-1" d="M431.74 269.85v-25.72h-9.37l15.23-16.41 15.24 16.41h-9.38v25.72"/><path class="aocls-7" d="M460.32 70.72l19.6-55.17 28.93 27.59-48.53 27.58zM460.32 70.72l-29.74 10.25 17.48 18.49 12.26-28.74zM547.51 304.44l-14.84-42.6h25.56M569 304.44l14.84-42.6h-25.61s6-10.75-1-24.62-1.41-25.72 6.63-32.56c0 0-7.44-3.61-4-9.44a33.82 33.82 0 0 1 9.09-9.65l4 8.24 8 1.11s1.21 15.37-10.45 13M555.38 271.38h25.08"/><path class="aocls-7" d="M554.57 230l-8.13-10.86s.9-11.45-8.85-15.07c0 0-5.72 6.53 0 12.16M560.58 249.8s6.09-4.39 8.31-8.31c0 0 10.5.15 13.82-7.23 0 0-6.21-6.51-14.79.9M588.14 294.81h53.05M614.66 294.81l26.53-86.93L592.96 94l-27.55 36.1-44.2-45.83 71.75-18.68L602 91.52"/><path class="aocls-7" d="M532.57 96.05s-14 7.93-6.53 18 13.26 13.66 19.29 10 8-6.45 8-6.45M281.49 50.61a25.38 25.38 0 0 0-3.33-8l3-3-7.94-7.94-3 3a25.38 25.38 0 0 0-8-3.33V27H251v4.29a25.38 25.38 0 0 0-8 3.33l-3-3-8 7.92 3 3a25.17 25.17 0 0 0-3.34 8h-4.28v11.29h4.28a25.17 25.17 0 0 0 3.34 8l-3 3 7.94 7.94 3-3a25.17 25.17 0 0 0 8 3.34v4.28h11.22v-4.25a25.17 25.17 0 0 0 8-3.34l3 3 7.94-7.94-3-3a25.38 25.38 0 0 0 3.33-8h4.29V50.61zm-24.91 23.13a17.52 17.52 0 1 1 17.52-17.52 17.51 17.51 0 0 1-17.52 17.52zM499.57 150.62a25.38 25.38 0 0 0-3.33-8l3-3-7.93-7.94-3 3a25.38 25.38 0 0 0-8-3.33V127H469v4.29a25.57 25.57 0 0 0-8 3.33l-3-3-8 7.93 3 3a25.38 25.38 0 0 0-3.33 8h-4.29v11.22h4.29a25.38 25.38 0 0 0 3.33 8l-3 3 7.93 7.94 3-3a25.36 25.36 0 0 0 8 3.34v4.28h11.22v-4.28a25.17 25.17 0 0 0 8-3.34l3 3 7.93-7.94-3-3a25.38 25.38 0 0 0 3.33-8h4.29v-11.15zm-24.92 23.13a17.52 17.52 0 1 1 17.52-17.52 17.52 17.52 0 0 1-17.52 17.52zM450.3 192.74a15.17 15.17 0 0 0-2-4.76l1.79-1.8-4.69-4.69-1.8 1.8a15 15 0 0 0-4.75-2v-2.53h-6.64v2.53a15 15 0 0 0-4.76 2l-1.79-1.8-4.7 4.69 1.8 1.8a14.93 14.93 0 0 0-2 4.76h-2.54v6.63h2.54a14.93 14.93 0 0 0 2 4.76l-1.8 1.8 4.7 4.69 1.79-1.8a15 15 0 0 0 4.76 2v2.53h6.64v-2.55a15 15 0 0 0 4.75-2l1.8 1.8 4.69-4.69-1.79-1.8a15.17 15.17 0 0 0 2-4.76h2.54v-6.63zM51.56 311.78s.06-25.32 5.25-45M252.52 230.07s8 15 19.29 22.56 18.9 8.79 18.9 8.79"/><path class="aocls-6" d="M327.63 176.43h9.7v41.1h-9.7z"/><path class="aocls-3" d="M343.25 189.27h9.7v28.26h-9.7z"/><path class="aocls-1" d="M357.71 185.43h9.7v32.09h-9.7z"/><path class="aocls-7" d="M327.63 430.63s-8-60.17-22.86-80.27M320.27 390.54s-12.27-14.85-29.56-19.28"/><path class="aocls-7" d="M325 412.39s13-17.83 16-31.49c0 0 11.84-8.4 2.3-22.28 0 0-11.05 2.74-7.28 14.65M372.9 430.63s3.32-22.79 16.28-30.83M375.39 420.53s.83-10.41-9.12-13.26"/><circle class="aocls-7" cx="363.92" cy="404.68" r="4.88"/><circle class="aocls-7" cx="392.74" cy="397.02" r="6.48"/><circle id="ao_Контур_49" data-name="&lt;Контур>" class="aocls-6" cx="475.27" cy="390.42" r="9.51"/><circle id="ao_Контур_50" data-name="&lt;Контур>" class="aocls-6" cx="477.13" cy="373.59" r="3.69"/><circle id="ao_Контур_51" data-name="&lt;Контур>" class="aocls-5" cx="438.41" cy="415.22" r="3.56"/><path class="aocls-7" d="M449 430.63s3.32-22.79 16.28-30.83M451.44 420.53s1.1-13.87-12.16-17.67"/><circle class="aocls-7" cx="434.85" cy="398.67" r="6.51"/><circle class="aocls-7" cx="468.79" cy="397.02" r="6.48"/><circle class="aocls-7" cx="301.34" cy="345.7" r="7.9"/><circle class="aocls-7" cx="285.95" cy="373.59" r="5.59"/><path class="aocls-2" d="M425.55 388s-15.47-11.66-7.23-27.54c0-.05 17.89 9.6 7.23 27.54zM451.88 392.17s-3-12.87 8.44-16.48c0 0 6.23 15.07-8.44 16.48zM361.75 371.26s-3.92-13 4.52-17.66c0 0 7.84 11.33-4.52 17.66zM368.8 375.69s3.08-11.66 17.46-12c0 .04-.76 17.31-17.46 12zM277.44 362.43s6.23-11.06 0-20.31c0 0-11.05 10.67 0 20.31zM268.75 363.73s.61-13-9.12-19.8c0 0-6.4 17.69 9.12 19.8zM558.23 7.11l16.04 32.99"/><path class="aocls-7" d="M25.69 384.07l73.15 1.44-14.87 45.12H25.69v-46.56zM80 365.39a23 23 0 0 1 6.77 16.34 23.73 23.73 0 0 1-.26 3.5M40.66 384.37a23.12 23.12 0 0 1 17-25M25.69 422.81h61.04M25.69 415.13h63.02"/><path class="aocls-2" d="M17.25 407.35l-1.55-33.76h13.39"/><path class="aocls-3" d="M137.58 17.63v18.79l16.27 9.4 16.27-9.4V17.63l-16.27-9.39-16.27 9.39z"/><path id="ao_Контур_52" data-name="&lt;Контур>" class="aocls-7" d="M176.7 11.65l-1.45 19.7-19.19 4.7-10.41-16.79 12.76-15.09 18.29 7.48z"/><circle id="ao_Контур_53" data-name="&lt;Контур>" class="aocls-3" cx="197.74" cy="19.91" r="3.69"/><path class="aocls-2" d="M152.95 1.4l-6.69 6.84-16.98 8"/><circle id="ao_Контур_54" data-name="&lt;Контур>" class="aocls-3" cx="586.2" cy="172.46" r="3.69"/><path class="aocls-7" d="M659.58 127.37a20 20 0 0 0-5.43-4.16L655 120l-8.53-2.27-.87 3.26a19.92 19.92 0 0 0-6.78.9l-1.69-2.92-7.64 4.42 1.69 2.92a20 20 0 0 0-4.16 5.43l-3.26-.87-2.27 8.53 3.26.86a20 20 0 0 0 .9 6.79l-2.92 1.69 4.42 7.63 2.92-1.68a20 20 0 0 0 5.43 4.16l-.87 3.25 8.53 2.28.86-3.26a20 20 0 0 0 6.79-.9l1.69 2.92 7.63-4.42-1.68-2.92a20.16 20.16 0 0 0 4.16-5.43l3.25.87 2.28-8.53-3.26-.87A19.92 19.92 0 0 0 664 135l2.92-1.69-4.42-7.64z"/><circle class="aocls-6" cx="381.38" cy="32.23" r="25.11"/><circle id="ao_Контур_55" data-name="&lt;Контур>" class="aocls-6" cx="322.85" cy="23.61" r="3.69"/><circle id="ao_Контур_56" data-name="&lt;Контур>" class="aocls-6" cx="586.79" cy="19.91" r="3.69"/><circle id="ao_Контур_57" data-name="&lt;Контур>" class="aocls-6" cx="658.46" cy="97.95" r="3.69"/><circle class="aocls-7" cx="361.73" cy="36.12" r="21.91"/><path class="aocls-7" d="M345.75 51.12l-16.29 15.29"/><path class="aocls-8" d="M341.02 55.56l-9.29 8.72"/><path class="aocls-6" d="M642.79 366.9l-30.29-15.57c-2.38 4.64-8.82 6.09-14.38 3.24l-7.5 14.58c-7.13 13.88-6.42 30.86 1.94 46.24a7.32 7.32 0 0 0 6.74 3.68h.44c18.85-1.29 34.54-10.84 42.17-25.67l6.62-12.89c-5.53-2.89-8.12-8.97-5.74-13.61z"/><circle id="ao_Контур_58" data-name="&lt;Контур>" class="aocls-6" cx="654.71" cy="419.12" r="3.69"/><circle id="ao_Контур_59" data-name="&lt;Контур>" class="aocls-6" cx="660.67" cy="339.94" r="3.69"/><path class="aocls-7" d="M663.76 377l-8.24 16c-8.22 16-25.19 26.39-45.37 27.77h-.45a9.07 9.07 0 0 1-2-.06 11 11 0 0 1-3.6-1.11 11.21 11.21 0 0 1-1.44-.9 10.26 10.26 0 0 1-3-3.39c-.56-1-1.08-2.06-1.58-3.1a60.15 60.15 0 0 1-3.45-9c-3.86-13-2.87-26.32 3-37.81l9.11-17.74 3 1.54c4 2 8.45 1.22 10-1.82l1.54-3 19.89 10.23 8.07 4.15 7.24 3.72 1.4.72-1.54 3a5.19 5.19 0 0 0-.27 4 8.89 8.89 0 0 0 4.62 5.22z"/><path class="aocls-7" d="M649.63 367.49l-26.84-13.8c-2.12 4.12-7.83 5.4-12.75 2.87l-6.64 12.92c-6.32 12.3-5.69 27.34 1.71 41a6.47 6.47 0 0 0 6 3.25h.4c16.7-1.14 30.6-9.6 37.36-22.75l5.87-11.42c-4.95-2.56-7.23-7.96-5.11-12.07z"/><circle class="aocls-6" cx="633.11" cy="45.31" r="21.58"/><path class="aocls-7" d="M662.54 25.76l-7.85-7.85-4.69 4.71a28.28 28.28 0 0 0-10.38-4.3v-6.66H628.5v6.66a28.28 28.28 0 0 0-10.38 4.3l-4.71-4.71-7.85 7.85 4.71 4.71A28.38 28.38 0 0 0 606 40.85h-6.66V52H606a28.45 28.45 0 0 0 4.3 10.38L605.56 67l7.85 7.85 4.71-4.71a28.45 28.45 0 0 0 10.38 4.3v6.66h11.1v-6.62a28.45 28.45 0 0 0 10.4-4.3l4.71 4.71 7.83-7.89-4.71-4.71a28.45 28.45 0 0 0 4.3-10.29h6.66V40.85h-6.66a28.38 28.38 0 0 0-4.3-10.38z"/><circle id="ao_Контур_60" data-name="&lt;Контур>" class="aocls-1" cx="478.53" cy="355.27" r="3.69"/><circle id="ao_Контур_61" data-name="&lt;Контур>" class="aocls-1" cx="184.34" cy="315.8" r="3.69"/><circle id="ao_Контур_62" data-name="&lt;Контур>" class="aocls-1" cx="107.11" cy="402.46" r="3.69"/><path class="aocls-1" d="M453.87 325.16l4.98 17.42 17.18 5.78L461 358.48l-.18 18.12-14.27-11.16-17.3 5.42 6.21-17.02-10.5-14.77 18.11.64 10.8-14.55z"/><path class="aocls-9" d="M448.89 321.77l4.84 16.92 16.68 5.6-14.6 9.83-.17 17.6-13.86-10.85-16.79 5.27 6.03-16.53-10.2-14.33 17.58.62 10.49-14.13z"/><circle class="aocls-1" cx="656.64" cy="242.57" r="14.67"/><path class="aocls-7" d="M658.46 249.8c10.87 10.3 7.59 19.83 7.59 19.83l-.19.63a13 13 0 1 1-24.93-7.57l.19-.63s2.58-9.75 17.34-12.26M658.46 249.8c14.76-2.51 17.34-12.26 17.34-12.26l.19-.63a13 13 0 0 0-24.93-7.57l-.19.63s-3.28 9.53 7.59 19.83"/><path class="aocls-3" d="M74.54 184.56a8.77 8.77 0 0 0-3.31-.61l6.56-16.86L59.54 160a9 9 0 1 1-17-1.06 8.81 8.81 0 0 1 3.44-4.23l-17.38-6.77-6.6 16.85a9 9 0 1 0-9.35 14.91 8.77 8.77 0 0 0 3.31.61L9.4 197.17l16.82 6.54a9 9 0 1 1 14.71 5.73l17.7 6.89 6.56-16.86a9 9 0 1 0 9.35-14.91z"/><circle id="ao_Контур_63" data-name="&lt;Контур>" class="aocls-3" cx="7.39" cy="143.85" r="4.12"/><path class="aocls-7" d="M76.15 176.47a8.39 8.39 0 0 0-3.09-.56l6.12-15.72-17-6.63a8.36 8.36 0 1 1-12.69-4.93l-16.2-6.31L27.15 158a8.23 8.23 0 0 0-2.65-1.67 8.36 8.36 0 1 0-3 16.14l-6.1 15.76 15.68 6.11a8.36 8.36 0 1 1 13.73 5.34l16.5 6.42 6.12-15.72a8.36 8.36 0 1 0 8.72-13.91z"/><circle id="ao_Контур_64" data-name="&lt;Контур>" class="aocls-3" cx="379.81" cy="331.57" r="15.77"/><path class="aocls-7" d="M386.41 332.49a13.94 13.94 0 0 0-3.84-2.94l.61-2.31-6-1.61-.61 2.31a14.11 14.11 0 0 0-4.8.63l-1.19-2.06-5.4 3.12 1.19 2.07a14.14 14.14 0 0 0-2.94 3.84l-2.3-.61-1.61 6 2.3.62a14.28 14.28 0 0 0 .64 4.79l-2.06 1.2 3.12 5.4 2.07-1.2a13.79 13.79 0 0 0 3.84 2.94l-.62 2.31 6 1.61.62-2.31a14 14 0 0 0 4.79-.63l1.2 2.06 5.4-3.12-1.2-2.07a14.14 14.14 0 0 0 2.94-3.84l2.31.61 1.6-6-2.3-.62a14 14 0 0 0-.64-4.79l2.07-1.2-3.13-5.4z"/></g></g></symbol><symbol fill="none" viewBox="0 0 15 15" id="Smile" xmlns="http://www.w3.org/2000/svg"><path fill-rule="evenodd" clip-rule="evenodd" d="M7.5 13a5.5 5.5 0 1 0 0-11 5.5 5.5 0 0 0 0 11zm0 2a7.5 7.5 0 1 0 0-15 7.5 7.5 0 0 0 0 15z" fill="#3ED9CD"/><path d="M6 6a1 1 0 1 1-2 0 1 1 0 0 1 2 0zM11 6a1 1 0 1 1-2 0 1 1 0 0 1 2 0z" fill="#3ED9CD"/><path fill-rule="evenodd" clip-rule="evenodd" d="M7.5 11c-2.204 0-3.326-1.119-3.854-1.646l.708-.708.002.003C4.83 9.122 5.707 10 7.5 10c.917 0 1.672-.23 2.208-.507.268-.139.476-.286.619-.417.071-.065.123-.122.157-.168.03-.04.04-.063.042-.066l.948.316c-.08.244-.268.47-.473.657a3.905 3.905 0 0 1-.834.567C9.495 10.729 8.583 11 7.5 11z" fill="#3ED9CD"/></symbol><symbol viewBox="0 0 24 24" id="area-menu" xmlns="http://www.w3.org/2000/svg"><path d="M3 2H1c-.6 0-1 .4-1 1v2c0 .6.4 1 1 1h2c.6 0 1-.4 1-1V3c0-.6-.4-1-1-1zM3 10H1c-.6 0-1 .4-1 1v2c0 .6.4 1 1 1h2c.6 0 1-.4 1-1v-2c0-.6-.4-1-1-1zM3 18H1c-.6 0-1 .4-1 1v2c0 .6.4 1 1 1h2c.6 0 1-.4 1-1v-2c0-.6-.4-1-1-1zM23 2H9c-.6 0-1 .4-1 1v2c0 .6.4 1 1 1h14c.6 0 1-.4 1-1V3c0-.6-.4-1-1-1zM23 10H9c-.6 0-1 .4-1 1v2c0 .6.4 1 1 1h14c.6 0 1-.4 1-1v-2c0-.6-.4-1-1-1zM23 18H9c-.6 0-1 .4-1 1v2c0 .6.4 1 1 1h14c.6 0 1-.4 1-1v-2c0-.6-.4-1-1-1z"/></symbol><symbol viewBox="0 0 75.09 75.09" id="attach" xmlns="http://www.w3.org/2000/svg"><path d="M63.71 29.157a2.624 2.624 0 0 0-3.668.593L34.748 64.832c-.011-.008-.023-.017-.035-.023-.071.107-.132.22-.209.323-3.651 5.066-10.737 6.211-15.794 2.554-5.057-3.659-6.2-10.756-2.547-15.819l.009-.012c-.008-.004-.014-.009-.022-.012L47.493 8.371c2.42-3.357 7.117-4.117 10.47-1.693 3.351 2.427 4.108 7.13 1.688 10.486-.058.08-19.772 27.351-22.647 31.326l.009.008c-.139.208-.32.438-.429.59a3.423 3.423 0 0 1-4.778.771 3.435 3.435 0 0 1-.771-4.785c.062-.083.224-.356.348-.546l16.569-22.979a2.637 2.637 0 0 0-.594-3.675 2.623 2.623 0 0 0-3.668.593L26.89 41.77c-.077.106-.131.224-.192.335l.011.001c-2.711 3.886-1.829 9.236 2.02 12.021a8.668 8.668 0 0 0 12.116-1.958c.11-.154.199-.318.293-.479.004.012.013.02.017.03 2.041-2.82 23.146-32.009 23.11-32.02 3.662-5.666 2.298-13.292-3.228-17.287C55.382-1.681 47.481-.436 43.336 5.16l-.006-.005-31.588 43.813-.289.4c.019.008.052-.006.079-.009-4.877 7.383-3.129 17.362 4.102 22.594 7.1 5.136 16.881 3.807 22.405-2.833.009.03.005.084.023.103.006-.01.571-.788.577-.799l25.66-35.592a2.634 2.634 0 0 0-.589-3.675z"/></symbol><symbol viewBox="0 0 510 510" id="bell" xmlns="http://www.w3.org/2000/svg"><path d="M255 510c28.05 0 51-22.95 51-51H204c0 28.05 22.95 51 51 51zm165.75-153V216.75c0-79.05-53.55-142.8-127.5-160.65V38.25C293.25 17.85 275.4 0 255 0s-38.25 17.85-38.25 38.25V56.1c-73.95 17.85-127.5 81.6-127.5 160.65V357l-51 51v25.5h433.5V408l-51-51zm-51 25.5h-229.5V216.75C140.25 153 191.25 102 255 102s114.75 51 114.75 114.75V382.5z"/></symbol><symbol viewBox="0 0 60 60" id="chat" xmlns="http://www.w3.org/2000/svg"><path d="M54 2H6C2.748 2 0 4.748 0 8v33c0 3.252 2.748 6 6 6h28.558l9.703 10.673A1 1 0 0 0 46 57V47h8c3.252 0 6-2.748 6-6V8c0-3.252-2.748-6-6-6z"/></symbol><symbol viewBox="0 0 106.01 104" id="clock" xmlns="http://www.w3.org/2000/svg"><defs><style>.aucls-1,.aucls-2,.aucls-3{fill:none;stroke-miterlimit:10;stroke-width:4px}.aucls-1{stroke:#f9bd3a}.aucls-2{stroke:#fc6a42}.aucls-3{stroke:#231f20}.aucls-4{fill:#231f20}.aucls-5{fill:#31dbce}</style></defs><g id="auСлой_2" data-name="Слой 2"><g id="auIllustrations"><path class="aucls-1" d="M65.23 37A19.9 19.9 0 0 1 61 69.72M72.84 36.45A25.9 25.9 0 0 1 78 52a26.78 26.78 0 0 1-16.3 24.24"/><path class="aucls-2" d="M34.17 37.41a23 23 0 0 1 34-1.8M22 48a30.3 30.3 0 0 1 46.87-21.16"/><path class="aucls-3" d="M52 8.88v7.54M52 87.58v7.54M95.12 52h-7.54M16.42 52H8.88M21.51 21.51l5.33 5.33M77.16 77.16l5.33 5.33"/><path class="aucls-4" d="M99.12 42.86A48 48 0 1 1 67.17 6.47l6.54-1.7a52 52 0 1 0 27.44 30.28z"/><path class="aucls-3" d="M82.49 21.51l-5.33 5.33M26.84 77.16l-5.33 5.33"/><path class="aucls-5" d="M52 52l5.55 11.09 30.12-30.11-14.14-14.14-7.32 7.31L52 52z"/><path class="aucls-3" d="M69.69 19.82L52 52l9.78 19.55"/><path class="aucls-5" d="M106.01.49l-40.33 10.5 29.83 29.84L106.01.49z"/></g></g></symbol><symbol viewBox="0 0 9 8" id="close" xmlns="http://www.w3.org/2000/svg"><path d="M7.57.199L4.372 3.398l-3.2-3.2L.5.873l3.2 3.199-3.2 3.199.674.673 3.199-3.199 3.198 3.2.674-.674L5.045 4.07 8.244.872 7.57.2z"/></symbol><symbol viewBox="0 0 612 612" id="comment" xmlns="http://www.w3.org/2000/svg"><path d="M401.625 325.125h-191.25c-10.557 0-19.125 8.568-19.125 19.125s8.568 19.125 19.125 19.125h191.25c10.557 0 19.125-8.568 19.125-19.125s-8.568-19.125-19.125-19.125zm38.25-114.75h-267.75c-10.557 0-19.125 8.568-19.125 19.125s8.568 19.125 19.125 19.125h267.75c10.557 0 19.125-8.568 19.125-19.125s-8.568-19.125-19.125-19.125zM306 0C137.012 0 0 119.875 0 267.75c0 84.514 44.848 159.751 114.75 208.826V612l134.047-81.339c18.552 3.061 37.638 4.839 57.203 4.839 169.008 0 306-119.875 306-267.75S475.008 0 306 0zm0 497.25c-22.338 0-43.911-2.601-64.643-7.019l-90.041 54.123 1.205-88.701C83.5 414.133 38.25 345.513 38.25 267.75c0-126.741 119.875-229.5 267.75-229.5s267.75 102.759 267.75 229.5S453.875 497.25 306 497.25z"/></symbol><symbol viewBox="0 0 111.77 131.87" id="cup" xmlns="http://www.w3.org/2000/svg"><defs><style>.axcls-1{fill:#31dbce}.axcls-2{fill:#fc6a42}.axcls-3{fill:none;stroke:#141414;stroke-miterlimit:10;stroke-width:4px}.axcls-4{fill:#141414}.axcls-5{fill:#f9bd3a}</style></defs><g id="axСлой_2" data-name="Слой 2"><g id="axIllustrations"><circle id="ax_Контур_" data-name="&lt;Контур>" class="axcls-1" cx="108.18" cy="69.41" r="3.59"/><path class="axcls-1" d="M99.11 66.74l-23.05-3.65-10.6 20.79 16.5 16.5 20.8-10.59-3.65-23.05z"/><path id="ax_Контур_2" data-name="&lt;Контур>" class="axcls-2" d="M29.32 0l16.03 18.41 24.25-2.77-12.55 20.93 10.13 22.21-23.79-5.47-17.99 16.5-2.15-24.32L2 33.48l22.46-9.56L29.32 0z"/><circle id="ax_Контур_3" data-name="&lt;Контур>" class="axcls-3" cx="54.41" cy="52.96" r="14.96"/><path id="ax_Контур_4" data-name="&lt;Контур>" class="axcls-3" d="M34 76.68c14.52 13.66 29 9 29 9s35-7.31 19-67.9l-34.48 9.1L13 36a132.4 132.4 0 0 0 5.78 17.3L2.06 57.72s-1 8.4 5 11.3 11.13 1.81 12 5.2.81 11.87 3.59 12.59 8-4 8-4"/><path id="ax_Контур_5" data-name="&lt;Контур>" class="axcls-3" d="M85.61 35.75l16.76-4.42s5 6.82 1.23 12.3-8.79 7.07-7.89 10.45 5.15 10.72 3.1 12.72-8.93.47-8.93.47"/><path id="ax_Контур_6" data-name="&lt;Контур>" class="axcls-3" d="M63.05 85.69l7.38 28s-18.88 4.2-16.13 14.6l33.15-8.75"/><circle id="ax_Контур_7" data-name="&lt;Контур>" class="axcls-2" cx="53.24" cy="6.84" r="3.42"/><circle id="ax_Контур_8" data-name="&lt;Контур>" class="axcls-2" cx="53.24" cy="60.27" r="3.42"/><circle id="ax_Контур_9" data-name="&lt;Контур>" class="axcls-4" cx="29.78" cy="73.1" r="3.3"/><path id="ax_Контур_10" data-name="&lt;Контур>" class="axcls-5" d="M34.35 131.87L20.58 94.41l39.33 6.8-25.56 30.66z"/><circle id="ax_Контур_11" data-name="&lt;Контур>" class="axcls-5" cx="16.29" cy="113.49" r="4.59"/></g></g></symbol><symbol viewBox="0 0 50 50" id="discord-logo" xmlns="http://www.w3.org/2000/svg"><path d="M41.625 10.77c-3.98-3.204-10.277-3.747-10.547-3.766a.992.992 0 0 0-.988.586 6.63 6.63 0 0 0-.305.832c2.633.445 5.867 1.34 8.793 3.156a1 1 0 1 1-1.055 1.7C32.493 10.155 26.211 10 25 10c-1.21 0-7.496.156-12.523 3.277a1 1 0 0 1-1.055-1.7c2.926-1.811 6.16-2.71 8.793-3.151-.152-.496-.29-.809-.3-.836a.987.987 0 0 0-.993-.586c-.27.02-6.567.562-10.602 3.809C6.215 12.761 2 24.152 2 34c0 .176.047.344.133.496 2.906 5.11 10.84 6.445 12.648 6.504h.031a1 1 0 0 0 .81-.41l1.827-2.516c-4.933-1.273-7.453-3.437-7.597-3.566a1 1 0 1 1 1.324-1.5C11.234 33.063 15.875 37 25 37c9.14 0 13.781-3.953 13.828-3.992a1 1 0 0 1 1.41.094.996.996 0 0 1-.09 1.406c-.144.129-2.664 2.293-7.597 3.566l1.828 2.516a1 1 0 0 0 .809.41h.03c1.81-.059 9.743-1.395 12.65-6.504.085-.152.132-.32.132-.496 0-9.848-4.215-21.238-6.375-23.23zM18.5 30c-1.934 0-3.5-1.79-3.5-4s1.566-4 3.5-4 3.5 1.79 3.5 4-1.566 4-3.5 4zm13 0c-1.934 0-3.5-1.79-3.5-4s1.566-4 3.5-4 3.5 1.79 3.5 4-1.566 4-3.5 4z"/></symbol><symbol viewBox="0 0 470.513 470.513" id="facebook-logo" xmlns="http://www.w3.org/2000/svg"><path d="M271.521 154.17v-40.541c0-6.086.28-10.8.849-14.13.567-3.335 1.857-6.615 3.859-9.853 1.999-3.236 5.236-5.47 9.706-6.708 4.476-1.24 10.424-1.858 17.85-1.858h40.539V0h-64.809c-37.5 0-64.433 8.897-80.803 26.691-16.368 17.798-24.551 44.014-24.551 78.658v48.82h-48.542v81.086h48.539v235.256h97.362V235.256h64.805l8.566-81.086h-73.37z"/></symbol><symbol viewBox="0 0 512 512" id="google-plus" xmlns="http://www.w3.org/2000/svg"><path d="M448 224v-64h-32v64h-64v32h64v64h32v-64h64v-32zM160 224v64h90.528c-13.216 37.248-48.8 64-90.528 64-52.928 0-96-43.072-96-96s43.072-96 96-96c22.944 0 45.024 8.224 62.176 23.168l42.048-48.256C235.424 109.824 198.432 96 160 96 71.776 96 0 167.776 0 256s71.776 160 160 160 160-71.776 160-160v-32H160z"/></symbol><symbol viewBox="0 0 365.59 800.56" id="left" xmlns="http://www.w3.org/2000/svg"><defs><style>.bbcls-1{fill:#f0f0f0}.bbcls-2{fill:#fc6a42}.bbcls-3,.bbcls-5{fill:none;stroke-miterlimit:10;stroke-width:4px}.bbcls-3{stroke:#f9bd3a}.bbcls-4{fill:#141414}.bbcls-5{stroke:#141414}</style></defs><g id="bbСлой_2" data-name="Слой 2"><g id="bbIllustrations"><path class="bbcls-1" d="M50.94 492.17s-38.56 141.2 19 271.25l-58.06 18.21S-5.81 548.82 50.94 492.17zM234 87.73l95.65 24s-40.4 143.44-202.24 247.81c0 0 86.53-100.46 106.59-271.81zM18.15 22.17l92.46-8.44S143.68 199.42 64.15 315c0 0-18.85-12.56-15.28-33.49S42.47 51.7 18.15 22.17z"/><path class="bbcls-2" d="M62.92 717.1c-.24-.72-.47-1.45-.66-2.19-2.82-10.91-6.38-20.47-7.32-31.7l-22.31 2.55L0 648.3v139.31l28.37-26 51.69 11.88-22-48.25zM37.28 560.48L0 554.58v67.15l4.02 4.02 40.34-20.55-7.08-44.72zM11.88 432A49.43 49.43 0 0 0 0 433.41v95.18A49 49 0 1 0 11.88 432z"/><path class="bbcls-3" d="M113.54 632.82c11.34-6.26 19.26 9.76 18.7 11.72s-29 15.63-29 15.63-3.63-10.33-3.68-15.91 9-9.12 9-9.12-29.3-53.58-35.16-108 12.5-110.32 12.5-110.32-15.24 37.67 2 63.07c30.7 45.21-21 49.22 35.72 120.55 0 0-7 5.45-5.16 11.45s13.84 15.76 13.84 15.76 18.95-23.16 19.09-25.39-13-17.44-23.86-6"/><path id="bb_Контур_" data-name="&lt;Контур>" class="bbcls-2" d="M81.6 7.91l41.73 47.91 63.12-7.22-32.67 54.5 26.37 57.8-61.92-14.23-46.83 42.94-5.6-63.29-55.31-31.27 58.46-24.88L81.6 7.91z"/><circle id="bb_Контур_2" data-name="&lt;Контур>" class="bbcls-2" cx="246.94" cy="147.34" r="3.42"/><circle id="bb_Контур_3" data-name="&lt;Контур>" class="bbcls-2" cx="70.5" cy="289.56" r="3.42"/><circle id="bb_Контур_4" data-name="&lt;Контур>" class="bbcls-2" cx="21.84" cy="551.16" r="3.42"/><circle id="bb_Контур_5" data-name="&lt;Контур>" class="bbcls-2" cx="21.84" cy="662.52" r="3.42"/><circle id="bb_Контур_6" data-name="&lt;Контур>" class="bbcls-2" cx="73.36" cy="778.21" r="3.42"/><circle id="bb_Контур_7" data-name="&lt;Контур>" class="bbcls-1" cx="50.94" cy="776.63" r="3.42"/><circle id="bb_Контур_8" data-name="&lt;Контур>" class="bbcls-1" cx="214.84" cy="96.73" r="3.42"/><circle id="bb_Контур_9" data-name="&lt;Контур>" class="bbcls-1" cx="211.42" cy="116.25" r="3.42"/><circle id="bb_Контур_10" data-name="&lt;Контур>" class="bbcls-1" cx="18.15" cy="44.49" r="3.42"/><circle id="bb_Контур_11" data-name="&lt;Контур>" class="bbcls-1" cx="124.63" cy="34.64" r="3.42"/><circle id="bb_Контур_12" data-name="&lt;Контур>" class="bbcls-1" cx="38.12" cy="192.47" r="3.42"/><circle id="bb_Контур_13" data-name="&lt;Контур>" class="bbcls-2" cx="163.36" cy="102.18" r="3.42"/><circle id="bb_Контур_14" data-name="&lt;Контур>" class="bbcls-2" cx="128.05" cy="47.91" r="3.42"/><circle id="bb_Контур_15" data-name="&lt;Контур>" class="bbcls-2" cx="55.91" cy="129" r="3.42"/><circle id="bb_Контур_16" data-name="&lt;Контур>" class="bbcls-2" cx="60.51" cy="205.84" r="3.42"/><circle id="bb_Контур_17" data-name="&lt;Контур>" class="bbcls-2" cx="220.57" cy="256.41" r="3.42"/><circle id="bb_Контур_18" data-name="&lt;Контур>" class="bbcls-2" cx="240.1" cy="34.64" r="3.42"/><circle class="bbcls-2" cx="228.54" cy="173.44" r="26.1"/><circle class="bbcls-2" cx="71.5" cy="334.69" r="37.87"/><circle class="bbcls-2" cx="149.54" cy="247.32" r="63.33"/><path class="bbcls-2" d="M344.75 17.52L281.5 163.34 220.56 45.09l124.19-27.57zM66.6 212.73l-44.71-7.08-20.56 40.34L33.35 278l40.33-20.56-7.08-44.71z"/><circle id="bb_Контур_19" data-name="&lt;Контур>" class="bbcls-4" cx="8.19" cy="481" r="3.69"/><circle id="bb_Контур_20" data-name="&lt;Контур>" class="bbcls-4" cx="86.03" cy="230.21" r="3.69"/><circle id="bb_Контур_21" data-name="&lt;Контур>" class="bbcls-4" cx="21.84" cy="307.36" r="3.69"/><circle id="bb_Контур_22" data-name="&lt;Контур>" class="bbcls-4" cx="21.84" cy="407.82" r="3.69"/><circle id="bb_Контур_23" data-name="&lt;Контур>" class="bbcls-4" cx="209.33" cy="136.04" r="3.69"/><circle id="bb_Контур_24" data-name="&lt;Контур>" class="bbcls-4" cx="316.01" cy="63.86" r="3.69"/><circle id="bb_Контур_25" data-name="&lt;Контур>" class="bbcls-4" cx="7.36" cy="723.65" r="3.69"/><path class="bbcls-5" d="M84.52 384.45S363.59 226 363.59.48M73.36 384.45s237.76-181 237.76-384M64.15 384.45s198.42-181 198.42-384M56.61 384.45S214.84 205.08 214.84.48M37.37 383.23S152.05 224.34 152.05.48M27.83 383.23S98.47 221 98.47.48M19.59 382.62S77.26 200.34 27.31.48M79.5 416.82S32.7 561.47 50.94 665.1s43.35 96 43.35 135.38"/><path class="bbcls-5" d="M70.5 416.18S29 495.79 27.31 596.26s22.6 154.92 29.3 168.3 13.89 20.8 13.89 35.92"/><path class="bbcls-5" d="M50.94 416.18s-32 54.5-39.54 130.68-1.67 164.88 15.91 201.32 23 33.83 23.63 52.3M29.56 784.44S13.34 761 8.19 734.58M24.24 429.47S13.45 452.91 10.1 470.4M111.87 38.06S113.54 140.84 89.26 220M206.75 143.33s-20.09 64.31-51.35 113.08M313.91 72.21s-2.79 54.16-56.37 127.66"/><path class="bbcls-3" d="M103.22 660.17l6.69 18.13M106.57 658.54l8.09 17.25M111.78 655.97l6.79 17.31M115.17 654.27l9.26 16.5M121.08 651.25l7.53 17.99M124.85 649.25l8.51 17.92M129.1 646.86l8.44 17.77M132.24 644.54l10.6 15.7M132.27 627.65l14.2 14.93M135.37 623.83l14.17 11.29M139.37 619.98l11.99 12M141.64 615.94l15.44 13.53M144.32 612.5l15.83 13.48M147.23 608.65l16.27 12.72M149.54 605.43l15.07 10.51M151.36 602.26l16.32 8.43"/><path class="bbcls-4" d="M10.62 384h1c10.81.77 51 2.69 71.51 2.69a88 88 0 0 0 11.25-.43c.92 1.26 2.6 5.67 3.13 13.8.49 7.63-.36 12.81-1.06 14.54a78 78 0 0 1-10.29.4c-4.43 0-9.74-.1-15.36-.2-6.56-.12-13.34-.24-19.95-.24s-11.85.14-16.24.44a78.33 78.33 0 0 0-14.74 2.63c-3.53.88-6.58 1.65-8.91 1.65a4.11 4.11 0 0 1-3.33-1.13c-2.7-2.75-3.9-11.17-3.58-25v-.46c-.11-1.25 0-4.95 1.87-7a6.08 6.08 0 0 1 4.7-1.69m0-4C-1.23 380 .05 393 .05 393c-.56 24.52 3.49 30.24 10.95 30.24 6 0 14.16-3.72 23.88-4.29 4.78-.28 10.27-.37 16-.37 12.35 0 25.76.44 35.31.44 6.16 0 10.72-.18 12.34-.79 5.19-2 4-36-3.67-36a3 3 0 0 0-.51.05 80.58 80.58 0 0 1-11.19.47c-20.47 0-60.8-1.93-71.22-2.68h-1.26z"/><path class="bbcls-5" d="M24.24 90.31s12.36 123.3 0 206.51M14.94 401.61s7.72-3.32 12-1.13 7.14 2.66 12.61 1.13 9.2-2.95 17-1.13 31.63.59 31.63.59"/></g></g></symbol><symbol viewBox="0 0 430.117 430.117" id="linkedin-logo" xmlns="http://www.w3.org/2000/svg"><path d="M430.117 261.543V420.56h-92.188V272.193c0-37.271-13.334-62.707-46.703-62.707-25.473 0-40.632 17.142-47.301 33.724-2.432 5.928-3.058 14.179-3.058 22.477V420.56h-92.219s1.242-251.285 0-277.32h92.21v39.309c-.187.294-.43.611-.606.896h.606v-.896c12.251-18.869 34.13-45.824 83.102-45.824 60.673-.001 106.157 39.636 106.157 124.818zM52.183 9.558C20.635 9.558 0 30.251 0 57.463c0 26.619 20.038 47.94 50.959 47.94h.616c32.159 0 52.159-21.317 52.159-47.94-.606-27.212-20-47.905-51.551-47.905zM5.477 420.56h92.184V143.24H5.477v277.32z"/></symbol><symbol viewBox="0 0 387.31 289.66" id="marketing" xmlns="http://www.w3.org/2000/svg"><defs><style>.bdcls-1{fill:#f0f0f0}.bdcls-2{fill:#f9bd3a}.bdcls-3{fill:#fc6a42}.bdcls-4{fill:#31dbce}.bdcls-5,.bdcls-6{fill:none;stroke-miterlimit:10;stroke-width:4px}.bdcls-5{stroke:#231f20}.bdcls-6{stroke:#f0f0f0}</style></defs><g id="bdСлой_2" data-name="Слой 2"><g id="bdIllustrations"><path class="bdcls-1" d="M185.44 110.62l39.55 28.84-41.2-61.09 1.65 32.25zM340.05 99.46v50.78l-13.23 1.58-12.13-48.28 25.36-4.08zM140.36 123.61l-6.02 45.96 13 2.76 9.66-44.75-16.64-3.97z"/><path class="bdcls-2" d="M194.29 204.18l88.3 11.3V234l-88.3-8.66v-21.16zM193.02 239.68l88.3 11.3v18.52l-88.3-8.66v-21.16z"/><path class="bdcls-3" d="M0 70.14l141.65-46.58 14.13 50.66-126.92 68.39L0 70.14z"/><path class="bdcls-4" d="M168.11 31.5s9.25 17.32 36.37 17.32 45.88-2.17 66.8 16.59 26 37.07 32.47 34.05 32.47-62.91 19.48-77.34-62.79 2.16-83.34-3.61-71.78-45.45-71.78 12.99z"/><circle id="bd_Контур_" data-name="&lt;Контур>" class="bdcls-4" cx="292.33" cy="103.54" r="4.08"/><circle id="bd_Контур_2" data-name="&lt;Контур>" class="bdcls-4" cx="268.67" cy="11.54" r="4.08"/><path id="bd_Контур_3" data-name="&lt;Контур>" class="bdcls-3" d="M34.92 149.56l34.13-17.99-17.98 34.14-16.15-16.15z"/><circle id="bd_Контур_4" data-name="&lt;Контур>" class="bdcls-3" cx="135.05" cy="17.97" r="3.88"/><circle id="bd_Контур_5" data-name="&lt;Контур>" class="bdcls-3" cx="77.89" cy="124.66" r="3.88"/><circle id="bd_Контур_6" data-name="&lt;Контур>" class="bdcls-2" cx="185.44" cy="196.05" r="5.21"/><circle id="bd_Контур_7" data-name="&lt;Контур>" class="bdcls-2" cx="287.8" cy="274.71" r="5.21"/><circle id="bd_Контур_8" data-name="&lt;Контур>" class="bdcls-1" cx="314.69" cy="137.56" r="4.2"/><circle id="bd_Контур_9" data-name="&lt;Контур>" class="bdcls-1" cx="318.07" cy="150.38" r="4.2"/><circle id="bd_Контур_10" data-name="&lt;Контур>" class="bdcls-1" cx="157" cy="172.33" r="4.2"/><circle id="bd_Контур_11" data-name="&lt;Контур>" class="bdcls-1" cx="159.02" cy="160.6" r="4.2"/><circle id="bd_Контур_12" data-name="&lt;Контур>" class="bdcls-1" cx="152.81" cy="27.59" r="4.2"/><path class="bdcls-5" d="M247.47 65.75s-11-9.75-38-8.45-30.21-1.95-29.92-13.64 1.1-32.4 12.39-32.12 37.46 15.87 55.56 16.52 56.81-3.89 50.77 23.39-28.12 33.14-14.48 50"/><path class="bdcls-5" d="M190.2 57l4.45 69.87s31.77 26 36.4 27.16 4 0 11 0 17.34-13.29 26-22.53 6.93-30 6.93-30"/><circle class="bdcls-5" cx="218.7" cy="87.4" r="9.03"/><circle class="bdcls-5" cx="253.25" cy="87.4" r="9.03"/><path class="bdcls-5" d="M236.82 99.46l7.4 18.78h-14.91M190.2 137.56s39.11 25.43 57 49.06c17.59 23.27 21.22 62.77 76.05 71.43"/><path class="bdcls-5" d="M345.6 137.56c33.19 2.16 33.55 4.33 37.88-6.49s.36-19.48-5.16-22.22-39.94 0-39.94 0-26 4.9-36.07 22.94-20.48 50.5-45.6 50.5-15.74 6.74-27.4-2.4-29.9-22.06-47.25-31.51c-16.56-9-40.09-18.06-59.17-15.39-32.7 4.57-27.24 16.77-28 21.58s-2.82 18.52 14.74 11.85c19-7.22 18-5.77 19-7.22s3-20.2 3-20.2M118.99 162.99l22.66 56.82M94.46 101.48l13.86 34.76M33.01 124.66l113.26-42.6-21.21-66.43L5.43 59.68l27.58 64.98z"/><path class="bdcls-5" d="M146.27 146.16c21.65 6.73 38.67 15.81 56.47 28.92 10.33 7.6 27.11 17.91 29.91 22.72 0 0 3.28 1.57 8.33 0s11.56-3 11.56-3M199.41 186.62s16.55 7.7 29.9 40.89 10.58 49.54 10.58 49.54l35.21 10.1 7.49-33.15s-15.34-5.56-35.13-46.66"/><path class="bdcls-6" d="M125.68 101.48l42.43-18.39-13.28-45.16"/></g></g></symbol><symbol viewBox="0 0 20 20" id="search" xmlns="http://www.w3.org/2000/svg"><path fill-rule="evenodd" clip-rule="evenodd" d="M14.966 14.12l4.861 4.86a.6.6 0 0 1-.422 1.02.602.602 0 0 1-.42-.177l-4.862-4.86a8.495 8.495 0 0 1-5.594 2.092C3.83 17.055 0 13.228 0 8.528 0 3.827 3.823 0 8.53 0c4.701 0 8.53 3.823 8.53 8.528 0 2.137-.79 4.093-2.094 5.592zM8.526 1.197c-4.042 0-7.333 3.286-7.333 7.33 0 4.045 3.291 7.336 7.332 7.336 4.045 0 7.332-3.295 7.332-7.335s-3.287-7.33-7.332-7.33z"/></symbol><symbol viewBox="0 0 73.95 76.41" id="seo" xmlns="http://www.w3.org/2000/svg"><defs><style>.bfcls-1,.bfcls-4{fill:none;stroke:#141414;stroke-miterlimit:10;stroke-width:3px}.bfcls-1{stroke-linecap:square}.bfcls-2{fill:#fc6a42}.bfcls-3{fill:#31dbce}.bfcls-5{fill:#f9bd3a}</style></defs><g id="bfСлой_2" data-name="Слой 2"><g id="bfLogo"><circle id="bf_Контур_" data-name="&lt;Контур>" class="bfcls-1" cx="38.19" cy="38.22" r="29.91"/><path class="bfcls-2" d="M38.19 17.91A20.31 20.31 0 1 0 58.5 38.22a20.3 20.3 0 0 0-20.31-20.31zm0 31.2a10.9 10.9 0 1 1 10.9-10.89 10.9 10.9 0 0 1-10.9 10.89z"/><path class="bfcls-3" d="M66.91 13.36a32.41 32.41 0 0 0-2.43-2.69A35.39 35.39 0 0 0 42 .39L36.46 0l.36 7.77.18 3.29 1.23 27.16 22.83-14.64 9.33-6z"/><path id="bf_Контур_2" data-name="&lt;Контур>" class="bfcls-1" d="M6.32 50.79A33.83 33.83 0 0 1 4 40.82"/><path id="bf_Контур_3" data-name="&lt;Контур>" class="bfcls-1" d="M71.16 28.88a34.47 34.47 0 0 1 .46 16.85"/><path id="bf_Контур_4" data-name="&lt;Контур>" class="bfcls-1" d="M17.4 70.5l-3.27 3.27a3.91 3.91 0 0 1-5.52 0l-6-6a3.91 3.91 0 0 1 0-5.52l12.44-12.38a3.91 3.91 0 0 1 5.52 0l6 6a3.91 3.91 0 0 1 0 5.52l-2.29 2.29"/><circle class="bfcls-4" cx="3.81" cy="36.47" r=".26"/><circle class="bfcls-4" cx="20.31" cy="67.38" r=".26"/><circle class="bfcls-4" cx="70.53" cy="50.01" r=".26"/><circle class="bfcls-4" cx="38.19" cy="38.22" r="20.5"/><path class="bfcls-5" d="M19.17 19.19a26.69 26.69 0 0 0-5.37 7.65l24.39 11.38-9.57-25.15a26.63 26.63 0 0 0-9.45 6.12z"/><circle class="bfcls-1" cx="38.19" cy="38.22" r="11"/></g></g></symbol><symbol viewBox="0 0 369.793 369.792" id="settings" xmlns="http://www.w3.org/2000/svg"><path d="M320.83 140.434l-1.759-.627-6.87-16.399.745-1.685c20.812-47.201 19.377-48.609 15.925-52.031L301.11 42.61c-1.135-1.126-3.128-1.918-4.846-1.918-1.562 0-6.293 0-47.294 18.57l-1.644.738-16.916-6.812-.679-1.684C210.45 3.762 208.475 3.762 203.677 3.762h-39.205c-4.78 0-6.957 0-24.836 47.825l-.673 1.741-16.828 6.86-1.609-.669c-27.752-11.7-43.956-17.633-48.18-17.633-1.714 0-3.714.769-4.854 1.892l-27.787 27.16c-3.525 3.477-4.987 4.933 16.915 51.149l.805 1.714-6.881 16.381-1.684.651C0 159.715 0 161.556 0 166.474v38.418c0 4.931 0 6.979 48.957 24.524l1.75.618 6.882 16.333-.739 1.669c-20.812 47.223-19.492 48.501-15.949 52.025L68.62 327.18c1.162 1.117 3.173 1.915 4.888 1.915 1.552 0 6.272 0 47.3-18.561l1.643-.769 16.927 6.846.658 1.693c19.293 47.726 21.275 47.726 26.076 47.726h39.217c4.924 0 6.966 0 24.859-47.857l.667-1.742 16.855-6.814 1.604.654c27.729 11.733 43.925 17.654 48.122 17.654 1.699 0 3.717-.745 4.876-1.893l27.832-27.219c3.501-3.495 4.96-4.924-16.981-51.096l-.816-1.734 6.869-16.31 1.64-.643c48.938-18.981 48.938-20.831 48.938-25.755V164.88c-.001-4.93-.001-6.966-48.964-24.446zM184.896 247.203c-35.038 0-63.542-27.959-63.542-62.3 0-34.342 28.505-62.264 63.542-62.264 35.023 0 63.522 27.928 63.522 62.264.001 34.335-28.498 62.3-63.522 62.3z"/></symbol><symbol viewBox="0 0 438.536 438.536" id="skype-logo" xmlns="http://www.w3.org/2000/svg"><path d="M415.7 262.093c3.039-14.657 4.564-28.935 4.564-42.826 0-27.218-5.276-53.247-15.844-78.087-10.562-24.838-24.838-46.249-42.825-64.237-17.987-17.988-39.395-32.263-64.234-42.829-24.845-10.559-50.866-15.843-78.088-15.843-13.894 0-28.171 1.524-42.827 4.57C156.651 7.614 134.381 0 109.637 0 79.375 0 53.538 10.705 32.124 32.115 10.708 53.531.004 79.368.004 109.631c0 24.744 7.614 47.014 22.839 66.809-3.044 14.655-4.568 28.933-4.568 42.827 0 27.215 5.28 53.243 15.843 78.085 10.562 24.838 24.838 46.25 42.827 64.241 17.987 17.986 39.401 32.257 64.239 42.824 24.84 10.564 50.869 15.845 78.087 15.845 13.893 0 28.17-1.526 42.834-4.572 19.79 15.229 42.058 22.847 66.804 22.847 30.259 0 56.103-10.711 77.505-32.12 21.416-21.416 32.12-47.253 32.12-77.519-.005-24.74-7.616-47.007-22.834-66.805zm-90.228 42.397c-6.276 11.136-14.702 20.033-25.263 26.696-10.567 6.663-22.224 11.748-34.975 15.273-12.751 3.518-26.073 5.283-39.971 5.283-32.163 0-59.855-6.235-83.078-18.705-23.223-12.471-34.833-27.453-34.833-44.968 0-8.562 2.428-15.693 7.282-21.408 4.853-5.712 12.038-8.562 21.555-8.562 5.52 0 10.657 1.522 15.415 4.564 4.758 3.046 9.135 6.715 13.134 10.999 3.999 4.285 8.326 8.562 12.99 12.847 4.661 4.285 10.847 7.946 18.555 10.992 7.71 3.046 16.418 4.572 26.128 4.572 12.371 0 22.36-2.423 29.981-7.275 7.61-4.859 11.416-10.999 11.416-18.418 0-7.618-3.042-13.326-9.13-17.132-4.182-2.673-14.846-6.098-31.977-10.283l-41.688-10.284c-11.419-2.662-21.222-5.752-29.408-9.271-8.186-3.524-15.8-8.134-22.841-13.849-7.039-5.708-12.369-12.891-15.986-21.555-3.616-8.658-5.424-18.796-5.424-30.406 0-13.896 3.189-26.121 9.563-36.688 6.374-10.565 14.849-18.846 25.409-24.841 10.562-5.996 21.935-10.468 34.119-13.418 12.179-2.951 24.742-4.426 37.685-4.426 18.276 0 35.589 2.19 51.961 6.567 16.368 4.377 29.882 10.801 40.538 19.271 10.657 8.473 15.985 17.942 15.985 28.409 0 8.562-2.707 15.893-8.138 21.982-5.414 6.088-12.601 9.134-21.55 9.134-4.948 0-9.514-1.143-13.702-3.427a54.891 54.891 0 0 1-11.423-8.278 217.22 217.22 0 0 0-10.852-9.563c-3.806-3.14-8.946-5.852-15.41-8.136-6.479-2.284-13.802-3.427-21.986-3.427-27.406 0-41.112 7.323-41.112 21.982 0 3.234.715 6.09 2.141 8.564 1.427 2.474 3 4.473 4.71 5.996 1.709 1.525 4.565 3.046 8.564 4.57 3.999 1.525 7.33 2.622 9.994 3.284 2.663.666 6.854 1.665 12.562 2.996l29.694 6.851c9.325 2.096 17.648 4.286 24.981 6.567 7.331 2.288 15.181 5.521 23.555 9.71 8.374 4.187 15.321 8.848 20.838 13.988 5.523 5.144 10.137 11.656 13.853 19.555 3.714 7.901 5.564 16.61 5.564 26.124-.001 13.894-3.136 26.411-9.425 37.544z"/></symbol><symbol viewBox="0 0 612 612" id="twitter-logo" xmlns="http://www.w3.org/2000/svg"><path d="M612 116.258a250.714 250.714 0 0 1-72.088 19.772c25.929-15.527 45.777-40.155 55.184-69.411-24.322 14.379-51.169 24.82-79.775 30.48-22.907-24.437-55.49-39.658-91.63-39.658-69.334 0-125.551 56.217-125.551 125.513 0 9.828 1.109 19.427 3.251 28.606-104.326-5.24-196.835-55.223-258.75-131.174-10.823 18.51-16.98 40.078-16.98 63.101 0 43.559 22.181 81.993 55.835 104.479a125.556 125.556 0 0 1-56.867-15.756v1.568c0 60.806 43.291 111.554 100.693 123.104-10.517 2.83-21.607 4.398-33.08 4.398-8.107 0-15.947-.803-23.634-2.333 15.985 49.907 62.336 86.199 117.253 87.194-42.947 33.654-97.099 53.655-155.916 53.655-10.134 0-20.116-.612-29.944-1.721 55.567 35.681 121.536 56.485 192.438 56.485 230.948 0 357.188-191.291 357.188-357.188l-.421-16.253c24.666-17.593 46.005-39.697 62.794-64.861z" fill="#010002"/></symbol><symbol viewBox="0 0 95 95" id="vertical-dots" xmlns="http://www.w3.org/2000/svg"><path d="M60 23V2a2 2 0 0 0-2-2H37a2 2 0 0 0-2 2v21a2 2 0 0 0 2 2h21a2 2 0 0 0 2-2zM60 58V37a2 2 0 0 0-2-2H37a2 2 0 0 0-2 2v21a2 2 0 0 0 2 2h21a2 2 0 0 0 2-2zM60 93V72a2 2 0 0 0-2-2H37a2 2 0 0 0-2 2v21a2 2 0 0 0 2 2h21a2 2 0 0 0 2-2z"/></symbol><symbol viewBox="0 0 73.95 69.6" id="web_design" xmlns="http://www.w3.org/2000/svg"><defs><style>.bkcls-1{fill:#f9bd3a}.bkcls-2{fill:#31dbce}.bkcls-3,.bkcls-5,.bkcls-6{fill:none;stroke:#141414;stroke-miterlimit:10}.bkcls-3,.bkcls-6{stroke-linecap:square}.bkcls-3,.bkcls-5{stroke-width:3px}.bkcls-4{fill:#fc6a42}.bkcls-6{stroke-width:4px}</style></defs><g id="bkСлой_2" data-name="Слой 2"><g id="bkLogo"><path class="bkcls-1" d="M45.78 9.51l6.02 6.26-16.6 18.24-5.5-8.42L45.78 9.51z"/><circle class="bkcls-2" cx="51.4" cy="32.98" r="13.89"/><path class="bkcls-1" d="M52.63 16.36l6.02 6.25-15.68 16.9-6.42-7.07 16.08-16.08z"/><path class="bkcls-3" d="M36.54 32.43l16.67-16.66"/><path class="bkcls-1" d="M51.8 15.77L41.23 5.2l-22.17 9.24 16.71 16.71L51.8 15.77z"/><path class="bkcls-4" d="M19.66 35.54l6.61-6.36L44.38 47.3l-2.47 10.79-22.25-22.55z"/><path id="bk_Контур_" data-name="&lt;Контур>" class="bkcls-3" d="M66.41 21.46A29.91 29.91 0 1 1 47.52 3"/><path id="bk_Контур_2" data-name="&lt;Контур>" class="bkcls-3" d="M6.32 44A33.9 33.9 0 0 1 4 34"/><path id="bk_Контур_3" data-name="&lt;Контур>" class="bkcls-3" d="M71.16 22.07a34.47 34.47 0 0 1 .46 16.85"/><path id="bk_Контур_4" data-name="&lt;Контур>" class="bkcls-3" d="M17.4 63.69L14.13 67a3.91 3.91 0 0 1-5.52 0l-6-6a3.91 3.91 0 0 1 0-5.52l12.44-12.42a3.91 3.91 0 0 1 5.52 0l6 6a3.91 3.91 0 0 1 0 5.52l-2.29 2.29"/><circle class="bkcls-5" cx="3.81" cy="29.66" r=".26"/><circle class="bkcls-5" cx="20.31" cy="60.57" r=".26"/><circle class="bkcls-5" cx="70.53" cy="43.2" r=".26"/><path class="bkcls-3" d="M54.36 14.62c-1.23 1.23-3.75.69-5.64-1.2S46.29 9 47.51 7.78L29.7 25.59l13.69 13.69L61.2 21.47c-1.23 1.22-3.75.68-5.64-1.21s-2.43-4.41-1.2-5.64M47.52 7.78l.87-.87 14.38-.7-.7 14.38-.87.87"/><path class="bkcls-6" d="M29.11 29.18l10.68 10.68"/><path class="bkcls-3" d="M19.88 35.45h19.34v7a1 1 0 0 1-1 1H20.88a1 1 0 0 1-1-1v-7z" transform="rotate(45 29.556 39.433)"/><path class="bkcls-3" d="M61.56 7.42l-2.09 2.09"/></g></g></symbol></svg>