<?xml version="1.0" encoding="utf-8"?><svg xmlns="http://www.w3.org/2000/svg" xmlns:xlink="http://www.w3.org/1999/xlink"><symbol fill="none" viewBox="0 0 16 16" id="date" xmlns="http://www.w3.org/2000/svg"><path d="M4 0a.571.571 0 0 0-.571.571v1.143H4.57V.571A.571.571 0 0 0 4 0zM12 0a.571.571 0 0 0-.571.571v1.143h1.142V.571A.571.571 0 0 0 12 0z" fill="#3E3E4D"/><path d="M14.286 1.714H12.57V4a.571.571 0 1 1-1.142 0V1.714H4.57V4A.571.571 0 1 1 3.43 4V1.714H1.714C.768 1.714 0 2.482 0 3.43v10.857C0 15.233.768 16 1.714 16h12.572c.947 0 1.714-.768 1.714-1.714V3.429c0-.947-.768-1.715-1.714-1.715zm.571 12.572a.571.571 0 0 1-.571.571H1.714a.571.571 0 0 1-.571-.571V6.857h13.714v7.429z" fill="#3E3E4D"/><path d="M4.571 8H3.43a.571.571 0 1 0 0 1.143H4.57a.571.571 0 1 0 0-1.143zM8.571 8H7.43a.571.571 0 1 0 0 1.143H8.57a.571.571 0 1 0 0-1.143zM12.571 8H11.43a.571.571 0 1 0 0 1.143h1.142a.571.571 0 1 0 0-1.143zM4.571 10.286H3.43a.571.571 0 1 0 0 1.143H4.57a.571.571 0 0 0 0-1.143zM8.571 10.286H7.43a.571.571 0 1 0 0 1.143H8.57a.571.571 0 0 0 0-1.143zM12.571 10.286H11.43a.571.571 0 1 0 0 1.143h1.142a.572.572 0 0 0 0-1.143zM4.571 12.571H3.43a.571.571 0 0 0 0 1.143H4.57a.571.571 0 0 0 0-1.143zM8.571 12.571H7.43a.571.571 0 0 0 0 1.143H8.57a.571.571 0 1 0 0-1.143zM12.571 12.571H11.43a.572.572 0 0 0 0 1.143h1.142a.571.571 0 1 0 0-1.143z" fill="#3E3E4D"/></symbol><symbol fill="none" viewBox="0 0 15 10" id="email" xmlns="http://www.w3.org/2000/svg"><path d="M14.464 0H.536L7.5 5.354 14.543.015A.514.514 0 0 0 14.464 0z" fill="url(#bpaint0_linear)"/><path d="M7.838 6.388a.566.566 0 0 1-.679 0L0 .883V9.5c0 .276.24.5.536.5h13.928c.296 0 .536-.224.536-.5V.957L7.838 6.388z" fill="url(#bpaint1_linear)"/><defs><linearGradient id="bpaint0_linear" x1="0" y1="5" x2="15" y2="5" gradientUnits="userSpaceOnUse"><stop stop-color="#F87C0A"/><stop offset="1" stop-color="#DC0606"/></linearGradient><linearGradient id="bpaint1_linear" x1="0" y1="5" x2="15" y2="5" gradientUnits="userSpaceOnUse"><stop stop-color="#F87C0A"/><stop offset="1" stop-color="#DC0606"/></linearGradient></defs></symbol><symbol viewBox="0 0 12 13" id="login" xmlns="http://www.w3.org/2000/svg"><path d="M6 0C4.015 0 2.4 1.538 2.4 3.428S4.015 6.855 6 6.855s3.6-1.537 3.6-3.427C9.6 1.538 7.985 0 6 0zM11.933 10.123c-1.076-1.537-2.878-2.455-4.817-2.455H4.884c-1.94 0-3.74.918-4.817 2.455L0 10.219V13h12v-2.781l-.067-.096z"/></symbol><symbol fill="none" viewBox="0 0 14 14" id="malaysia" xmlns="http://www.w3.org/2000/svg"><g clip-path="url(#dclip0)"><path d="M14 10.432c0 .768-.61 1.378-1.355 1.378H1.355C.61 11.81 0 11.2 0 10.432V3.568C0 2.8.61 2.19 1.355 2.19h11.29C13.39 2.19 14 2.8 14 3.568v6.864z" fill="#CC0001"/><path d="M1.354 2.19h11.29C13.39 2.19 14 2.8 14 3.568v6.864c0 .768-.61 1.378-1.355 1.378" fill="#B21010"/><path d="M14 10.432c0 .768-.61 1.378-1.355 1.378H1.355C.61 11.81 0 11.2 0 10.432" fill="#BC0A0A"/><path d="M1.354 2.19h11.29C13.39 2.19 14 2.8 14 3.568v2.506" fill="#930606"/><path d="M14 6.594H0v.812h14v-.812z" fill="#fff"/><path d="M7.474 7.406H14v-.812H6.525l.949.812z" fill="#DDDBDB"/><path d="M14 8.355H0v.813h14v-.813z" fill="#fff"/><path d="M9.53 9.168H14v-.813H8.604l.925.813z" fill="#DDDBDB"/><path d="M0 10.116v.316c0 .181.023.339.09.474h13.82c.045-.158.09-.316.09-.474v-.316H0z" fill="#fff"/><path d="M11.607 10.93h2.303c.022-.069.045-.159.068-.227.022-.09.022-.18.022-.27v-.317h-3.342l.949.813z" fill="#DDDBDB"/><path d="M0 3.568v.316h14v-.316c0-.181-.023-.339-.09-.474H.09c-.067.135-.09.293-.09.474z" fill="#fff"/><path d="M13.977 3.32c-.022-.091-.045-.159-.067-.25H2.394l.948.814H14v-.316c0-.09 0-.181-.023-.249z" fill="#DDDBDB"/><path d="M14 4.832H0v.813h14v-.813z" fill="#fff"/><path d="M5.397 5.645H14v-.813H4.47l.927.813z" fill="#DDDBDB"/><path d="M4.38 6.594V2.19H1.356C.61 2.19 0 2.8 0 3.568v3.026h4.38z" fill="#384DA0"/><path d="M4.38 2.19H1.354L4.38 4.765V2.19z" fill="#233A84"/><path d="M1.716 3.274c-.61 0-1.13.497-1.13 1.13 0 .631.498 1.128 1.13 1.128.226 0 .429-.068.61-.18-.113.045-.204.045-.317.045-.541 0-.993-.452-.993-.994s.452-.993.993-.993c.113 0 .249.022.34.067a1.01 1.01 0 0 0-.633-.203z" fill="#FC0"/><path d="M3.59 4.968l-.474-.249.135.497-.316-.406-.09.519-.09-.52-.317.43.136-.497-.474.226.36-.407-.541.023.497-.203-.497-.204.542.023-.361-.406.474.248-.136-.497.316.43.09-.52.091.52.316-.43-.135.52.474-.249-.361.407.542-.023-.497.203.497.203-.542-.022.36.384z" fill="#FC0"/></g><defs><clipPath id="dclip0"><path fill="#fff" d="M0 0h14v14H0z"/></clipPath></defs></symbol><symbol viewBox="0 0 21 20" id="phone" xmlns="http://www.w3.org/2000/svg"><path d="M19.154 13.128c-1.22 0-2.416-.192-3.55-.568-.556-.19-1.24-.016-1.578.334l-2.239 1.697C9.191 13.2 7.592 11.593 6.225 9.005l1.64-2.19a1.622 1.622 0 0 0 .396-1.638 11.42 11.42 0 0 1-.568-3.572C7.693.72 6.977 0 6.096 0H2.439C1.56 0 .842.72.842 1.605.842 11.748 9.056 20 19.154 20c.88 0 1.597-.72 1.597-1.605v-3.662c0-.885-.716-1.605-1.597-1.605z"/></symbol><symbol viewBox="0 0 14 14" id="search" xmlns="http://www.w3.org/2000/svg"><path d="M6.165 0A6.172 6.172 0 0 0 0 6.165c0 3.4 2.766 6.166 6.165 6.166 3.4 0 6.166-2.766 6.166-6.166C12.33 2.765 9.565 0 6.165 0zm0 11.192a5.033 5.033 0 0 1-5.027-5.027 5.033 5.033 0 0 1 5.027-5.027 5.033 5.033 0 0 1 5.027 5.027 5.033 5.033 0 0 1-5.027 5.027z"/><path d="M13.833 13.028L10.57 9.766a.569.569 0 1 0-.804.804l3.262 3.263a.567.567 0 0 0 .805 0 .569.569 0 0 0 0-.805z"/></symbol><symbol fill="none" viewBox="0 0 14 14" id="singapore" xmlns="http://www.w3.org/2000/svg"><path d="M0 7v3.432c0 .768.61 1.31 1.355 1.31h11.29c.745 0 1.355-.542 1.355-1.31V7H0z" fill="#fff"/><path d="M7 7l5.577 4.742c.746 0 1.423-.542 1.423-1.31V7H7z" fill="#E1E5E5"/><path d="M12.645 2.258H1.355C.61 2.258 0 2.8 0 3.568V7h14V3.568c0-.768-.61-1.31-1.355-1.31z" fill="#ED2939"/><path d="M12.645 2.258H1.355L7 7h7V3.568c0-.768-.61-1.31-1.355-1.31z" fill="#DD2238"/><path d="M14 10.41c0 .813-.61 1.332-1.355 1.332H1.355A1.344 1.344 0 0 1 0 10.387" fill="#D0D6D6"/><path d="M1.354 2.258h11.29c.746 0 1.356.542 1.356 1.31v2.529" fill="#CE1535"/><path d="M1.4 4.494c0-.79.632-1.446 1.4-1.468a1.924 1.924 0 0 0-.52-.09c-.857 0-1.557.7-1.557 1.558 0 .858.7 1.558 1.558 1.558.18 0 .361-.023.52-.09a1.451 1.451 0 0 1-1.4-1.468z" fill="#fff"/><path d="M2.348 4.11L2.28 3.86l-.09.249h-.271l.226.158-.09.27.225-.157.203.158-.09-.271.226-.158h-.271zM4.268 4.11h-.27L3.93 3.86l-.09.249h-.25l.204.158-.068.27.204-.157.203.158-.068-.271.203-.158zM3.23 3.658l.202-.158h-.248l-.09-.248-.068.248h-.271l.226.158-.09.271.203-.158.225.158-.09-.271zM2.574 4.832l-.068.271h-.27l.225.158-.09.271.203-.18.226.18-.09-.27.203-.159h-.249l-.09-.27zM3.703 5.103l-.09-.27-.068.27h-.27l.203.158-.068.271.203-.18.226.18-.09-.27.203-.159h-.249z" fill="#fff"/></symbol><symbol viewBox="0 0 33 33" id="sport-icon-1" xmlns="http://www.w3.org/2000/svg"><path d="M10.292 1.207a16.402 16.402 0 0 0-5.459 3.625A16.45 16.45 0 0 0 0 16.5a16.442 16.442 0 0 0 4.833 11.667 16.383 16.383 0 0 0 5.459 3.625A16.43 16.43 0 0 0 16.5 33a16.453 16.453 0 0 0 11.667-4.833A16.441 16.441 0 0 0 33 16.5a16.46 16.46 0 0 0-4.832-11.668A16.454 16.454 0 0 0 16.5 0c-2.143 0-4.232.406-6.21 1.207zm-6.168 22.24a11.327 11.327 0 0 1-2.176-1.75 15.556 15.556 0 0 1-.502-8.669c.31-.609.66-1.193 1.057-1.753.123-.173.237-.353.368-.52l3.723 2.202v.094c-.01 2.003.194 3.99.6 5.95 0 .01.002.014.004.022L4.31 23.551a2.27 2.27 0 0 1-.186-.104zM15.195 31.1c.643.328 1.303.605 1.982.83a15.474 15.474 0 0 1-8.371-2.028l6.242 1.113c.047.03.096.06.147.085zm-.023-1.127l-7.366-1.312a23.001 23.001 0 0 1-2.303-3.337c-.17-.301-.359-.593-.502-.908l2.885-4.523.215.054c1.805.483 3.642.826 5.491 1.096.108.014.199.028.276.036l3.458 5.98c-.6.843-1.207 1.682-1.827 2.512-.103.138-.213.27-.327.402zm12.255-2.547a15.337 15.337 0 0 1-1.86 1.588 14.144 14.144 0 0 0-.558-2.537l3.69-6.884c1.016-.463 1.997-.987 2.907-1.638.12-.084.218-.179.295-.282a15.376 15.376 0 0 1-4.474 9.753zm-.163-8.927c.137.262.272.526.408.794l-3.564 6.649c-.02.004-.04.009-.06.011-1.927.36-3.869.552-5.827.56l-3.557-6.149a387.8 387.8 0 0 0 1.646-3.092c.37-.7.732-1.405 1.095-2.11l7.36-.756c.902 1.322 1.756 2.673 2.499 4.093zm-1.494-7.886c-.349.922-.723 1.835-1.094 2.75l-7.171.737a5.852 5.852 0 0 0-.268-.331c-.847-.959-1.7-1.912-2.55-2.868l.023-.025c-.343-.343-.688-.686-1.03-1.03l1.995-6.01a2.8 2.8 0 0 1 .417-.082c1.085-.11 2.172-.236 3.26-.299a15.855 15.855 0 0 1 2.013-.01l4.94 5.567c-.17.537-.337 1.075-.535 1.601zm1.657-5.041a15.385 15.385 0 0 1 3.164 4.581 15.683 15.683 0 0 0-2.947-1.584 8.847 8.847 0 0 0-.495-.183l-4.862-5.48c.034-.236.052-.473.059-.712a15.38 15.38 0 0 1 5.081 3.378zM11.552 1.907c.019.014.028.026.04.03 1.11.383 2.121.948 3.074 1.62l-1.865 5.616a.198.198 0 0 0-.027.01c-.382.157-.771.298-1.147.47-1.548.703-3.057 1.482-4.479 2.417l-3.68-2.178c.005-.115.025-.231.064-.335.247-.659.49-1.32.77-1.966.215-.497.46-.977.728-1.447a15.362 15.362 0 0 1 6.556-4.294 1.047 1.047 0 0 0-.034.057z"/></symbol><symbol viewBox="0 0 33 33" id="sport-icon-2" xmlns="http://www.w3.org/2000/svg"><path d="M33 16.678c.002-.492-.274-.843-.657-1.062a15.977 15.977 0 0 0-.214-1.854 1.027 1.027 0 0 0 .406-1.161A16.497 16.497 0 0 0 20.367.456a1.147 1.147 0 0 0-.283-.036c-.38 0-.659.18-.848.45a16.003 16.003 0 0 0-1.854-.213c-.223-.39-.584-.67-1.09-.657-2.141.027-4.227.463-6.2 1.294a16.424 16.424 0 0 0-5.26 3.538 16.423 16.423 0 0 0-3.538 5.26A16.424 16.424 0 0 0 0 16.292c-.013.507.265.868.657 1.091.035.621.107 1.242.214 1.855a1.027 1.027 0 0 0-.4 1.177A16.494 16.494 0 0 0 12.584 32.53a1.149 1.149 0 0 0 .331.05c.379 0 .658-.18.847-.45.614.107 1.234.178 1.855.213.218.382.569.657 1.057.657a1.364 1.364 0 0 0 .082-.003 16.422 16.422 0 0 0 6.152-1.294 16.429 16.429 0 0 0 5.26-3.537 16.425 16.425 0 0 0 3.537-5.26A16.423 16.423 0 0 0 33 16.678zM15.36 31.034c-.429-.034-.857-.087-1.282-.158a17.739 17.739 0 0 1 5.183-11.615 17.738 17.738 0 0 1 11.615-5.183c.071.424.124.853.157 1.283-4.103.199-7.95 1.9-10.86 4.811a16.434 16.434 0 0 0-4.812 10.862zM2.125 18.922a14.692 14.692 0 0 1-.158-1.283c4.103-.199 7.95-1.9 10.862-4.811A16.435 16.435 0 0 0 17.64 1.966c.43.034.858.087 1.282.158A17.738 17.738 0 0 1 13.74 13.74a17.739 17.739 0 0 1-11.615 5.183zm3.62-13.178A15.128 15.128 0 0 1 16.263 1.29a.806.806 0 0 1 .061.168c.018.068.032.143.038.21a15.153 15.153 0 0 1-4.446 10.248 15.153 15.153 0 0 1-10.25 4.446 1.272 1.272 0 0 1-.223-.042.763.763 0 0 1-.153-.057 15.129 15.129 0 0 1 4.454-10.52zm0 21.512a15.205 15.205 0 0 1-3.987-7.01 1.256 1.256 0 0 1 .237-.026 19.226 19.226 0 0 0 1.68-.148 13.226 13.226 0 0 0 2.133 4.362.643.643 0 1 0 1.035-.768 11.945 11.945 0 0 1-1.889-3.808 19.024 19.024 0 0 0 9.698-5.207A19.026 19.026 0 0 0 20.22 1.994v-.02a1.27 1.27 0 0 1 .027-.22 15.205 15.205 0 0 1 10.997 11 1.246 1.246 0 0 1-.239.026c-.564.025-1.124.075-1.68.148a13.223 13.223 0 0 0-2.132-4.362.645.645 0 0 0-1.036.768 11.94 11.94 0 0 1 1.89 3.808 19.021 19.021 0 0 0-9.698 5.207 19.027 19.027 0 0 0-5.57 12.657v.02a1.274 1.274 0 0 1-.025.217 15.204 15.204 0 0 1-7.01-3.987zm21.513-.002a15.13 15.13 0 0 1-10.52 4.454.816.816 0 0 1-.061-.167 1.305 1.305 0 0 1-.038-.208 15.153 15.153 0 0 1 4.446-10.25 15.152 15.152 0 0 1 10.248-4.445c.134.012.3.056.378.1a15.13 15.13 0 0 1-4.453 10.516z"/><path d="M7.973 24.98a.645.645 0 0 0-.912.911l.028.028A.642.642 0 0 0 8 25.91.645.645 0 0 0 7.993 25l-.02-.02zM25.023 8.017a.642.642 0 0 0 .912.007.645.645 0 0 0 .007-.912l-.023-.023a.645.645 0 0 0-.92.904l.024.024z"/></symbol><symbol viewBox="0 0 33 33" id="sport-icon-3" xmlns="http://www.w3.org/2000/svg"><path d="M16.5 0C7.402 0 0 7.402 0 16.5 0 25.598 7.402 33 16.5 33 25.598 33 33 25.598 33 16.5 33 7.402 25.598 0 16.5 0zm0 31.9c-8.491 0-15.4-6.909-15.4-15.4S8.009 1.1 16.5 1.1s15.4 6.909 15.4 15.4-6.909 15.4-15.4 15.4z"/><path d="M31.793 21.46C29.266 19.879 27.5 15.125 27.5 9.9c0-1.681.173-3.312.515-4.845a.55.55 0 0 0-1.074-.24A23.43 23.43 0 0 0 26.4 9.9c0 5.673 1.933 10.693 4.81 12.492a.548.548 0 0 0 .758-.174.55.55 0 0 0-.175-.758zM12.404.631a.553.553 0 0 0-.354-.019C4.955 2.595 0 9.13 0 16.5 0 25.598 7.402 33 16.5 33c2.714 0 5.407-.675 7.787-1.952a.551.551 0 0 0 .28-.377l.176-.885.012-.072c.268-1.683.545-3.422.545-5.239 0-11.157-5.183-20.74-12.896-23.844zm11.265 28.91l-.13.658A15.435 15.435 0 0 1 16.5 31.9c-8.491 0-15.4-6.909-15.4-15.4 0-6.817 4.54-12.867 11.066-14.777C19.372 4.736 24.2 13.847 24.2 24.475c0 1.73-.27 3.426-.531 5.066z"/><path d="M12.827 28.63c-1.034-.353-2.073-.873-3.177-1.59a.55.55 0 0 0-.6.92c1.181.769 2.3 1.328 3.422 1.71a.55.55 0 0 0 .355-1.04zM7.029 24.956c-.129-.16-.27-.329-.415-.502-.428-.51-.914-1.087-1.173-1.602a.55.55 0 1 0-.982.495c.317.63.846 1.259 1.313 1.815.14.167.276.328.399.482a.549.549 0 1 0 .858-.688zM31.9 11.778c-16.101-.128-25.598 5.268-30.731 9.837a.55.55 0 0 0 .73.822c4.99-4.44 14.25-9.69 29.99-9.56h.006a.55.55 0 0 0 .005-1.1z"/><path d="M5.006 5.5c-.168 0-.335-.007-.502-.015a.55.55 0 1 0-.052 1.099c.184.008.368.016.554.016 7.278 0 13.2 7.032 13.2 15.675 0 3.849-.935 7.256-2.703 9.852a.55.55 0 1 0 .91.619c1.892-2.78 2.893-6.4 2.893-10.471 0-9.25-6.416-16.775-14.3-16.775z"/></symbol><symbol viewBox="0 0 38 33" id="sport-icon-4" xmlns="http://www.w3.org/2000/svg"><path d="M36.758 14.42a1.55 1.55 0 0 0-.442.07c-.106-.036-.65-.27-1.61-1.682-1.06-1.555-2.694-2.412-4.6-2.412-.106 0-.207.003-.304.008a19.912 19.912 0 0 0-1.706-1.264c-.947-.638-2.03-.962-3.222-.962-1.708 0-3.283.677-4.223 1.111.074-.086.147-.177.22-.274.337-.446.406-.987.186-1.448a1.275 1.275 0 0 0-1.163-.72c-.097 0-.196.01-.298.03.023-.1.043-.203.063-.31.109-.593-.124-.99-.273-1.174a1.307 1.307 0 0 0-.195-.194c.144-.215.322-.623.162-1.192-.361-1.276-1.226-2.07-2.41-2.238-.127-.299-.363-.55-.678-.707a2.218 2.218 0 0 0-1.097-.236 1.34 1.34 0 0 0-.214-.359A1.292 1.292 0 0 0 13.959 0c-.23 0-.46.06-.678.178-.443.239-1.053.652-1.442 1.263a.377.377 0 0 1-.042.05 1.346 1.346 0 0 0-.818-.268h-.038A1.257 1.257 0 0 0 10.783 1L10.43.596 9.891.591c-.519 0-.84.325-.987.496a.846.846 0 0 1-.185.041 2.807 2.807 0 0 0-1.233.467C7.337 1.276 7.029.63 6.249.63h-.001c-.275 0-1.176.102-1.25 1.475-.05.905.235 2.108.516 3.05l-.007.005c-.914.69-.888 1.489-.55 2.554.132.411.212 1.43-.725 3.622-.613 1.432.066 2.322.391 2.75.075.098.145.19.177.254.436.862 1.585 1.377 2.446 1.377.46 0 .878-.14 1.203-.402a8.441 8.441 0 0 0-.347 2.396c-.9.885-1.074 1.626-1.191 2.123-.094.396-.137.577-.983 1.09-1.36.824-1.795 1.393-1.863 2.434-.015.233-.032.498-.674 1.26-.08.097-.2.23-.308.352l-.182.204c-1.175 1.343-1.468 1.981-1.515 2.636a.066.066 0 0 1-.008.008c-.675.743-1.073 1.65-1.288 2.28-.286.834.135 1.76.937 2.064.38.144.764.218 1.142.218 1.08 0 2.076-.603 2.662-1.613.382-.66.494-1.324.322-1.868.282-.342.528-.881.923-1.75l.245-.539c.075-.164.216-.47.298-.622.548-1.016 1.324-1.655 1.868-1.916.047-.023.157-.064.246-.098.109-.042.22-.084.327-.131-.029.22-.065.441-.09.592-.044.28-.084.52-.101.73a2.987 2.987 0 0 0-.036.105c-.36 1.083.028 1.9 1.153 2.427.104.05.176.084.225.11.137.247.328.558.737 1.057.535.652 1.124.982 1.75.982.145 0 .283-.018.413-.05-.116.128-.21.256-.287.386-.482.829-.018 1.783.709 2.227.653.398 1.224.592 1.744.592.419 0 1.437-.145 1.915-1.48.1-.142.467-.436.69-.613.417-.335.848-.68 1.155-1.11.13-.181.215-.375.284-.53.017-.039.033-.078.05-.114.266-.28.991-.717 1.479-1.01.665-.4 1.059-.645 1.32-.935a.63.63 0 0 1 .064-.04c-.125.17-.258.333-.39.496-.243.297-.471.578-.637.89-.044.05-.266.142-.386.192-.339.14-1.044.434-1.166 1.245-.124.84.524 1.385.737 1.564.513.432 1.112.66 1.734.66 1.154 0 2.215-.8 2.523-1.9.148-.504 1.445-2.75 1.871-3.49.182-.314.32-.552.377-.66.033-.06.12-.191.196-.307.434-.656 1.33-2.009.321-2.987a4.28 4.28 0 0 1-.289-.634c.386-.272.78-.667 1.058-1.237.101-.207.534-.61 1.245-1.003a3.646 3.646 0 0 0 .986-.812c-.604 1.476-.598 3.252.954 4.576.335.286.673.347.897.347.478 0 1.106-.294 1.317-1.12.08-.15.448-.48.718-.722.246-.22.524-.47.803-.755.427-.437.83-1.063.705-1.805.215-.224.476-.539.778-.984.252-.37.29-.713.26-.974.446-.453.763-.962.974-1.374.323-.633.14-1.118.003-1.35a1.225 1.225 0 0 0-1.065-.604zm.014 1.394c-.22.43-.671 1.155-1.374 1.56-.181.105-.22.294-.023.365.026.01.055.018.083.024.204.045.276.095.157.27-.246.363-.67.932-1.05 1.162-.575.349.662.48-.298 1.461-.805.825-1.67 1.372-1.827 2.017-.033.14-.09.225-.174.225-.04 0-.087-.02-.14-.066-.565-.482-1.595-1.753-.246-3.9 1.199-1.906.332-3.102-.49-3.308a.258.258 0 0 0-.066-.008c-.18 0-.348.176-.402.359-.226.755-.69 1.582-1.466 2.495-.137.162-.405.361-.589.463-.5.276-1.412.852-1.742 1.527-.285.584-.776.883-1.111 1.027-.193.083-.31.284-.242.486.177.539.526 1.505.81 1.76.4.36-.463 1.375-.72 1.85-.255.473-2.126 3.599-2.35 4.4-.15.542-.723 1.023-1.385 1.023-.32 0-.659-.113-.981-.384-.992-.835.591-.524 1.103-1.489.492-.927 2.517-2.277 1.628-5.166-.038-.123-.124-.191-.22-.191a.265.265 0 0 0-.185.086c-.306.308-.76.838-.791 1.312-.048.72-.96.736-1.376 1.21-.36.412-2.246 1.278-2.867 2.024-.136.162-.231.504-.354.676-.483.676-1.76 1.324-1.992 1.997-.149.431-.39.71-.813.71-.287 0-.657-.127-1.139-.421-.179-.11-.404-.383-.298-.567.088-.149.271-.349.636-.606.975-.687 1.327-.54 1.775-1.243.447-.704.64-.295 1.519-1.163.713-.702 1.446-1.137 1.733-1.633.106-.184.237-.49.368-.655a4.06 4.06 0 0 0 .371-.543c.102-.186.172-.54.333-.677.268-.227.729-.372.888-.5.16-.129.762-.917 1.098-1.363.127-.17.163-.466.094-.668-.083-.245-.176-.569-.185-.817-.001-.058-.016-.085-.049-.085-.181 0-.922.777-3.177.777-.48 0-1.026-.035-1.65-.12 0 0-.125-.027-.305-.027-.32 0-.81.086-1.086.567-.16.28-.323.367-.505.367-.307 0-.671-.252-1.175-.252-.482 0-1.115-.113-1.616-.113-.329 0-.6.049-.734.211-.336.41-1.487 1.31-.287 3.158 1.199 1.85 2.75-.409 1.47 2.683 0 0-.217.534-.659.534-.223 0-.504-.137-.843-.55-1.008-1.227-.4-1.03-1.376-1.489-.975-.458-.48-.769-.431-1.325.048-.556.352-1.816.208-2.422-.144-.605-.288-.982-.08-1.21l.026-.03c-.02 0-.777.711-1.516 1.079-.188.093-.512.196-.7.287-.794.38-1.751 1.22-2.403 2.427-.1.187-.245.5-.334.694-.62 1.352-.896 2.028-1.117 2.104-.24.082-.416.474-.128 1.014.232.436-.492 1.954-1.835 1.954-.227 0-.47-.043-.731-.142-.196-.074-.302-.326-.232-.528.155-.455.482-1.243 1.039-1.856.799-.881-.441-.401 1.536-2.66.14-.159.37-.412.506-.574 1.914-2.274-.093-2.027 2.243-3.443 2.31-1.399.836-1.941 2.495-3.48a.935.935 0 0 0 .262-.636 7.115 7.115 0 0 1 .825-3.476c1.055-1.963.128-3.829 0-3.927a.022.022 0 0 0-.014-.004c-.223 0-2.286 1.808-2.161 3.211.056.63-.275.853-.692.853-.537 0-1.217-.371-1.393-.722-.313-.621-.985-.916-.537-1.963.448-1.047 1.215-3.076.767-4.483-.396-1.247-.015-.927.543-1.588.137-.161.168-.473.104-.677-.205-.653-.598-2.032-.55-2.906.012-.241.034-.337.068-.337.114 0 .374 1.045.978 1.38.039.022.08.031.122.031.155 0 .32-.132.416-.269.178-.252.513-.567 1.102-.642.494-.063.758-.24.897-.408.065-.077.106-.12.128-.12.024 0 .027.05.015.162-.01.09-.024.186-.048.274-.05.19-.2.358-.065.358a.273.273 0 0 0 .043-.004c.213-.035.564-.093 1.085-.154a.508.508 0 0 1 .058-.004c.157 0 .187.097.103.26-.058.112-.099.24-.074.357.012.053.066.078.15.078.373 0 1.333-.492 1.673-1.027.253-.398.693-.686 1-.852a.275.275 0 0 1 .128-.038c.102 0 .15.096.126.25-.039.243-.047.546.09.738.04.058.092.08.155.08.207 0 .526-.245.94-.245.147 0 .306.032.477.116.187.094.147.247-.045.329-.235.1-.513.27-.6.538-.023.07.014.094.097.094.21 0 .717-.163 1.265-.163.682 0 1.429.254 1.75 1.394.039.135.01.203-.064.203a.305.305 0 0 1-.152-.058c-.172-.111-.395-.22-.611-.22-.198 0-.388.09-.527.354-.355.675.477 1.535 1.188 1.535.06 0 .118-.006.175-.019a.61.61 0 0 1 .127-.016c.119 0 .175.062.145.223-.054.293-.147.696-.288.984-.093.19-.103.423.078.529.225.131.569.272 1.01.272.155 0 .32-.017.498-.058a.456.456 0 0 1 .1-.014c.121 0 .146.08.042.216-.19.252-.485.591-.8.773-.183.104-.302.29-.193.472.12.202.31.434.584.53.198.069.223.124.025.19a1.673 1.673 0 0 1-.43.085c-.209.01-.259.088-.086.207.203.139.502.284.866.284.057 0 .115-.003.175-.01.207-.027.522-.161.712-.25.842-.388 2.41-1.165 4.086-1.165.856 0 1.74.203 2.57.762a18.01 18.01 0 0 1 1.679 1.25 1.06 1.06 0 0 0 .66.217c.101-.007.209-.01.323-.01 1.024 0 2.548.308 3.628 1.893 1.186 1.74 2.046 2.205 2.6 2.205a.874.874 0 0 0 .278-.043.52.52 0 0 1 .146-.032c.075-.001.08.053.014.182zm-21.963 9.97c-.387-.646-1.043-.693-1.358-.716-.305-.022-.388-.04-.577-.332-.545-.84-.345-1.097.012-1.5h.024c.195 0 .455.038.707.063.301.03.612.067.91.067.093 0 .218.045.362.093.218.073.49.165.812.165.358 0 1.023-.12 1.503-.926a.456.456 0 0 1 .155-.003l.061.016.021-.003c.637.087 1.244.13 1.806.13.614 0 1.138-.051 1.581-.13a7 7 0 0 1-.09.107l-.093.044c-.23.11-.548.258-.821.49-.347.293-.49.683-.584.94-.012.034-.024.067-.036.096-.035.06-.108.177-.25.355-.16.205-.278.436-.381.639-.03.06-.059.117-.086.164-.067.112-.39.379-.624.573-.276.228-.59.486-.911.803-.278.275-.403.33-.559.398-.358.158-.741.363-1.13.975-.09.14-.09.14-.382.283a8.111 8.111 0 0 0-.59.312c.064-.106.118-.212.16-.317.514-1.245.796-2.054.358-2.786zm-5.692-12.24c-.015-.17.101-.428.28-.706-.042.27-.125.558-.27.854a2.767 2.767 0 0 0-.01-.149z"/></symbol><symbol fill="none" viewBox="0 0 14 14" id="thailand" xmlns="http://www.w3.org/2000/svg"><path d="M12.953 2.414H1.047C.467 2.414 0 2.884 0 3.462v7.076c0 .58.47 1.047 1.047 1.047H12.95c.58 0 1.047-.47 1.047-1.047V3.462a1.043 1.043 0 0 0-1.044-1.048z" fill="#F5F5F5"/><path d="M0 10.538c0 .58.47 1.047 1.047 1.047H12.95c.58 0 1.047-.47 1.047-1.047v-.399H0v.4zM12.953 2.414H1.047C.467 2.414 0 2.884 0 3.462v.399h14v-.4c0-.579-.47-1.047-1.047-1.047z" fill="#FF4B55"/><path d="M14 5.31H0v3.38h14V5.31z" fill="#41479B"/></symbol><symbol fill="none" viewBox="0 0 18 18" id="whatsapp" xmlns="http://www.w3.org/2000/svg"><path d="M9.002 0h-.004C4.035 0 0 4.037 0 9c0 1.969.634 3.793 1.713 5.275L.592 17.62l3.46-1.106A8.922 8.922 0 0 0 9.001 18C13.965 18 18 13.962 18 9s-4.035-9-8.998-9z" fill="#4CAF50"/><path d="M14.24 12.71c-.217.612-1.08 1.12-1.767 1.27-.47.1-1.084.18-3.152-.678-2.645-1.096-4.348-3.783-4.48-3.958-.128-.174-1.07-1.423-1.07-2.714 0-1.292.656-1.92.92-2.19.218-.222.577-.324.921-.324.111 0 .211.006.301.01.265.012.398.027.572.445.217.523.746 1.815.809 1.947.064.133.128.313.038.487-.084.18-.159.26-.291.413-.133.153-.259.27-.392.434-.121.143-.259.296-.106.56.153.26.682 1.122 1.46 1.815 1.005.895 1.82 1.18 2.111 1.302.217.09.476.069.635-.1.201-.217.45-.577.703-.932.18-.254.407-.285.646-.195.243.084 1.528.72 1.793.851.264.133.439.196.503.307.063.112.063.635-.154 1.25z" fill="#FAFAFA"/></symbol></svg>