<svg width="22" height="22" viewBox="0 0 22 22" fill="none" xmlns="http://www.w3.org/2000/svg">
<path fill-rule="evenodd" clip-rule="evenodd" d="M11 -9.61651e-07C17.0751 -4.30546e-07 22 4.92487 22 11C22 17.0751 17.0751 22 11 22C4.92487 22 4.30546e-07 17.0751 9.61651e-07 11C1.49276e-06 4.92487 4.92487 -1.49276e-06 11 -9.61651e-07ZM11 2C6.02944 2 2 6.02944 2 11C2 15.9706 6.02944 20 11 20C15.9706 20 20 15.9706 20 11C20 6.02944 15.9706 2 11 2ZM16 10L9.41421 10L11.7071 7.70711L10.2929 6.29289L5.58579 11L10.2929 15.7071L11.7071 14.2929L9.41421 12L16 12L16 10Z" fill="white"/>
</svg>
