<svg width="600" height="110" viewBox="0 0 600 110" fill="none" xmlns="http://www.w3.org/2000/svg">
<g clip-path="url(#clip0_103_5366)">
<rect width="600" height="110" fill="#FFECD6"/>
<path d="M469.894 85.8449C502.121 145.14 491.843 190.842 488.434 206.961C477.773 257.496 434.725 317.13 348.502 318.946C262.278 317.12 219.219 257.485 208.569 206.961C204.736 188.814 196.007 124.295 244.322 56.1553C286.159 -2.84204 338.52 -41.94 348.502 -41.94C354.694 -41.94 377.217 -26.8311 403.395 -1.31341C405.66 0.894676 409.27 0.967728 411.583 -1.19039C414.003 -3.44848 414.076 -7.2673 411.713 -9.5849C384.844 -35.9364 359.664 -53.6311 348.502 -53.6311C330.195 -53.6311 274.129 -6.09135 234.786 49.3912C200.329 97.9928 186.248 157.797 197.133 209.372C208.686 264.122 255.227 328.736 348.385 330.637H348.502H348.618C441.787 328.726 488.328 264.122 499.871 209.372C508.681 167.619 500.97 120.536 479.483 78.3242C477.913 75.2399 474.02 74.2425 471.105 76.1076C468.615 77.7003 467.667 80.8756 468.875 83.5726L469.894 85.8449Z" fill="white"/>
<path d="M495.941 58.8688C494.953 60.3215 494.857 62.2104 495.675 63.7651C516.453 103.244 525.403 147.599 520.184 190.173C515.384 229.398 496.94 266.065 468.28 293.429C436.573 323.692 395.138 340.002 348.565 340.618C301.875 340.013 260.43 323.692 228.733 293.429C200.063 266.065 181.629 229.398 176.829 190.173C170.044 134.807 186.896 76.2879 223.063 29.6295C262.235 -20.926 319.693 -63.6236 348.512 -63.6236C366.851 -63.6236 396.777 -46.2744 426.213 -20.6755C428.042 -19.0846 430.782 -19.1125 432.554 -20.767C434.57 -22.6489 434.535 -25.8595 432.453 -27.6676C401.146 -54.8543 369.054 -72.9786 348.512 -72.9786C316.667 -72.9786 257.064 -29.5164 215.672 23.906C178.019 72.497 160.466 133.522 167.549 191.32C172.614 232.69 192.057 271.353 222.288 300.204C255.737 332.123 299.358 349.336 348.586 349.984C397.687 349.347 441.319 332.134 474.757 300.204C504.989 271.353 524.421 232.68 529.496 191.32C534.947 146.796 525.595 100.453 503.868 59.2647C502.908 57.444 500.848 56.4996 498.834 56.9253C497.657 57.1742 496.618 57.8737 495.941 58.8688Z" fill="white"/>
<path d="M523.374 41.6084C522.873 42.5772 522.889 43.7312 523.406 44.6912C544.684 84.1726 554.954 128.998 551.997 173.088C548.653 222.985 527.033 269.76 491.142 304.791C453.573 341.458 402.911 361.877 348.533 362.292C294.102 361.877 243.44 341.458 205.872 304.791C169.981 269.75 148.361 222.975 145.016 173.088C140.96 112.551 161.666 50.5594 201.847 3.01966C245.808 -48.9799 306.122 -85.317 348.512 -85.317C377.473 -85.317 414.739 -68.1296 449.499 -40.7901C450.897 -39.6904 452.892 -39.7613 454.193 -40.9752C455.783 -42.4601 455.691 -45.0107 453.98 -46.3546C417.905 -74.6854 378.929 -92.3359 348.512 -92.3359C304.2 -92.3359 241.678 -54.9901 196.485 -1.51451C155.146 47.4057 133.835 111.213 138.018 173.555C141.48 225.173 163.843 273.562 200.976 309.814C239.841 347.755 292.233 368.886 348.544 369.31C404.802 368.886 457.183 347.755 496.058 309.814C533.192 273.562 555.555 225.173 559.016 173.555C562.058 128.282 551.574 82.2722 529.82 41.7193C529.059 40.3004 527.459 39.5512 525.878 39.8541L525.669 39.8941C524.682 40.0833 523.836 40.7152 523.374 41.6084Z" fill="white"/>
<path d="M552.201 23.6175C551.616 24.3441 551.534 25.3533 551.986 26.1687C573.876 65.6119 585.134 110.048 583.832 155.855C580.19 283.353 476.828 383.561 348.512 383.986C220.185 383.561 116.813 283.342 113.181 155.855C111.291 89.4775 135.257 25.7336 180.684 -23.6432C227.969 -75.0481 292.276 -106.978 348.501 -106.978C389.109 -106.978 433.883 -90.1938 473.457 -61.5746C474.373 -60.9123 475.632 -60.9844 476.458 -61.7554C477.533 -62.7592 477.432 -64.4947 476.24 -65.3566C435.848 -94.5601 390.073 -111.661 348.501 -111.661C291.012 -111.661 225.378 -79.1469 177.244 -26.8181C130.978 23.4612 106.576 88.3838 108.498 155.982C112.204 286.018 217.626 388.223 348.501 388.658C479.366 388.223 584.788 286.018 588.494 155.982C589.824 109.346 578.366 64.1151 556.098 23.9664C555.555 22.9883 554.399 22.5293 553.331 22.8601L553.303 22.8687C552.869 23.0031 552.486 23.2638 552.201 23.6175Z" fill="white"/>
<path d="M581.17 7.382C611.263 59.9231 622.474 120.452 611.866 183.856C592.53 299.482 496.771 390.272 380.326 403.8C194.468 425.409 40.359 254.852 91.1375 65.2666C96.8822 43.7957 105.643 23.1212 117.111 4.08191C168.059 -80.517 254.58 -128.662 348.502 -128.662C402.542 -128.662 454.083 -112.626 497.858 -82.9734C498.309 -82.6683 498.911 -82.7145 499.308 -83.0868C499.848 -83.594 499.78 -84.4716 499.166 -84.8873C435.818 -127.807 356.356 -142.484 276.401 -121.622C254.049 -115.792 232.514 -106.745 212.732 -94.8097C121.379 -39.7094 72.2256 56.5275 79.7543 158.987C89.5765 292.729 200.181 400.615 334.103 407.623C489.221 415.736 618.004 291.88 618.004 138.504C618.004 91.2387 605.679 45.9566 582.965 5.9366C582.642 5.36627 581.905 5.18649 581.353 5.54126C580.826 5.88025 580.669 6.57968 581.001 7.11136L581.17 7.382Z" fill="white"/>
</g>
<defs>
<clipPath id="clip0_103_5366">
<rect width="600" height="110" fill="white"/>
</clipPath>
</defs>
</svg>
