<svg width="600" height="110" viewBox="0 0 600 110" fill="none" xmlns="http://www.w3.org/2000/svg">
<g clip-path="url(#clip0_250_6384)">
<rect width="600" height="110" fill="#306185"/>
<path d="M555.893 182.845C588.121 242.14 577.843 287.842 574.434 303.961C563.773 354.496 520.725 414.13 434.501 415.946C348.278 414.12 305.219 354.485 294.569 303.961C290.735 285.814 282.007 221.295 330.322 153.155C372.159 94.158 424.52 55.06 434.501 55.06C440.694 55.06 463.216 70.1689 489.395 95.6866C491.66 97.8947 495.27 97.9677 497.583 95.8096V95.8096C500.003 93.5515 500.076 89.7327 497.713 87.4151C470.844 61.0636 445.664 43.3689 434.501 43.3689C416.195 43.3689 360.128 90.9087 320.786 146.391C286.329 194.993 272.248 254.797 283.132 306.372C294.686 361.122 341.227 425.736 434.385 427.637H434.501H434.618C527.786 425.726 574.328 361.122 585.87 306.372C594.68 264.619 586.969 217.536 565.483 175.324C563.913 172.24 560.02 171.242 557.104 173.108V173.108C554.615 174.7 553.667 177.876 554.875 180.573L555.893 182.845Z" fill="white"/>
<path d="M581.941 155.869C580.953 157.322 580.857 159.21 581.675 160.765C602.453 200.244 611.403 244.599 606.184 287.173C601.384 326.398 582.94 363.065 554.28 390.429C522.573 420.692 481.139 437.002 434.565 437.618C387.875 437.013 346.43 420.692 314.733 390.429C286.063 363.065 267.629 326.398 262.829 287.173C256.044 231.807 272.896 173.288 309.063 126.63C348.235 76.0741 405.693 33.3765 434.512 33.3765C452.852 33.3765 482.777 50.7256 512.213 76.3245C514.042 77.9154 516.782 77.8876 518.554 76.2331V76.2331C520.57 74.3512 520.535 71.1406 518.453 69.3324C487.146 42.1458 455.054 24.0214 434.512 24.0214C402.667 24.0214 343.064 67.4836 301.673 120.906C264.019 169.497 246.466 230.523 253.549 288.32C258.614 329.69 278.057 368.353 308.288 397.204C341.737 429.123 385.358 446.336 434.586 446.984C483.687 446.347 527.319 429.134 560.757 397.204C590.989 368.353 610.421 329.68 615.496 288.32C620.947 243.796 611.595 197.453 589.868 156.265C588.908 154.444 586.848 153.5 584.834 153.925V153.925C583.657 154.174 582.618 154.874 581.941 155.869V155.869Z" fill="white"/>
<path d="M609.374 138.608C608.873 139.577 608.889 140.731 609.407 141.691C630.684 181.173 640.954 225.998 637.998 270.088C634.653 319.985 613.033 366.761 577.142 401.792C539.573 438.458 488.912 458.877 434.533 459.292C380.102 458.877 329.441 438.458 291.872 401.792C255.981 366.75 234.361 319.975 231.016 270.088C226.96 209.551 247.666 147.559 287.847 100.02C331.808 48.0201 392.122 11.6831 434.512 11.6831C463.473 11.6831 500.739 28.8705 535.499 56.21C536.897 57.3097 538.892 57.2387 540.193 56.0248V56.0248C541.783 54.54 541.691 51.9893 539.98 50.6455C503.905 22.3146 464.929 4.66412 434.512 4.66412C390.201 4.66412 327.678 42.01 282.485 95.4856C241.146 144.406 219.835 208.213 224.018 270.555C227.48 322.173 249.843 370.562 286.977 406.814C325.841 444.755 378.233 465.886 434.544 466.31C490.802 465.886 543.184 444.755 582.059 406.814C619.192 370.562 641.555 322.173 645.017 270.555C648.058 225.282 637.574 179.272 615.82 138.719C615.059 137.3 613.46 136.551 611.878 136.854L611.669 136.894C610.682 137.083 609.836 137.715 609.374 138.608V138.608Z" fill="white"/>
<path d="M638.201 120.618C637.616 121.344 637.534 122.353 637.987 123.169C659.876 162.612 671.134 207.048 669.832 252.855C666.19 380.353 562.828 480.561 434.512 480.986C306.186 480.561 202.813 380.342 199.181 252.855C197.291 186.477 221.258 122.734 266.684 73.3568C313.969 21.9519 378.276 -9.97845 434.502 -9.97845C475.109 -9.97845 519.884 6.80612 559.457 35.4254C560.373 36.0877 561.632 36.0156 562.458 35.2445V35.2445C563.534 34.2408 563.433 32.5053 562.24 31.6433C521.848 2.4399 476.073 -14.6613 434.502 -14.6613C377.012 -14.6613 311.378 17.8531 263.244 70.1818C216.978 120.461 192.577 185.384 194.499 252.982C198.204 383.018 303.627 485.223 434.502 485.658C565.366 485.223 670.788 383.018 674.494 252.982C675.824 206.346 664.367 161.115 642.098 120.966C641.555 119.988 640.4 119.529 639.331 119.86L639.303 119.869C638.87 120.003 638.486 120.264 638.201 120.618V120.618Z" fill="white"/>
<path d="M667.17 104.382C697.263 156.923 708.474 217.452 697.866 280.856C678.53 396.482 582.77 487.272 466.326 500.8C280.468 522.409 126.359 351.852 177.137 162.267C182.882 140.796 191.643 120.121 203.111 101.082C254.059 16.483 340.58 -31.662 434.502 -31.662C488.542 -31.662 540.083 -15.6256 583.858 14.0266C584.309 14.3317 584.911 14.2855 585.308 13.9132V13.9132C585.848 13.406 585.78 12.5284 585.166 12.1127C521.818 -30.8073 442.356 -45.4837 362.401 -24.6218C340.049 -18.7922 318.514 -9.74506 298.732 2.19032C207.379 57.2906 158.226 153.527 165.754 255.987C175.577 389.729 286.181 497.615 420.103 504.623C575.221 512.736 704.004 388.88 704.004 235.504C704.004 188.239 691.679 142.957 668.965 102.937C668.642 102.366 667.905 102.186 667.353 102.541V102.541C666.826 102.88 666.669 103.58 667.001 104.111L667.17 104.382Z" fill="white"/>
</g>
<defs>
<clipPath id="clip0_250_6384">
<rect width="600" height="110" fill="white"/>
</clipPath>
</defs>
</svg>
