<svg xmlns="http://www.w3.org/2000/svg" viewBox="0 0 101.28 105.06"><defs><style>.cls-1{fill:#f9bd3a;}.cls-2{fill:none;stroke:#000;stroke-miterlimit:10;stroke-width:4px;}</style></defs><title>12Ресурс 4</title><g id="Слой_2" data-name="Слой 2"><g id="Illustrations"><polygon class="cls-1" points="65.1 13.57 75.24 34.13 97.94 37.43 81.52 53.44 85.39 76.04 65.1 65.37 44.8 76.04 48.68 53.44 32.26 37.43 54.95 34.13 65.1 13.57"/><polygon class="cls-2" points="50.64 4.52 64.77 33.14 96.36 37.73 73.5 60.01 78.89 91.47 50.64 76.62 22.39 91.47 27.78 60.01 4.92 37.73 36.51 33.14 50.64 4.52"/><path class="cls-1" d="M21.43,8.82a.23.23,0,0,0-.2-.1.28.28,0,0,0-.15,0l-2.8,2a.23.23,0,0,0-.1.16.25.25,0,0,0,0,.19l5.92,8.14a.25.25,0,0,0,.2.1l1.85-.26a.26.26,0,0,0,.18-.14l.93-1.87a.27.27,0,0,0,0-.26Z"/><path class="cls-1" d="M80.19,8.76a.23.23,0,0,0-.14,0,.22.22,0,0,0-.2.1l-5.85,8a.27.27,0,0,0,0,.26L74.91,19a.26.26,0,0,0,.18.14l1.85.26a.25.25,0,0,0,.2-.1l5.92-8.14a.25.25,0,0,0,0-.19.27.27,0,0,0-.1-.16Z"/><path class="cls-1" d="M101.25,66.83a.29.29,0,0,0-.14-.13l-9.21-3h-.08a.24.24,0,0,0-.18.07l-1.55,1.51a.23.23,0,0,0-.07.22l.3,1.73a.25.25,0,0,0,.17.2l9.39,3H100a.25.25,0,0,0,.23-.17l1.08-3.3A.25.25,0,0,0,101.25,66.83Z"/><path class="cls-1" d="M9.64,63.77a.24.24,0,0,0-.18-.07H9.38l-9.21,3a.29.29,0,0,0-.14.13A.25.25,0,0,0,0,67l1.07,3.3a.27.27,0,0,0,.24.17H1.4l9.39-3a.25.25,0,0,0,.17-.2l.3-1.73a.26.26,0,0,0-.07-.22Z"/><path class="cls-1" d="M52.49,94.94,50.76,94a.25.25,0,0,0-.24,0l-1.73.91a.26.26,0,0,0-.13.22v9.65a.25.25,0,0,0,.25.25h3.46a.25.25,0,0,0,.25-.25V95.16A.26.26,0,0,0,52.49,94.94Z"/></g></g></svg>