<svg xmlns="http://www.w3.org/2000/svg" viewBox="0 0 77.86 104.29"><defs><style>.cls-1{fill:#141414;}.cls-2{fill:none;stroke:#000;stroke-miterlimit:10;stroke-width:4px;}.cls-3{fill:#31dbce;}</style></defs><title>12Ресурс 3</title><g id="Слой_2" data-name="Слой 2"><g id="Illustrations"><circle id="_Контур_" data-name="&lt;Контур&gt;" class="cls-1" cx="3.69" cy="9.05" r="3.69"/><circle id="_Контур_2" data-name="&lt;Контур&gt;" class="cls-1" cx="74.17" cy="9.05" r="3.69"/><line class="cls-2" y1="2" x2="77.86" y2="2"/><circle id="_Контур_3" data-name="&lt;Контур&gt;" class="cls-1" cx="3.69" cy="95.24" r="3.69"/><circle id="_Контур_4" data-name="&lt;Контур&gt;" class="cls-1" cx="74.17" cy="95.24" r="3.69"/><line class="cls-2" y1="102.29" x2="77.86" y2="102.29"/><path d="M62.44,36.09c4.68-2.21,5.17-12.53,5.21-15.67V7.05H10.21v13.4c0,3.11.53,13.43,5.21,15.64,4.94,2.34,13.29,7.52,14.19,16.06-.9,8.53-9.25,13.71-14.19,16.05-4.68,2.22-5.17,12.53-5.21,15.67V97.24H67.65V83.84c0-3.11-.53-13.42-5.21-15.64-4.93-2.34-13.29-7.52-14.19-16.05C49.15,43.61,57.51,38.43,62.44,36.09ZM44.24,52v.37c.72,7.88,6.58,14.8,16.48,19.48,1.64.78,2.86,7,2.93,12.06v9.37H14.21V83.89c.06-5.09,1.28-11.3,2.92-12.08C27,67.12,32.9,60.2,33.62,52.33V52C32.9,44.09,27,37.17,17.13,32.48c-1.63-.78-2.85-7-2.92-12.06V11.05H63.65V20.4c-.06,5.09-1.28,11.3-2.92,12.08C50.82,37.17,45,44.09,44.24,52Z"/><path class="cls-3" d="M58.7,76.41c-3.43-5.6-9.21-1.94-12.37-.92s-5.67-3.15-5.67-3.16c0-.44-.09-.9-.13-1.39-.27-4-.29-18.61-.29-18.61V52c0-.12,0-.24,0-.36.74-8.06,5.81-15.18,14.41-20.4a2.68,2.68,0,0,1-1.74-.59c-1.49-1.26-9.67-1.35-15.44,0s-7.72-.88-13.68-1a12.11,12.11,0,0,0-3,.24c10,5.31,16,13,16.77,21.73,0,.12,0,.24,0,.36v.37s.54,15-.5,20c-2,6.14-9.12,3.72-13.49,4.37s-5.15,3.41-5.15,3.41a34.34,34.34,0,0,0-.27,3.83v5.3H59.65V83.87A32.55,32.55,0,0,0,58.7,76.41Z"/></g></g></svg>