<svg xmlns="http://www.w3.org/2000/svg" viewBox="0 0 96.25 107.59"><defs><style>.cls-1{fill:#fc6a42;}.cls-2{fill:none;stroke:#000;stroke-miterlimit:10;stroke-width:4px;}</style></defs><title>12Ресурс 1</title><g id="Слой_2" data-name="Слой 2"><g id="Illustrations"><rect class="cls-1" x="-2.66" y="43.87" width="101.58" height="16.55" transform="translate(-19.62 31.04) rotate(-29.99)"/><path class="cls-2" d="M61.26,35.19A25,25,0,0,0,55.73,31a12.55,12.55,0,0,0-5.88-1.32,7.84,7.84,0,0,0-4.67,1.57,4.83,4.83,0,0,0-2.28,4.16q0,3.64,5,5.78t10.4,4.21a23.64,23.64,0,0,1,9.32,6.74q3.91,4.66,3.91,13.69,0,11.56-7,17.75T47,89.79a34.36,34.36,0,0,1-12-2.13,28.6,28.6,0,0,1-10.24-6.38l9.53-13.59a14.58,14.58,0,0,0,12,5.78A10.82,10.82,0,0,0,52,71.79,5.23,5.23,0,0,0,54.72,67c0-2.47-1.68-4.43-5-5.88q-2.23-1-5.18-2.18L41.89,57.9,39.2,56.79A24.11,24.11,0,0,1,29.92,50q-3.86-4.45-3.85-13.33a21.06,21.06,0,0,1,3.34-11.87,21.55,21.55,0,0,1,8.68-7.7,24.87,24.87,0,0,1,11.3-2.64,29.46,29.46,0,0,1,11,2.13,30.06,30.06,0,0,1,9.59,6.18Z"/><line class="cls-2" x1="42.86" y1="2" x2="42.86" y2="102.29"/><line class="cls-2" x1="54.89" y1="2" x2="54.89" y2="102.29"/><path class="cls-2" d="M90.47,77.14S80.2,73.62,78.15,78.9s5,12.25,4.15,15.77-4.63,10.92-4.63,10.92H96"/><line class="cls-2" x1="73.67" y1="91.37" x2="96.25" y2="91.37"/><path class="cls-2" d="M19.86,31.59A14.8,14.8,0,1,1,19.86,2"/><line class="cls-2" y1="13.31" x2="19.86" y2="13.31"/><line class="cls-2" y1="20.28" x2="19.86" y2="20.28"/></g></g></svg>