<svg xmlns="http://www.w3.org/2000/svg" viewBox="0 0 104.53 104.29"><defs><style>.cls-1{fill:none;stroke:#000;stroke-miterlimit:10;stroke-width:4px;}.cls-2{fill:#c8c8c8;}</style></defs><title>12Ресурс 5</title><g id="Слой_2" data-name="Слой 2"><g id="Illustrations"><path d="M104.53,104.29H0V89.37H104.53ZM4,100.29h96.53V93.37H4Z"/><circle class="cls-1" cx="10.8" cy="10.8" r="8.8"/><circle class="cls-1" cx="88.71" cy="15.82" r="13.82"/><line class="cls-1" x1="76.67" y1="9.05" x2="19.59" y2="9.05"/><line class="cls-1" x1="19.34" y1="12.85" x2="77.2" y2="23.45"/><line class="cls-1" x1="10.8" y1="19.59" x2="10.8" y2="45.48"/><rect class="cls-1" x="2" y="45.48" width="17.34" height="6.33"/><path class="cls-1" d="M17.25,72.45a8.67,8.67,0,1,1-6.58-14.31V53.52"/><polyline class="cls-1" points="84.49 28.97 65.07 91.37 94.84 91.37 94.84 28.97"/><line class="cls-1" x1="81.24" y1="39.4" x2="94.84" y2="44.24"/><line class="cls-1" x1="94.84" y1="46.22" x2="77.2" y2="52.5"/><line class="cls-1" x1="77.2" y1="52.5" x2="94.84" y2="58.79"/><line class="cls-1" x1="94.84" y1="60.77" x2="72.07" y2="68.88"/><line class="cls-1" x1="72.07" y1="68.88" x2="94.84" y2="77.65"/><line class="cls-1" x1="94.84" y1="79.63" x2="65.07" y2="90.23"/><rect class="cls-2" y="81.35" width="26" height="8.02"/><rect class="cls-2" x="32.53" y="81.35" width="26" height="8.02"/><rect class="cls-2" x="29.01" y="71.34" width="26" height="8.02"/><rect class="cls-2" x="35.34" y="61.32" width="26" height="8.02"/><rect class="cls-2" x="25.71" y="51.3" width="26" height="8.02"/><rect class="cls-2" x="39.26" y="41.36" width="26" height="8.02"/><rect class="cls-2" x="31.03" y="31.43" width="26" height="8.02"/></g></g></svg>