<svg width="46" height="46" viewBox="0 0 46 46" fill="none" xmlns="http://www.w3.org/2000/svg">
<path d="M39.7639 38.3625C39.5608 38.3625 39.366 38.282 39.2219 38.1378L35.962 34.878C35.6807 34.5966 35.6615 34.1473 35.9168 33.8422C38.4637 30.8108 39.8667 26.9606 39.8667 23C39.8667 19.0394 38.4637 15.1892 35.9168 12.1578C35.6607 11.8534 35.6807 11.4034 35.962 11.122L39.2219 7.86217C39.3722 7.7119 39.5746 7.62833 39.79 7.6383C40.0024 7.64597 40.2025 7.74103 40.342 7.90127C43.9906 12.088 46 17.4509 46 23C46 28.5491 43.9906 33.912 40.342 38.0987C40.2025 38.259 40.0024 38.354 39.79 38.3617C39.7816 38.3625 39.7724 38.3625 39.7639 38.3625ZM37.5337 34.2807L39.7141 36.4619C42.7846 32.6531 44.4667 27.9044 44.4667 23C44.4667 18.0956 42.7846 13.3469 39.7141 9.5381L37.5337 11.7193C40.0315 14.9362 41.4 18.9144 41.4 23C41.4 27.0856 40.0315 31.0638 37.5337 34.2807Z" fill="url(#paint0_linear)"/>
<path d="M6.23607 38.3625C6.22763 38.3625 6.21843 38.3625 6.21 38.3625C5.99763 38.3548 5.79753 38.2597 5.658 38.0995C2.00943 33.912 0 28.5491 0 23C0 17.4501 2.00943 12.088 5.658 7.9005C5.79753 7.74103 5.99763 7.6452 6.21 7.6383C6.42543 7.62987 6.62783 7.71267 6.7781 7.86217L10.038 11.122C10.3193 11.4034 10.3385 11.8527 10.0832 12.1578C7.53633 15.1892 6.13333 19.0394 6.13333 23C6.13333 26.9606 7.53633 30.8108 10.0832 33.8422C10.3393 34.1466 10.3193 34.5966 10.038 34.878L6.7781 38.1378C6.63473 38.282 6.43923 38.3625 6.23607 38.3625ZM6.2859 9.5381C3.2154 13.3469 1.53333 18.0949 1.53333 23C1.53333 27.9044 3.2154 32.6531 6.2859 36.4619L8.4663 34.2807C5.9685 31.0638 4.6 27.0856 4.6 23C4.6 18.9144 5.9685 14.9362 8.4663 11.7193L6.2859 9.5381Z" fill="url(#paint1_linear)"/>
<path d="M34.3352 10.2634C34.1604 10.2634 33.9856 10.2036 33.8422 10.084C30.8108 7.53633 26.9606 6.13333 23 6.13333C19.0394 6.13333 15.1892 7.53633 12.1578 10.0832C11.8534 10.3393 11.4034 10.3193 11.1228 10.038L7.86293 6.7781C7.7119 6.6286 7.63063 6.42237 7.6383 6.21C7.64597 5.99763 7.74103 5.79753 7.90127 5.658C12.088 2.00943 17.4501 0 23 0C28.5499 0 33.912 2.00943 38.0995 5.658C38.2597 5.79753 38.3548 5.99763 38.3625 6.21C38.3701 6.42237 38.2889 6.62783 38.1386 6.7781L34.8787 10.038C34.7285 10.1875 34.5322 10.2634 34.3352 10.2634ZM23 4.6C27.0856 4.6 31.0638 5.9685 34.2807 8.46707L36.4611 6.2859C32.6531 3.2154 27.9051 1.53333 23 1.53333C18.0949 1.53333 13.3469 3.2154 9.5381 6.2859L11.7185 8.46707C14.9362 5.9685 18.9144 4.6 23 4.6Z" fill="url(#paint2_linear)"/>
<path d="M23 46C17.4501 46 12.088 43.9906 7.9005 40.342C7.74027 40.2025 7.6452 40.0024 7.63753 39.79C7.62987 39.5776 7.71113 39.3722 7.8614 39.2219L11.1213 35.962C11.4026 35.6814 11.8519 35.6615 12.1563 35.9168C15.1892 38.4637 19.0394 39.8667 23 39.8667C26.9606 39.8667 30.8108 38.4637 33.8422 35.9168C34.1466 35.6615 34.5966 35.6807 34.8772 35.962L38.1371 39.2219C38.2873 39.3722 38.3686 39.5776 38.3609 39.79C38.3533 40.0024 38.2582 40.2025 38.098 40.342C33.912 43.9906 28.5499 46 23 46ZM9.5381 39.7141C13.3469 42.7846 18.0949 44.4667 23 44.4667C27.9051 44.4667 32.6531 42.7846 36.4619 39.7141L34.2815 37.5329C31.0638 40.0315 27.0856 41.4 23 41.4C18.9144 41.4 14.9362 40.0315 11.7193 37.5329L9.5381 39.7141Z" fill="url(#paint3_linear)"/>
<path d="M23 36.8C20.3289 36.8 17.9224 35.545 15.8478 33.0694C13.557 30.3362 12.295 26.7107 12.295 22.8612L12.2667 15.3364C12.2659 15.1325 12.3464 14.937 12.4905 14.7928C12.6339 14.6479 12.8294 14.5667 13.0333 14.5667C19.5868 14.5667 22.241 10.4987 22.3506 10.3255C22.4917 10.1031 22.7363 9.9682 22.9992 9.9682H23.0023C23.2653 9.96897 23.5098 10.1039 23.6501 10.3262C23.7667 10.511 26.4232 14.5667 32.9667 14.5667C33.1706 14.5667 33.3661 14.6479 33.5095 14.7921C33.6536 14.9362 33.7333 15.1317 33.7333 15.3356L33.705 22.8628C33.705 26.7099 32.443 30.3347 30.1522 33.0686C28.0776 35.545 25.6711 36.8 23 36.8ZM13.8031 16.0831L13.8284 22.8582C13.8284 26.3511 14.963 29.6271 17.0223 32.0842C18.7925 34.1964 20.8035 35.2667 23 35.2667C25.1965 35.2667 27.2075 34.1964 28.9777 32.0842C31.0377 29.6263 32.1716 26.3511 32.1716 22.8612L32.1969 16.0831C27.0771 15.8501 24.1914 13.3346 23 11.9815C21.8086 13.3346 18.9229 15.8501 13.8031 16.0831Z" fill="url(#paint4_linear)"/>
<path d="M22.2341 29.1333C22.001 29.1333 21.771 29.0275 21.62 28.8267L19.32 25.76C19.0662 25.4211 19.1345 24.9404 19.4733 24.6867C19.8122 24.4321 20.2929 24.5011 20.5467 24.84L22.8467 27.9067C23.1004 28.2455 23.0322 28.7262 22.6933 28.98C22.5553 29.0835 22.3936 29.1333 22.2341 29.1333Z" fill="url(#paint5_linear)"/>
<path d="M22.2326 29.1333C22.0915 29.1333 21.9497 29.095 21.8216 29.0137C21.4644 28.7868 21.3593 28.3122 21.5863 27.955L26.9529 19.5216C27.1799 19.1651 27.6537 19.0586 28.0117 19.2863C28.369 19.5132 28.474 19.9878 28.2471 20.345L22.8804 28.7784C22.734 29.0076 22.4863 29.1333 22.2326 29.1333Z" fill="url(#paint6_linear)"/>
<defs>
<linearGradient id="paint0_linear" x1="-1.71363e-07" y1="23" x2="46" y2="23" gradientUnits="userSpaceOnUse">
<stop stop-color="#06A0DC"/>
<stop offset="1" stop-color="#065CDC"/>
</linearGradient>
<linearGradient id="paint1_linear" x1="-1.71363e-07" y1="23" x2="46" y2="23" gradientUnits="userSpaceOnUse">
<stop stop-color="#06A0DC"/>
<stop offset="1" stop-color="#065CDC"/>
</linearGradient>
<linearGradient id="paint2_linear" x1="-1.71363e-07" y1="23" x2="46" y2="23" gradientUnits="userSpaceOnUse">
<stop stop-color="#06A0DC"/>
<stop offset="1" stop-color="#065CDC"/>
</linearGradient>
<linearGradient id="paint3_linear" x1="-1.71363e-07" y1="23" x2="46" y2="23" gradientUnits="userSpaceOnUse">
<stop stop-color="#06A0DC"/>
<stop offset="1" stop-color="#065CDC"/>
</linearGradient>
<linearGradient id="paint4_linear" x1="-1.71363e-07" y1="23" x2="46" y2="23" gradientUnits="userSpaceOnUse">
<stop stop-color="#06A0DC"/>
<stop offset="1" stop-color="#065CDC"/>
</linearGradient>
<linearGradient id="paint5_linear" x1="-1.71363e-07" y1="23" x2="46" y2="23" gradientUnits="userSpaceOnUse">
<stop stop-color="#06A0DC"/>
<stop offset="1" stop-color="#065CDC"/>
</linearGradient>
<linearGradient id="paint6_linear" x1="-1.71363e-07" y1="23" x2="46" y2="23" gradientUnits="userSpaceOnUse">
<stop stop-color="#06A0DC"/>
<stop offset="1" stop-color="#065CDC"/>
</linearGradient>
</defs>
</svg>
