<svg width="40" height="40" viewBox="0 0 40 40" fill="none" xmlns="http://www.w3.org/2000/svg">
<path fill-rule="evenodd" clip-rule="evenodd" d="M40 7.46096C40 7.78456 39.7377 8.0469 39.4141 8.0469C39.0905 8.0469 38.8281 7.78456 38.8281 7.46096V3.61877H37.0008V17.5532C37.0008 26.9278 29.3743 34.5547 20 34.5547C10.6257 34.5547 2.99922 26.9278 2.99922 17.5532V13.5664C2.99922 13.2428 3.26156 12.9805 3.58516 12.9805C3.90875 12.9805 4.17109 13.2428 4.17109 13.5664V17.5532C4.17109 26.2817 11.272 33.3828 20 33.3828C28.728 33.3828 35.8289 26.2817 35.8289 17.5532V3.61877H28.1625V9.03049C28.1625 10.2238 27.1913 11.1946 25.9977 11.1946H17.5789C17.2553 11.1946 16.993 10.9322 16.993 10.6086C16.993 10.285 17.2553 10.0227 17.5789 10.0227H25.9977C26.5452 10.0227 26.9906 9.5776 26.9906 9.03049V3.61877H13.0094V9.03049C13.0094 9.5776 13.4548 10.0227 14.0023 10.0227H14.8445C15.1681 10.0227 15.4305 10.285 15.4305 10.6086C15.4305 10.9322 15.1681 11.1946 14.8445 11.1946H14.0023C12.8087 11.1946 11.8375 10.2238 11.8375 9.03049V3.61877H4.17109V10.8321C4.17109 11.1557 3.90875 11.418 3.58516 11.418C3.26156 11.418 2.99922 11.1557 2.99922 10.8321V3.61877H1.17188V17.5532C1.17188 27.935 9.61812 36.3813 20 36.3813C30.3819 36.3813 38.8281 27.935 38.8281 17.5532V10.1953C38.8281 9.87174 39.0905 9.6094 39.4141 9.6094C39.7377 9.6094 40 9.87174 40 10.1953V17.5532C40 22.8955 37.9196 27.9181 34.1421 31.6955C30.3646 35.4729 25.3422 37.5532 20 37.5532C14.6578 37.5532 9.63539 35.4729 5.85789 31.6955C2.08039 27.9181 0 22.8955 0 17.5532V3.03284C0 2.70924 0.262344 2.4469 0.585938 2.4469H39.4141C39.7377 2.4469 40 2.70924 40 3.03284V7.46096ZM20.0001 8.16896C19.6694 8.47888 19.2253 8.66919 18.7374 8.66919C18.2495 8.66919 17.8055 8.47888 17.4747 8.16903C17.1439 8.47896 16.6998 8.66927 16.212 8.66927C15.1926 8.66927 14.3633 7.83997 14.3633 6.8206C14.3633 5.80122 15.1927 4.97192 16.212 4.97192C16.6999 4.97192 17.144 5.16224 17.4747 5.47216C17.8055 5.16224 18.2494 4.97192 18.7374 4.97192C19.2254 4.97192 19.6694 5.16224 20.0001 5.47216C20.3308 5.16224 20.7748 4.97192 21.2628 4.97192C21.7508 4.97192 22.1948 5.16224 22.5255 5.47216C22.8563 5.16224 23.3004 4.97192 23.7883 4.97192C24.8076 4.97192 25.637 5.80114 25.637 6.82052C25.637 7.83989 24.8076 8.66919 23.7883 8.66919C23.3004 8.66919 22.8563 8.47888 22.5256 8.16896C22.1948 8.47888 21.7508 8.66919 21.2629 8.66919C20.7749 8.66919 20.3308 8.47888 20.0001 8.16896ZM24.4651 6.8206C24.4651 6.44739 24.1614 6.1438 23.7883 6.1438C23.4151 6.1438 23.1115 6.44739 23.1115 6.8206C23.1115 7.1938 23.4151 7.49739 23.7883 7.49739C24.1615 7.49739 24.4651 7.1938 24.4651 6.8206ZM21.9397 6.8206C21.9397 6.44739 21.636 6.1438 21.2629 6.1438C20.8897 6.1438 20.5861 6.44739 20.5861 6.8206C20.5861 7.1938 20.8897 7.49739 21.2629 7.49739C21.6361 7.49739 21.9397 7.1938 21.9397 6.8206ZM19.4142 6.8206C19.4142 6.44739 19.1105 6.1438 18.7374 6.1438C18.3643 6.1438 18.0606 6.44739 18.0606 6.8206C18.0606 7.1938 18.3642 7.49739 18.7374 7.49739C19.1106 7.49739 19.4142 7.1938 19.4142 6.8206ZM15.5352 6.82052C15.5352 7.19372 15.8389 7.49731 16.212 7.49731C16.5852 7.49731 16.8888 7.19372 16.8888 6.82052C16.8888 6.44731 16.5852 6.14372 16.212 6.14372C15.8388 6.14372 15.5352 6.44731 15.5352 6.82052ZM11.9503 22.6379C12.5346 22.6379 13.0098 22.1626 13.0098 21.5784V16.6854C13.0098 16.1012 12.5346 15.626 11.9503 15.626H9.10926C8.52504 15.626 8.0498 16.1012 8.0498 16.6854V21.5784C8.0498 22.1626 8.52504 22.6379 9.10926 22.6379H11.9503ZM9.22176 16.7979H11.838V21.466H9.22176V16.7979ZM18.2638 15.626C18.848 15.626 19.3233 16.1012 19.3233 16.6854V21.5784C19.3233 22.1626 18.848 22.6379 18.2638 22.6379H15.4227C14.8385 22.6379 14.3633 22.1626 14.3633 21.5784V16.6854C14.3633 16.1012 14.8385 15.626 15.4227 15.626H18.2638ZM15.5352 21.466H18.1514H18.1515V16.7979H15.5352V21.466ZM25.6368 21.5784V16.6854C25.6368 16.1012 25.1615 15.626 24.5773 15.626H21.7362C21.152 15.626 20.6768 16.1012 20.6768 16.6854V21.5784C20.6768 22.1626 21.152 22.6379 21.7362 22.6379H24.5773C25.1615 22.6379 25.6368 22.1626 25.6368 21.5784ZM24.4649 21.466H21.8486V16.7979H24.4649V21.466ZM31.9512 21.5784C31.9512 22.1626 31.476 22.6379 30.8918 22.6379H28.0507C27.4664 22.6379 26.9912 22.1626 26.9912 21.5784V16.6854C26.9912 16.1012 27.4664 15.626 28.0507 15.626H30.8918C31.476 15.626 31.9512 16.1012 31.9512 16.6854V21.5784ZM30.7794 16.7979H28.1632V21.466H30.7794V16.7979ZM15.626 26.4713V27.5762C15.626 27.8997 15.8883 28.1621 16.2119 28.1621C16.5355 28.1621 16.7979 27.8997 16.7979 27.5762V26.4713C16.7979 26.1477 16.5355 25.8854 16.2119 25.8854C15.8883 25.8854 15.626 26.1477 15.626 26.4713ZM18.1514 27.5762V26.4713C18.1514 26.1477 18.4137 25.8854 18.7373 25.8854C19.0609 25.8854 19.3232 26.1477 19.3232 26.4713V27.5762C19.3232 27.8997 19.0609 28.1621 18.7373 28.1621C18.4137 28.1621 18.1514 27.8997 18.1514 27.5762ZM20.6768 27.5763C20.6768 27.8999 20.9391 28.1622 21.2627 28.1622C21.5863 28.1622 21.8486 27.8999 21.8486 27.5763V26.4714C21.8486 26.1478 21.5863 25.8855 21.2627 25.8855C20.9391 25.8855 20.6768 26.1478 20.6768 26.4714V27.5763ZM23.2021 27.5762V26.4713C23.2021 26.1477 23.4645 25.8854 23.7881 25.8854C24.1117 25.8854 24.374 26.1477 24.374 26.4713V27.5762C24.374 27.8997 24.1117 28.1621 23.7881 28.1621C23.4645 28.1621 23.2021 27.8997 23.2021 27.5762Z" fill="url(#paint0_linear)"/>
<defs>
<linearGradient id="paint0_linear" x1="-1.49012e-07" y1="20" x2="40" y2="20" gradientUnits="userSpaceOnUse">
<stop stop-color="#F87C0A"/>
<stop offset="1" stop-color="#DC0606"/>
</linearGradient>
</defs>
</svg>
