<svg width="40" height="40" viewBox="0 0 40 40" fill="none" xmlns="http://www.w3.org/2000/svg">
<g clip-path="url(#clip0)">
<path fill-rule="evenodd" clip-rule="evenodd" d="M39.6567 6.78985C39.3158 6.19934 38.7653 5.77697 38.1064 5.60028L18.7006 0.400382C18.0417 0.22399 17.3535 0.314627 16.763 0.655509C16.1722 0.996696 15.7498 1.54723 15.5734 2.20611L14.3274 6.85516L10.8365 7.79053C10.5237 7.87445 10.3385 8.1958 10.4221 8.5083C10.4923 8.77014 10.7291 8.94287 10.9876 8.94287C11.0379 8.94287 11.0889 8.93616 11.1398 8.92273L13.9774 8.16254L13.4088 10.2835L6.01686 12.2641C5.86671 12.3044 5.73854 12.4027 5.66102 12.5372C5.5832 12.6718 5.56215 12.8317 5.60243 12.9819C5.7187 13.4152 5.65919 13.8681 5.43458 14.2569C5.21028 14.6454 4.84803 14.9234 4.41438 15.0397C4.26423 15.08 4.13636 15.1779 4.05854 15.3125C3.98103 15.4474 3.95997 15.6073 4.00025 15.7571L8.82875 33.7766C8.86903 33.9267 8.967 34.0549 9.10158 34.1324C9.23647 34.2102 9.39638 34.2313 9.54622 34.191C10.4407 33.9511 11.3642 34.4843 11.604 35.3791C11.6742 35.6409 11.9107 35.8136 12.1695 35.8136C12.2199 35.8136 12.2708 35.8072 12.3215 35.7935L22.6206 33.0338L26.2946 34.0183L9.48488 38.5224C8.7494 38.7192 7.99013 38.2813 7.79329 37.5455L1.21919 13.0112C1.02204 12.2754 1.46027 11.5164 2.19605 11.319L9.05275 9.48181C9.36555 9.39819 9.5508 9.07684 9.46718 8.76404C9.38356 8.45154 9.06221 8.26629 8.7494 8.34991L1.89271 10.1871C0.532844 10.5515 -0.277093 11.9543 0.0872871 13.3142L6.66139 37.8488C6.96657 38.9881 8.00081 39.7415 9.12813 39.7415C9.34633 39.7415 9.56789 39.7132 9.78853 39.6543L28.5587 34.6247L30.2106 35.0675C30.4312 35.1264 30.6528 35.1547 30.871 35.1547C31.9983 35.1544 33.0326 34.4013 33.3377 33.2617L35.5124 25.1465C35.5961 24.834 35.4105 24.5126 35.098 24.429C34.7855 24.3451 34.4641 24.5307 34.3802 24.8432L32.2058 32.9587C32.0087 33.6945 31.2497 34.1324 30.514 33.9356L11.1081 28.7357C10.3723 28.5385 9.9341 27.7796 10.1312 27.0438L15.376 7.4704V7.47009L16.7053 2.50945C16.8009 2.15301 17.0294 1.85516 17.349 1.67052C17.6685 1.48589 18.0408 1.43706 18.3972 1.53259L37.8031 6.73248C38.1595 6.828 38.4574 7.05658 38.642 7.3761C38.8263 7.69562 38.8752 8.06793 38.78 8.42438L34.9598 22.6816C34.8758 22.9941 35.0614 23.3154 35.3739 23.3991C35.6867 23.4827 36.008 23.2974 36.0917 22.9846L39.9118 8.72742C40.0885 8.06885 39.9979 7.38067 39.6567 6.78985ZM8.99934 26.7404C8.63496 28.1003 9.4449 29.5032 10.8048 29.8676L20.3568 32.4271L12.526 34.5255C12.0166 33.5193 10.9479 32.9044 9.82485 32.9657L5.26857 15.9619C5.75959 15.7147 6.16853 15.3299 6.4496 14.8425C6.73097 14.3555 6.85975 13.8089 6.82863 13.2599L13.0588 11.5906L8.99934 26.7404ZM20.119 9.03899C19.9594 8.99626 19.8798 8.91478 19.8798 8.79485L19.8645 7.86955L18.4802 7.49876L18.009 8.29405C17.945 8.39659 17.8232 8.42375 17.6438 8.37584C17.5031 8.338 17.3779 8.26628 17.2693 8.16069C17.1603 8.0551 17.1201 7.9492 17.1484 7.84331C17.1509 7.83415 17.1613 7.81218 17.1799 7.77769L19.5172 4.04814C19.5648 3.97367 19.6451 3.92759 19.7583 3.9102C19.8715 3.8925 19.9927 3.90104 20.1221 3.93583C20.2512 3.97032 20.3611 4.02647 20.4511 4.10368C20.5411 4.18089 20.5869 4.26817 20.5887 4.36552L20.7468 8.76402C20.7459 8.80064 20.7447 8.82353 20.7422 8.83208C20.7169 8.92668 20.6369 8.99321 20.502 9.03075C20.3672 9.06859 20.2396 9.07134 20.119 9.03899ZM19.9585 7.1884L19.928 5.054L18.8413 6.88902L19.9585 7.1884ZM28.7894 31.5323C28.6603 31.4975 28.5508 31.4416 28.4604 31.3644C28.3704 31.2872 28.3246 31.1999 28.3231 31.1026L28.165 26.7041C28.1656 26.6671 28.1672 26.6446 28.1693 26.636C28.1946 26.5411 28.2749 26.4749 28.4095 26.4373C28.5444 26.3995 28.6719 26.3968 28.7925 26.4291C28.9521 26.4718 29.032 26.553 29.032 26.6732L29.0473 27.5985L30.4316 27.9693L30.9028 27.174C30.9668 27.0715 31.0883 27.044 31.2677 27.0922C31.4087 27.1301 31.5335 27.2015 31.6425 27.3074C31.7514 27.413 31.7914 27.5186 31.763 27.6248C31.7609 27.6339 31.7502 27.6559 31.7319 27.6904L29.3946 31.4196C29.3467 31.4944 29.2664 31.5405 29.1532 31.5579C29.04 31.5753 28.9188 31.5667 28.7894 31.5323ZM28.9838 30.4138L30.0705 28.5791L28.953 28.2797L28.9838 30.4138ZM23.3128 22.9067C22.9899 22.9067 22.6893 22.733 22.5279 22.4535L19.228 16.7385C18.3051 15.14 18.8551 13.0886 20.4536 12.1657C20.9623 11.8721 21.54 11.7168 22.1247 11.7168C23.3183 11.7168 24.43 12.3583 25.0263 13.391L25.4313 14.0926L26.1332 13.6873C26.6419 13.3937 27.2196 13.2384 27.8044 13.2384C28.9979 13.2384 30.1097 13.8799 30.706 14.9126C31.6288 16.5111 31.0792 18.5625 29.4807 19.4853L23.7653 22.7852C23.6277 22.8646 23.4712 22.9067 23.3128 22.9067ZM22.1247 12.8884C21.7454 12.8884 21.3703 12.9894 21.0395 13.1804C20.0004 13.7804 19.6433 15.1134 20.2433 16.1522L23.4098 21.6371L28.8947 18.4706C29.9336 17.8707 30.2909 16.5374 29.691 15.4985C29.3034 14.8271 28.5807 14.4103 27.8044 14.4103C27.425 14.4103 27.05 14.5113 26.7191 14.7023L25.51 15.4003C25.2299 15.5623 24.8713 15.4662 24.7096 15.1857L24.0113 13.9766C23.6237 13.3055 22.9011 12.8884 22.1247 12.8884Z" fill="url(#paint0_linear)"/>
</g>
<defs>
<linearGradient id="paint0_linear" x1="-1.49012e-07" y1="20.027" x2="40.0001" y2="20.027" gradientUnits="userSpaceOnUse">
<stop stop-color="#F87C0A"/>
<stop offset="1" stop-color="#DC0606"/>
</linearGradient>
<clipPath id="clip0">
<rect width="40" height="40" fill="white"/>
</clipPath>
</defs>
</svg>
