<svg width="43" height="33" viewBox="0 0 43 33" fill="none" xmlns="http://www.w3.org/2000/svg">
<path d="M42.2849 25.4447H41.1266V4.20404C41.1266 1.90544 39.1925 0 36.8315 0H6.1685C3.80752 0 1.87344 1.90544 1.87344 4.20404V25.4447H0.715087C0.527255 25.4413 0.345695 25.5116 0.211529 25.6395C0.0770147 25.767 0.00104545 25.942 0 26.1249V28.796C0 31.0946 1.92223 33 4.28355 33H38.7164C41.0778 33 43 31.0946 43 28.796V26.1249C42.999 25.942 42.923 25.767 42.7885 25.6395C42.6543 25.5116 42.4727 25.4413 42.2849 25.4447ZM3.30083 4.20404C3.30083 2.67175 4.5944 1.38947 6.1685 1.38947H36.8315C38.4056 1.38947 39.6992 2.67175 39.6992 4.20404V25.4447H37.5581V4.40418C37.5647 4.22609 37.4957 4.05308 37.3668 3.92621C37.2382 3.79934 37.0615 3.7298 36.8782 3.73421H6.1218C5.9385 3.7298 5.76182 3.79934 5.63323 3.92621C5.50429 4.05308 5.43529 4.22609 5.44191 4.40418V25.4447H3.30083V4.20404ZM36.1307 25.4447H26.7349C26.5366 25.442 26.346 25.5207 26.2101 25.6612L25.4859 26.4427C24.9468 27.0174 24.1861 27.3481 23.3867 27.3553H19.613C18.8132 27.3468 18.0528 27.015 17.5141 26.4394L16.7896 25.6713C16.6547 25.5282 16.4648 25.4458 16.2651 25.4447H6.86929V5.12368H36.1307V25.4447ZM41.5726 28.796C41.5726 30.3282 40.2905 31.6105 38.7164 31.6105H4.28355C2.70945 31.6105 1.42739 30.3282 1.42739 28.796V26.8342H15.9522L16.4648 27.3885C17.2746 28.2471 18.4156 28.7386 19.6133 28.7447H23.387C24.5848 28.7386 25.7257 28.2471 26.5359 27.3885L27.0478 26.8342H41.5726V28.796Z" fill="url(#paint0_linear)"/>
<path d="M21.5 25.2066C26.7847 25.2066 31.0686 21.0365 31.069 15.8921C31.069 10.7481 26.7847 6.57761 21.5003 6.57761C16.2156 6.57761 11.9314 10.7477 11.9314 15.8921C11.9376 21.0338 16.218 25.2008 21.5 25.2066ZM14.8032 16.5868C14.9402 17.8406 15.4472 19.0286 16.263 20.0079L15.2636 20.9805C14.1899 19.7383 13.5358 18.2039 13.3908 16.5868H14.8032ZM17.2722 20.9903C18.2779 21.7845 19.4987 22.2781 20.7863 22.411V23.7859C19.1251 23.6445 17.5489 23.0077 16.2731 21.9622L17.2722 20.9903ZM22.2137 22.411C23.5107 22.277 24.7395 21.7777 25.7494 20.9741L26.7478 21.9459C25.4685 23.0009 23.8843 23.6441 22.2137 23.7859V22.411ZM26.7544 19.9869C27.5605 19.012 28.0612 17.8315 28.1971 16.5868H29.6099C29.4656 18.1951 28.8178 19.7216 27.7542 20.9602L26.7544 19.9869ZM28.1971 15.1974C28.0602 13.9436 27.5531 12.7556 26.7377 11.7763L27.7368 10.8037C28.8105 12.0456 29.4649 13.5799 29.6102 15.197L28.1971 15.1974ZM25.7285 10.7939C24.7228 9.99973 23.5017 9.50616 22.2137 9.37318V7.99829C23.8753 8.13941 25.4511 8.77648 26.7272 9.82198L25.7285 10.7939ZM20.7863 9.37318C19.5077 9.50548 18.2954 9.99295 17.2935 10.7776L16.294 9.80434C17.5663 8.76902 19.1341 8.13873 20.7863 7.99829V9.37318ZM21.5 10.7253C24.4318 10.725 26.8084 13.0385 26.8088 15.8924C26.8088 18.746 24.4321 21.0595 21.5007 21.0595C18.5689 21.0595 16.1923 18.746 16.1926 15.8921C16.1957 13.0399 18.57 10.7287 21.5 10.7253ZM15.281 10.784L16.2794 11.7556C15.4538 12.7387 14.9409 13.9348 14.8032 15.1974H13.3908C13.5368 13.5711 14.1972 12.0293 15.2813 10.784H15.281Z" fill="url(#paint1_linear)"/>
<path d="M17.3339 15.5882L18.8993 17.0733L18.5292 19.1707C18.4832 19.4316 18.5933 19.6948 18.8132 19.8502C19.0331 20.0059 19.3244 20.0263 19.5649 19.9031L21.4997 18.9133L23.4348 19.9031C23.6752 20.0263 23.9666 20.0059 24.1865 19.8502C24.4063 19.6948 24.5165 19.4316 24.4705 19.1707L24.1011 17.0733L25.6661 15.5882C25.8606 15.4036 25.9306 15.1275 25.8466 14.8761C25.763 14.6244 25.5396 14.4412 25.2706 14.4032L23.1072 14.0969L22.1398 12.1888C22.0196 11.9516 21.7715 11.8014 21.4997 11.8014C21.2282 11.8014 20.9801 11.9516 20.8598 12.1888L19.8921 14.0969L17.7287 14.4032C17.46 14.4416 17.237 14.6248 17.153 14.8761C17.0694 15.1278 17.1394 15.4036 17.3339 15.5882ZM20.4692 15.4196C20.702 15.3867 20.9027 15.2445 21.0069 15.0396L21.5 14.066L21.9935 15.0396C22.0976 15.2445 22.2987 15.3867 22.5312 15.4196L23.6348 15.5759L22.8361 16.3338C22.6678 16.4932 22.5911 16.7232 22.6308 16.9485L22.8194 18.0184L21.8321 17.5133C21.6244 17.4071 21.3759 17.4071 21.1679 17.5133L20.181 18.0184L20.3692 16.9485C20.4089 16.7232 20.3322 16.4932 20.1643 16.3338L19.3655 15.5759L20.4692 15.4196Z" fill="url(#paint2_linear)"/>
<defs>
<linearGradient id="paint0_linear" x1="-1.60187e-07" y1="16.5" x2="43" y2="16.5" gradientUnits="userSpaceOnUse">
<stop stop-color="#F87C0A"/>
<stop offset="1" stop-color="#DC0606"/>
</linearGradient>
<linearGradient id="paint1_linear" x1="-1.60187e-07" y1="16.5" x2="43" y2="16.5" gradientUnits="userSpaceOnUse">
<stop stop-color="#F87C0A"/>
<stop offset="1" stop-color="#DC0606"/>
</linearGradient>
<linearGradient id="paint2_linear" x1="-1.60187e-07" y1="16.5" x2="43" y2="16.5" gradientUnits="userSpaceOnUse">
<stop stop-color="#F87C0A"/>
<stop offset="1" stop-color="#DC0606"/>
</linearGradient>
</defs>
</svg>
