<svg width="43" height="40" viewBox="0 0 43 40" fill="none" xmlns="http://www.w3.org/2000/svg">
<path d="M2.48348 6.09708C3.85276 6.09708 4.96696 4.98799 4.96696 3.62498C4.96696 2.26197 3.85276 1.15288 2.48348 1.15288C1.1142 1.15288 0 2.26197 0 3.62498C0 4.98799 1.1142 6.09708 2.48348 6.09708ZM2.48348 2.56551C3.07047 2.56551 3.54783 3.04068 3.54783 3.62498C3.54783 4.20928 3.07047 4.68445 2.48348 4.68445C1.89649 4.68445 1.41913 4.20928 1.41913 3.62498C1.41913 3.04068 1.89667 2.56551 2.48348 2.56551Z" fill="url(#paint0_linear)"/>
<path d="M6.03131 9.36891C6.47502 9.36891 6.83471 9.01086 6.83471 8.56918C6.83471 8.12751 6.47502 7.76946 6.03131 7.76946C5.5876 7.76946 5.2279 8.12751 5.2279 8.56918C5.2279 9.01086 5.5876 9.36891 6.03131 9.36891Z" fill="url(#paint1_linear)"/>
<path d="M23.0609 1.59945C23.5046 1.59945 23.8643 1.2414 23.8643 0.799724C23.8643 0.358049 23.5046 0 23.0609 0C22.6172 0 22.2575 0.358049 22.2575 0.799724C22.2575 1.2414 22.6172 1.59945 23.0609 1.59945Z" fill="url(#paint2_linear)"/>
<path d="M16.6436 8.24693C16.7821 8.38484 16.9638 8.45388 17.1452 8.45388C17.3267 8.45388 17.5084 8.38484 17.6469 8.24693L18.4487 7.44879L19.2505 8.24693C19.3891 8.38484 19.5707 8.45388 19.7522 8.45388C19.9336 8.45388 20.1153 8.38484 20.2538 8.24693C20.5309 7.97111 20.5309 7.52401 20.2538 7.2482L19.452 6.45006L20.2538 5.65193C20.5309 5.37611 20.5309 4.92902 20.2538 4.6532C19.9768 4.37738 19.5276 4.37738 19.2505 4.6532L18.4487 5.45133L17.6469 4.6532C17.3696 4.37738 16.9207 4.37738 16.6436 4.6532C16.3665 4.92902 16.3665 5.37611 16.6436 5.65193L17.4454 6.45006L16.6436 7.2482C16.3665 7.52419 16.3665 7.97111 16.6436 8.24693Z" fill="url(#paint3_linear)"/>
<path d="M23.4157 35.7623H19.1583C18.7661 35.7623 18.4487 36.0782 18.4487 36.4686C18.4487 36.859 18.7661 37.1749 19.1583 37.1749H23.4157C23.8079 37.1749 24.1252 36.859 24.1252 36.4686C24.1252 36.0782 23.8079 35.7623 23.4157 35.7623Z" fill="url(#paint4_linear)"/>
<path d="M41.7764 7.12336L31.9388 1.29008C30.7504 0.5873 29.2107 0.976303 28.5032 2.15708L22.7639 11.7474H6.26351C4.76615 11.7474 3.54783 12.96 3.54783 14.4507V32.2305H0.709565C0.317353 32.2305 0 32.5464 0 32.9369V35.1854C0 37.8403 2.1695 40 4.83675 40H37.7374C40.4044 40 42.5741 37.8404 42.5741 35.1854V32.9369C42.5741 32.5464 42.2567 32.2305 41.8645 32.2305H39.7358V15.7709C39.7358 15.6751 39.7158 15.5841 39.681 15.501L42.6475 10.544C43.3548 9.36237 42.964 7.82826 41.7764 7.12336ZM41.1548 35.1856C41.1548 37.0617 39.622 38.5875 37.7372 38.5875H4.83675C2.95197 38.5875 1.41913 37.0617 1.41913 35.1856V33.6433H41.1548V35.1856ZM4.96696 32.2307V14.4507C4.96696 13.7389 5.54827 13.1601 6.26351 13.1601H21.9187L19.0848 17.8952C18.465 18.9301 18.6885 20.2354 19.5515 21.0171L19.3163 21.4916L16.3326 21.9233C16.0651 21.962 15.8434 22.1481 15.7596 22.4041C15.6764 22.6593 15.7458 22.94 15.9391 23.1277L18.0991 25.2232L17.5891 28.1809C17.5433 28.4458 17.6527 28.7134 17.8711 28.8713C18.0893 29.0306 18.3804 29.0514 18.6181 28.9252L21.2873 27.5291L23.9565 28.9252C24.0598 28.9797 24.1735 29.0066 24.2863 29.0066C24.4332 29.0066 24.5801 28.961 24.7035 28.8713C24.9217 28.7133 25.0313 28.4458 24.9856 28.1809L24.4756 25.2232L25.2611 24.4613L29.7939 27.1491C30.1952 27.3865 30.6358 27.4995 31.0717 27.4995C31.9267 27.4995 32.761 27.0642 33.2295 26.282L38.3171 17.7806V32.2307H4.96696ZM23.0137 25.0957L23.3435 27.0091L21.6167 26.1063C21.5135 26.0517 21.4005 26.0249 21.287 26.0249C21.1734 26.0249 21.0604 26.0517 20.9572 26.1063L19.2305 27.0091L19.5602 25.0957C19.5998 24.8667 19.5235 24.6329 19.3566 24.4708L17.9596 23.1154L19.8895 22.836C20.121 22.8028 20.3205 22.658 20.4238 22.4497L21.2871 20.7088L22.1505 22.4497C22.2537 22.658 22.4533 22.8028 22.6848 22.836L24.6146 23.1154L23.2177 24.4708C23.0506 24.6329 22.9743 24.8669 23.0137 25.0957ZM41.4278 9.82095L32.0094 25.5592C31.7037 26.0709 31.0373 26.2413 30.5197 25.9352L26.3128 23.4406L26.6351 23.1279C26.8285 22.9404 26.8977 22.6596 26.8147 22.4043C26.7308 22.1484 26.509 21.9621 26.2417 21.9235L23.258 21.4917L21.9234 18.8003C21.685 18.3176 20.8896 18.3176 20.6512 18.8003L20.2584 19.5923C20.2357 19.5395 20.1992 19.4945 20.1848 19.4378C20.1135 19.1577 20.1557 18.8667 20.3047 18.6183L29.7232 2.88C30.0295 2.3688 30.6967 2.19929 31.2129 2.50406L41.0505 8.33734C41.2999 8.48496 41.4766 8.72086 41.5481 9.00162C41.619 9.28168 41.5768 9.57268 41.4278 9.82095Z" fill="url(#paint5_linear)"/>
<path d="M30.1652 4.18792C30.4879 4.37933 30.9055 4.27391 31.0978 3.95271C31.2901 3.63152 31.1842 3.21585 30.8615 3.02444C30.5388 2.83303 30.1212 2.93827 29.9289 3.25964C29.7366 3.58101 29.8424 3.9965 30.1652 4.18792Z" fill="url(#paint6_linear)"/>
<path d="M31.4804 24.2449C31.1576 24.0535 30.74 24.159 30.5479 24.4802C30.3556 24.8013 30.4613 25.217 30.7841 25.4084C31.107 25.5998 31.5244 25.4946 31.7167 25.1732C31.909 24.852 31.8031 24.4364 31.4804 24.2449Z" fill="url(#paint7_linear)"/>
<path d="M32.8818 10.2087C32.7142 10.1095 32.5118 10.0839 32.3253 10.1363C30.5023 10.6509 27.3624 11.6503 26.8178 12.5588C26.1381 13.6961 26.5635 15.2013 27.7651 15.9131C28.0051 16.0552 28.2604 16.1536 28.5224 16.2136L27.8781 17.2899C27.6778 17.625 27.788 18.0583 28.1249 18.2582C28.2386 18.3259 28.364 18.3575 28.4873 18.3575C28.7291 18.3575 28.9646 18.2347 29.0977 18.0126L29.7265 16.962C29.8885 17.1295 30.0714 17.2802 30.2791 17.4036C30.7033 17.6547 31.1675 17.7748 31.622 17.7748C32.4548 17.7748 33.2524 17.3706 33.6932 16.6353C34.2364 15.7263 33.6245 12.5023 33.2109 10.662C33.1688 10.4722 33.0496 10.308 32.8818 10.2087ZM32.4738 15.9124C32.1946 16.3794 31.537 16.5036 31.0055 16.1896C30.7813 16.057 30.6147 15.8622 30.5197 15.6374L30.5239 15.6302C30.7242 15.2951 30.614 14.8617 30.2772 14.6619C29.9724 14.4809 29.5958 14.5644 29.3764 14.8282C29.0837 14.9041 28.7667 14.863 28.4915 14.6991C27.9615 14.3853 27.7577 13.7493 28.019 13.3086C28.3189 12.9671 30.1837 12.2581 31.984 11.7089C32.3565 13.5457 32.62 15.5123 32.4738 15.9124Z" fill="url(#paint8_linear)"/>
<defs>
<linearGradient id="paint0_linear" x1="-1.60187e-07" y1="20" x2="43" y2="20" gradientUnits="userSpaceOnUse">
<stop stop-color="#F87C0A"/>
<stop offset="1" stop-color="#DC0606"/>
</linearGradient>
<linearGradient id="paint1_linear" x1="-1.60187e-07" y1="20" x2="43" y2="20" gradientUnits="userSpaceOnUse">
<stop stop-color="#F87C0A"/>
<stop offset="1" stop-color="#DC0606"/>
</linearGradient>
<linearGradient id="paint2_linear" x1="-1.60187e-07" y1="20" x2="43" y2="20" gradientUnits="userSpaceOnUse">
<stop stop-color="#F87C0A"/>
<stop offset="1" stop-color="#DC0606"/>
</linearGradient>
<linearGradient id="paint3_linear" x1="-1.60187e-07" y1="20" x2="43" y2="20" gradientUnits="userSpaceOnUse">
<stop stop-color="#F87C0A"/>
<stop offset="1" stop-color="#DC0606"/>
</linearGradient>
<linearGradient id="paint4_linear" x1="-1.60187e-07" y1="20" x2="43" y2="20" gradientUnits="userSpaceOnUse">
<stop stop-color="#F87C0A"/>
<stop offset="1" stop-color="#DC0606"/>
</linearGradient>
<linearGradient id="paint5_linear" x1="-1.60187e-07" y1="20" x2="43" y2="20" gradientUnits="userSpaceOnUse">
<stop stop-color="#F87C0A"/>
<stop offset="1" stop-color="#DC0606"/>
</linearGradient>
<linearGradient id="paint6_linear" x1="-1.60187e-07" y1="20" x2="43" y2="20" gradientUnits="userSpaceOnUse">
<stop stop-color="#F87C0A"/>
<stop offset="1" stop-color="#DC0606"/>
</linearGradient>
<linearGradient id="paint7_linear" x1="-1.60187e-07" y1="20" x2="43" y2="20" gradientUnits="userSpaceOnUse">
<stop stop-color="#F87C0A"/>
<stop offset="1" stop-color="#DC0606"/>
</linearGradient>
<linearGradient id="paint8_linear" x1="-1.60187e-07" y1="20" x2="43" y2="20" gradientUnits="userSpaceOnUse">
<stop stop-color="#F87C0A"/>
<stop offset="1" stop-color="#DC0606"/>
</linearGradient>
</defs>
</svg>
