<svg width="40" height="40" viewBox="0 0 40 40" fill="none" xmlns="http://www.w3.org/2000/svg">
<path d="M35.1143 7.23455C32.0643 3.75344 27.8883 1.4333 23.327 0.67645C23.125 0.382923 22.8043 0.187394 22.4441 0.144613C21.636 0.0486474 20.8137 0 20.0001 0C19.2707 0 18.5344 0.038871 17.8115 0.115518C17.4468 0.154154 17.1212 0.346554 16.9142 0.639299C12.2977 1.34797 8.0634 3.65075 4.96239 7.14844C1.76232 10.7578 0 15.3934 0 20.2012C0 25.4896 2.0804 30.4616 5.85793 34.201C9.63547 37.9405 14.6579 40 20.0001 40C23.4257 40 26.806 39.1278 29.7755 37.4775C32.6535 35.8782 35.1121 33.5742 36.8856 30.8149C37.0613 30.5415 36.9798 30.1789 36.7037 30.0051C36.4275 29.831 36.0613 29.9118 35.8857 30.1851C34.2168 32.7816 31.9033 34.9497 29.1952 36.4545C26.4025 38.0065 23.2228 38.8268 19.9999 38.8268C14.9742 38.8268 10.2493 36.8895 6.69571 33.3715C3.14209 29.8536 1.1851 25.1761 1.1851 20.2011C1.1851 15.6782 2.84289 11.3176 5.85311 7.92234C8.70248 4.7084 12.5683 2.56713 16.7922 1.8479C16.8051 1.87715 16.8187 1.90609 16.834 1.93456V1.93463L18.0888 4.27002C14.2509 4.71747 10.7237 6.4978 8.07754 9.34391C5.21687 12.4207 3.69671 16.412 3.79689 20.5827C3.89036 24.4709 5.41012 28.1908 8.07643 31.0573C8.19328 31.1829 8.35264 31.2466 8.51247 31.2466C8.65594 31.2466 8.79981 31.1954 8.91366 31.0916C9.15439 30.8721 9.16988 30.501 8.94819 30.2627C8.56287 29.8485 8.20347 29.415 7.87078 28.9647L15.5681 23.8516C15.7092 24.0186 15.8594 24.1796 16.021 24.3321C16.2444 24.5429 16.4822 24.7328 16.731 24.9033L12.2886 32.9568C11.7501 32.6375 11.2302 32.2844 10.7332 31.8978C10.4759 31.6978 10.1033 31.7419 9.90116 31.9966C9.69899 32.2514 9.7437 32.6201 10.001 32.8203C12.8505 35.0367 16.3889 36.2459 20.0041 36.2459C20.1311 36.2459 20.2582 36.2443 20.3854 36.2413C24.7068 36.1395 28.7338 34.3735 31.7246 31.2685C34.7155 28.1635 36.306 24.0975 36.2032 19.8197C36.1072 15.8246 34.5165 12.0294 31.7242 9.13328C29.1588 6.47269 25.7841 4.77629 22.1427 4.29724L23.398 1.96091C23.4112 1.93643 23.4233 1.91156 23.4346 1.88646C27.6062 2.64933 31.4172 4.80554 34.219 8.00321C37.1828 11.3857 38.815 15.7177 38.815 20.2011C38.815 22.9434 38.2258 25.5862 37.0636 28.0558C36.9254 28.3495 37.0539 28.6985 37.3505 28.8353C37.4314 28.8726 37.5166 28.8902 37.6003 28.8902C37.8236 28.8902 38.0374 28.7648 38.1378 28.5512C39.3735 25.9253 40 23.116 40 20.2011C40.0002 15.4353 38.265 10.8304 35.1143 7.23455ZM8.94953 10.1383C9.17328 9.89764 9.40437 9.6659 9.64123 9.44182L15.7663 16.3285C15.403 16.7174 15.0996 17.1464 14.8617 17.6056L6.21172 14.295C6.87387 12.7861 7.79351 11.3816 8.94953 10.1383ZM19.8911 15.6653C21.114 15.6348 22.2741 16.0819 23.1613 16.9193C24.0485 17.7566 24.553 18.8839 24.582 20.0933C24.6111 21.3026 24.1612 22.4523 23.3153 23.3305C22.4693 24.2087 21.3307 24.7082 20.109 24.7369C18.8863 24.7658 17.726 24.3203 16.8388 23.4829C15.9516 22.6456 15.4471 21.5184 15.4181 20.309C15.389 19.0996 15.8389 17.95 16.6848 17.0717C17.5307 16.1936 18.6695 15.694 19.8911 15.6653ZM23.3276 15.5385C22.8941 15.2338 22.4237 14.9936 21.9287 14.8197L24.1152 5.89807C26.0456 6.44336 27.8502 7.37032 29.4242 8.62921L23.3276 15.5385ZM32.8242 27.9432L25.1048 22.8588C25.3517 22.3966 25.5323 21.9039 25.642 21.3917L34.8641 22.3734C34.5719 24.353 33.8794 26.2409 32.8242 27.9432ZM20.7289 25.8657C21.2574 25.7999 21.7682 25.6621 22.2511 25.4592L26.7288 33.5013C24.9446 34.3894 22.9872 34.9158 20.9494 35.042L20.7289 25.8657ZM5.01628 21.2648C4.99913 21.0288 4.98736 20.7922 4.98167 20.5546C4.93893 18.7753 5.21521 17.0315 5.78374 15.3889L14.4334 18.6994C14.2964 19.1981 14.2288 19.7178 14.2333 20.2473L5.01628 21.2648ZM7.21028 27.9906C6.15389 26.2948 5.45152 24.4047 5.14845 22.4307L14.3628 21.4136C14.4746 21.9266 14.6577 22.4185 14.9057 22.8788L7.21028 27.9906ZM17.77 25.4678C18.331 25.7013 18.9282 25.8452 19.5441 25.8926L19.7646 35.0705C17.525 35.036 15.323 34.4994 13.3287 33.5193L17.77 25.4678ZM30.867 30.4588C29.9333 31.4281 28.8904 32.256 27.7651 32.9323L23.2884 24.8918C23.6044 24.6735 23.9009 24.4226 24.173 24.1401C24.2685 24.041 24.3585 23.9382 24.4459 23.8338L32.165 28.918C31.7703 29.4548 31.3379 29.9699 30.867 30.4588ZM34.9885 21.2067L25.7667 20.2251C25.7669 20.1719 25.7681 20.1188 25.7668 20.0653C25.7553 19.5901 25.6855 19.1249 25.5611 18.6777L34.1945 15.3348C34.6992 16.7748 34.9811 18.2947 35.0184 19.8476C35.0294 20.3036 35.0186 20.7569 34.9885 21.2067ZM33.7625 14.2424L25.1281 17.5857C24.888 17.1262 24.5834 16.6979 24.2189 16.3115L30.3163 9.40147C30.5037 9.57713 30.6877 9.75733 30.8669 9.94324C32.091 11.2128 33.0655 12.6687 33.7625 14.2424ZM22.9636 5.62128L20.7769 14.5436C20.4767 14.5037 20.1715 14.4856 19.8629 14.4925C19.6397 14.4977 19.4189 14.517 19.2008 14.5468L18.4299 11.4544C18.3515 11.1399 18.0301 10.9475 17.7126 11.0255C17.3949 11.1031 17.2009 11.421 17.2793 11.7355L18.0499 14.8268C17.5544 15.0028 17.0852 15.2455 16.6539 15.5514L10.5288 8.66464C12.0982 7.39683 13.8969 6.46479 15.8278 5.9134L16.6741 9.30785C16.7407 9.57518 16.9827 9.75404 17.2489 9.75404C17.2959 9.75404 17.3437 9.74849 17.3914 9.73676C17.7091 9.65917 17.9031 9.34125 17.8247 9.02676L16.9787 5.63333C17.5405 5.51976 18.1114 5.43717 18.6892 5.38751L19.0153 5.99443C19.2336 6.40081 19.6581 6.65328 20.123 6.65328C20.588 6.65328 21.0125 6.40081 21.2308 5.99443L21.5458 5.40823C22.0234 5.45673 22.4964 5.52821 22.9636 5.62128ZM22.3518 1.41007L20.6824 4.51709C20.6817 4.51842 20.681 4.51967 20.6803 4.52093L20.1846 5.44351C20.1787 5.45446 20.165 5.48003 20.1231 5.48003C20.0813 5.48003 20.0675 5.45446 20.0616 5.44343L17.8803 1.38364C17.8755 1.37488 17.8631 1.35165 17.8801 1.31997C17.8982 1.28611 17.9279 1.28298 17.9377 1.28196C18.6187 1.20977 19.3126 1.17317 20.0001 1.17317C20.7667 1.17317 21.5415 1.219 22.303 1.30941C22.312 1.31051 22.3358 1.31332 22.3518 1.34367C22.3635 1.36588 22.3635 1.38825 22.3518 1.41007Z" fill="url(#paint0_linear)"/>
<path d="M17.2716 20.3121L18.0649 20.8827L17.7618 21.806C17.6358 22.1902 17.7729 22.6078 18.1031 22.8452C18.4331 23.0826 18.8767 23.0825 19.2067 22.8451L20.0001 22.2746L20.7935 22.8451C20.9585 22.9639 21.1519 23.0232 21.3453 23.0231C21.5387 23.0231 21.7321 22.9638 21.8971 22.8452C22.2273 22.6078 22.3643 22.1902 22.2383 21.8059L21.9353 20.8827L22.7286 20.3122C23.0587 20.0747 23.1957 19.6572 23.0696 19.273C22.9435 18.8888 22.5847 18.6307 22.1766 18.6307H21.196L20.893 17.7075C20.7669 17.3233 20.4081 17.0652 20.0001 17.0652C19.5921 17.0652 19.2332 17.3233 19.1071 17.7075L18.8042 18.6307H17.8235C17.4155 18.6307 17.0566 18.8888 16.9305 19.273C16.8044 19.6572 16.9415 20.0747 17.2716 20.3121ZM18.983 19.8039C19.3909 19.8039 19.7498 19.5458 19.8759 19.1616L20.0001 18.7833L20.1243 19.1617C20.2505 19.5458 20.6093 19.8039 21.0172 19.8039H21.419L21.094 20.0376C20.7638 20.275 20.6267 20.6927 20.7529 21.0768L20.8771 21.4552L20.5521 21.2215C20.2219 20.9839 19.7782 20.9839 19.4481 21.2214L19.123 21.4552L19.2472 21.0769C19.3734 20.6927 19.2362 20.275 18.9062 20.0377L18.5811 19.8039H18.983Z" fill="url(#paint1_linear)"/>
<defs>
<linearGradient id="paint0_linear" x1="-1.49012e-07" y1="20" x2="40" y2="20" gradientUnits="userSpaceOnUse">
<stop stop-color="#F87C0A"/>
<stop offset="1" stop-color="#DC0606"/>
</linearGradient>
<linearGradient id="paint1_linear" x1="-1.49012e-07" y1="20" x2="40" y2="20" gradientUnits="userSpaceOnUse">
<stop stop-color="#F87C0A"/>
<stop offset="1" stop-color="#DC0606"/>
</linearGradient>
</defs>
</svg>
