<svg width="40" height="40" viewBox="0 0 40 40" fill="none" xmlns="http://www.w3.org/2000/svg">
<path d="M40 35.3124V11.0937C40 10.6622 39.6502 10.3125 39.2188 10.3125H30.1542C30.155 10.2604 30.1562 10.2085 30.1562 10.1562C30.1562 4.55601 25.6001 0 19.9999 0C14.3998 0 9.84367 4.55608 9.84367 10.1562C9.84367 10.2084 9.84484 10.2604 9.84563 10.3125H0.78125C0.349766 10.3125 0 10.6622 0 11.0937V35.3124C0 35.7439 0.349766 36.0937 0.78125 36.0937V38.4375C0.349766 38.4375 0 38.7873 0 39.2188C0 39.6502 0.349766 40 0.78125 40H39.2188C39.6502 40 40 39.6502 40 39.2188C40 38.7873 39.6502 38.4375 39.2188 38.4375V36.0937C39.6502 36.0937 40 35.7439 40 35.3124ZM38.4375 11.875V34.5312H22.3437C21.7747 34.5312 21.2413 34.6847 20.7812 34.9514V20.2827C25.4431 19.9264 29.234 16.4086 30.0101 11.875H38.4375ZM20 1.5625C24.7386 1.5625 28.5938 5.41765 28.5938 10.1562C28.5938 14.8948 24.7386 18.75 20 18.75C15.2614 18.75 11.4062 14.8948 11.4062 10.1562C11.4062 5.41765 15.2613 1.5625 20 1.5625ZM2.34375 36.0937H5.70289C6.13438 36.0937 6.48414 35.7439 6.48414 35.3124C6.48414 34.881 6.13438 34.5312 5.70289 34.5312H1.5625V11.875H9.98992C10.7659 16.4086 14.5569 19.9264 19.2188 20.2827V34.9514C18.7588 34.6846 18.2252 34.5311 17.6562 34.5311H12.7341C12.3027 34.5311 11.9529 34.8809 11.9529 35.3124C11.9529 35.7438 12.3027 36.0936 12.7341 36.0936H17.6562C18.5178 36.0936 19.2188 36.7945 19.2188 37.6561V38.4374H2.34375V36.0937ZM37.6562 36.0937V38.4375H20.7812V37.6562C20.7812 36.7946 21.4821 36.0937 22.3437 36.0937H37.6562Z" fill="url(#paint0_linear)"/>
<path d="M20 17.1875C23.8771 17.1875 27.0313 14.0333 27.0313 10.1563C27.0313 6.27922 23.8771 3.125 20 3.125C16.123 3.125 12.9688 6.27922 12.9688 10.1563C12.9688 14.0333 16.123 17.1875 20 17.1875ZM20 4.6875C23.0155 4.6875 25.4688 7.14078 25.4688 10.1563C25.4688 13.1717 23.0155 15.625 20 15.625C16.9846 15.625 14.5313 13.1717 14.5313 10.1563C14.5313 7.14078 16.9846 4.6875 20 4.6875Z" fill="url(#paint1_linear)"/>
<path d="M19.1339 12.5C18.7024 12.5 18.3526 12.8498 18.3526 13.2813C18.3526 13.7127 18.7024 14.0625 19.1339 14.0625H20.8661C21.2976 14.0625 21.6474 13.7127 21.6474 13.2813C21.6474 12.8498 21.2976 12.5 20.8661 12.5H20.7813V7.03125C20.7813 6.75211 20.6324 6.49422 20.3907 6.35469C20.149 6.21516 19.8512 6.21516 19.6094 6.35469L18.7432 6.85477C18.3696 7.07047 18.2415 7.54828 18.4573 7.92195C18.617 8.1986 18.9204 8.3407 19.2188 8.30813V12.5H19.1339Z" fill="url(#paint2_linear)"/>
<path d="M16.8749 31.8527C16.8749 31.4212 16.5251 31.0714 16.0936 31.0714H3.90634C3.47485 31.0714 3.12508 31.4212 3.12508 31.8527C3.12508 32.2841 3.47485 32.6339 3.90634 32.6339H16.0936C16.5251 32.6339 16.8749 32.2841 16.8749 31.8527Z" fill="url(#paint3_linear)"/>
<path d="M3.90634 29.1741H16.0936C16.5251 29.1741 16.8749 28.8244 16.8749 28.3929C16.8749 27.9614 16.5251 27.6116 16.0936 27.6116H3.90634C3.47485 27.6116 3.12508 27.9614 3.12508 28.3929C3.12508 28.8244 3.47485 29.1741 3.90634 29.1741Z" fill="url(#paint4_linear)"/>
<path d="M3.90634 25.7143H16.0936C16.5251 25.7143 16.8749 25.3645 16.8749 24.9331C16.8749 24.5016 16.5251 24.1518 16.0936 24.1518H3.90634C3.47485 24.1518 3.12508 24.5016 3.12508 24.9331C3.12508 25.3645 3.47485 25.7143 3.90634 25.7143Z" fill="url(#paint5_linear)"/>
<path d="M3.90634 22.2545H13.086C13.5175 22.2545 13.8673 21.9047 13.8673 21.4732C13.8673 21.0417 13.5175 20.692 13.086 20.692H3.90634C3.47485 20.692 3.12508 21.0417 3.12508 21.4732C3.12508 21.9047 3.47485 22.2545 3.90634 22.2545Z" fill="url(#paint6_linear)"/>
<path d="M3.90634 18.7947H9.10166C9.53314 18.7947 9.88291 18.4449 9.88291 18.0134C9.88291 17.582 9.53314 17.2322 9.10166 17.2322H3.90634C3.47485 17.2322 3.12508 17.582 3.12508 18.0134C3.12508 18.4449 3.47485 18.7947 3.90634 18.7947Z" fill="url(#paint7_linear)"/>
<path d="M3.90634 15.3348H6.95322C7.3847 15.3348 7.73447 14.9851 7.73447 14.5536C7.73447 14.1221 7.3847 13.7723 6.95322 13.7723H3.90634C3.47485 13.7723 3.12508 14.1221 3.12508 14.5536C3.12508 14.9851 3.47485 15.3348 3.90634 15.3348Z" fill="url(#paint8_linear)"/>
<path d="M36.0937 31.0714H23.9064C23.4749 31.0714 23.1251 31.4212 23.1251 31.8527C23.1251 32.2841 23.4749 32.6339 23.9064 32.6339H36.0937C36.5252 32.6339 36.8749 32.2841 36.8749 31.8527C36.8749 31.4212 36.5252 31.0714 36.0937 31.0714Z" fill="url(#paint9_linear)"/>
<path d="M36.0937 27.6116H23.9064C23.4749 27.6116 23.1251 27.9614 23.1251 28.3929C23.1251 28.8244 23.4749 29.1741 23.9064 29.1741H36.0937C36.5252 29.1741 36.8749 28.8244 36.8749 28.3929C36.8749 27.9614 36.5252 27.6116 36.0937 27.6116Z" fill="url(#paint10_linear)"/>
<path d="M36.0937 24.1518H23.9064C23.4749 24.1518 23.1251 24.5016 23.1251 24.9331C23.1251 25.3645 23.4749 25.7143 23.9064 25.7143H36.0937C36.5252 25.7143 36.8749 25.3645 36.8749 24.9331C36.8749 24.5016 36.5252 24.1518 36.0937 24.1518Z" fill="url(#paint11_linear)"/>
<path d="M36.0937 20.692H26.914C26.4826 20.692 26.1328 21.0417 26.1328 21.4732C26.1328 21.9047 26.4826 22.2545 26.914 22.2545H36.0937C36.5252 22.2545 36.8749 21.9047 36.8749 21.4732C36.8749 21.0417 36.5252 20.692 36.0937 20.692Z" fill="url(#paint12_linear)"/>
<path d="M30.8984 18.7947H36.0937C36.5252 18.7947 36.8749 18.4449 36.8749 18.0134C36.8749 17.582 36.5252 17.2322 36.0937 17.2322H30.8984C30.4669 17.2322 30.1172 17.582 30.1172 18.0134C30.1172 18.4449 30.4669 18.7947 30.8984 18.7947Z" fill="url(#paint13_linear)"/>
<path d="M33.0469 15.3348H36.0937C36.5252 15.3348 36.8749 14.9851 36.8749 14.5536C36.8749 14.1221 36.5252 13.7723 36.0937 13.7723H33.0469C32.6154 13.7723 32.2656 14.1221 32.2656 14.5536C32.2656 14.9851 32.6154 15.3348 33.0469 15.3348Z" fill="url(#paint14_linear)"/>
<path d="M9.21877 34.5313H9.21822C8.78674 34.5313 8.43728 34.881 8.43728 35.3125C8.43728 35.744 8.78728 36.0938 9.21877 36.0938C9.65025 36.0938 10 35.744 10 35.3125C10 34.881 9.65025 34.5313 9.21877 34.5313Z" fill="url(#paint15_linear)"/>
<defs>
<linearGradient id="paint0_linear" x1="-1.49012e-07" y1="20" x2="40" y2="20" gradientUnits="userSpaceOnUse">
<stop stop-color="#F87C0A"/>
<stop offset="1" stop-color="#DC0606"/>
</linearGradient>
<linearGradient id="paint1_linear" x1="-1.49012e-07" y1="20" x2="40" y2="20" gradientUnits="userSpaceOnUse">
<stop stop-color="#F87C0A"/>
<stop offset="1" stop-color="#DC0606"/>
</linearGradient>
<linearGradient id="paint2_linear" x1="-1.49012e-07" y1="20" x2="40" y2="20" gradientUnits="userSpaceOnUse">
<stop stop-color="#F87C0A"/>
<stop offset="1" stop-color="#DC0606"/>
</linearGradient>
<linearGradient id="paint3_linear" x1="-1.49012e-07" y1="20" x2="40" y2="20" gradientUnits="userSpaceOnUse">
<stop stop-color="#F87C0A"/>
<stop offset="1" stop-color="#DC0606"/>
</linearGradient>
<linearGradient id="paint4_linear" x1="-1.49012e-07" y1="20" x2="40" y2="20" gradientUnits="userSpaceOnUse">
<stop stop-color="#F87C0A"/>
<stop offset="1" stop-color="#DC0606"/>
</linearGradient>
<linearGradient id="paint5_linear" x1="-1.49012e-07" y1="20" x2="40" y2="20" gradientUnits="userSpaceOnUse">
<stop stop-color="#F87C0A"/>
<stop offset="1" stop-color="#DC0606"/>
</linearGradient>
<linearGradient id="paint6_linear" x1="-1.49012e-07" y1="20" x2="40" y2="20" gradientUnits="userSpaceOnUse">
<stop stop-color="#F87C0A"/>
<stop offset="1" stop-color="#DC0606"/>
</linearGradient>
<linearGradient id="paint7_linear" x1="-1.49012e-07" y1="20" x2="40" y2="20" gradientUnits="userSpaceOnUse">
<stop stop-color="#F87C0A"/>
<stop offset="1" stop-color="#DC0606"/>
</linearGradient>
<linearGradient id="paint8_linear" x1="-1.49012e-07" y1="20" x2="40" y2="20" gradientUnits="userSpaceOnUse">
<stop stop-color="#F87C0A"/>
<stop offset="1" stop-color="#DC0606"/>
</linearGradient>
<linearGradient id="paint9_linear" x1="-1.49012e-07" y1="20" x2="40" y2="20" gradientUnits="userSpaceOnUse">
<stop stop-color="#F87C0A"/>
<stop offset="1" stop-color="#DC0606"/>
</linearGradient>
<linearGradient id="paint10_linear" x1="-1.49012e-07" y1="20" x2="40" y2="20" gradientUnits="userSpaceOnUse">
<stop stop-color="#F87C0A"/>
<stop offset="1" stop-color="#DC0606"/>
</linearGradient>
<linearGradient id="paint11_linear" x1="-1.49012e-07" y1="20" x2="40" y2="20" gradientUnits="userSpaceOnUse">
<stop stop-color="#F87C0A"/>
<stop offset="1" stop-color="#DC0606"/>
</linearGradient>
<linearGradient id="paint12_linear" x1="-1.49012e-07" y1="20" x2="40" y2="20" gradientUnits="userSpaceOnUse">
<stop stop-color="#F87C0A"/>
<stop offset="1" stop-color="#DC0606"/>
</linearGradient>
<linearGradient id="paint13_linear" x1="-1.49012e-07" y1="20" x2="40" y2="20" gradientUnits="userSpaceOnUse">
<stop stop-color="#F87C0A"/>
<stop offset="1" stop-color="#DC0606"/>
</linearGradient>
<linearGradient id="paint14_linear" x1="-1.49012e-07" y1="20" x2="40" y2="20" gradientUnits="userSpaceOnUse">
<stop stop-color="#F87C0A"/>
<stop offset="1" stop-color="#DC0606"/>
</linearGradient>
<linearGradient id="paint15_linear" x1="-1.49012e-07" y1="20" x2="40" y2="20" gradientUnits="userSpaceOnUse">
<stop stop-color="#F87C0A"/>
<stop offset="1" stop-color="#DC0606"/>
</linearGradient>
</defs>
</svg>
