<svg width="46" height="40" viewBox="0 0 46 40" fill="none" xmlns="http://www.w3.org/2000/svg">
  <path d="M44.4968 17.4785C44.2865 17.4785 44.1 17.5215 43.9611 17.5631C43.8328 17.5201 43.1757 17.2353 42.0117 15.5246C40.7288 13.6396 38.7516 12.6017 36.4445 12.6017C36.3163 12.6017 36.1936 12.6053 36.0766 12.6105C35.3626 12.0072 34.6017 11.4777 34.0107 11.079C32.865 10.3054 31.5526 9.91303 30.1112 9.91303C28.0429 9.91303 26.137 10.7335 24.9986 11.2596C25.0887 11.155 25.1768 11.0443 25.2649 10.9272C25.673 10.3865 25.7564 9.73096 25.4897 9.17248C25.2314 8.63372 24.6918 8.29894 24.0819 8.29894C24.0813 8.29894 24.0813 8.29894 24.0813 8.29894C23.9652 8.29894 23.8444 8.31066 23.7218 8.33475C23.7488 8.21486 23.7735 8.09011 23.7978 7.96084C23.9293 7.24115 23.6471 6.75995 23.4667 6.5373C23.3956 6.44934 23.3168 6.37059 23.2314 6.30147C23.4052 6.04131 23.6207 5.54645 23.4267 4.85667C22.9899 3.30984 21.943 2.34696 20.5108 2.14477C20.3563 1.78209 20.0702 1.47722 19.6891 1.28707C19.3036 1.09522 18.8991 0.998207 18.4843 0.998207C18.4432 0.998207 18.402 0.999177 18.3618 1.00136C18.2984 0.843629 18.2114 0.697459 18.1021 0.566246C17.8027 0.206643 17.3643 0 16.8982 0C16.6184 0 16.3418 0.072438 16.0765 0.215778C15.5402 0.505127 14.802 1.00573 14.3314 1.74709C14.3187 1.76592 14.3014 1.78654 14.2809 1.80772C14.0055 1.59865 13.6611 1.48231 13.2902 1.48231C13.2752 1.48231 13.2601 1.48231 13.2442 1.4828C13.1941 1.39128 13.1316 1.29976 13.0536 1.21067L12.6258 0.722764L11.9734 0.716539H11.973C11.345 0.716539 10.9573 1.11026 10.7787 1.31771C10.7444 1.33065 10.6738 1.35215 10.5544 1.36767C10.0028 1.43817 9.49513 1.63689 9.06167 1.93392C8.88163 1.54683 8.50908 0.761975 7.56405 0.761975C7.56405 0.761975 7.56358 0.761975 7.5631 0.761975C7.2304 0.761975 6.14004 0.88575 6.04986 2.55061C5.99013 3.64705 6.33428 5.10568 6.67543 6.24779C6.67244 6.25022 6.66912 6.2507 6.66636 6.25329C5.55999 7.09045 5.59147 8.05793 6.00157 9.34864C6.16016 9.84779 6.25712 11.0823 5.1225 13.74C4.38127 15.4751 5.20227 16.5541 5.59652 17.0724C5.68677 17.1914 5.77238 17.3034 5.81104 17.3805C6.33775 18.4259 7.72973 19.0502 8.77117 19.0502C9.3289 19.0502 9.83463 18.8794 10.2278 18.5628C9.88062 19.7362 9.80599 20.7775 9.80812 21.467C8.71918 22.5389 8.50726 23.4372 8.36549 24.0398C8.25211 24.52 8.2002 24.7398 7.17588 25.3616C5.52993 26.3604 5.00313 27.0499 4.92084 28.3114C4.90285 28.5943 4.88242 28.9154 4.10521 29.8396C4.00706 29.9562 3.86276 30.1177 3.73147 30.2649C3.65084 30.3557 3.57431 30.4412 3.51229 30.5125C2.08883 32.1411 1.73482 32.9142 1.67747 33.7075C1.6747 33.7113 1.67186 33.7142 1.66839 33.7175C0.851256 34.6187 0.369037 35.7183 0.108362 36.482C-0.237444 37.4922 0.272073 38.6141 1.24298 38.9831C1.70279 39.158 2.16844 39.2469 2.62597 39.2469C3.93337 39.2469 5.13812 38.5158 5.84749 37.292C6.31053 36.493 6.44576 35.6878 6.23803 35.0274C6.57942 34.6135 6.87646 33.9598 7.35489 32.9062L7.65194 32.2534C7.74267 32.0551 7.91262 31.6847 8.0129 31.4989C8.67579 30.2678 9.61506 29.4928 10.2735 29.1769C10.3309 29.1496 10.4642 29.0989 10.572 29.0579C10.7035 29.0077 10.838 28.9566 10.9679 28.8992C10.9322 29.1669 10.8891 29.4345 10.859 29.617C10.8051 29.9554 10.7573 30.2478 10.7359 30.502C10.733 30.5077 10.7095 30.578 10.6929 30.629C10.2574 31.9413 10.7268 32.9314 12.0878 33.5708C12.2144 33.631 12.3011 33.6731 12.3608 33.7032C12.5266 34.0032 12.7572 34.3813 13.2529 34.9858C13.9 35.7757 14.613 36.1761 15.3708 36.1761C15.5471 36.1761 15.714 36.1542 15.8707 36.1149C15.7312 36.2698 15.616 36.4256 15.524 36.5833C14.9399 37.5877 15.5016 38.7442 16.382 39.2822C17.1724 39.7649 17.8633 40 18.4933 40C19 40 20.233 39.8242 20.8117 38.2071C20.9325 38.034 21.3772 37.678 21.646 37.4626C22.151 37.0573 22.6731 36.6383 23.0446 36.1179C23.2022 35.8979 23.3053 35.6629 23.3885 35.4741C23.4089 35.4278 23.4284 35.38 23.4493 35.337C23.7706 34.9968 24.6493 34.4673 25.2392 34.1117C26.0441 33.6272 26.5212 33.3315 26.8369 32.9792C26.855 32.9658 26.8831 32.9491 26.9152 32.9314C26.7641 33.1369 26.6028 33.3347 26.4428 33.5317C26.149 33.8919 25.8721 34.2332 25.6719 34.6107C25.6178 34.6718 25.3492 34.7832 25.2042 34.8434C24.7943 35.014 23.9404 35.3695 23.7935 36.3525C23.6429 37.3698 24.4267 38.0312 24.6847 38.2486C25.3059 38.7719 26.031 39.0481 26.7837 39.0481C28.1813 39.0481 29.4656 38.0791 29.8378 36.7448C30.0173 36.1341 31.5875 33.4114 32.1033 32.5162C32.3239 32.1344 32.4898 31.8458 32.5598 31.7159C32.6 31.6417 32.7043 31.4836 32.7967 31.3432C33.3223 30.548 34.4066 28.908 33.1857 27.7219C33.1302 27.6339 33.0071 27.395 32.8355 26.9544C33.3033 26.6247 33.7794 26.1449 34.1161 25.4539C34.2387 25.2035 34.7628 24.7152 35.6237 24.2387C35.96 24.0529 36.4346 23.7064 36.7365 23.3514C36.764 23.3189 36.7906 23.2872 36.8176 23.2548C36.0859 25.044 36.0933 27.1962 37.9713 28.801C38.3779 29.1479 38.7864 29.2214 39.0578 29.2214C39.6366 29.2214 40.3967 28.865 40.6517 27.8643C40.7492 27.6822 41.1941 27.2831 41.5205 26.9894C41.8185 26.7222 42.1557 26.4193 42.4929 26.0743C43.01 25.5443 43.4978 24.7851 43.3467 23.8866C43.6074 23.6142 43.9231 23.2328 44.2887 22.6938C44.5928 22.2451 44.6398 21.8289 44.6034 21.5126C45.1425 20.9641 45.5268 20.3466 45.7819 19.847C46.1727 19.0803 45.9516 18.4925 45.7857 18.2108C45.5158 17.7531 45.0332 17.4785 44.4968 17.4785ZM44.5141 19.1682C44.2469 19.6903 43.7008 20.5681 42.8507 21.0594C42.6311 21.1865 42.5844 21.4158 42.8223 21.5019C42.854 21.5143 42.8885 21.5238 42.923 21.5315C43.1696 21.586 43.2573 21.6462 43.1128 21.8584C42.8148 22.2985 42.3013 22.9881 41.8429 23.2661C41.1462 23.6895 42.6432 23.8482 41.481 25.038C40.5063 26.0373 39.459 26.701 39.2696 27.4828C39.229 27.651 39.1595 27.7551 39.0593 27.7551C39.0099 27.7551 38.9535 27.7299 38.89 27.6749C38.2054 27.0905 36.958 25.5504 38.5912 22.9488C40.0425 20.6369 38.994 19.1883 37.9984 18.9376C37.9718 18.9308 37.9457 18.9279 37.9191 18.9279C37.7018 18.9279 37.4975 19.1422 37.4318 19.3635C37.159 20.2786 36.5961 21.2816 35.6579 22.3884C35.4914 22.5838 35.1667 22.8256 34.9443 22.9489C34.3395 23.2839 33.2356 23.982 32.8359 24.8001C32.4909 25.5078 31.8963 25.8705 31.4901 26.0445C31.2574 26.1448 31.1156 26.3896 31.1972 26.6342C31.4123 27.2869 31.8347 28.4578 32.1784 28.7674C32.6625 29.2041 31.6175 30.4337 31.3073 31.0086C30.9981 31.5834 28.7331 35.372 28.4621 36.3434C28.2793 36.9995 27.5863 37.583 26.7857 37.583C26.3991 37.583 25.9882 37.4464 25.5973 37.1176C24.3974 36.1059 26.3136 36.483 26.933 35.3127C27.528 34.1888 29.9796 32.5521 28.9037 29.0513C28.8575 28.9013 28.7536 28.8191 28.6374 28.8191C28.5633 28.8191 28.4845 28.8535 28.414 28.9242C28.0428 29.2969 27.4934 29.9392 27.4557 30.5135C27.3975 31.3861 26.294 31.4061 25.7908 31.9805C25.3549 32.4795 23.0713 33.5297 22.3192 34.4334C22.1555 34.6299 22.0398 35.0446 21.8909 35.2534C21.3059 36.073 19.7602 36.8586 19.4799 37.6734C19.2994 38.1966 19.008 38.5345 18.4952 38.5345C18.1481 38.5345 17.7006 38.3801 17.1175 38.0242C16.9008 37.8918 16.6276 37.5601 16.7565 37.3375C16.8621 37.1569 17.0846 36.9141 17.5257 36.6025C18.7063 35.7701 19.1323 35.9478 19.6742 35.0953C20.2163 34.2418 20.4483 34.7379 21.5132 33.6866C22.3762 32.835 23.2643 32.3084 23.6112 31.7063C23.74 31.4836 23.8986 31.1132 24.0571 30.9121C24.2059 30.7234 24.3816 30.4839 24.5061 30.2546C24.6292 30.029 24.7141 29.599 24.9086 29.4337C25.2337 29.1593 25.7913 28.9825 25.9845 28.8271C26.1766 28.6719 26.9068 27.7162 27.3131 27.1757C27.467 26.9707 27.5103 26.6113 27.4273 26.3667C27.3262 26.0694 27.2142 25.6767 27.2035 25.3755C27.2012 25.3048 27.1834 25.2732 27.1438 25.2732C26.9241 25.2732 26.0274 26.2151 23.2974 26.2151C22.7175 26.2151 22.0553 26.1726 21.2998 26.0693C21.2998 26.0693 21.1485 26.0359 20.9307 26.0359C20.5443 26.0359 19.9497 26.141 19.616 26.724C19.4225 27.0624 19.2257 27.1684 19.0056 27.1684C18.6332 27.1684 18.1923 26.8626 17.5835 26.8626C16.9997 26.8626 16.233 26.726 15.6272 26.726C15.2285 26.726 14.8997 26.7852 14.7384 26.9822C14.3315 27.4777 12.9381 28.5686 14.3903 30.8098C15.842 33.051 17.7198 30.3142 16.171 34.0622C16.171 34.0622 15.907 34.7092 15.3726 34.7092C15.1023 34.7092 14.762 34.5429 14.3516 34.0426C13.132 32.555 13.8675 32.793 12.6869 32.2377C11.5059 31.6825 12.1063 31.306 12.1646 30.6311C12.2221 29.9574 12.5903 28.4301 12.4157 27.6961C12.2418 26.9621 12.0676 26.5057 12.3192 26.2281C12.3421 26.2033 12.3511 26.1918 12.3511 26.1918C12.326 26.1918 11.4105 27.0549 10.5156 27.5002C10.2883 27.6131 9.89633 27.7382 9.668 27.8482C8.70758 28.308 7.54827 29.3267 6.7597 30.7899C6.63748 31.0165 6.46312 31.3964 6.35582 31.6309C5.60456 33.2709 5.27091 34.09 5.0025 34.1817C4.712 34.2811 4.49914 34.7566 4.84771 35.4113C5.1285 35.9389 4.25314 37.7796 2.62675 37.7796C2.35251 37.7796 2.05712 37.7275 1.74137 37.6071C1.50452 37.5173 1.37695 37.2123 1.46066 36.9677C1.6493 36.4163 2.04497 35.4605 2.71835 34.7174C3.68579 33.6495 2.18485 34.2315 4.57835 31.4933C4.74743 31.3012 5.02625 30.9944 5.19114 30.7976C7.5074 28.0412 5.07824 28.3409 7.90567 26.6249C10.7012 24.9289 8.91816 24.271 10.9257 22.4063C11.1129 22.2324 11.25 21.894 11.2433 21.635C11.2227 20.8427 11.3124 19.1533 12.2417 17.4219C13.5192 15.042 12.3965 12.7807 12.2417 12.6617C12.238 12.6588 12.2322 12.6574 12.2256 12.6574C11.9551 12.6574 9.45837 14.8487 9.60922 16.5496C9.67683 17.3118 9.27627 17.5825 8.77141 17.5825C8.12154 17.5825 7.29825 17.1328 7.08491 16.7085C6.70581 15.9549 5.89293 15.5977 6.43503 14.3285C6.97698 13.0591 7.90567 10.5997 7.36373 8.89405C6.88388 7.38352 7.34511 7.77061 8.02126 6.96991C8.1871 6.77426 8.22481 6.39598 8.14742 6.14916C7.89865 5.35759 7.42251 3.68602 7.48026 2.62613C7.49588 2.33443 7.52176 2.21801 7.56326 2.21801C7.70133 2.21801 8.01653 3.48487 8.74703 3.89104C8.79437 3.91708 8.8436 3.9288 8.89465 3.9288C9.08282 3.9288 9.28243 3.76824 9.39896 3.60291C9.61419 3.29658 10.0197 2.91572 10.7327 2.8242C11.3311 2.74756 11.6496 2.53226 11.8187 2.33015C11.8975 2.2362 11.9466 2.18487 11.9732 2.18487C12.0028 2.18487 12.0059 2.24599 11.9918 2.38003C11.9804 2.48966 11.9622 2.60559 11.9331 2.71312C11.8725 2.94223 11.6911 3.14677 11.8547 3.14677C11.8691 3.14677 11.8864 3.14532 11.9069 3.142C12.1644 3.09924 12.5892 3.02922 13.2202 2.95493C13.2453 2.95202 13.2689 2.95064 13.2899 2.95064C13.4804 2.95064 13.5172 3.06843 13.4144 3.26578C13.3447 3.40071 13.2955 3.55537 13.3261 3.69774C13.34 3.76274 13.4053 3.79217 13.506 3.79217C13.9579 3.79217 15.1212 3.19625 15.5327 2.5473C15.8385 2.06586 16.3716 1.71604 16.7438 1.51538C16.8026 1.48361 16.8541 1.46881 16.898 1.46881C17.0209 1.46881 17.0801 1.58491 17.0505 1.7732C17.0036 2.06635 16.9931 2.43436 17.1584 2.66687C17.2081 2.73737 17.2711 2.76413 17.3468 2.76413C17.5972 2.76413 17.9841 2.46718 18.484 2.46718C18.6627 2.46718 18.8555 2.50494 19.0618 2.60761C19.2886 2.72063 19.2404 2.90698 19.0073 3.00594C18.7232 3.12689 18.3871 3.33329 18.2809 3.65821C18.2534 3.74229 18.2987 3.77269 18.3984 3.77269C18.654 3.77269 19.2665 3.57413 19.9299 3.57413C20.7556 3.57413 21.6596 3.88183 22.0496 5.26478C22.0956 5.42728 22.0606 5.51088 21.9713 5.51088C21.9242 5.51088 21.8619 5.48743 21.7875 5.43941C21.5793 5.30488 21.3086 5.17278 21.0468 5.17278C20.808 5.17278 20.5774 5.28289 20.4097 5.60231C19.98 6.4204 20.987 7.46315 21.8477 7.46315C21.9193 7.46315 21.9908 7.45595 22.0597 7.44019C22.1175 7.4275 22.1691 7.42006 22.2131 7.42006C22.3572 7.42006 22.4251 7.49581 22.3891 7.69081C22.3238 8.04629 22.211 8.53428 22.0405 8.88329C21.9275 9.11459 21.9151 9.3961 22.1343 9.52489C22.4069 9.68424 22.8233 9.85458 23.3573 9.85458C23.5442 9.85458 23.7448 9.83356 23.9598 9.78408C24.0064 9.77333 24.047 9.76783 24.0815 9.76783C24.2279 9.76783 24.2573 9.86388 24.1323 10.0297C23.902 10.3346 23.5453 10.746 23.1624 10.9659C22.9423 11.092 22.7975 11.3171 22.9294 11.5379C23.0744 11.7825 23.305 12.0645 23.6366 12.1804C23.8758 12.264 23.9071 12.3307 23.6669 12.41C23.5163 12.4598 23.3356 12.5033 23.146 12.5136C22.8939 12.5272 22.8333 12.6202 23.0429 12.7646C23.2879 12.933 23.6496 13.1096 24.0907 13.1096C24.1597 13.1096 24.2302 13.1052 24.3028 13.0959C24.5533 13.0638 24.9343 12.9017 25.1647 12.7949C26.1841 12.3232 28.0812 11.3818 30.1103 11.3818C31.1465 11.3818 32.2168 11.6275 33.2221 12.306C33.9142 12.7729 34.6183 13.2735 35.254 13.8211C35.4354 13.9771 35.7581 14.0849 36.0048 14.0849C36.0217 14.0849 36.038 14.0844 36.0542 14.0834C36.1755 14.0755 36.3057 14.0712 36.4437 14.0712C37.6842 14.0712 39.5286 14.4453 40.8357 16.3656C42.2711 18.4746 43.3125 19.0393 43.9831 19.0393C44.108 19.0393 44.2205 19.0196 44.3198 18.9865C44.3959 18.9613 44.455 18.9473 44.4961 18.9473C44.5873 18.9465 44.5943 19.0115 44.5141 19.1682ZM17.9265 31.2537C17.4577 30.4704 16.6635 30.4131 16.2822 30.3854C15.9132 30.3591 15.8138 30.3371 15.5846 29.983C14.9247 28.9652 15.1667 28.6537 15.599 28.1643C15.6086 28.1643 15.6177 28.1643 15.6282 28.1643C15.8635 28.1643 16.1787 28.2111 16.4839 28.2417C16.8486 28.278 17.225 28.3229 17.5845 28.3229C17.6983 28.3229 17.8496 28.3769 18.0238 28.4358C18.2875 28.5237 18.6155 28.6346 19.0066 28.6346C19.4394 28.6346 20.245 28.4893 20.8261 27.5125C20.8501 27.5077 20.8853 27.5039 20.9322 27.5039C20.9674 27.5039 20.9971 27.5068 21.0138 27.5088L21.0877 27.5288L21.1131 27.525C21.8833 27.6301 22.6187 27.6831 23.2989 27.6831C24.0427 27.6831 24.6765 27.6206 25.2132 27.5245C25.1685 27.5785 25.1326 27.6215 25.1036 27.655C25.0691 27.6711 25.0314 27.6888 24.9917 27.7074C24.7119 27.8403 24.3281 28.021 23.9974 28.302C23.5778 28.6575 23.4047 29.1296 23.2902 29.4417C23.2754 29.4823 23.2616 29.5219 23.2466 29.5578C23.2051 29.6304 23.1163 29.7719 22.9453 29.9883C22.7495 30.2364 22.6077 30.5159 22.4828 30.762C22.4459 30.8346 22.4121 30.9044 22.379 30.9608C22.2974 31.0974 21.9078 31.42 21.623 31.6556C21.2889 31.9318 20.9102 32.2453 20.5204 32.6295C20.1839 32.9626 20.0333 33.0286 19.8441 33.1117C19.4102 33.3034 18.9469 33.5518 18.4757 34.2939C18.3682 34.4626 18.3682 34.4626 18.0138 34.636C17.8215 34.7302 17.5845 34.8464 17.2987 35.015C17.3768 34.8865 17.4423 34.757 17.4939 34.6308C18.1152 33.1216 18.4566 32.1401 17.9265 31.2537ZM11.0361 16.4162C11.018 16.2112 11.1592 15.898 11.3752 15.5613C11.3251 15.8882 11.2243 16.2375 11.0476 16.5962C11.0452 16.538 11.042 16.4779 11.0361 16.4162Z" fill="url(#paint102_linear)"/>
  <defs>
  <linearGradient id="paint102_linear" x1="-1.71363e-07" y1="20" x2="46" y2="20" gradientUnits="userSpaceOnUse">
  <stop stop-color="#F87C0A"/>
  <stop offset="1" stop-color="#DC0606"/>
  </linearGradient>
  </defs>
</svg> 