<svg width="40" height="40" viewBox="0 0 40 40" fill="none" xmlns="http://www.w3.org/2000/svg">
  <path d="M29.7547 19.545C29.5206 19.4992 29.2798 19.5819 29.1233 19.762C28.8336 20.0937 28.5407 20.4238 28.2449 20.7525C27.9997 21.0266 28.0226 21.4475 28.2963 21.6933C28.57 21.9391 28.9909 21.917 29.2372 21.6438C29.5367 21.3104 29.8335 20.9755 30.1273 20.6389C30.2847 20.4597 30.3344 20.21 30.2575 19.9842C30.1806 19.7583 29.9888 19.5909 29.7547 19.545Z" fill="url(#paint0_linear-grd)"/>
  <path d="M15.2939 33.2182C15.0743 33.1258 14.8221 33.1575 14.6323 33.3015C14.28 33.5688 13.9267 33.8328 13.5722 34.0939C13.3803 34.2348 13.2782 34.4674 13.3043 34.7041C13.3304 34.9407 13.4808 35.1455 13.6989 35.2412C13.917 35.3369 14.1695 35.309 14.3614 35.1681C14.7221 34.9034 15.0811 34.6354 15.4383 34.364C15.6281 34.22 15.7267 33.9857 15.6969 33.7494C15.6672 33.5131 15.5135 33.3106 15.2939 33.2182Z" fill="url(#paint1_linear-grd)"/>
  <path d="M17.7466 30.8355C17.406 31.117 17.0639 31.3957 16.7204 31.6714C16.4331 31.9018 16.387 32.3216 16.6175 32.6089C16.848 32.8961 17.2678 32.9422 17.5551 32.7117C17.9041 32.4318 18.2513 32.1487 18.5968 31.8627C18.8789 31.6275 18.9175 31.2085 18.6834 30.9255C18.4493 30.6427 18.0304 30.6024 17.7466 30.8355Z" fill="url(#paint2_linear-grd)"/>
  <path d="M32.2967 16.4762C32.0612 16.4398 31.8242 16.5319 31.675 16.7178C31.399 17.0612 31.1201 17.4036 30.8384 17.7448C30.6868 17.9286 30.6449 18.1792 30.7282 18.4023C30.8116 18.6254 31.0077 18.7871 31.2426 18.8264C31.4775 18.8658 31.7156 18.7768 31.8672 18.5931C32.1524 18.2474 32.4347 17.9007 32.7143 17.553C32.8638 17.3675 32.9028 17.1161 32.8167 16.894C32.7305 16.6718 32.5322 16.5125 32.2967 16.4762Z" fill="url(#paint3_linear-grd)"/>
  <path d="M34.7084 13.3022C34.4713 13.2759 34.2381 13.3782 34.0971 13.5707C33.8353 13.9256 33.571 14.2792 33.304 14.6319C33.159 14.8216 33.1267 15.0744 33.2191 15.2945C33.3115 15.5147 33.5148 15.6685 33.7517 15.6979C33.9887 15.7272 34.2233 15.6276 34.3666 15.4366C34.6375 15.0791 34.9053 14.7209 35.1701 14.3617C35.3122 14.1701 35.3411 13.9171 35.2458 13.6984C35.1505 13.4798 34.9455 13.3286 34.7084 13.3022Z" fill="url(#paint4_linear-grd)"/>
  <path d="M21.4114 28.0994C21.1835 28.0256 20.9335 28.0799 20.7566 28.2413C20.4271 28.5369 20.0966 28.8298 19.765 29.1199C19.4902 29.3629 19.4632 29.7821 19.7046 30.0582C19.9461 30.3343 20.3652 30.3636 20.6426 30.1238C20.9786 29.8298 21.3135 29.5331 21.6473 29.2335C21.8269 29.075 21.9077 28.8323 21.8588 28.5979C21.8102 28.3634 21.6393 28.1731 21.4114 28.0994Z" fill="url(#paint5_linear-grd)"/>
  <path d="M23.6573 25.5269C23.3409 25.8358 23.0227 26.1418 22.7027 26.4446C22.5298 26.6083 22.4573 26.8519 22.5127 27.0835C22.568 27.3152 22.7428 27.4997 22.9711 27.5676C23.1994 27.6355 23.4467 27.5764 23.6196 27.4127C23.9445 27.105 24.2674 26.7949 24.5884 26.482C24.8517 26.2248 24.8569 25.803 24.6 25.5394C24.343 25.2759 23.9211 25.2703 23.6573 25.5269Z" fill="url(#paint6_linear-grd)"/>
  <path d="M27.0883 22.5092C26.8568 22.4537 26.6131 22.526 26.4492 22.6988C26.1458 23.0185 25.8398 23.3367 25.5312 23.6536C25.2743 23.9175 25.2799 24.3397 25.5439 24.5966C25.8079 24.8535 26.2301 24.8479 26.487 24.5839C26.7996 24.2626 27.1095 23.94 27.4168 23.6161C27.5807 23.4433 27.64 23.1962 27.5722 22.9678C27.5044 22.7396 27.32 22.5648 27.0883 22.5092Z" fill="url(#paint7_linear-grd)"/>
  <path d="M13.513 15.416C13.2005 15.7373 12.8905 16.0599 12.5832 16.3838C12.3998 16.5771 12.3491 16.8611 12.4543 17.1058C12.5596 17.3507 12.8005 17.5093 13.067 17.5091C13.2501 17.5094 13.4251 17.4342 13.5508 17.3011C13.8542 16.9815 14.1603 16.6633 14.4689 16.3464C14.7259 16.0825 14.7202 15.6602 14.4562 15.4034C14.1922 15.1464 13.77 15.1521 13.513 15.416Z" fill="url(#paint8_linear-grd)"/>
  <path d="M9.07149 21.3166C8.7874 21.0824 8.3672 21.1227 8.13288 21.4068C7.84769 21.7525 7.56532 22.0991 7.28576 22.4469C7.12497 22.6467 7.09309 22.921 7.2038 23.1524C7.31452 23.3838 7.54821 23.5311 7.80464 23.5312C8.00693 23.5317 8.19843 23.4401 8.32485 23.2822C8.60089 22.9387 8.87983 22.5964 9.16149 22.2552C9.39597 21.9711 9.35558 21.5509 9.07149 21.3166Z" fill="url(#paint9_linear-grd)"/>
  <path d="M11.7038 18.3066C11.4302 18.0608 11.0091 18.0829 10.7628 18.3561C10.4633 18.6895 10.1666 19.0244 9.87274 19.361C9.70045 19.5578 9.65928 19.8372 9.76741 20.0753C9.87555 20.3135 10.1132 20.4663 10.3747 20.4661C10.5673 20.4664 10.7504 20.3831 10.8767 20.2379C11.1665 19.9062 11.4593 19.576 11.7551 19.2474C12.0004 18.9732 11.9774 18.5524 11.7038 18.3066Z" fill="url(#paint10_linear-grd)"/>
  <path d="M21.8289 9.31748C21.9839 9.31756 22.1341 9.26342 22.2535 9.16451C22.594 8.88295 22.9361 8.60429 23.2796 8.32859C23.5669 8.09812 23.613 7.67836 23.3824 7.3911C23.1519 7.10383 22.7321 7.05774 22.4448 7.28828C22.0958 7.5682 21.7486 7.85125 21.4031 8.13726C21.1863 8.31656 21.1055 8.61257 21.2009 8.87717C21.2963 9.14178 21.5476 9.31779 21.8289 9.31748Z" fill="url(#paint11_linear-grd)"/>
  <path d="M6.24824 24.3021C6.01126 24.2728 5.77671 24.3724 5.63334 24.5634C5.36245 24.9208 5.09469 25.2791 4.8299 25.6382C4.68074 25.8406 4.65816 26.1096 4.77138 26.334C4.88459 26.5584 5.11438 26.7001 5.36581 26.7004C5.57786 26.701 5.77749 26.6003 5.90297 26.4292C6.16472 26.0744 6.42904 25.7207 6.69602 25.3681C6.84095 25.1784 6.87338 24.9256 6.78095 24.7054C6.68836 24.4853 6.48522 24.3315 6.24824 24.3021Z" fill="url(#paint12_linear-grd)"/>
  <path d="M17.323 12.613C17.0699 12.3457 16.6479 12.3342 16.3805 12.5873C16.0555 12.8949 15.7326 13.2051 15.4116 13.518C15.2176 13.7074 15.1576 13.9954 15.2598 14.2466C15.3619 14.4977 15.606 14.662 15.8772 14.6622C16.0511 14.6625 16.2183 14.5946 16.3427 14.4731C16.6591 14.1641 16.9773 13.8583 17.2972 13.5554C17.5646 13.3022 17.5762 12.8803 17.323 12.613Z" fill="url(#paint13_linear-grd)"/>
  <path d="M18.7981 11.9291C18.9625 11.9293 19.1212 11.8685 19.2434 11.7585C19.5729 11.4629 19.9034 11.17 20.2351 10.8799C20.5107 10.6372 20.5382 10.2172 20.2964 9.94076C20.0547 9.66427 19.6348 9.63529 19.3574 9.87607C19.0215 10.1701 18.6866 10.4668 18.3528 10.7664C18.1472 10.9509 18.0767 11.243 18.1756 11.5009C18.2743 11.7588 18.5219 11.9291 18.7981 11.9291Z" fill="url(#paint14_linear-grd)"/>
  <path d="M24.9653 6.83376C25.1106 6.83376 25.252 6.78618 25.3677 6.69837C25.7199 6.43111 26.0733 6.16705 26.4277 5.90603C26.6196 5.7651 26.7217 5.53244 26.6956 5.29581C26.6695 5.05917 26.5191 4.8544 26.3011 4.7587C26.083 4.663 25.8305 4.69089 25.6386 4.83183C25.2778 5.09651 24.9189 5.36448 24.5617 5.63588C24.3334 5.80893 24.2412 6.10853 24.3327 6.38001C24.4241 6.65142 24.6788 6.83415 24.9653 6.83376Z" fill="url(#paint15_linear-grd)"/>
  <path d="M35.9418 7.9275C35.9024 7.83789 35.8434 7.7582 35.7692 7.69437C35.7651 7.69094 35.7599 7.69039 35.7558 7.68711C35.2559 7.0454 34.7174 6.43462 34.1434 5.85814C33.5675 5.28471 32.9576 4.74636 32.3171 4.24597L32.3131 4.23871C32.252 4.16683 32.176 4.10902 32.0906 4.0691C24.1295 -1.97326 12.9294 -1.21092 5.86054 5.85432C-1.20828 12.9196 -1.97507 24.1182 4.06474 32.0807C4.10428 32.1695 4.16303 32.2483 4.23671 32.3116C4.24039 32.3147 4.24507 32.3155 4.24882 32.3186C4.74747 32.9582 5.28439 33.567 5.85672 34.1417C6.43419 34.7167 7.04582 35.2563 7.68822 35.7579L7.69354 35.7677C7.75768 35.8441 7.83824 35.9051 7.92919 35.9461C15.8925 41.9743 27.083 41.2035 34.1446 34.1406C41.206 27.0776 41.9732 15.888 35.9418 7.9275ZM3.84214 29.347C4.01513 29.092 4.18757 28.8369 4.36376 28.5832C4.57237 28.2809 4.49705 27.8667 4.1953 27.6571C3.89355 27.4476 3.47914 27.5217 3.26865 27.8228C3.22529 27.8852 3.18356 27.948 3.14043 28.0104C-0.239977 20.877 1.22431 12.3895 6.79954 6.80087C12.3889 1.21944 20.8832 -0.247805 28.0215 3.13513C27.9555 3.18067 27.889 3.22489 27.823 3.27067C27.6264 3.40606 27.5171 3.63637 27.5367 3.87434C27.5564 4.1123 27.7017 4.3216 27.9179 4.42308C28.1341 4.52457 28.3879 4.50269 28.5836 4.36574C28.839 4.18855 29.0956 4.01496 29.3521 3.84098C29.8189 4.11215 30.2744 4.40441 30.7182 4.71784C26.1342 8.59202 21.5817 12.7744 17.1775 17.1778C12.7747 21.5801 8.59261 26.1318 4.7184 30.7149C4.40509 30.2687 4.1117 29.813 3.84214 29.347ZM5.53918 31.8055C9.44324 27.173 13.6696 22.5705 18.1202 18.1204C22.5711 13.6697 27.1749 9.44396 31.8079 5.5401C32.1191 5.7951 32.4208 6.06439 32.7176 6.34103L6.33997 32.7157C6.06291 32.4182 5.79335 32.1162 5.53918 31.8055ZM7.28233 33.6589L33.6599 7.28422C33.9391 7.58383 34.2106 7.88789 34.4663 8.20093C30.5659 12.8297 26.3398 17.4319 21.8856 21.8857C17.4361 26.3346 12.8337 30.5605 8.19921 34.4654C7.88559 34.2087 7.58126 33.9376 7.28233 33.6589ZM33.2005 33.199C27.611 38.7804 19.1168 40.2477 11.9785 36.8648C12.0445 36.8192 12.1109 36.775 12.1769 36.7292C12.4778 36.5187 12.5516 36.1045 12.3422 35.803C12.1328 35.5014 11.7189 35.4259 11.4165 35.6341C11.1611 35.8113 10.9044 35.9849 10.648 36.1589C10.1837 35.8892 9.73085 35.5987 9.28932 35.2873C13.8742 31.412 18.4263 27.2302 22.8284 22.8283C27.2344 18.4224 31.4163 13.8714 35.2867 9.29225C35.5979 9.73607 35.8898 10.1893 36.1578 10.6529C35.9848 10.9079 35.8124 11.163 35.6363 11.4167C35.4999 11.6123 35.4784 11.8658 35.5799 12.0816C35.6814 12.2974 35.8904 12.4425 36.1281 12.4622C36.3657 12.4819 36.5958 12.3732 36.7315 12.1771C36.7748 12.1147 36.8166 12.0518 36.8597 11.9894C40.24 19.1228 38.7757 27.6104 33.2005 33.199Z" fill="url(#paint16_linear-grd)"/>
  <defs>
  <linearGradient id="paint0_linear-grd" x1="-1.49012e-07" y1="20" x2="40" y2="20" gradientUnits="userSpaceOnUse">
  <stop stop-color="#F87C0A"/>
  <stop offset="1" stop-color="#DC0606"/>
  </linearGradient>
  <linearGradient id="paint1_linear-grd" x1="-1.49012e-07" y1="20" x2="40" y2="20" gradientUnits="userSpaceOnUse">
  <stop stop-color="#F87C0A"/>
  <stop offset="1" stop-color="#DC0606"/>
  </linearGradient>
  <linearGradient id="paint2_linear-grd" x1="-1.49012e-07" y1="20" x2="40" y2="20" gradientUnits="userSpaceOnUse">
  <stop stop-color="#F87C0A"/>
  <stop offset="1" stop-color="#DC0606"/>
  </linearGradient>
  <linearGradient id="paint3_linear-grd" x1="-1.49012e-07" y1="20" x2="40" y2="20" gradientUnits="userSpaceOnUse">
  <stop stop-color="#F87C0A"/>
  <stop offset="1" stop-color="#DC0606"/>
  </linearGradient>
  <linearGradient id="paint4_linear-grd" x1="-1.49012e-07" y1="20" x2="40" y2="20" gradientUnits="userSpaceOnUse">
  <stop stop-color="#F87C0A"/>
  <stop offset="1" stop-color="#DC0606"/>
  </linearGradient>
  <linearGradient id="paint5_linear-grd" x1="-1.49012e-07" y1="20" x2="40" y2="20" gradientUnits="userSpaceOnUse">
  <stop stop-color="#F87C0A"/>
  <stop offset="1" stop-color="#DC0606"/>
  </linearGradient>
  <linearGradient id="paint6_linear-grd" x1="-1.49012e-07" y1="20" x2="40" y2="20" gradientUnits="userSpaceOnUse">
  <stop stop-color="#F87C0A"/>
  <stop offset="1" stop-color="#DC0606"/>
  </linearGradient>
  <linearGradient id="paint7_linear-grd" x1="-1.49012e-07" y1="20" x2="40" y2="20" gradientUnits="userSpaceOnUse">
  <stop stop-color="#F87C0A"/>
  <stop offset="1" stop-color="#DC0606"/>
  </linearGradient>
  <linearGradient id="paint8_linear-grd" x1="-1.49012e-07" y1="20" x2="40" y2="20" gradientUnits="userSpaceOnUse">
  <stop stop-color="#F87C0A"/>
  <stop offset="1" stop-color="#DC0606"/>
  </linearGradient>
  <linearGradient id="paint9_linear-grd" x1="-1.49012e-07" y1="20" x2="40" y2="20" gradientUnits="userSpaceOnUse">
  <stop stop-color="#F87C0A"/>
  <stop offset="1" stop-color="#DC0606"/>
  </linearGradient>
  <linearGradient id="paint10_linear-grd" x1="-1.49012e-07" y1="20" x2="40" y2="20" gradientUnits="userSpaceOnUse">
  <stop stop-color="#F87C0A"/>
  <stop offset="1" stop-color="#DC0606"/>
  </linearGradient>
  <linearGradient id="paint11_linear-grd" x1="-1.49012e-07" y1="20" x2="40" y2="20" gradientUnits="userSpaceOnUse">
  <stop stop-color="#F87C0A"/>
  <stop offset="1" stop-color="#DC0606"/>
  </linearGradient>
  <linearGradient id="paint12_linear-grd" x1="-1.49012e-07" y1="20" x2="40" y2="20" gradientUnits="userSpaceOnUse">
  <stop stop-color="#F87C0A"/>
  <stop offset="1" stop-color="#DC0606"/>
  </linearGradient>
  <linearGradient id="paint13_linear-grd" x1="-1.49012e-07" y1="20" x2="40" y2="20" gradientUnits="userSpaceOnUse">
  <stop stop-color="#F87C0A"/>
  <stop offset="1" stop-color="#DC0606"/>
  </linearGradient>
  <linearGradient id="paint14_linear-grd" x1="-1.49012e-07" y1="20" x2="40" y2="20" gradientUnits="userSpaceOnUse">
  <stop stop-color="#F87C0A"/>
  <stop offset="1" stop-color="#DC0606"/>
  </linearGradient>
  <linearGradient id="paint15_linear-grd" x1="-1.49012e-07" y1="20" x2="40" y2="20" gradientUnits="userSpaceOnUse">
  <stop stop-color="#F87C0A"/>
  <stop offset="1" stop-color="#DC0606"/>
  </linearGradient>
  <linearGradient id="paint16_linear-grd" x1="-1.49012e-07" y1="20" x2="40" y2="20" gradientUnits="userSpaceOnUse">
  <stop stop-color="#F87C0A"/>
  <stop offset="1" stop-color="#DC0606"/>
  </linearGradient>
  </defs>
</svg>  