<svg width="40" height="40" viewBox="0 0 40 40" fill="none" xmlns="http://www.w3.org/2000/svg">
  <path d="M39.9998 20.2152C40.0019 19.62 39.6684 19.1937 39.2033 18.9291C39.1609 18.1755 39.0739 17.4232 38.9441 16.6809C39.0533 16.604 39.1543 16.5115 39.2399 16.3998C39.476 16.0917 39.5486 15.7028 39.4446 15.3046C39.4419 15.2942 39.4389 15.2838 39.4359 15.2736C38.5687 11.7067 36.7393 8.45051 34.1436 5.8547C31.5386 3.2496 28.2686 1.41646 24.6871 0.55317C24.5719 0.523795 24.4566 0.508873 24.3442 0.508873C23.8846 0.508873 23.5459 0.726453 23.317 1.05544C22.5745 0.925673 21.8221 0.83872 21.0689 0.796375C20.7986 0.322699 20.3607 -0.0160535 19.7474 0.000587245C17.1524 0.0333219 14.624 0.560983 12.2325 1.56888C9.83885 2.57772 7.69385 4.02047 5.85721 5.8572C4.02058 7.69386 2.57776 9.83872 1.56901 12.2324C0.561125 14.6238 0.033391 17.1522 0.000578497 19.7471C-0.0159059 20.362 0.321594 20.8006 0.796515 21.0708C0.838546 21.8234 0.925578 22.5759 1.05558 23.3193C0.946515 23.3962 0.845578 23.4886 0.760031 23.6003C0.524015 23.9084 0.451203 24.2973 0.555266 24.6955C0.559719 24.7125 0.564719 24.7292 0.570187 24.7457C1.43909 28.3039 3.26636 31.5522 5.85714 34.143C8.44784 36.7337 11.6958 38.5609 15.254 39.4298C15.2706 39.4354 15.2874 39.4404 15.3044 39.4448C15.4224 39.4756 15.5404 39.4912 15.6555 39.4912C15.6556 39.4912 15.6556 39.4912 15.6556 39.4912C16.1151 39.4912 16.4538 39.2737 16.6828 38.9448C17.426 39.0748 18.1785 39.1617 18.9313 39.2037C19.1956 39.6662 19.6202 39.9998 20.2124 40C20.2126 40 20.2127 40 20.2129 40C20.2291 40 20.2452 39.9998 20.2617 39.9992C20.2784 39.9987 20.2949 39.9976 20.3114 39.996C22.8859 39.9562 25.3944 39.4289 27.7681 38.4284C30.1616 37.4196 32.3066 35.9768 34.1434 34.1402C35.98 32.3035 37.4228 30.1586 38.4315 27.765C39.4402 25.3714 39.9679 22.8409 39.9998 20.2436C40.0001 20.2341 40.0001 20.2248 39.9998 20.2152ZM18.619 37.6168C18.0986 37.5759 17.5792 37.512 17.0644 37.4254C17.3511 32.1091 19.5757 27.117 23.3464 23.3464C27.1167 19.5758 32.1089 17.3511 37.4249 17.0644C37.5115 17.5787 37.5754 18.0981 37.6162 18.619C32.6428 18.8604 27.9794 20.9226 24.4511 24.4513C20.9224 27.98 18.8603 32.6435 18.619 37.6168ZM2.5748 22.9356C2.48831 22.4207 2.42433 21.9013 2.38347 21.381C7.35674 21.1398 12.0203 19.0775 15.5491 15.5487C19.0777 12.02 21.14 7.35659 21.3812 2.38334C21.902 2.42436 22.4213 2.48834 22.9359 2.57491C22.6491 7.89105 20.4245 12.8831 16.6538 16.6535C12.8831 20.4244 7.89073 22.649 2.5748 22.9356ZM6.96213 6.96205C10.3699 3.55406 14.8956 1.63841 19.7123 1.5638C19.7379 1.61084 19.7638 1.68287 19.7854 1.76271C19.7859 1.76443 19.7863 1.76615 19.7869 1.76779C19.8088 1.85029 19.826 1.94084 19.8331 2.02107C19.6776 6.71268 17.7646 11.1233 14.4441 14.4438C11.1228 17.765 6.71198 19.6781 2.0194 19.8332C1.94815 19.8271 1.86144 19.8112 1.77972 19.7901C1.7698 19.7872 1.75972 19.7844 1.74964 19.7819C1.67636 19.7615 1.60894 19.7374 1.56394 19.7126C1.63855 14.896 3.55425 10.3699 6.96213 6.96205ZM6.96213 33.0381C4.61401 30.69 2.94636 27.7561 2.12948 24.5409C2.21315 24.5236 2.30995 24.5114 2.3894 24.5099C2.39878 24.5098 2.40808 24.5096 2.41745 24.5092C3.10151 24.4794 3.78058 24.4186 4.45347 24.3298C4.98401 26.2403 5.85135 28.0161 7.03901 29.6169C7.19229 29.8235 7.42807 29.9326 7.66706 29.9326C7.82877 29.9326 7.99206 29.8826 8.1319 29.7787C8.47846 29.5217 8.55088 29.0323 8.29377 28.6858C7.25432 27.2848 6.48635 25.7355 6.0037 24.0709C10.4331 23.1762 14.5168 21.0002 17.7585 17.7586C21.8595 13.6577 24.257 8.20949 24.5091 2.41741C24.5095 2.40795 24.5096 2.40256 24.5098 2.39319C24.5113 2.31069 24.5238 2.21162 24.5413 2.12678C27.7568 2.94374 30.6905 4.61149 33.0384 6.95955C35.3869 9.30793 37.0548 12.2426 37.8716 15.4589C37.7877 15.4763 37.6903 15.4887 37.6103 15.4902C37.601 15.4903 37.5916 15.4905 37.5823 15.4909C36.8982 15.5206 36.2191 15.5814 35.5463 15.6703C35.0159 13.7599 34.1485 11.9841 32.9607 10.3831C32.7035 10.0366 32.2143 9.96419 31.8677 10.2212C31.5212 10.4783 31.4488 10.9677 31.7059 11.3143C32.7455 12.7154 33.5134 14.2647 33.996 15.9292C29.5665 16.8238 25.4827 18.9997 22.2413 22.2415C18.1404 26.3423 15.7429 31.7906 15.4907 37.5826C15.4904 37.592 15.4902 37.5974 15.4901 37.6069C15.4885 37.6885 15.4762 37.7864 15.459 37.8705C12.2437 37.0537 9.31018 35.3861 6.96213 33.0381ZM33.0386 33.0353C29.6301 36.4436 25.1034 38.3594 20.2863 38.4337C20.2611 38.3866 20.2358 38.3158 20.2147 38.2374C20.2141 38.2354 20.2135 38.2333 20.213 38.2312C20.1912 38.149 20.1742 38.059 20.167 37.979C20.3226 33.2873 22.2356 28.8768 25.5562 25.5562C28.8762 22.2358 33.2863 20.3229 37.978 20.1669C38.1409 20.1818 38.3409 20.2356 38.4366 20.288C38.3612 25.1033 36.4455 29.6283 33.0386 33.0353Z" fill="url(#paint220_linear)"/>
  <path d="M9.66416 30.2784C9.35916 29.9734 8.86448 29.9734 8.55917 30.2784C8.25416 30.5835 8.25416 31.0782 8.55917 31.3834L8.59245 31.4166C8.74456 31.5663 8.94245 31.641 9.14041 31.641C9.34245 31.641 9.54432 31.5631 9.69721 31.4078C9.99994 31.1003 9.99596 30.6056 9.68854 30.3029L9.66416 30.2784Z" fill="url(#paint221_linear)"/>
  <path d="M30.3314 9.71731C30.4843 9.87271 30.6862 9.95052 30.8882 9.95052C31.0861 9.95052 31.2841 9.87583 31.4363 9.72606C31.7438 9.4234 31.7477 8.92871 31.445 8.62113L31.4165 8.59246C31.1139 8.28496 30.6192 8.28097 30.3116 8.58355C30.0041 8.88621 30.0001 9.38083 30.3027 9.68849L30.3314 9.71731Z" fill="url(#paint222_linear)"/>
  <defs>
  <linearGradient id="paint220_linear" x1="-1.49012e-07" y1="20" x2="40" y2="20" gradientUnits="userSpaceOnUse">
  <stop stop-color="#F87C0A"/>
  <stop offset="1" stop-color="#DC0606"/>
  </linearGradient>
  <linearGradient id="paint221_linear" x1="-1.49012e-07" y1="20" x2="40" y2="20" gradientUnits="userSpaceOnUse">
  <stop stop-color="#F87C0A"/>
  <stop offset="1" stop-color="#DC0606"/>
  </linearGradient>
  <linearGradient id="paint222_linear" x1="-1.49012e-07" y1="20" x2="40" y2="20" gradientUnits="userSpaceOnUse">
  <stop stop-color="#F87C0A"/>
  <stop offset="1" stop-color="#DC0606"/>
  </linearGradient>
  </defs>
</svg>