<svg width="46" height="30" viewBox="0 0 46 30" fill="none" xmlns="http://www.w3.org/2000/svg">
  <path d="M43.5293 12.4075H38.5879C37.2256 12.4075 36.1172 13.4872 36.1172 14.8144V15.3932L34.7695 14.8913V5.75475C34.7695 4.91023 34.0642 4.22307 33.1973 4.22307H25.9639V2.88744C25.9715 1.30946 24.6077 0 23 0C21.3657 0 20.0361 1.29528 20.0361 2.88744V4.22307H12.8027C11.9358 4.22307 11.2305 4.91023 11.2305 5.75475V14.8913L9.88281 15.3932V14.8144C9.88281 13.4872 8.77441 12.4075 7.41211 12.4075H2.4707C1.1084 12.4075 0 13.4872 0 14.8144V27.5931C0 28.9203 1.1084 30 2.4707 30H7.41211C8.77441 30 9.88281 28.9203 9.88281 27.5931V27.2443L14.382 28.4558C14.6752 28.5349 14.9772 28.5751 15.2797 28.5751H30.7203C31.0228 28.5751 31.3248 28.535 31.6176 28.456L36.1172 27.2444V27.5931C36.1172 28.9203 37.2256 30 38.5879 30H43.5293C44.8916 30 46 28.9203 46 27.5931V14.8144C46 13.4872 44.8916 12.4075 43.5293 12.4075ZM36.1172 16.7988V18.019L31.6361 16.3499C31.3545 16.2452 31.0577 16.1921 30.7544 16.1921H27.87C28.0274 15.726 28.2055 15.288 28.3961 14.8792H30.7544C30.893 14.8792 31.0281 14.9033 31.1553 14.9505L36.1172 16.7988ZM25.9425 21.6614C26.0284 22.4692 25.7663 23.2483 25.2044 23.8552C24.6424 24.4623 23.839 24.8106 23 24.8106C22.161 24.8106 21.3576 24.4623 20.7956 23.8552C20.2337 23.2482 19.9716 22.4692 20.0575 21.6614C20.1812 20.4981 20.1573 19.324 19.9866 18.1714C19.6089 15.6218 18.4928 13.2868 17.0787 11.4874H28.9213C27.4484 13.3631 26.4118 15.4817 26.0134 18.1714C25.8427 19.324 25.8188 20.4981 25.9425 21.6614ZM27.3472 18.3589C27.3906 18.0663 27.4439 17.7819 27.5049 17.505H30.7544C30.893 17.505 31.0281 17.529 31.1553 17.5763L36.1172 19.4246V20.1873L29.891 21.6603C29.7374 21.697 29.5776 21.7157 29.4157 21.7157H27.2979C27.2192 20.5751 27.1793 19.4919 27.3472 18.3589ZM33.1973 5.53594C33.3212 5.53594 33.4219 5.63415 33.4219 5.75475V7.54901H30.3016C29.9294 7.54901 29.6278 7.84292 29.6278 8.20545C29.6278 8.56798 29.9294 8.86189 30.3016 8.86189H33.4219V14.3893L31.6361 13.7241C31.3545 13.6194 31.0577 13.5663 30.7544 13.5663H29.1016C29.424 13.0394 29.7524 12.5841 30.0554 12.2047C30.3613 11.8217 30.4155 11.3134 30.197 10.8781C29.9791 10.4441 29.5354 10.1744 29.039 10.1744H27.8363V8.41761C27.8363 7.33221 27.4557 6.33303 26.82 5.53586L33.1973 5.53594ZM21.3837 2.88744C21.3837 2.01928 22.1087 1.31287 23 1.31287C23.8762 1.31287 24.6211 2.03005 24.6163 2.88744V3.97783C24.1106 3.8026 23.5666 3.70624 23 3.70624C22.4334 3.70624 21.8894 3.80251 21.3837 3.97783V2.88744ZM23 5.01911C24.4383 5.01911 25.6759 5.8716 26.209 7.08504C25.2216 7.24574 24.22 7.33388 23.2216 7.3449C22.0753 7.35768 20.9246 7.26911 19.7912 7.08469C20.3244 5.87151 21.5618 5.01911 23 5.01911ZM19.5114 8.4177C19.5114 8.40185 19.5124 8.38628 19.5126 8.37043C20.7425 8.57393 21.991 8.67143 23.2369 8.65769C24.3235 8.6457 25.4136 8.54828 26.4875 8.37052C26.4876 8.38628 26.4887 8.40185 26.4887 8.4177V10.1745H19.5115V8.4177H19.5114ZM12.5781 5.75475C12.5781 5.63415 12.6788 5.53594 12.8027 5.53594H19.18C18.7182 6.11509 18.3913 6.80068 18.2473 7.54901H12.5781V5.75475ZM12.5781 8.86189H18.1637V10.1746H16.961C16.4647 10.1746 16.0209 10.4442 15.803 10.8783C15.5845 11.3135 15.6387 11.8219 15.9447 12.205C16.2477 12.5843 16.5761 13.0396 16.8984 13.5664H15.2456C14.9422 13.5664 14.6454 13.6195 14.3634 13.7244L12.5781 14.3893V8.86189ZM9.88281 16.7988L14.8443 14.9507C14.972 14.9033 15.107 14.8792 15.2457 14.8792H17.604C17.7946 15.288 17.9727 15.726 18.1302 16.1921H15.2456C14.9422 16.1921 14.6454 16.2451 14.3634 16.3501L9.88281 18.019V16.7988ZM8.53516 27.5931C8.53516 28.1964 8.0314 28.6871 7.41211 28.6871H2.4707C1.85141 28.6871 1.34766 28.1964 1.34766 27.5931V14.8144C1.34766 14.2111 1.85141 13.7204 2.4707 13.7204H7.41211C8.0314 13.7204 8.53516 14.2111 8.53516 14.8144V19.8686L6.43281 19.3712C5.45675 19.1333 4.48347 19.885 4.48949 20.8598V24.6269C4.48949 25.3139 4.96396 25.9208 5.64237 26.1024L8.53516 26.8814V27.5931ZM31.2582 27.1906C31.0822 27.2381 30.9011 27.2622 30.7203 27.2622H15.2797C15.0988 27.2622 14.9178 27.2382 14.7414 27.1905L6.00039 24.8367C5.90426 24.811 5.83715 24.7247 5.83715 24.6269V20.8598C5.84434 20.7015 5.95466 20.6155 6.11486 20.6469L10.9033 21.7798C11.2648 21.8654 11.6291 21.6491 11.7171 21.2968C11.8049 20.9445 11.5829 20.5895 11.2212 20.504L9.88281 20.1873V19.4246L14.8443 17.5765C14.972 17.529 15.107 17.505 15.2457 17.505H18.4951C18.5561 17.7819 18.6095 18.0663 18.6529 18.3589C18.8188 19.4784 18.7803 20.5854 18.7022 21.7158H16.5843C16.4224 21.7158 16.2626 21.6971 16.1071 21.6599L14.278 21.2272C13.9163 21.1415 13.5519 21.3579 13.4642 21.7102C13.3763 22.0625 13.5983 22.4175 13.96 22.503L15.7873 22.9353C16.0461 22.9972 16.3142 23.0287 16.5843 23.0287H18.8417C19.0152 23.6554 19.3388 24.2419 19.7947 24.7344C20.6119 25.6171 21.7801 26.1234 23 26.1234C24.2199 26.1234 25.3881 25.6172 26.2053 24.7344C26.6612 24.2419 26.9848 23.6553 27.1583 23.0287H29.4157C29.6858 23.0287 29.9539 22.9972 30.2109 22.9357L39.8852 20.6469C40.0494 20.6164 40.1554 20.7009 40.1629 20.8598V24.6269C40.1629 24.7247 40.0958 24.811 39.9987 24.837L31.2582 27.1906ZM44.6523 27.5931C44.6523 28.1964 44.1486 28.6871 43.5293 28.6871H38.5879C37.9686 28.6871 37.4648 28.1964 37.4648 27.5931V26.8814L40.3567 26.1027C41.0361 25.9208 41.5106 25.3139 41.5106 24.6269V20.8598C41.5171 19.882 40.5348 19.1354 39.5673 19.3712L37.4649 19.8686V14.8144C37.4649 14.2111 37.9687 13.7204 38.588 13.7204H43.5294C44.1487 13.7204 44.6524 14.2111 44.6524 14.8144V27.5931H44.6523ZM23.0841 14.2624H21.6667C21.2945 14.2624 20.9929 14.5563 20.9929 14.9189C20.9929 15.2814 21.2945 15.5753 21.6667 15.5753H22.4103V21.3791C22.4103 21.7416 22.7119 22.0355 23.0841 22.0355C23.4563 22.0355 23.7579 21.7416 23.7579 21.3791V14.9189C23.7579 14.5563 23.4562 14.2624 23.0841 14.2624Z" fill="url(#paint101_linear)"/>
  <defs>
  <linearGradient id="paint101_linear" x1="-1.71363e-07" y1="15" x2="46" y2="15" gradientUnits="userSpaceOnUse">
  <stop stop-color="#F87C0A"/>
  <stop offset="1" stop-color="#DC0606"/>
  </linearGradient>
  </defs>
</svg>   