<svg width="40" height="40" viewBox="0 0 40 40" fill="none" xmlns="http://www.w3.org/2000/svg">
  <path d="M12.4746 1.46359C9.99351 2.46953 7.7672 3.9486 5.85815 5.85712C3.94854 7.7662 2.47116 9.99309 1.46468 12.4737C0.493015 14.8702 0 17.4028 0 20.0006C0 22.5978 0.493015 25.1303 1.46468 27.5258C2.47116 30.0069 3.9491 32.2338 5.85815 34.1423C7.7672 36.052 9.99295 37.5299 12.4746 38.5359C14.8711 39.5086 17.4031 40 20.0008 40C22.5986 40 25.13 39.507 27.5265 38.5359C30.007 37.5299 32.2345 36.052 34.143 34.1423C36.0526 32.2338 37.5305 30.008 38.5364 27.5258C39.5081 25.1303 40 22.5978 40 20.0006C40 17.4028 39.5075 14.8702 38.5364 12.4737C37.5305 9.99309 36.0515 7.76565 34.143 5.85712C32.2345 3.9486 30.0093 2.46953 27.5265 1.46359C25.13 0.492469 22.5986 0 20.0008 0C17.4031 0 14.8711 0.492469 12.4746 1.46359ZM4.99869 28.4201C4.03532 27.8154 3.14767 27.119 2.36172 26.2987C1.16124 22.9205 0.957842 19.2632 1.75319 15.7916C2.12737 15.0538 2.55296 14.3452 3.03436 13.6664C3.18304 13.457 3.32067 13.2386 3.47985 13.0352L7.99326 15.706C7.99326 15.7413 7.99326 15.78 7.99326 15.8193C7.98165 18.2468 8.22816 20.6566 8.71896 23.0316C8.72062 23.0427 8.72228 23.0488 8.72449 23.0587L5.22419 28.5472C5.14792 28.5085 5.0722 28.4665 4.99869 28.4201ZM18.4184 37.6985C19.1972 38.0959 19.9981 38.4314 20.821 38.7044C17.3252 38.8564 13.7945 38.0373 10.6733 36.2465L18.2393 37.5946C18.2974 37.6316 18.3565 37.667 18.4184 37.6985ZM18.3908 36.3327L9.46235 34.7415C8.41774 33.473 7.47813 32.131 6.67063 30.6967C6.46502 30.3319 6.23565 29.9776 6.06154 29.5968L9.55853 24.1139C9.6359 24.1332 9.72213 24.1537 9.81995 24.1796C12.0076 24.765 14.2339 25.1812 16.4757 25.5073C16.6067 25.5255 16.7161 25.5415 16.8095 25.5515L21.0012 32.7992C20.2739 33.8217 19.5382 34.8387 18.7865 35.8447C18.6616 36.0122 18.529 36.173 18.3908 36.3327ZM33.2454 33.2453C32.5346 33.9566 31.7801 34.5978 30.9903 35.1693C30.8593 34.1224 30.6333 33.0966 30.3144 32.0945L34.7869 23.7507C36.0188 23.1897 37.2072 22.5535 38.3104 21.7648C38.4546 21.6626 38.5746 21.5482 38.6674 21.4232C38.3435 25.735 36.5362 29.955 33.2454 33.2453ZM33.0469 22.4242C33.2133 22.7415 33.3775 23.062 33.5422 23.387L29.2222 31.4456C29.1973 31.4512 29.1736 31.4567 29.1487 31.46C26.8135 31.8961 24.4595 32.1282 22.0856 32.1393L17.7745 24.6848C18.4455 23.439 19.1104 22.1882 19.7698 20.9369C20.2175 20.0879 20.6574 19.2334 21.0968 18.3794L30.0192 17.463C31.1119 19.0659 32.1471 20.7031 33.0469 22.4242ZM31.2368 12.8656C30.8134 13.9837 30.3602 15.0902 29.9098 16.199L21.2179 17.0916C21.114 16.9545 21.0062 16.8197 20.8929 16.6909C19.8665 15.5285 18.8335 14.3734 17.8022 13.2149C17.8116 13.2033 17.8209 13.1944 17.8303 13.1839C17.4142 12.7683 16.9969 12.3526 16.5807 11.9359L19.0004 4.65055C19.1673 4.60633 19.3354 4.5693 19.5051 4.55106C20.8205 4.4173 22.1376 4.26586 23.4564 4.18958C24.2639 4.14426 25.0758 4.11828 25.8971 4.17632L31.884 10.9244C31.6779 11.5755 31.4767 12.2283 31.2368 12.8656ZM33.2454 6.75473C34.8969 8.40735 36.1758 10.2932 37.08 12.3079C35.9614 11.5379 34.7653 10.9045 33.5079 10.3883C33.3122 10.3076 33.1116 10.2363 32.9077 10.1661L27.0147 3.52411C27.0556 3.23725 27.0771 2.94984 27.086 2.66022C29.3278 3.57275 31.4292 4.93906 33.2454 6.75473ZM14.0023 2.31146C14.0255 2.32859 14.0366 2.34296 14.0498 2.34683C15.3968 2.81221 16.6221 3.49758 17.7773 4.31063L15.5167 11.1184C15.5051 11.1217 15.4941 11.1251 15.483 11.13C15.0204 11.3213 14.5489 11.4926 14.0935 11.6999C12.217 12.5527 10.3876 13.4973 8.66424 14.6298L4.20334 11.9906C4.20997 11.8513 4.23374 11.7098 4.28127 11.5838C4.58084 10.7857 4.87543 9.98314 5.21424 9.20105C5.47512 8.59859 5.77248 8.01658 6.09692 7.44784C6.30916 7.21349 6.52913 6.98135 6.75574 6.75473C8.87427 4.63673 11.378 3.13279 14.0437 2.24347C14.0299 2.26503 14.0156 2.28769 14.0023 2.31146Z" fill="url(#paint011_linear)"/>
  <defs>
  <linearGradient id="paint011_linear" x1="-1.49012e-07" y1="20" x2="40" y2="20" gradientUnits="userSpaceOnUse">
  <stop stop-color="#F87C0A"/>
  <stop offset="1" stop-color="#DC0606"/>
  </linearGradient>
  </defs>
</svg>