<svg width="40" height="40" viewBox="0 0 40 40" fill="none" xmlns="http://www.w3.org/2000/svg">
  <path d="M20 0C8.97203 0 0 8.97203 0 20C0 31.028 8.97203 40 20 40C31.028 40 40 31.028 40 20C40 8.97203 31.028 0 20 0ZM20 38.6666C9.70734 38.6666 1.33336 30.2927 1.33336 20C1.33336 9.70734 9.70734 1.33336 20 1.33336C30.2927 1.33336 38.6666 9.70734 38.6666 20C38.6666 30.2927 30.2927 38.6666 20 38.6666Z" fill="url(#paint1230_linear)"/>
  <path d="M38.5373 26.012C35.4734 24.0954 33.3334 18.3334 33.3334 12C33.3334 9.96203 33.5434 7.98602 33.958 6.12734C34.038 5.76805 33.8114 5.41133 33.452 5.33133C33.0913 5.25266 32.736 5.47797 32.656 5.83734C32.2207 7.79133 32 9.86469 32 12C32 18.876 34.3434 24.9613 37.8307 27.142C37.9407 27.2107 38.0627 27.2434 38.1834 27.2434C38.4054 27.2434 38.6227 27.1327 38.7494 26.9307C38.944 26.6187 38.8493 26.2066 38.5373 26.012Z" fill="url(#paint1231_linear)"/>
  <path d="M15.0347 0.765312C14.898 0.711328 14.748 0.701953 14.606 0.741953C6.00664 3.14602 0 11.0653 0 20C0 31.028 8.97203 40 20 40C23.2893 40 26.5534 39.182 29.4393 37.634C29.6146 37.54 29.7386 37.372 29.778 37.1773L29.992 36.1047L30.0059 36.0173C30.3306 33.9773 30.6666 31.8687 30.6666 29.6666C30.6666 16.1427 24.3847 4.52797 15.0347 0.765312ZM28.6894 35.8073L28.5327 36.6047C25.9087 37.9547 22.9654 38.6667 20.0001 38.6667C9.70735 38.6666 1.33336 30.2927 1.33336 20C1.33336 11.7366 6.83734 4.40398 14.7467 2.08797C23.4807 5.74 29.3334 16.784 29.3334 29.6666C29.3334 31.7634 29.006 33.8194 28.6894 35.8073Z" fill="url(#paint1232_linear)"/>
  <path d="M15.548 34.7027C14.294 34.2747 13.0346 33.6447 11.6966 32.7747C11.3873 32.574 10.9746 32.6613 10.774 32.97C10.5734 33.2787 10.6606 33.6913 10.9693 33.892C12.4013 34.8227 13.758 35.5007 15.118 35.9641C15.1893 35.988 15.262 36.0001 15.3333 36.0001C15.6106 36.0001 15.8699 35.8254 15.964 35.5494C16.0827 35.2007 15.8966 34.8213 15.548 34.7027Z" fill="url(#paint1233_linear)"/>
  <path d="M8.52 30.2494C8.36398 30.0554 8.19336 29.8514 8.01664 29.6414C7.49797 29.0234 6.9093 28.3234 6.59531 27.6994C6.4293 27.3707 6.02867 27.2373 5.7 27.4041C5.37133 27.5701 5.23867 27.9707 5.40469 28.2994C5.78867 29.062 6.43 29.8254 6.99602 30.4994C7.16602 30.7014 7.3307 30.8973 7.48 31.0834C7.61203 31.248 7.80531 31.3334 8.0007 31.3334C8.14672 31.3334 8.29406 31.2854 8.41734 31.1867C8.70469 30.956 8.7507 30.5366 8.52 30.2494Z" fill="url(#paint1234_linear)"/>
  <path d="M38.6666 14.276C19.15 14.1207 7.6393 20.662 1.41664 26.2C1.14195 26.4447 1.11734 26.866 1.36195 27.1413C1.49328 27.2893 1.67664 27.3647 1.85992 27.3647C2.01727 27.3647 2.17594 27.3087 2.30258 27.196C8.34992 21.814 19.5746 15.4513 38.6539 15.6094C38.6566 15.6094 38.6586 15.6094 38.6605 15.6094C39.0259 15.6094 39.3239 15.3147 39.3272 14.9487C39.3307 14.5807 39.0347 14.2794 38.6666 14.276Z" fill="url(#paint1235_linear)"/>
  <path d="M6.06734 6.66664C5.86398 6.66664 5.66203 6.65797 5.46 6.64797C5.09 6.64133 4.78 6.91461 4.76266 7.28266C4.74469 7.65 5.02867 7.96266 5.39664 7.98C5.6193 7.9907 5.84266 8 6.06734 8C14.89 8 22.0673 16.5234 22.0673 27C22.0673 31.6653 20.9347 35.7947 18.792 38.9413C18.5847 39.246 18.6634 39.6606 18.968 39.868C19.0827 39.9459 19.2134 39.9833 19.3427 39.9833C19.5561 39.9833 19.7654 39.8813 19.8948 39.692C22.1881 36.3227 23.4008 31.934 23.4008 26.9999C23.4007 15.788 15.6247 6.66664 6.06734 6.66664Z" fill="url(#paint1236_linear)"/>
  <defs>
  <linearGradient id="paint1230_linear" x1="-1.49012e-07" y1="20" x2="40" y2="20" gradientUnits="userSpaceOnUse">
  <stop stop-color="#F87C0A"/>
  <stop offset="1" stop-color="#DC0606"/>
  </linearGradient>
  <linearGradient id="paint1231_linear" x1="-1.49012e-07" y1="20" x2="40" y2="20" gradientUnits="userSpaceOnUse">
  <stop stop-color="#F87C0A"/>
  <stop offset="1" stop-color="#DC0606"/>
  </linearGradient>
  <linearGradient id="paint1232_linear" x1="-1.49012e-07" y1="20" x2="40" y2="20" gradientUnits="userSpaceOnUse">
  <stop stop-color="#F87C0A"/>
  <stop offset="1" stop-color="#DC0606"/>
  </linearGradient>
  <linearGradient id="paint1233_linear" x1="-1.49012e-07" y1="20" x2="40" y2="20" gradientUnits="userSpaceOnUse">
  <stop stop-color="#F87C0A"/>
  <stop offset="1" stop-color="#DC0606"/>
  </linearGradient>
  <linearGradient id="paint1234_linear" x1="-1.49012e-07" y1="20" x2="40" y2="20" gradientUnits="userSpaceOnUse">
  <stop stop-color="#F87C0A"/>
  <stop offset="1" stop-color="#DC0606"/>
  </linearGradient>
  <linearGradient id="paint1235_linear" x1="-1.49012e-07" y1="20" x2="40" y2="20" gradientUnits="userSpaceOnUse">
  <stop stop-color="#F87C0A"/>
  <stop offset="1" stop-color="#DC0606"/>
  </linearGradient>
  <linearGradient id="paint1236_linear" x1="-1.49012e-07" y1="20" x2="40" y2="20" gradientUnits="userSpaceOnUse">
  <stop stop-color="#F87C0A"/>
  <stop offset="1" stop-color="#DC0606"/>
  </linearGradient>
  </defs>
</svg> 