<svg width="25" height="25" viewBox="0 0 25 25" fill="none" xmlns="http://www.w3.org/2000/svg">
<g id="shopping-cart-simple-fill 1" clip-path="url(#clip0_2105_93646)">
<path id="Vector" d="M9.5 20.75C9.5 21.0467 9.41203 21.3367 9.2472 21.5834C9.08238 21.83 8.84811 22.0223 8.57402 22.1358C8.29994 22.2494 7.99834 22.2791 7.70736 22.2212C7.41639 22.1633 7.14912 22.0204 6.93934 21.8107C6.72956 21.6009 6.5867 21.3336 6.52882 21.0426C6.47094 20.7517 6.50065 20.4501 6.61418 20.176C6.72771 19.9019 6.91997 19.6676 7.16664 19.5028C7.41332 19.338 7.70333 19.25 8 19.25C8.39782 19.25 8.77936 19.408 9.06066 19.6893C9.34196 19.9706 9.5 20.3522 9.5 20.75ZM17.75 19.25C17.4533 19.25 17.1633 19.338 16.9166 19.5028C16.67 19.6676 16.4777 19.9019 16.3642 20.176C16.2506 20.4501 16.2209 20.7517 16.2788 21.0426C16.3367 21.3336 16.4796 21.6009 16.6893 21.8107C16.8991 22.0204 17.1664 22.1633 17.4574 22.2212C17.7483 22.2791 18.0499 22.2494 18.324 22.1358C18.5981 22.0223 18.8324 21.83 18.9972 21.5834C19.162 21.3367 19.25 21.0467 19.25 20.75C19.25 20.3522 19.092 19.9706 18.8107 19.6893C18.5294 19.408 18.1478 19.25 17.75 19.25ZM22.1037 6.80469C22.034 6.71017 21.943 6.63335 21.8382 6.58043C21.7333 6.52751 21.6175 6.49996 21.5 6.5H5.03L4.26969 3.8375C4.17895 3.5247 3.98934 3.24969 3.72925 3.05365C3.46916 2.85761 3.15257 2.75108 2.82687 2.75H1.25C1.05109 2.75 0.860322 2.82902 0.71967 2.96967C0.579018 3.11032 0.5 3.30109 0.5 3.5C0.5 3.69891 0.579018 3.88968 0.71967 4.03033C0.860322 4.17098 1.05109 4.25 1.25 4.25H2.82687L6.21875 16.1178C6.35449 16.587 6.63858 16.9997 7.02848 17.2939C7.41837 17.5882 7.8931 17.7482 8.38156 17.75H17.3919C17.8734 17.7517 18.3427 17.5981 18.7301 17.312C19.1175 17.0259 19.4024 16.6226 19.5425 16.1619L22.2172 7.47031C22.2516 7.35822 22.2593 7.23961 22.2396 7.12401C22.2199 7.00841 22.1734 6.89904 22.1037 6.80469Z" fill="#01231F"/>
</g>
<defs>
<clipPath id="clip0_2105_93646">
<rect width="24" height="24" fill="white" transform="translate(0.5 0.5)"/>
</clipPath>
</defs>
</svg>
