<svg xmlns="http://www.w3.org/2000/svg" viewBox="0 0 106.01 104"><defs><style>.cls-1,.cls-2,.cls-3{fill:none;stroke-miterlimit:10;stroke-width:4px;}.cls-1{stroke:#f9bd3a;}.cls-2{stroke:#fc6a42;}.cls-3{stroke:#231f20;}.cls-4{fill:#231f20;}.cls-5{fill:#31dbce;}</style></defs><title>12Clock</title><g id="Слой_2" data-name="Слой 2"><g id="Illustrations"><path class="cls-1" d="M65.23,37A19.9,19.9,0,0,1,61,69.72"/><path class="cls-1" d="M72.84,36.45A25.9,25.9,0,0,1,78,52,26.78,26.78,0,0,1,61.7,76.24"/><path class="cls-2" d="M34.17,37.41a23,23,0,0,1,34-1.8"/><path class="cls-2" d="M22,48A30.3,30.3,0,0,1,68.87,26.84"/><line class="cls-3" x1="52" y1="8.88" x2="52" y2="16.42"/><line class="cls-3" x1="52" y1="87.58" x2="52" y2="95.12"/><line class="cls-3" x1="95.12" y1="52" x2="87.58" y2="52"/><line class="cls-3" x1="16.42" y1="52" x2="8.88" y2="52"/><line class="cls-3" x1="21.51" y1="21.51" x2="26.84" y2="26.84"/><line class="cls-3" x1="77.16" y1="77.16" x2="82.49" y2="82.49"/><path class="cls-4" d="M99.12,42.86A48,48,0,1,1,67.17,6.47l6.54-1.7a52,52,0,1,0,27.44,30.28Z"/><line class="cls-3" x1="82.49" y1="21.51" x2="77.16" y2="26.84"/><line class="cls-3" x1="26.84" y1="77.16" x2="21.51" y2="82.49"/><polygon class="cls-5" points="52 52 57.55 63.09 87.67 32.98 73.53 18.84 66.21 26.15 52 52"/><polyline class="cls-3" points="69.69 19.82 52 52 61.78 71.55"/><polygon class="cls-5" points="106.01 0.49 65.68 10.99 95.51 40.83 106.01 0.49"/></g></g></svg>