<svg width="26" height="26" viewBox="0 0 26 26" fill="none" xmlns="http://www.w3.org/2000/svg">
<path d="M13 0C10.4288 0 7.91543 0.762436 5.77759 2.19089C3.63975 3.61935 1.97351 5.64967 0.989572 8.02511C0.00563275 10.4006 -0.251811 13.0144 0.249797 15.5362C0.751405 18.0579 1.98953 20.3743 3.80762 22.1924C5.6257 24.0105 7.94208 25.2486 10.4638 25.7502C12.9856 26.2518 15.5994 25.9944 17.9749 25.0104C20.3503 24.0265 22.3806 22.3602 23.8091 20.2224C25.2376 18.0846 26 15.5712 26 13C25.9961 9.55337 24.6252 6.24902 22.1881 3.81189C19.751 1.37475 16.4466 0.00387093 13 0ZM13 23.8333C10.8574 23.8333 8.76286 23.198 6.98133 22.0076C5.19979 20.8172 3.81126 19.1253 2.99131 17.1457C2.17136 15.1662 1.95683 12.988 2.37483 10.8865C2.79284 8.78506 3.82461 6.85474 5.33968 5.33968C6.85475 3.82461 8.78507 2.79283 10.8865 2.37483C12.988 1.95682 15.1662 2.17136 17.1457 2.9913C19.1253 3.81125 20.8172 5.19979 22.0076 6.98132C23.198 8.76285 23.8333 10.8574 23.8333 13C23.8301 15.8722 22.6877 18.6258 20.6567 20.6567C18.6258 22.6877 15.8722 23.8301 13 23.8333Z" fill="url(#paint0_linear)"/>
<path d="M13 3.25C11.0716 3.25 9.18657 3.82183 7.58319 4.89317C5.97981 5.96451 4.73013 7.48725 3.99218 9.26883C3.25422 11.0504 3.06114 13.0108 3.43734 14.9021C3.81355 16.7934 4.74215 18.5307 6.10571 19.8943C7.46927 21.2578 9.20656 22.1864 11.0979 22.5626C12.9892 22.9389 14.9496 22.7458 16.7312 22.0078C18.5127 21.2699 20.0355 20.0202 21.1068 18.4168C22.1782 16.8134 22.75 14.9284 22.75 13C22.7471 10.415 21.7189 7.93676 19.8911 6.10891C18.0632 4.28106 15.585 3.2529 13 3.25ZM13 8.66666C13.2143 8.66666 13.4237 8.7302 13.6019 8.84924C13.78 8.96828 13.9189 9.13747 14.0009 9.33542C14.0829 9.53338 14.1043 9.7512 14.0625 9.96134C14.0207 10.1715 13.9175 10.3645 13.766 10.516C13.6145 10.6675 13.4215 10.7707 13.2113 10.8125C13.0012 10.8543 12.7834 10.8329 12.5854 10.7509C12.3875 10.6689 12.2183 10.53 12.0992 10.3519C11.9802 10.1737 11.9167 9.96426 11.9167 9.75C11.9167 9.46268 12.0308 9.18713 12.234 8.98396C12.4371 8.7808 12.7127 8.66666 13 8.66666ZM6.5 10.8333C6.5 10.6191 6.56354 10.4096 6.68258 10.2315C6.80161 10.0533 6.97081 9.91446 7.16876 9.83246C7.36671 9.75047 7.58454 9.72901 7.79468 9.77081C8.00483 9.81261 8.19786 9.91579 8.34937 10.0673C8.50087 10.2188 8.60405 10.4118 8.64585 10.622C8.68765 10.8321 8.6662 11.0499 8.5842 11.2479C8.50221 11.4459 8.36335 11.615 8.1852 11.7341C8.00705 11.8531 7.7976 11.9167 7.58333 11.9167C7.29602 11.9167 7.02047 11.8025 6.8173 11.5994C6.61414 11.3962 6.5 11.1206 6.5 10.8333ZM17.3333 17.3333H8.66667L7.98958 12.3229L10.8333 14.0833L13 10.8333L15.1667 14.0833L17.875 12.3229L17.3333 17.3333ZM18.4167 11.9167C18.2024 11.9167 17.993 11.8531 17.8148 11.7341C17.6366 11.615 17.4978 11.4459 17.4158 11.2479C17.3338 11.0499 17.3123 10.8321 17.3541 10.622C17.3959 10.4118 17.4991 10.2188 17.6506 10.0673C17.8021 9.91579 17.9952 9.81261 18.2053 9.77081C18.4155 9.72901 18.6333 9.75047 18.8312 9.83246C19.0292 9.91446 19.1984 10.0533 19.3174 10.2315C19.4365 10.4096 19.5 10.6191 19.5 10.8333C19.5 11.1206 19.3859 11.3962 19.1827 11.5994C18.9795 11.8025 18.704 11.9167 18.4167 11.9167Z" fill="url(#paint1_linear)"/>
<defs>
<linearGradient id="paint0_linear" x1="-9.68575e-08" y1="13" x2="26" y2="13" gradientUnits="userSpaceOnUse">
<stop stop-color="#06A0DC"/>
<stop offset="1" stop-color="#065CDC"/>
</linearGradient>
<linearGradient id="paint1_linear" x1="-9.68575e-08" y1="13" x2="26" y2="13" gradientUnits="userSpaceOnUse">
<stop stop-color="#06A0DC"/>
<stop offset="1" stop-color="#065CDC"/>
</linearGradient>
</defs>
</svg>
