<svg width="26" height="24" viewBox="0 0 26 24" fill="none" xmlns="http://www.w3.org/2000/svg">
<path d="M2.43752 11.2001H0.812508C0.364003 11.2001 0 11.5585 0 12.0001V23.2C0 23.6416 0.364003 24 0.812508 24H2.43752C2.88603 24 3.25003 23.6416 3.25003 23.2V12.0001C3.25003 11.5585 2.88603 11.2001 2.43752 11.2001Z" fill="url(#paint0_linear)"/>
<path d="M25.4867 12.9265C24.6612 11.8785 23.1272 11.6913 22.0677 12.5057L16.0746 17.0945C15.6456 17.4225 15.1191 17.6001 14.578 17.6001H8.93758C11.1817 17.6001 13.0001 15.8097 13.0001 13.6001C13.0001 13.1585 12.6361 12.8001 12.1876 12.8001H9.67501C7.02406 12.8001 4.87504 14.9491 4.87504 17.6001C4.87504 20.251 7.02406 22.4 9.675 22.4H15.6911C16.5947 22.4 17.4722 22.104 18.1855 21.5568L25.0594 16.2929C26.1221 15.4801 26.3122 13.9729 25.4867 12.9265Z" fill="url(#paint1_linear)"/>
<path d="M13.8126 0.000204182C12.4687 0.000204182 11.3751 1.077 11.3751 2.40018C11.3751 3.72337 12.4687 4.80016 13.8126 4.80016C15.1565 4.80016 16.2502 3.72337 16.2502 2.40018C16.2502 1.077 15.1565 0.000204182 13.8126 0.000204182ZM13.8126 3.20018C13.3641 3.20018 13.0001 2.84178 13.0001 2.40018C13.0001 1.95859 13.3641 1.60019 13.8126 1.60019C14.2611 1.60019 14.6251 1.95859 14.6251 2.40018C14.6251 2.84178 14.2611 3.20018 13.8126 3.20018Z" fill="url(#paint2_linear)"/>
<path d="M18.6877 6.40015C17.3438 6.40015 16.2502 7.47694 16.2502 8.80013C16.2502 10.1233 17.3438 11.2001 18.6877 11.2001C20.0316 11.2001 21.1252 10.1233 21.1252 8.80013C21.1252 7.47694 20.0316 6.40015 18.6877 6.40015ZM18.6877 9.60012C18.2408 9.60012 17.8752 9.24172 17.8752 8.80013C17.8752 8.35853 18.2408 8.00014 18.6877 8.00014C19.1346 8.00014 19.5002 8.35853 19.5002 8.80013C19.5002 9.24172 19.1346 9.60012 18.6877 9.60012Z" fill="url(#paint3_linear)"/>
<path d="M20.8359 0.184203C20.4931 -0.095795 19.9812 -0.0525954 19.6919 0.286602L11.5669 9.88652C11.276 10.2273 11.3231 10.7329 11.6676 11.0145C11.8187 11.1393 12.004 11.2001 12.1876 11.2001C12.4216 11.2001 12.6524 11.1025 12.8132 10.9121L20.9383 1.31219C21.2259 0.972996 21.1788 0.4674 20.8359 0.184203Z" fill="url(#paint4_linear)"/>
<defs>
<linearGradient id="paint0_linear" x1="-9.68575e-08" y1="12" x2="26" y2="12" gradientUnits="userSpaceOnUse">
<stop stop-color="#06A0DC"/>
<stop offset="1" stop-color="#065CDC"/>
</linearGradient>
<linearGradient id="paint1_linear" x1="-9.68575e-08" y1="12" x2="26" y2="12" gradientUnits="userSpaceOnUse">
<stop stop-color="#06A0DC"/>
<stop offset="1" stop-color="#065CDC"/>
</linearGradient>
<linearGradient id="paint2_linear" x1="-9.68575e-08" y1="12" x2="26" y2="12" gradientUnits="userSpaceOnUse">
<stop stop-color="#06A0DC"/>
<stop offset="1" stop-color="#065CDC"/>
</linearGradient>
<linearGradient id="paint3_linear" x1="-9.68575e-08" y1="12" x2="26" y2="12" gradientUnits="userSpaceOnUse">
<stop stop-color="#06A0DC"/>
<stop offset="1" stop-color="#065CDC"/>
</linearGradient>
<linearGradient id="paint4_linear" x1="-9.68575e-08" y1="12" x2="26" y2="12" gradientUnits="userSpaceOnUse">
<stop stop-color="#06A0DC"/>
<stop offset="1" stop-color="#065CDC"/>
</linearGradient>
</defs>
</svg>
