<svg width="26" height="26" viewBox="0 0 26 26" fill="none" xmlns="http://www.w3.org/2000/svg">
<path d="M6.58474 25.9679L7.06378 25.8343C7.52455 25.7058 7.79369 25.2288 7.66494 24.769L2.188 5.20891C2.11072 4.93287 1.92672 4.69878 1.67648 4.55813C1.42624 4.41748 1.13026 4.38181 0.853662 4.45895L0.791797 4.47618C0.215776 4.6368 -0.120717 5.23301 0.0402174 5.80786L5.51729 25.3679C5.64604 25.8278 6.12396 26.0964 6.58474 25.9679Z" fill="url(#paint0_linear)"/>
<path d="M25.872 12.2989C24.1351 11.4346 22.5283 10.3314 21.0986 9.02164C20.9784 8.91185 20.9314 8.74332 20.9775 8.58735C21.6859 5.9128 22.212 3.19344 22.5522 0.44793C22.606 -0.00873705 22.3593 -0.143051 22.0991 0.170348C16.9937 6.26372 8.16031 -0.944458 2.90244 4.59375C2.96556 4.7117 3.01522 4.83635 3.05048 4.96535L6.60358 17.6625C11.8704 12.1914 20.6724 19.3549 25.7688 13.2749C26.029 12.9615 26.0783 12.3884 25.872 12.2989Z" fill="url(#paint1_linear)"/>
<defs>
<linearGradient id="paint0_linear" x1="-9.68575e-08" y1="13" x2="26" y2="13" gradientUnits="userSpaceOnUse">
<stop stop-color="#06A0DC"/>
<stop offset="1" stop-color="#065CDC"/>
</linearGradient>
<linearGradient id="paint1_linear" x1="-9.68575e-08" y1="13" x2="26" y2="13" gradientUnits="userSpaceOnUse">
<stop stop-color="#06A0DC"/>
<stop offset="1" stop-color="#065CDC"/>
</linearGradient>
</defs>
</svg>
