<svg width="26" height="26" viewBox="0 0 26 26" fill="none" xmlns="http://www.w3.org/2000/svg">
<path d="M20.1469 5.83202C20.0373 5.72238 19.8933 5.66754 19.7492 5.66754C19.6053 5.66754 19.4612 5.72233 19.3516 5.83197C19.1323 6.05124 19.1323 6.40803 19.3516 6.62725C19.5709 6.84663 19.9277 6.84652 20.1468 6.62725C20.2531 6.52102 20.3116 6.37979 20.3116 6.22958C20.3116 6.07947 20.2531 5.93825 20.1469 5.83202Z" fill="url(#paint0_linear)"/>
<path d="M10.8372 14.0852C10.6849 13.9329 10.5412 13.8592 10.4057 13.8637C10.2702 13.8683 10.1355 13.9375 10.0016 14.0715L9.54956 14.5235L10.3988 15.3728L10.8509 14.9207C10.9848 14.7868 11.054 14.6521 11.0586 14.5167C11.0632 14.3813 10.9894 14.2375 10.8372 14.0852Z" fill="url(#paint1_linear)"/>
<path d="M25.9622 10.0366L24.7235 3.18495C24.5488 2.21823 23.7819 1.45128 22.8151 1.27649L15.9634 0.0377894C15.1998 -0.100285 14.4168 0.144887 13.8683 0.693374L0.693417 13.8683C0.246289 14.3154 0 14.9099 0 15.5422C0 16.1746 0.246238 16.7691 0.693417 17.2162L8.78388 25.3066C9.23101 25.7538 9.8255 26 10.4578 26C11.0902 26 11.6847 25.7538 12.1318 25.3066L25.3067 12.1317C25.8552 11.5832 26.1002 10.7999 25.9622 10.0366ZM9.75268 19.6395C9.72069 19.7476 9.65605 19.8503 9.5587 19.9477C9.4612 20.0452 9.35857 20.1098 9.25051 20.1417C9.14245 20.1737 9.05353 20.1546 8.9834 20.0846L6.0841 17.1853C6.01412 17.1153 5.99046 17.0309 6.01331 16.932C6.03606 16.833 6.09014 16.741 6.1754 16.6557L7.75977 15.0713C7.82975 15.0013 7.91354 14.9785 8.01084 15.0027C8.10834 15.0271 8.19802 15.0804 8.28023 15.1626C8.36849 15.251 8.42409 15.3445 8.44695 15.4434C8.4697 15.5424 8.44761 15.6253 8.38068 15.6922L7.19808 16.8748L7.96976 17.6465L8.65921 16.957C8.72609 16.8902 8.80602 16.865 8.8989 16.8817C8.99173 16.8984 9.07623 16.945 9.15225 17.021C9.22227 17.091 9.2664 17.1717 9.28468 17.263C9.30286 17.3543 9.27707 17.435 9.20709 17.505L8.51763 18.1944L9.69561 19.3724C9.76573 19.4425 9.78468 19.5315 9.75268 19.6395ZM13.6337 15.69C13.617 15.865 13.5553 16.0059 13.4487 16.1124C13.3422 16.219 13.222 16.2509 13.088 16.2083L11.248 15.6193L10.9467 15.9207L12.047 17.021C12.1171 17.0911 12.136 17.1801 12.1041 17.2881C12.0721 17.3963 12.0074 17.499 11.9101 17.5963C11.8126 17.6938 11.7099 17.7584 11.6019 17.7903C11.4938 17.8224 11.4049 17.8033 11.3348 17.7332L8.43095 14.8294C8.37311 14.7715 8.3435 14.7008 8.34193 14.617C8.34046 14.5334 8.37169 14.4595 8.43562 14.3956L9.38076 13.4505C10.1295 12.7017 10.8297 12.6529 11.4811 13.3043C11.9559 13.7792 12.0806 14.2724 11.8554 14.7836L13.4215 15.2357C13.4581 15.2418 13.493 15.2616 13.5265 15.2951C13.6147 15.3834 13.6504 15.515 13.6337 15.69ZM16.1563 13.3501L14.5309 14.9755C14.4457 15.0607 14.3537 15.1147 14.2546 15.1376C14.1557 15.1604 14.0714 15.1368 14.0013 15.0667L11.102 12.1674C11.032 12.0974 11.0084 12.013 11.0312 11.9141C11.054 11.8152 11.108 11.7231 11.1933 11.6378L12.8188 10.0124C12.8887 9.94245 12.9725 9.91959 13.0698 9.94387C13.1673 9.96824 13.257 10.0215 13.3392 10.1038C13.4275 10.1921 13.4831 10.2857 13.5059 10.3845C13.5287 10.4836 13.5066 10.5664 13.4397 10.6334L12.216 11.857L12.9876 12.6287L13.6726 11.9438C13.7395 11.8769 13.8194 11.8517 13.9123 11.8684C14.0051 11.8852 14.0897 11.9316 14.1657 12.0077C14.2357 12.0777 14.2798 12.1584 14.2981 12.2497C14.3162 12.341 14.2904 12.4217 14.2205 12.4917L13.5355 13.1766L14.3117 13.9528L15.5353 12.7291C15.6022 12.6622 15.6852 12.6401 15.7842 12.6629C15.8831 12.6858 15.9766 12.7413 16.0649 12.8296C16.1471 12.9117 16.2004 13.0016 16.2248 13.099C16.2492 13.1964 16.2263 13.28 16.1563 13.3501ZM18.6173 10.8891L16.9917 12.5146C16.9065 12.5999 16.8144 12.6539 16.7154 12.6767C16.6165 12.6996 16.5322 12.6759 16.4621 12.6059L13.5628 9.70657C13.4928 9.63659 13.4692 9.55219 13.492 9.45327C13.5148 9.3543 13.5688 9.26228 13.6541 9.17697L15.2795 7.55157C15.3495 7.48159 15.4333 7.45874 15.5306 7.48302C15.628 7.50744 15.7177 7.56066 15.8 7.64292C15.8882 7.73123 15.9438 7.82482 15.9667 7.92369C15.9894 8.02272 15.9673 8.10559 15.9004 8.17252L14.6767 9.39619L15.4484 10.1679L16.1333 9.48293C16.2002 9.41605 16.2802 9.39086 16.373 9.40757C16.4659 9.42433 16.5504 9.47084 16.6264 9.54686C16.6964 9.61689 16.7405 9.69758 16.7588 9.78883C16.777 9.88014 16.7512 9.96088 16.6812 10.0309L15.9963 10.7158L16.7724 11.4919L17.9961 10.2683C18.063 10.2014 18.146 10.1793 18.2449 10.2021C18.344 10.2249 18.4374 10.2804 18.5257 10.3688C18.6079 10.4509 18.6612 10.5408 18.6856 10.6381C18.7102 10.7354 18.6873 10.8191 18.6173 10.8891ZM21.2251 7.70554C20.8182 8.1124 20.2837 8.31583 19.7493 8.31583C19.2148 8.31583 18.6804 8.1124 18.2735 7.70549C17.4597 6.89172 17.4597 5.56765 18.2735 4.75388C19.0872 3.94012 20.4114 3.94007 21.2251 4.75388C21.6193 5.1481 21.8364 5.67221 21.8364 6.22969C21.8364 6.78716 21.6193 7.31127 21.2251 7.70554Z" fill="url(#paint2_linear)"/>
<defs>
<linearGradient id="paint0_linear" x1="-9.68575e-08" y1="13" x2="26" y2="13" gradientUnits="userSpaceOnUse">
<stop stop-color="#06A0DC"/>
<stop offset="1" stop-color="#065CDC"/>
</linearGradient>
<linearGradient id="paint1_linear" x1="-9.68575e-08" y1="13" x2="26" y2="13" gradientUnits="userSpaceOnUse">
<stop stop-color="#06A0DC"/>
<stop offset="1" stop-color="#065CDC"/>
</linearGradient>
<linearGradient id="paint2_linear" x1="-9.68575e-08" y1="13" x2="26" y2="13" gradientUnits="userSpaceOnUse">
<stop stop-color="#06A0DC"/>
<stop offset="1" stop-color="#065CDC"/>
</linearGradient>
</defs>
</svg>
