<svg width="26" height="23" viewBox="0 0 26 23" fill="none" xmlns="http://www.w3.org/2000/svg">
<path d="M11.375 6.57084C11.375 5.66348 10.6394 4.92793 9.73208 4.92793H1.625C0.729625 4.92793 0 5.6656 0 6.57084C0 8.38556 1.47112 9.85667 3.28583 9.85667H8.4074C10.1046 9.85667 11.375 8.268 11.375 6.57084Z" fill="url(#paint0_linear)"/>
<path d="M25.9569 13.1425C25.9422 13.1425 25.9286 13.1499 25.9207 13.1623C24.8122 14.8804 23.1259 16.3433 20.7139 17.7443C20.3417 17.9595 19.9225 18.0713 19.5 18.0713C19.0775 18.0713 18.6582 17.9595 18.291 17.7476C17.0967 17.0523 16.0803 16.3422 15.2237 15.594C13.6866 14.2515 11.8364 13.1425 9.79562 13.1425H6C2.68629 13.1425 0 15.8288 0 19.1425V21.3571C0 22.264 0.729625 23 1.625 23H24.375C25.272 23 26 22.264 26 21.3571V13.1856C26 13.1618 25.9807 13.1425 25.9569 13.1425ZM7.3125 18.0713H4.0625C3.614 18.0713 3.25 17.7032 3.25 17.2498C3.25 16.7964 3.614 16.4283 4.0625 16.4283H7.3125C7.761 16.4283 8.125 16.7964 8.125 17.2498C8.125 17.7032 7.761 18.0713 7.3125 18.0713Z" fill="url(#paint1_linear)"/>
<path d="M25.5076 2.53091L19.8201 0.0665381C19.6137 -0.0221794 19.3846 -0.0221794 19.1782 0.0665381L13.4908 2.53091C13.1934 2.65906 13 2.95643 13 3.28501V6.57084C13 11.0905 14.6526 13.7323 19.0954 16.3199C19.2205 16.3922 19.3603 16.4283 19.5 16.4283C19.6397 16.4283 19.7795 16.3922 19.9046 16.3199C24.3474 13.7389 26 11.0971 26 6.57084V3.28501C26 2.95643 25.8066 2.65906 25.5076 2.53091ZM22.5729 6.26362L19.3229 10.3709C19.1669 10.5648 18.9329 10.6781 18.6875 10.6781C18.6761 10.6781 18.6631 10.6781 18.6534 10.6781C18.395 10.6666 18.1561 10.5319 18.0115 10.3134L16.3865 7.84903C16.1379 7.47116 16.2386 6.96186 16.6124 6.71049C16.9829 6.46077 17.4883 6.55934 17.7385 6.93886C18.2357 7.69242 19.3243 7.73924 19.8843 7.03113L21.3021 5.23844C21.5833 4.88521 22.0951 4.82935 22.4445 5.11029C22.7955 5.39123 22.8507 5.90875 22.5729 6.26362Z" fill="url(#paint2_linear)"/>
<defs>
<linearGradient id="paint0_linear" x1="-9.68575e-08" y1="11.5" x2="26" y2="11.5" gradientUnits="userSpaceOnUse">
<stop stop-color="#06A0DC"/>
<stop offset="1" stop-color="#065CDC"/>
</linearGradient>
<linearGradient id="paint1_linear" x1="-9.68575e-08" y1="11.5" x2="26" y2="11.5" gradientUnits="userSpaceOnUse">
<stop stop-color="#06A0DC"/>
<stop offset="1" stop-color="#065CDC"/>
</linearGradient>
<linearGradient id="paint2_linear" x1="-9.68575e-08" y1="11.5" x2="26" y2="11.5" gradientUnits="userSpaceOnUse">
<stop stop-color="#06A0DC"/>
<stop offset="1" stop-color="#065CDC"/>
</linearGradient>
</defs>
</svg>
