<svg width="24" height="26" viewBox="0 0 24 26" fill="none" xmlns="http://www.w3.org/2000/svg">
<path d="M21.7021 14.8281H2.29787C1.03083 14.8281 0 15.8532 0 17.1133V23.7148C0 24.9749 1.03083 26 2.29787 26H21.7021C22.9692 26 24 24.9749 24 23.7148V17.1133C24 15.8532 22.9692 14.8281 21.7021 14.8281ZM5.79411 23.7104C5.20877 23.7136 4.80945 23.7151 4.53437 23.7151C3.96403 23.7151 3.92742 23.7089 3.87227 23.6995C3.50456 23.6368 3.23576 23.3197 3.23576 22.9487V17.8748C3.23576 17.4542 3.57871 17.1131 4.00172 17.1131C4.42473 17.1131 4.76768 17.4542 4.76768 17.8748V22.1909C5.07406 22.1903 5.43906 22.1889 5.78553 22.187H5.78992C6.21094 22.187 6.55343 22.5252 6.55578 22.9444C6.55813 23.3651 6.21712 23.708 5.79411 23.7104ZM9.36454 22.953C9.36454 23.3736 9.0216 23.7147 8.59859 23.7147C8.17557 23.7147 7.83263 23.3736 7.83263 22.953V17.8748C7.83263 17.4542 8.17557 17.1131 8.59859 17.1131C9.0216 17.1131 9.36454 17.4542 9.36454 17.8748V22.953ZM15.7649 18.1243L14.0977 23.1154C14.0971 23.1171 14.0965 23.1188 14.0959 23.1206C13.9753 23.4734 13.6424 23.7122 13.2676 23.7146C13.2656 23.7147 13.2636 23.7147 13.2616 23.7147C12.8892 23.7147 12.5561 23.481 12.4313 23.1317C12.4307 23.1299 12.4301 23.1283 12.4294 23.1265L10.6836 18.1246C10.5448 17.7272 10.7563 17.2932 11.156 17.1552C11.5557 17.0175 11.9921 17.2277 12.1307 17.6251L13.2481 20.8262L14.3111 17.644C14.4445 17.2448 14.878 17.0286 15.2795 17.1613C15.6809 17.2939 15.8983 17.7251 15.7649 18.1243ZM19.8396 19.6522C20.2626 19.6522 20.6056 19.9932 20.6056 20.4139C20.6056 20.8346 20.2626 21.1756 19.8396 21.1756H18.6126V22.1913H19.9983C20.4213 22.1913 20.7642 22.5323 20.7642 22.953C20.7642 23.3736 20.4213 23.7147 19.9983 23.7147H17.8467C17.4236 23.7147 17.0807 23.3736 17.0807 22.953V17.8748C17.0807 17.4542 17.4236 17.1131 17.8467 17.1131H19.9983C20.4213 17.1131 20.7642 17.4542 20.7642 17.8748C20.7642 18.2955 20.4213 18.6366 19.9983 18.6366H18.6126V19.6522H19.8396Z" fill="url(#paint0_linear)"/>
<path d="M12 10.6641C12.423 10.6641 12.766 10.323 12.766 9.90234C12.766 9.48166 12.423 9.14062 12 9.14062C11.577 9.14062 11.234 9.48166 11.234 9.90234C11.234 10.323 11.577 10.6641 12 10.6641Z" fill="url(#paint1_linear)"/>
<path d="M12 0C6.50946 0 2.04255 4.44219 2.04255 9.90234C2.04255 11.0972 2.25646 12.2433 2.64817 13.3047H21.3518C21.7435 12.2433 21.9574 11.0972 21.9574 9.90234C21.9574 4.44219 17.4905 0 12 0ZM12 1.52344C12.423 1.52344 12.766 1.86448 12.766 2.28516C12.766 2.70583 12.423 3.04688 12 3.04688C11.577 3.04688 11.234 2.70583 11.234 2.28516C11.234 1.86448 11.577 1.52344 12 1.52344ZM4.34043 10.6641C3.91741 10.6641 3.57447 10.323 3.57447 9.90234C3.57447 9.48167 3.91741 9.14062 4.34043 9.14062C4.76344 9.14062 5.10638 9.48167 5.10638 9.90234C5.10638 10.323 4.76344 10.6641 4.34043 10.6641ZM6.02997 6.47461C5.81847 6.83891 5.35001 6.96379 4.98368 6.7534C4.61734 6.54306 4.49178 6.0772 4.70334 5.71289C4.91484 5.34859 5.3833 5.22371 5.74963 5.4341C6.11597 5.64444 6.24148 6.1103 6.02997 6.47461ZM8.55319 3.9653C8.18686 4.17564 7.7184 4.05082 7.50689 3.68652C7.29539 3.32221 7.4209 2.85634 7.78723 2.64601C8.15357 2.43567 8.62203 2.56049 8.83353 2.9248C9.04509 3.28915 8.91952 3.75497 8.55319 3.9653ZM15.5745 10.6641H14.1661C13.8499 11.5507 12.9986 12.1875 12 12.1875C10.733 12.1875 9.70213 11.1624 9.70213 9.90234C9.70213 8.90932 10.3425 8.06264 11.234 7.7482V5.33203C11.234 4.91136 11.577 4.57031 12 4.57031C12.423 4.57031 12.766 4.91136 12.766 5.33203V7.7482C13.4177 7.97809 13.935 8.49245 14.1661 9.14062H15.5745C15.9975 9.14062 16.3404 9.48167 16.3404 9.90234C16.3404 10.323 15.9975 10.6641 15.5745 10.6641ZM16.4931 3.68652C16.2816 4.05082 15.8131 4.17569 15.4468 3.9653C15.0805 3.75497 14.9549 3.2891 15.1665 2.9248C15.378 2.56049 15.8464 2.43562 16.2128 2.64601C16.5791 2.85634 16.7047 3.32221 16.4931 3.68652ZM17.97 6.47461C17.7585 6.1103 17.884 5.64444 18.2504 5.4341C18.6167 5.22377 19.0852 5.34859 19.2967 5.71289C19.5082 6.0772 19.3827 6.54306 19.0163 6.7534C18.65 6.96379 18.1816 6.83891 17.97 6.47461ZM19.6596 10.6641C19.2366 10.6641 18.8936 10.323 18.8936 9.90234C18.8936 9.48167 19.2366 9.14062 19.6596 9.14062C20.0826 9.14062 20.4255 9.48167 20.4255 9.90234C20.4255 10.323 20.0826 10.6641 19.6596 10.6641Z" fill="url(#paint2_linear)"/>
<defs>
<linearGradient id="paint0_linear" x1="-8.9407e-08" y1="13" x2="24" y2="13" gradientUnits="userSpaceOnUse">
<stop stop-color="#06A0DC"/>
<stop offset="1" stop-color="#065CDC"/>
</linearGradient>
<linearGradient id="paint1_linear" x1="-8.9407e-08" y1="13" x2="24" y2="13" gradientUnits="userSpaceOnUse">
<stop stop-color="#06A0DC"/>
<stop offset="1" stop-color="#065CDC"/>
</linearGradient>
<linearGradient id="paint2_linear" x1="-8.9407e-08" y1="13" x2="24" y2="13" gradientUnits="userSpaceOnUse">
<stop stop-color="#06A0DC"/>
<stop offset="1" stop-color="#065CDC"/>
</linearGradient>
</defs>
</svg>
