<svg width="26" height="26" viewBox="0 0 26 26" fill="none" xmlns="http://www.w3.org/2000/svg">
<path d="M6.50001 0C5.98716 0 5.57142 0.415735 5.57142 0.928589V2.78571H7.42855V0.928589C7.42855 0.415735 7.01281 0 6.50001 0Z" fill="url(#paint0_linear)"/>
<path d="M19.5 0C18.9871 0 18.5714 0.415735 18.5714 0.928589V2.78571H20.4285V0.928589C20.4286 0.415735 20.0128 0 19.5 0Z" fill="url(#paint1_linear)"/>
<path d="M23.2143 2.78571H20.4286V6.50001C20.4286 7.01287 20.0128 7.4286 19.5 7.4286C18.9871 7.4286 18.5714 7.01287 18.5714 6.50001V2.78571H7.42855V6.50001C7.42855 7.01287 7.01281 7.4286 6.49996 7.4286C5.98711 7.4286 5.57137 7.01287 5.57137 6.50001L5.57142 2.78571H2.78571C1.2472 2.78571 0 4.03292 0 5.57142V23.2143C0 24.7528 1.2472 26 2.78571 26H23.2143C24.7528 26 26 24.7528 26 23.2143V5.57142C26 4.03292 24.7528 2.78571 23.2143 2.78571ZM24.1428 23.2143C24.1428 23.7271 23.7271 24.1429 23.2142 24.1429H2.78571C2.27286 24.1429 1.85712 23.7271 1.85712 23.2143V11.1428H24.1428V23.2143Z" fill="url(#paint2_linear)"/>
<path d="M7.42855 13H5.57142C5.05857 13 4.64284 13.4157 4.64284 13.9286C4.64284 14.4414 5.05857 14.8571 5.57142 14.8571H7.42855C7.9414 14.8571 8.35714 14.4414 8.35714 13.9286C8.35714 13.4157 7.9414 13 7.42855 13Z" fill="url(#paint3_linear)"/>
<path d="M13.9286 13H12.0714C11.5586 13 11.1428 13.4157 11.1428 13.9286C11.1428 14.4414 11.5586 14.8571 12.0714 14.8571H13.9286C14.4414 14.8571 14.8571 14.4414 14.8571 13.9286C14.8571 13.4157 14.4414 13 13.9286 13Z" fill="url(#paint4_linear)"/>
<path d="M20.4286 13H18.5715C18.0586 13 17.6429 13.4157 17.6429 13.9286C17.6429 14.4414 18.0586 14.8571 18.5715 14.8571H20.4286C20.9414 14.8571 21.3572 14.4414 21.3572 13.9286C21.3572 13.4157 20.9414 13 20.4286 13Z" fill="url(#paint5_linear)"/>
<path d="M7.42855 16.7143H5.57142C5.05857 16.7143 4.64284 17.13 4.64284 17.6429C4.64284 18.1557 5.05857 18.5715 5.57142 18.5715H7.42855C7.9414 18.5715 8.35714 18.1557 8.35714 17.6429C8.35714 17.13 7.9414 16.7143 7.42855 16.7143Z" fill="url(#paint6_linear)"/>
<path d="M13.9286 16.7143H12.0714C11.5586 16.7143 11.1428 17.13 11.1428 17.6429C11.1428 18.1557 11.5586 18.5715 12.0714 18.5715H13.9286C14.4414 18.5715 14.8571 18.1557 14.8571 17.6429C14.8571 17.13 14.4414 16.7143 13.9286 16.7143Z" fill="url(#paint7_linear)"/>
<path d="M20.4286 16.7143H18.5715C18.0586 16.7143 17.6429 17.13 17.6429 17.6429C17.6429 18.1557 18.0586 18.5715 18.5715 18.5715H20.4286C20.9414 18.5715 21.3572 18.1557 21.3572 17.6429C21.3571 17.13 20.9414 16.7143 20.4286 16.7143Z" fill="url(#paint8_linear)"/>
<path d="M7.42855 20.4286H5.57142C5.05857 20.4286 4.64284 20.8443 4.64284 21.3572C4.64284 21.87 5.05857 22.2857 5.57142 22.2857H7.42855C7.9414 22.2857 8.35714 21.87 8.35714 21.3571C8.35714 20.8443 7.9414 20.4286 7.42855 20.4286Z" fill="url(#paint9_linear)"/>
<path d="M13.9286 20.4286H12.0714C11.5586 20.4286 11.1428 20.8443 11.1428 21.3572C11.1428 21.87 11.5586 22.2858 12.0714 22.2858H13.9286C14.4414 22.2858 14.8571 21.87 14.8571 21.3572C14.8571 20.8443 14.4414 20.4286 13.9286 20.4286Z" fill="url(#paint10_linear)"/>
<path d="M20.4286 20.4286H18.5715C18.0586 20.4286 17.6429 20.8443 17.6429 21.3572C17.6429 21.87 18.0586 22.2858 18.5715 22.2858H20.4286C20.9414 22.2858 21.3572 21.87 21.3572 21.3572C21.3572 20.8443 20.9414 20.4286 20.4286 20.4286Z" fill="url(#paint11_linear)"/>
<defs>
<linearGradient id="paint0_linear" x1="-9.68575e-08" y1="13" x2="26" y2="13" gradientUnits="userSpaceOnUse">
<stop stop-color="#06A0DC"/>
<stop offset="1" stop-color="#065CDC"/>
</linearGradient>
<linearGradient id="paint1_linear" x1="-9.68575e-08" y1="13" x2="26" y2="13" gradientUnits="userSpaceOnUse">
<stop stop-color="#06A0DC"/>
<stop offset="1" stop-color="#065CDC"/>
</linearGradient>
<linearGradient id="paint2_linear" x1="-9.68575e-08" y1="13" x2="26" y2="13" gradientUnits="userSpaceOnUse">
<stop stop-color="#06A0DC"/>
<stop offset="1" stop-color="#065CDC"/>
</linearGradient>
<linearGradient id="paint3_linear" x1="-9.68575e-08" y1="13" x2="26" y2="13" gradientUnits="userSpaceOnUse">
<stop stop-color="#06A0DC"/>
<stop offset="1" stop-color="#065CDC"/>
</linearGradient>
<linearGradient id="paint4_linear" x1="-9.68575e-08" y1="13" x2="26" y2="13" gradientUnits="userSpaceOnUse">
<stop stop-color="#06A0DC"/>
<stop offset="1" stop-color="#065CDC"/>
</linearGradient>
<linearGradient id="paint5_linear" x1="-9.68575e-08" y1="13" x2="26" y2="13" gradientUnits="userSpaceOnUse">
<stop stop-color="#06A0DC"/>
<stop offset="1" stop-color="#065CDC"/>
</linearGradient>
<linearGradient id="paint6_linear" x1="-9.68575e-08" y1="13" x2="26" y2="13" gradientUnits="userSpaceOnUse">
<stop stop-color="#06A0DC"/>
<stop offset="1" stop-color="#065CDC"/>
</linearGradient>
<linearGradient id="paint7_linear" x1="-9.68575e-08" y1="13" x2="26" y2="13" gradientUnits="userSpaceOnUse">
<stop stop-color="#06A0DC"/>
<stop offset="1" stop-color="#065CDC"/>
</linearGradient>
<linearGradient id="paint8_linear" x1="-9.68575e-08" y1="13" x2="26" y2="13" gradientUnits="userSpaceOnUse">
<stop stop-color="#06A0DC"/>
<stop offset="1" stop-color="#065CDC"/>
</linearGradient>
<linearGradient id="paint9_linear" x1="-9.68575e-08" y1="13" x2="26" y2="13" gradientUnits="userSpaceOnUse">
<stop stop-color="#06A0DC"/>
<stop offset="1" stop-color="#065CDC"/>
</linearGradient>
<linearGradient id="paint10_linear" x1="-9.68575e-08" y1="13" x2="26" y2="13" gradientUnits="userSpaceOnUse">
<stop stop-color="#06A0DC"/>
<stop offset="1" stop-color="#065CDC"/>
</linearGradient>
<linearGradient id="paint11_linear" x1="-9.68575e-08" y1="13" x2="26" y2="13" gradientUnits="userSpaceOnUse">
<stop stop-color="#06A0DC"/>
<stop offset="1" stop-color="#065CDC"/>
</linearGradient>
</defs>
</svg>
