<svg width="27" height="24" viewBox="0 0 27 24" fill="none" xmlns="http://www.w3.org/2000/svg">
<path d="M23.0443 17.5982C22.2495 17.5982 21.5111 17.1988 21.07 16.5291L20.0348 14.9584C19.106 17.0179 17.1871 18.5875 14.9244 19.054C14.9066 19.0572 14.8896 19.0611 14.8726 19.0658C13.9781 19.244 13.0443 19.2455 12.1065 19.0642C9.61469 18.5586 7.55979 16.773 6.73407 14.3973H7.11956C7.74895 14.3973 8.12784 13.6855 7.77763 13.1532L4.61378 8.35194C4.32026 7.90651 3.59105 7.90651 3.29758 8.35194L0.133732 13.1533C-0.215264 13.6811 0.158992 14.3974 0.791805 14.3974H1.82071C2.90229 19.7634 7.68677 24 13.5475 24C16.7542 24 19.9208 22.6585 22.1902 20.2229C22.9872 19.3599 23.6547 18.3728 24.1795 17.3039C23.8363 17.4932 23.4481 17.5982 23.0443 17.5982Z" fill="url(#paint0_linear)"/>
<path d="M26.2082 9.59598H25.1801C23.9551 3.49586 18.1284 -0.715417 11.9026 0.10123C7.76176 0.717329 4.51496 3.28512 2.83463 6.71859C3.86369 6.20802 5.26574 6.45541 5.93003 7.46417L6.96932 9.04134C7.88068 7.0236 9.74294 5.47679 11.9476 4.97705C15.6453 4.19183 19.0909 6.26425 20.2636 9.59598H19.8804C19.2475 9.59598 18.8733 10.3122 19.2223 10.8401L22.3862 15.6414C22.699 16.116 23.3896 16.116 23.7024 15.6414L26.8662 10.8401C27.2165 10.3078 26.8376 9.59598 26.2082 9.59598Z" fill="url(#paint1_linear)"/>
<path d="M15.1785 11.9005C14.7313 11.4465 14.1349 11.1964 13.5 11.1964C13.2883 11.1964 13.0898 11.1136 12.94 10.9612C12.6367 10.656 12.6266 10.1466 12.9415 9.82961C13.2382 9.52796 13.7619 9.52796 14.0585 9.82961C14.3667 10.1438 14.8672 10.1422 15.177 9.83115C15.4868 9.51931 15.4868 9.01216 15.1785 8.69957C14.9274 8.44461 14.6188 8.27959 14.291 8.16798V7.19523C14.291 6.753 13.9372 6.39507 13.5001 6.39507C13.0629 6.39507 12.7091 6.753 12.7091 7.19528V8.16782C12.3817 8.27938 12.0735 8.44391 11.8231 8.69803C10.8925 9.63626 10.8948 11.1583 11.8216 12.0927C12.2688 12.5467 12.8651 12.7968 13.5001 12.7968C13.7117 12.7968 13.9102 12.8796 14.06 13.032C14.3633 13.3372 14.3734 13.8466 14.0585 14.1636C13.7619 14.4652 13.2382 14.4652 12.9415 14.1636C12.6326 13.8502 12.132 13.8502 11.823 14.162C11.5133 14.4739 11.5133 14.981 11.8215 15.2936C12.0752 15.5511 12.3797 15.7344 12.709 15.8523V16.7979C12.709 17.2402 13.0628 17.5981 13.5 17.5981C13.9372 17.5981 14.291 17.2402 14.291 16.7979V15.8525C14.6201 15.7348 14.9243 15.5517 15.177 15.2952C16.1076 14.357 16.1053 12.8349 15.1785 11.9005Z" fill="url(#paint2_linear)"/>
<defs>
<linearGradient id="paint0_linear" x1="-1.00583e-07" y1="12" x2="27" y2="12" gradientUnits="userSpaceOnUse">
<stop stop-color="#06A0DC"/>
<stop offset="1" stop-color="#065CDC"/>
</linearGradient>
<linearGradient id="paint1_linear" x1="-1.00583e-07" y1="12" x2="27" y2="12" gradientUnits="userSpaceOnUse">
<stop stop-color="#06A0DC"/>
<stop offset="1" stop-color="#065CDC"/>
</linearGradient>
<linearGradient id="paint2_linear" x1="-1.00583e-07" y1="12" x2="27" y2="12" gradientUnits="userSpaceOnUse">
<stop stop-color="#06A0DC"/>
<stop offset="1" stop-color="#065CDC"/>
</linearGradient>
</defs>
</svg>
