<svg width="26" height="26" viewBox="0 0 26 26" fill="none" xmlns="http://www.w3.org/2000/svg">
<path d="M15.6984 0H1.74426C0.783173 0 0 0.778267 0 1.73333V24.2667C0 25.2235 0.783173 26 1.74426 26H15.6984C16.6612 26 17.4426 25.2235 17.4426 24.2667V1.73333C17.4426 0.778267 16.6612 0 15.6984 0ZM10.6836 15.6C10.3121 15.6 9.94578 15.5307 9.59344 15.418V17.3333H10.4656C10.947 17.3333 11.3377 17.7216 11.3377 18.2C11.3377 18.6784 10.947 19.0667 10.4656 19.0667H6.97705C6.49563 19.0667 6.10492 18.6784 6.10492 18.2C6.10492 17.7216 6.49563 17.3333 6.97705 17.3333H7.84918V15.418C7.49684 15.5307 7.13054 15.6 6.75901 15.6C4.92579 15.6 3.48852 14.2411 3.48852 12.5043C3.48852 10.2284 7.13752 7.76707 8.25559 7.0668C8.53816 6.89173 8.89573 6.88827 9.1783 7.06333C9.97718 7.5504 13.9541 10.1123 13.9541 12.5043C13.9541 14.2411 12.5168 15.6 10.6836 15.6Z" fill="url(#paint0_linear)"/>
<path d="M21.6079 2.7508L19.1869 2.106V18.4271L22.8411 4.87413C23.0905 3.95027 22.5376 2.99867 21.6079 2.7508Z" fill="url(#paint1_linear)"/>
<path d="M25.1278 7.75493L24.0394 7.13093L21.0375 18.2624L25.7662 10.1227C26.2477 9.2924 25.9616 8.23333 25.1278 7.75493Z" fill="url(#paint2_linear)"/>
<defs>
<linearGradient id="paint0_linear" x1="-9.68575e-08" y1="13" x2="26" y2="13" gradientUnits="userSpaceOnUse">
<stop stop-color="#06A0DC"/>
<stop offset="1" stop-color="#065CDC"/>
</linearGradient>
<linearGradient id="paint1_linear" x1="-9.68575e-08" y1="13" x2="26" y2="13" gradientUnits="userSpaceOnUse">
<stop stop-color="#06A0DC"/>
<stop offset="1" stop-color="#065CDC"/>
</linearGradient>
<linearGradient id="paint2_linear" x1="-9.68575e-08" y1="13" x2="26" y2="13" gradientUnits="userSpaceOnUse">
<stop stop-color="#06A0DC"/>
<stop offset="1" stop-color="#065CDC"/>
</linearGradient>
</defs>
</svg>
