<svg width="26" height="26" viewBox="0 0 26 26" fill="none" xmlns="http://www.w3.org/2000/svg">
<path d="M13.1503 15.6019L17.0061 12.0537C17.7149 11.4 18.2804 10.609 18.6674 9.72979C19.0544 8.8506 19.2546 7.90201 19.2558 6.94294V2.59023L13.1503 0L7.0448 2.59023V6.94294C7.04593 7.90201 7.24622 8.8506 7.63322 9.72979C8.02023 10.609 8.58567 11.4 9.29444 12.0537L13.1503 15.6019ZM11.1341 7.0699L12.6806 8.60125L15.6362 5.6748L16.3003 6.33236L13.0127 9.58759C12.9246 9.67477 12.8052 9.72374 12.6806 9.72374C12.5561 9.72374 12.4367 9.67477 12.3486 9.58759L10.47 7.72745L11.1341 7.0699Z" fill="url(#paint0_linear)"/>
<path d="M25.2861 17.648C25.1958 17.4886 25.0739 17.3488 24.9279 17.2369C24.7819 17.1251 24.6146 17.0435 24.4361 16.997C24.2571 16.949 24.0703 16.9366 23.8865 16.9605C23.7027 16.9845 23.5256 17.0443 23.3652 17.1365L15.9682 21.3636V21.8147C15.9682 21.938 15.9187 22.0563 15.8306 22.1435C15.7426 22.2307 15.6231 22.2797 15.4986 22.2797H9.39306V21.3497H15.0289V19.9546C15.0278 19.5849 14.879 19.2307 14.615 18.9693C14.351 18.7079 13.9933 18.5606 13.6199 18.5595H5.24133L2.81792 19.3593V26H14.423L26 18.8664L25.2861 17.648Z" fill="url(#paint1_linear)"/>
<path d="M0 19.4895H1.87861V26H0V19.4895Z" fill="url(#paint2_linear)"/>
<defs>
<linearGradient id="paint0_linear" x1="-9.68575e-08" y1="13" x2="26" y2="13" gradientUnits="userSpaceOnUse">
<stop stop-color="#06A0DC"/>
<stop offset="1" stop-color="#065CDC"/>
</linearGradient>
<linearGradient id="paint1_linear" x1="-9.68575e-08" y1="13" x2="26" y2="13" gradientUnits="userSpaceOnUse">
<stop stop-color="#06A0DC"/>
<stop offset="1" stop-color="#065CDC"/>
</linearGradient>
<linearGradient id="paint2_linear" x1="-9.68575e-08" y1="13" x2="26" y2="13" gradientUnits="userSpaceOnUse">
<stop stop-color="#06A0DC"/>
<stop offset="1" stop-color="#065CDC"/>
</linearGradient>
</defs>
</svg>
