<svg width="26" height="26" viewBox="0 0 26 26" fill="none" xmlns="http://www.w3.org/2000/svg">
<path d="M26 17.5957C26 14.3693 24.1491 11.4899 21.3769 10.0892C21.2908 16.2754 16.2754 21.2908 10.0892 21.3769C11.4899 24.1491 14.3693 26 17.5957 26C19.1084 26 20.5795 25.5971 21.872 24.8316L25.9633 25.9633L24.8316 21.872C25.5971 20.5795 26 19.1084 26 17.5957Z" fill="url(#paint0_linear)"/>
<path d="M19.8555 9.92773C19.8555 4.45348 15.402 0 9.92773 0C4.45348 0 0 4.45348 0 9.92773C0 11.7118 0.474884 13.4489 1.37665 14.9739L0.036499 19.8188L4.88155 18.4788C6.40657 19.3806 8.14365 19.8555 9.92773 19.8555C15.402 19.8555 19.8555 15.402 19.8555 9.92773ZM8.4043 7.61719H6.88086C6.88086 5.93704 8.24759 4.57031 9.92773 4.57031C11.6079 4.57031 12.9746 5.93704 12.9746 7.61719C12.9746 8.46996 12.6136 9.2896 11.9838 9.86565L10.6895 11.0503V12.2383H9.16602V10.3794L10.9553 8.74171C11.275 8.44913 11.4512 8.04982 11.4512 7.61719C11.4512 6.77711 10.7678 6.09375 9.92773 6.09375C9.08766 6.09375 8.4043 6.77711 8.4043 7.61719ZM9.16602 13.7617H10.6895V15.2852H9.16602V13.7617Z" fill="url(#paint1_linear)"/>
<defs>
<linearGradient id="paint0_linear" x1="-9.68575e-08" y1="13" x2="26" y2="13" gradientUnits="userSpaceOnUse">
<stop stop-color="#06A0DC"/>
<stop offset="1" stop-color="#065CDC"/>
</linearGradient>
<linearGradient id="paint1_linear" x1="-9.68575e-08" y1="13" x2="26" y2="13" gradientUnits="userSpaceOnUse">
<stop stop-color="#06A0DC"/>
<stop offset="1" stop-color="#065CDC"/>
</linearGradient>
</defs>
</svg>
