<svg width="20" height="16" viewBox="0 0 20 16" fill="none" xmlns="http://www.w3.org/2000/svg">
<path d="M18.2031 0H1.79688C0.806094 0 0 0.764257 0 1.70362V11.3328C0 12.2722 0.806094 13.0364 1.79688 13.0364H2.5V14.5865C2.5 15.1442 2.83199 15.6355 3.36641 15.8685C3.56875 15.9567 3.7818 16 3.99273 16C4.33895 16 4.67938 15.8834 4.95691 15.6579C4.96813 15.6488 4.97898 15.6393 4.98953 15.6295L7.75676 13.0364H18.2031C19.1939 13.0364 20 12.2722 20 11.3328V1.70362C20 0.764257 19.1939 0 18.2031 0ZM14.4906 5.92774L12.7744 7.53125C12.7289 7.57369 12.7082 7.6345 12.7189 7.69413L13.1245 9.96087C13.1575 10.1454 13.105 10.3376 12.9708 10.4749C12.8471 10.6014 12.6793 10.6661 12.5107 10.6661C12.4102 10.6661 12.3095 10.6432 12.2174 10.5968L10.0916 9.52555C10.0343 9.49667 9.96562 9.49667 9.90832 9.52555L7.79562 10.5902C7.61965 10.6789 7.40844 10.6916 7.22773 10.6119C6.96645 10.4968 6.8266 10.2342 6.87305 9.97449L7.28105 7.69416C7.29172 7.63454 7.27102 7.57376 7.22559 7.53128L5.50937 5.92777C5.36824 5.79589 5.29215 5.60997 5.31699 5.42358C5.35293 5.15355 5.57273 4.94767 5.84664 4.90953L8.22566 4.57817C8.28945 4.56929 8.34449 4.53114 8.37277 4.47618L9.43184 2.41925C9.51957 2.24889 9.6834 2.12071 9.87977 2.08489C10.1634 2.03319 10.4395 2.1693 10.5616 2.40662L11.6272 4.47618C11.6555 4.5311 11.7105 4.56929 11.7743 4.57817L14.1533 4.90953C14.4272 4.94767 14.647 5.15359 14.683 5.42358C14.7078 5.60994 14.6318 5.79585 14.4906 5.92774Z" fill="url(#paint0_linear)"/>
<defs>
<linearGradient id="paint0_linear" x1="-7.45058e-08" y1="8" x2="20" y2="8" gradientUnits="userSpaceOnUse">
<stop stop-color="#06A0DC"/>
<stop offset="1" stop-color="#065CDC"/>
</linearGradient>
</defs>
</svg>
