<svg width="20" height="20" viewBox="0 0 20 20" fill="none" xmlns="http://www.w3.org/2000/svg">
<path d="M10.3574 20C11.8868 19.7823 13.2276 18.1828 14.0712 15.8207C12.8516 15.547 11.6071 15.4001 10.3574 15.3826V20Z" fill="url(#paint0_linear)"/>
<path d="M12.8008 19.6244C12.8913 19.5981 12.9813 19.5717 13.0707 19.5427C13.1461 19.5184 13.2204 19.4921 13.2948 19.4661C13.3827 19.4357 13.4703 19.4044 13.5576 19.3711C13.632 19.3428 13.7056 19.3127 13.7794 19.2826C13.8646 19.2468 13.9496 19.2111 14.0337 19.1753C14.1072 19.1429 14.1801 19.109 14.2531 19.0749C14.3357 19.0359 14.4179 18.9962 14.4994 18.9549C14.5709 18.9184 14.6423 18.8811 14.7139 18.8428C14.794 18.7998 14.8736 18.7559 14.9526 18.7108C15.0242 18.6702 15.0931 18.6295 15.1627 18.5875C15.2402 18.5398 15.3174 18.492 15.394 18.4443C15.4626 18.4005 15.531 18.3561 15.5985 18.3103C15.6739 18.2594 15.7483 18.2064 15.8223 18.1534C15.8888 18.1057 15.9549 18.0581 16.0199 18.0102C16.0914 17.955 16.1647 17.8978 16.2365 17.8404C16.3002 17.7895 16.3637 17.739 16.4263 17.6867C16.4977 17.6272 16.5661 17.5657 16.6354 17.5041C16.6962 17.4501 16.7572 17.3966 16.8166 17.3411C16.8848 17.2773 16.9513 17.2112 17.0178 17.1456C17.0754 17.0886 17.1337 17.0325 17.1901 16.974C17.2006 16.9632 17.2105 16.9515 17.2213 16.9403C16.4417 16.5368 15.6205 16.2201 14.7722 15.9959C14.3309 17.4058 13.5457 18.6835 12.4877 19.7128C12.5167 19.7053 12.5457 19.6992 12.5747 19.6917C12.6511 19.6702 12.7261 19.6466 12.8008 19.6244Z" fill="url(#paint1_linear)"/>
<path d="M20 10.3582H15.7143C15.698 12.0349 15.4553 13.7017 14.9926 15.3132C15.9361 15.5657 16.8466 15.9288 17.7053 16.3948C19.1151 14.6922 19.9222 12.5693 20 10.3582Z" fill="url(#paint2_linear)"/>
<path d="M10.3574 9.64185H14.9994C14.9812 8.02438 14.7444 6.41688 14.2957 4.86307C13.0031 5.15844 11.683 5.31618 10.3574 5.33367V9.64185Z" fill="url(#paint3_linear)"/>
<path d="M10.3574 0V4.61736C11.6071 4.5997 12.8516 4.45297 14.0712 4.17929C13.2276 1.81718 11.8868 0.217726 10.3574 0Z" fill="url(#paint4_linear)"/>
<path d="M10.3574 14.6663C11.683 14.684 13.0031 14.8417 14.2957 15.1371C14.7444 13.5833 14.9812 11.9756 14.9994 10.3582H10.3574V14.6663Z" fill="url(#paint5_linear)"/>
<path d="M17.7053 3.60516C16.8466 4.07121 15.9361 4.43426 14.9926 4.68679C15.4553 6.29831 15.698 7.96509 15.7143 9.64185H20C19.922 7.43083 19.115 5.30796 17.7053 3.60516Z" fill="url(#paint6_linear)"/>
<path d="M17.2224 3.0618C17.2119 3.05114 17.2019 3.03959 17.1917 3.02858C17.1351 2.97017 17.0765 2.91385 17.0189 2.85702C16.9525 2.79144 16.8864 2.72516 16.818 2.6615C16.7588 2.60624 16.6976 2.55395 16.6368 2.49886C16.5675 2.43731 16.4982 2.37522 16.427 2.31576C16.3653 2.26347 16.3019 2.21346 16.2391 2.16327C16.1675 2.10521 16.0942 2.0475 16.0206 1.99206C15.956 1.94327 15.8905 1.89605 15.8247 1.84883C15.75 1.79497 15.675 1.74128 15.5989 1.69004C15.5321 1.64492 15.4642 1.60085 15.3963 1.55766C15.319 1.50782 15.2418 1.45903 15.1631 1.41181C15.0942 1.37036 15.0245 1.32944 14.9547 1.28974C14.8748 1.24392 14.7947 1.1995 14.7139 1.15613C14.6423 1.12028 14.5709 1.08128 14.4994 1.04543C14.4172 1.00381 14.3343 0.963765 14.2493 0.924417C14.1777 0.890315 14.1051 0.857088 14.0315 0.824735C13.9468 0.787136 13.8613 0.753209 13.7759 0.717359C13.7023 0.687279 13.629 0.65755 13.5546 0.629219C13.4679 0.595992 13.3799 0.564863 13.292 0.534434C13.2176 0.508202 13.1433 0.482145 13.0679 0.457661C12.9785 0.428631 12.8892 0.402225 12.7974 0.375643C12.723 0.353783 12.6483 0.331573 12.5731 0.311637C12.5443 0.303767 12.515 0.297646 12.486 0.290126C13.544 1.31947 14.329 2.59697 14.7704 4.00703C15.6197 3.78283 16.442 3.46595 17.2224 3.0618Z" fill="url(#paint7_linear)"/>
<path d="M0 9.64185H4.28574C4.30197 7.96509 4.54474 6.29831 5.00724 4.68679C4.06391 4.43444 3.15339 4.07139 2.29471 3.60516C0.884863 5.30779 0.0778401 7.43083 0 9.64185Z" fill="url(#paint8_linear)"/>
<path d="M9.64256 20V15.3826C8.39293 15.4003 7.14837 15.547 5.92876 15.8207C6.77226 18.1828 8.11316 19.7823 9.64256 20Z" fill="url(#paint9_linear)"/>
<path d="M9.64256 10.3582H5.00061C5.01876 11.9756 5.25542 13.5833 5.70431 15.1371C6.99688 14.8416 8.31684 14.6838 9.64256 14.6663V10.3582Z" fill="url(#paint10_linear)"/>
<path d="M9.64256 0C8.11316 0.217726 6.77226 1.81718 5.92876 4.17929C7.14837 4.45315 8.39293 4.59987 9.64256 4.61736V0Z" fill="url(#paint11_linear)"/>
<path d="M9.64256 5.33367C8.31701 5.31618 6.99688 5.15844 5.70431 4.86307C5.25542 6.41688 5.01876 8.02438 5.00061 9.64185H9.64256V5.33367Z" fill="url(#paint12_linear)"/>
<path d="M7.51121 0.289777C7.48224 0.297296 7.45327 0.303417 7.4243 0.310937C7.34855 0.331223 7.27385 0.353783 7.19846 0.375643C7.10875 0.401875 7.01974 0.428282 6.92968 0.456962C6.85376 0.48162 6.77906 0.507852 6.70437 0.533909C6.61693 0.564863 6.52931 0.595642 6.44275 0.628519C6.36805 0.6572 6.2944 0.686929 6.2204 0.717359C6.1354 0.753209 6.05023 0.78906 5.96628 0.824735C5.89263 0.857088 5.81985 0.891015 5.7469 0.925116C5.66435 0.964115 5.58214 1.00381 5.50064 1.04508C5.42908 1.08163 5.35752 1.11906 5.28614 1.15718C5.20603 1.2002 5.12662 1.24427 5.04773 1.28939C4.97618 1.32944 4.90584 1.37054 4.8369 1.41251C4.75924 1.45938 4.68244 1.50782 4.606 1.55573C4.53724 1.5998 4.469 1.64422 4.40145 1.69004C4.32606 1.74093 4.25171 1.79392 4.17771 1.84691C4.11121 1.89465 4.04506 1.94222 3.97996 1.99031C3.90684 2.0454 3.83702 2.10276 3.76337 2.15995C3.69984 2.21084 3.63579 2.26138 3.57366 2.31401C3.5021 2.37312 3.43421 2.43433 3.36527 2.49554C3.30419 2.5501 3.24258 2.60309 3.18289 2.65958C3.115 2.72306 3.04885 2.78899 2.98253 2.85439C2.92494 2.91141 2.86629 2.96772 2.80975 3.0263C2.79945 3.03714 2.7895 3.04904 2.77868 3.06005C3.55813 3.46368 4.37946 3.78039 5.22785 4.00458C5.66906 2.5954 6.45374 1.3186 7.51121 0.289777Z" fill="url(#paint13_linear)"/>
<path d="M2.98096 17.143C3.04745 17.2086 3.1136 17.2748 3.18184 17.3387C3.24118 17.3938 3.30227 17.4461 3.36318 17.5011C3.43247 17.5629 3.50175 17.6248 3.57296 17.6842C3.63475 17.7362 3.69775 17.7864 3.76093 17.8367C3.83249 17.8948 3.90387 17.9525 3.97961 18.0083C4.04402 18.0567 4.10946 18.1036 4.17491 18.1517C4.24961 18.2054 4.32501 18.2591 4.4011 18.3107C4.46795 18.3558 4.53584 18.3998 4.60373 18.4432C4.68105 18.4929 4.75819 18.5417 4.8369 18.5889C4.90584 18.6305 4.97548 18.6713 5.04529 18.7111C5.12522 18.757 5.20533 18.8014 5.28614 18.8446C5.35752 18.8804 5.42908 18.9194 5.50064 18.9553C5.58284 18.9969 5.66574 19.0369 5.75074 19.0765C5.82229 19.1102 5.8949 19.1434 5.96855 19.176C6.0532 19.2136 6.13854 19.2475 6.22406 19.2833C6.29771 19.3134 6.37101 19.3432 6.44536 19.3715C6.5321 19.4049 6.62007 19.436 6.70803 19.4664C6.78238 19.4925 6.85673 19.5187 6.93213 19.543C7.02148 19.5721 7.11084 19.5986 7.20265 19.6251C7.277 19.6469 7.35169 19.6691 7.42674 19.6892C7.45571 19.6971 7.48503 19.7032 7.51401 19.7107C6.45601 18.6812 5.67098 17.4037 5.22959 15.9937C4.38121 16.218 3.55987 16.5347 2.78043 16.9385C2.7909 16.9492 2.80084 16.9608 2.81132 16.9718C2.8649 17.0298 2.92267 17.0861 2.98096 17.143Z" fill="url(#paint14_linear)"/>
<path d="M2.29471 16.3948C3.15339 15.9288 4.06391 15.5657 5.00724 15.3132C4.54474 13.7017 4.30197 12.0349 4.28574 10.3582H0C0.0780146 12.5692 0.884863 14.692 2.29471 16.3948Z" fill="url(#paint15_linear)"/>
<defs>
<linearGradient id="paint0_linear" x1="-7.45058e-08" y1="10" x2="20" y2="10" gradientUnits="userSpaceOnUse">
<stop stop-color="#06A0DC"/>
<stop offset="1" stop-color="#065CDC"/>
</linearGradient>
<linearGradient id="paint1_linear" x1="-7.45058e-08" y1="10" x2="20" y2="10" gradientUnits="userSpaceOnUse">
<stop stop-color="#06A0DC"/>
<stop offset="1" stop-color="#065CDC"/>
</linearGradient>
<linearGradient id="paint2_linear" x1="-7.45058e-08" y1="10" x2="20" y2="10" gradientUnits="userSpaceOnUse">
<stop stop-color="#06A0DC"/>
<stop offset="1" stop-color="#065CDC"/>
</linearGradient>
<linearGradient id="paint3_linear" x1="-7.45058e-08" y1="10" x2="20" y2="10" gradientUnits="userSpaceOnUse">
<stop stop-color="#06A0DC"/>
<stop offset="1" stop-color="#065CDC"/>
</linearGradient>
<linearGradient id="paint4_linear" x1="-7.45058e-08" y1="10" x2="20" y2="10" gradientUnits="userSpaceOnUse">
<stop stop-color="#06A0DC"/>
<stop offset="1" stop-color="#065CDC"/>
</linearGradient>
<linearGradient id="paint5_linear" x1="-7.45058e-08" y1="10" x2="20" y2="10" gradientUnits="userSpaceOnUse">
<stop stop-color="#06A0DC"/>
<stop offset="1" stop-color="#065CDC"/>
</linearGradient>
<linearGradient id="paint6_linear" x1="-7.45058e-08" y1="10" x2="20" y2="10" gradientUnits="userSpaceOnUse">
<stop stop-color="#06A0DC"/>
<stop offset="1" stop-color="#065CDC"/>
</linearGradient>
<linearGradient id="paint7_linear" x1="-7.45058e-08" y1="10" x2="20" y2="10" gradientUnits="userSpaceOnUse">
<stop stop-color="#06A0DC"/>
<stop offset="1" stop-color="#065CDC"/>
</linearGradient>
<linearGradient id="paint8_linear" x1="-7.45058e-08" y1="10" x2="20" y2="10" gradientUnits="userSpaceOnUse">
<stop stop-color="#06A0DC"/>
<stop offset="1" stop-color="#065CDC"/>
</linearGradient>
<linearGradient id="paint9_linear" x1="-7.45058e-08" y1="10" x2="20" y2="10" gradientUnits="userSpaceOnUse">
<stop stop-color="#06A0DC"/>
<stop offset="1" stop-color="#065CDC"/>
</linearGradient>
<linearGradient id="paint10_linear" x1="-7.45058e-08" y1="10" x2="20" y2="10" gradientUnits="userSpaceOnUse">
<stop stop-color="#06A0DC"/>
<stop offset="1" stop-color="#065CDC"/>
</linearGradient>
<linearGradient id="paint11_linear" x1="-7.45058e-08" y1="10" x2="20" y2="10" gradientUnits="userSpaceOnUse">
<stop stop-color="#06A0DC"/>
<stop offset="1" stop-color="#065CDC"/>
</linearGradient>
<linearGradient id="paint12_linear" x1="-7.45058e-08" y1="10" x2="20" y2="10" gradientUnits="userSpaceOnUse">
<stop stop-color="#06A0DC"/>
<stop offset="1" stop-color="#065CDC"/>
</linearGradient>
<linearGradient id="paint13_linear" x1="-7.45058e-08" y1="10" x2="20" y2="10" gradientUnits="userSpaceOnUse">
<stop stop-color="#06A0DC"/>
<stop offset="1" stop-color="#065CDC"/>
</linearGradient>
<linearGradient id="paint14_linear" x1="-7.45058e-08" y1="10" x2="20" y2="10" gradientUnits="userSpaceOnUse">
<stop stop-color="#06A0DC"/>
<stop offset="1" stop-color="#065CDC"/>
</linearGradient>
<linearGradient id="paint15_linear" x1="-7.45058e-08" y1="10" x2="20" y2="10" gradientUnits="userSpaceOnUse">
<stop stop-color="#06A0DC"/>
<stop offset="1" stop-color="#065CDC"/>
</linearGradient>
</defs>
</svg>
