<svg width="20" height="20" viewBox="0 0 20 20" fill="none" xmlns="http://www.w3.org/2000/svg">
<path d="M4.54927 12.2808C4.16859 11.3745 3.37123 10.587 2.38821 10.587H2.22137C1.01591 10.587 0.0387075 11.614 0.372943 12.7722C0.581316 13.4942 0.871282 14.1897 1.2382 14.8475C1.82414 15.8979 3.23798 15.9319 4.08847 15.0814L4.20446 14.9654C4.89962 14.2702 4.92999 13.1872 4.54927 12.2808Z" fill="url(#paint0_linear)"/>
<path d="M2.38822 9.41301C3.37123 9.41301 4.16858 8.62546 4.54926 7.71914C4.92997 6.81274 4.89962 5.72972 4.20445 5.03455L4.08846 4.91856C3.23798 4.06807 1.82414 4.10207 1.23821 5.15247C0.871289 5.81024 0.581321 6.50573 0.372948 7.22778C0.0387103 8.38598 1.01591 9.41301 2.22137 9.41301H2.38822Z" fill="url(#paint1_linear)"/>
<path d="M17.6117 10.587C16.6287 10.587 15.8314 11.3745 15.4507 12.2808C15.07 13.1872 15.1003 14.2702 15.7955 14.9654L15.9115 15.0814C16.762 15.9319 18.1758 15.8979 18.7618 14.8475C19.1287 14.1897 19.4186 13.4942 19.627 12.7722C19.9613 11.614 18.984 10.587 17.7786 10.587H17.6117Z" fill="url(#paint2_linear)"/>
<path d="M9.99998 5.26507C7.38913 5.26507 5.26507 7.38913 5.26507 9.99998C5.26507 12.6108 7.38913 14.7349 9.99998 14.7349C12.6108 14.7349 14.7349 12.6108 14.7349 9.99998C14.7349 7.38913 12.6108 5.26507 9.99998 5.26507ZM10.7093 12.4947C10.645 12.5228 10.6004 12.5849 10.6004 12.6551C10.6004 12.9954 10.3296 13.2479 10.0134 13.2479C9.68928 13.2479 9.42647 12.9851 9.42647 12.6609C9.42647 12.6283 9.40298 12.6005 9.37099 12.5939C9.12157 12.5427 8.88728 12.4418 8.59669 12.2516C8.31858 12.0696 8.25327 11.6989 8.42697 11.4334C8.60447 11.162 8.9682 11.086 9.23954 11.2635C9.52563 11.4507 9.61735 11.4653 10.0096 11.4626C10.3871 11.4601 10.5376 11.1636 10.567 10.9889C10.6022 10.7794 10.5124 10.6111 10.2728 10.5263C9.82608 10.3682 9.29992 10.1675 8.93169 9.87883C8.14383 9.2611 8.35763 7.86496 9.35275 7.44138C9.39645 7.42277 9.42655 7.38067 9.42655 7.33317C9.42655 6.9928 9.69738 6.74032 10.0135 6.74032C10.3377 6.74032 10.6005 7.00313 10.6005 7.3273C10.6005 7.35663 10.6199 7.38233 10.6479 7.39126C10.9194 7.47797 11.1301 7.61226 11.2556 7.72588C11.2592 7.7292 11.2576 7.73495 11.2613 7.73822C11.4982 7.95751 11.5137 8.32715 11.2954 8.56542C11.0768 8.80396 10.7066 8.82052 10.4676 8.60283C10.3161 8.49068 10.0853 8.44227 9.84216 8.51596C9.70325 8.55783 9.628 8.70653 9.62714 8.83981C9.62784 8.90101 9.64541 8.94085 9.65621 8.9493C9.87762 9.12296 10.2899 9.2816 10.6641 9.41383C12.162 9.94333 12.0391 11.9148 10.7093 12.4947Z" fill="url(#paint3_linear)"/>
<path d="M15.7955 5.03457C15.1004 5.72973 15.07 6.81273 15.4507 7.71912C15.8314 8.62544 16.6288 9.41301 17.6118 9.41301H17.7786C18.9841 9.41301 19.9613 8.38598 19.6271 7.22778C19.4187 6.50574 19.1287 5.81025 18.7618 5.15249C18.1759 4.10208 16.762 4.06808 15.9115 4.91858L15.7955 5.03457Z" fill="url(#paint4_linear)"/>
<path d="M12.7722 0.372941C11.614 0.038708 10.587 1.01591 10.587 2.22137V2.38822C10.587 3.37123 11.3745 4.16858 12.2808 4.54926C13.1872 4.92997 14.2702 4.89962 14.9654 4.20445L15.0814 4.08845C15.9319 3.23797 15.8979 1.82414 14.8475 1.2382C14.1897 0.871282 13.4942 0.581314 12.7722 0.372941Z" fill="url(#paint5_linear)"/>
<path d="M14.9654 15.7955C14.2703 15.1004 13.1873 15.07 12.2809 15.4507C11.3746 15.8314 10.587 16.6288 10.587 17.6118V17.7786C10.587 18.9841 11.614 19.9613 12.7722 19.6271C13.4943 19.4187 14.1898 19.1287 14.8475 18.7618C15.8979 18.1759 15.9319 16.762 15.0814 15.9115L14.9654 15.7955Z" fill="url(#paint6_linear)"/>
<path d="M9.41301 17.6117C9.41301 16.6287 8.62546 15.8314 7.71914 15.4507C6.81274 15.07 5.72972 15.1003 5.03455 15.7955L4.91856 15.9115C4.06807 16.762 4.10207 18.1758 5.15247 18.7618C5.81024 19.1287 6.50573 19.4186 7.22778 19.627C8.38598 19.9613 9.41301 18.984 9.41301 17.7786V17.6117Z" fill="url(#paint7_linear)"/>
<path d="M5.03457 4.20447C5.72973 4.89963 6.81273 4.93 7.71912 4.54928C8.62544 4.16859 9.41301 3.37122 9.41301 2.3882V2.22137C9.41301 1.01591 8.38598 0.0387103 7.22778 0.372948C6.50574 0.581319 5.81025 0.871282 5.15249 1.23819C4.10208 1.82413 4.06808 3.23799 4.91858 4.08848L5.03457 4.20447Z" fill="url(#paint8_linear)"/>
<defs>
<linearGradient id="paint0_linear" x1="-7.45058e-08" y1="10" x2="20" y2="10" gradientUnits="userSpaceOnUse">
<stop stop-color="#06A0DC"/>
<stop offset="1" stop-color="#065CDC"/>
</linearGradient>
<linearGradient id="paint1_linear" x1="-7.45058e-08" y1="10" x2="20" y2="10" gradientUnits="userSpaceOnUse">
<stop stop-color="#06A0DC"/>
<stop offset="1" stop-color="#065CDC"/>
</linearGradient>
<linearGradient id="paint2_linear" x1="-7.45058e-08" y1="10" x2="20" y2="10" gradientUnits="userSpaceOnUse">
<stop stop-color="#06A0DC"/>
<stop offset="1" stop-color="#065CDC"/>
</linearGradient>
<linearGradient id="paint3_linear" x1="-7.45058e-08" y1="10" x2="20" y2="10" gradientUnits="userSpaceOnUse">
<stop stop-color="#06A0DC"/>
<stop offset="1" stop-color="#065CDC"/>
</linearGradient>
<linearGradient id="paint4_linear" x1="-7.45058e-08" y1="10" x2="20" y2="10" gradientUnits="userSpaceOnUse">
<stop stop-color="#06A0DC"/>
<stop offset="1" stop-color="#065CDC"/>
</linearGradient>
<linearGradient id="paint5_linear" x1="-7.45058e-08" y1="10" x2="20" y2="10" gradientUnits="userSpaceOnUse">
<stop stop-color="#06A0DC"/>
<stop offset="1" stop-color="#065CDC"/>
</linearGradient>
<linearGradient id="paint6_linear" x1="-7.45058e-08" y1="10" x2="20" y2="10" gradientUnits="userSpaceOnUse">
<stop stop-color="#06A0DC"/>
<stop offset="1" stop-color="#065CDC"/>
</linearGradient>
<linearGradient id="paint7_linear" x1="-7.45058e-08" y1="10" x2="20" y2="10" gradientUnits="userSpaceOnUse">
<stop stop-color="#06A0DC"/>
<stop offset="1" stop-color="#065CDC"/>
</linearGradient>
<linearGradient id="paint8_linear" x1="-7.45058e-08" y1="10" x2="20" y2="10" gradientUnits="userSpaceOnUse">
<stop stop-color="#06A0DC"/>
<stop offset="1" stop-color="#065CDC"/>
</linearGradient>
</defs>
</svg>
