<svg width="20" height="20" viewBox="0 0 20 20" fill="none" xmlns="http://www.w3.org/2000/svg">
<path d="M10 0C4.48607 0 0 4.48607 0 10C0 15.5139 4.48607 20 10 20C15.5139 20 20 15.5139 20 10C20 4.48607 15.5139 0 10 0ZM10.6505 15.9332C10.1754 16.0124 9.23004 16.2103 8.74999 16.25C8.34365 16.2837 7.96019 16.0511 7.72644 15.7172C7.49208 15.3833 7.43593 14.956 7.57506 14.5727L9.07005 10.4619C9.26217 9.93361 8.87093 9.37501 8.30877 9.37501C7.86189 9.37501 7.48315 8.99896 7.65563 8.5867C7.93938 7.90847 8.58281 7.41555 9.34972 7.18997C9.84556 7.04408 10.7694 6.84444 11.25 6.87503C11.5379 6.89335 12.0398 7.07399 12.2735 7.40788C12.5079 7.74174 12.564 8.16899 12.4249 8.55229L10.9296 12.664C10.7376 13.1919 11.1286 13.75 11.6903 13.75C12.1372 13.75 12.5134 14.124 12.3536 14.5414C12.0797 15.2566 11.4439 15.801 10.6505 15.9332ZM11.25 6.25001C10.5596 6.25001 9.99996 5.6903 9.99996 5C9.99996 4.30962 10.5596 3.74999 11.25 3.74999C11.9403 3.74999 12.5 4.30962 12.5 5C12.5 5.69034 11.9404 6.25001 11.25 6.25001Z" fill="url(#paint0_linear)"/>
<defs>
<linearGradient id="paint0_linear" x1="-7.45058e-08" y1="10" x2="20" y2="10" gradientUnits="userSpaceOnUse">
<stop stop-color="#06A0DC"/>
<stop offset="1" stop-color="#065CDC"/>
</linearGradient>
</defs>
</svg>
