<svg width="20" height="20" viewBox="0 0 20 20" fill="none" xmlns="http://www.w3.org/2000/svg">
<path d="M20 10.0189L17.3934 8.03789L18.8022 4.9377L15.4125 4.60695L15.0817 1.21723L11.9809 2.62598L10 0L8.01902 2.62602L4.91824 1.21727L4.5875 4.60699L1.19777 4.93773L2.60652 8.03793L0 10.0189L2.60656 11.9998L1.19781 15.1006L4.58754 15.4314L4.91828 18.8211L8.01906 17.4123L10 20L11.981 17.4123L15.0818 18.8211L15.4125 15.4314L18.8022 15.1006L17.3935 11.9998L20 10.0189ZM9.99371 9.58574C10.963 9.58574 11.7515 10.3743 11.7515 11.3436C11.7515 12.1041 11.2633 12.747 10.5859 12.9914V14.1016H9.41406V12.9954C8.73027 12.7545 8.2359 12.1087 8.2359 11.3436H9.40777C9.40777 11.6668 9.67043 11.9295 9.99371 11.9295C10.317 11.9295 10.5796 11.6668 10.5796 11.3436C10.5796 11.0203 10.317 10.7576 9.99371 10.7576C9.02441 10.7576 8.2359 9.9691 8.2359 8.9998C8.2359 8.23461 8.73027 7.58891 9.41406 7.34801V5.89844H10.5859V7.35191C11.2633 7.59633 11.7515 8.23926 11.7515 8.9998H10.5796C10.5796 8.67652 10.317 8.41387 9.99371 8.41387C9.67043 8.41387 9.40777 8.67652 9.40777 8.9998C9.40777 9.32309 9.67043 9.58574 9.99371 9.58574Z" fill="url(#paint0_linear)"/>
<defs>
<linearGradient id="paint0_linear" x1="-7.45058e-08" y1="10" x2="20" y2="10" gradientUnits="userSpaceOnUse">
<stop stop-color="#06A0DC"/>
<stop offset="1" stop-color="#065CDC"/>
</linearGradient>
</defs>
</svg>
