<svg width="20" height="18" viewBox="0 0 20 18" fill="none" xmlns="http://www.w3.org/2000/svg">
<path d="M1.87502 8.40008H0.625006C0.280003 8.40008 0 8.66888 0 9.00008V17.4C0 17.7312 0.280003 18 0.625006 18H1.87502C2.22002 18 2.50002 17.7312 2.50002 17.4V9.00008C2.50002 8.66888 2.22002 8.40008 1.87502 8.40008Z" fill="url(#paint0_linear)"/>
<path d="M19.6052 9.69487C18.9702 8.90888 17.7902 8.76848 16.9752 9.37927L12.3651 12.8208C12.0351 13.0668 11.6301 13.2 11.2139 13.2H6.87506C8.60133 13.2 10.0001 11.8573 10.0001 10.2001C10.0001 9.86887 9.72009 9.60007 9.37509 9.60007H7.35C5.3618 9.60007 3.75003 11.2118 3.75003 13.2C3.75003 15.1882 5.3618 16.8 7.35 16.8H12.0701C12.7651 16.8 13.4401 16.578 13.9889 16.1676L19.2764 12.2196C20.0939 11.6101 20.2402 10.4797 19.6052 9.69487Z" fill="url(#paint1_linear)"/>
<path d="M10.6251 0.000153137C9.59134 0.000153137 8.75008 0.807746 8.75008 1.80014C8.75008 2.79253 9.59134 3.60012 10.6251 3.60012C11.6589 3.60012 12.5001 2.79253 12.5001 1.80014C12.5001 0.807746 11.6589 0.000153137 10.6251 0.000153137ZM10.6251 2.40013C10.2801 2.40013 10.0001 2.13134 10.0001 1.80014C10.0001 1.46894 10.2801 1.20014 10.6251 1.20014C10.9701 1.20014 11.2501 1.46894 11.2501 1.80014C11.2501 2.13134 10.9701 2.40013 10.6251 2.40013Z" fill="url(#paint2_linear)"/>
<path d="M14.3751 4.80011C13.3414 4.80011 12.5001 5.60771 12.5001 6.6001C12.5001 7.59249 13.3414 8.40008 14.3751 8.40008C15.4089 8.40008 16.2502 7.59249 16.2502 6.6001C16.2502 5.60771 15.4089 4.80011 14.3751 4.80011ZM14.3751 7.20009C14.0314 7.20009 13.7501 6.93129 13.7501 6.6001C13.7501 6.2689 14.0314 6.0001 14.3751 6.0001C14.7189 6.0001 15.0001 6.2689 15.0001 6.6001C15.0001 6.93129 14.7189 7.20009 14.3751 7.20009Z" fill="url(#paint3_linear)"/>
<path d="M16.0276 0.138152C15.7639 -0.0718463 15.3701 -0.0394465 15.1476 0.214951L8.89758 7.41489C8.67383 7.67049 8.71008 8.04968 8.97508 8.26088C9.09133 8.35448 9.23384 8.40008 9.37509 8.40008C9.55509 8.40008 9.73259 8.32688 9.85634 8.18408L16.1064 0.984145C16.3277 0.729747 16.2914 0.35055 16.0276 0.138152Z" fill="url(#paint4_linear)"/>
<defs>
<linearGradient id="paint0_linear" x1="-7.45058e-08" y1="9" x2="20" y2="9" gradientUnits="userSpaceOnUse">
<stop stop-color="#06A0DC"/>
<stop offset="1" stop-color="#065CDC"/>
</linearGradient>
<linearGradient id="paint1_linear" x1="-7.45058e-08" y1="9" x2="20" y2="9" gradientUnits="userSpaceOnUse">
<stop stop-color="#06A0DC"/>
<stop offset="1" stop-color="#065CDC"/>
</linearGradient>
<linearGradient id="paint2_linear" x1="-7.45058e-08" y1="9" x2="20" y2="9" gradientUnits="userSpaceOnUse">
<stop stop-color="#06A0DC"/>
<stop offset="1" stop-color="#065CDC"/>
</linearGradient>
<linearGradient id="paint3_linear" x1="-7.45058e-08" y1="9" x2="20" y2="9" gradientUnits="userSpaceOnUse">
<stop stop-color="#06A0DC"/>
<stop offset="1" stop-color="#065CDC"/>
</linearGradient>
<linearGradient id="paint4_linear" x1="-7.45058e-08" y1="9" x2="20" y2="9" gradientUnits="userSpaceOnUse">
<stop stop-color="#06A0DC"/>
<stop offset="1" stop-color="#065CDC"/>
</linearGradient>
</defs>
</svg>
