<svg width="20" height="17" viewBox="0 0 20 17" fill="none" xmlns="http://www.w3.org/2000/svg">
<path d="M8.75 4.85671C8.75 4.18605 8.20633 3.64238 7.53567 3.64238H1.25C0.56125 3.64238 0 4.18761 0 4.85671C0 6.19802 1.08735 7.28537 2.42866 7.28537H6.56538C7.81635 7.28537 8.75 6.10768 8.75 4.85671Z" fill="url(#paint0_linear)"/>
<path d="M19.9666 9.71403C19.9554 9.71403 19.945 9.71957 19.9388 9.72884C19.0862 10.9987 17.789 12.0799 15.9338 13.1154C15.6475 13.2744 15.325 13.357 15 13.357C14.675 13.357 14.3525 13.2744 14.07 13.1178C13.4079 12.7474 12.8169 12.3714 12.2918 11.9832C10.682 10.7933 8.85226 9.71403 6.85043 9.71403H6C2.68629 9.71403 0 12.4003 0 15.714V15.7857C0 16.456 0.56125 17 1.25 17H18.75C19.44 17 20 16.456 20 15.7857V9.74742C20 9.72898 19.985 9.71403 19.9666 9.71403ZM5.625 13.357H3.125C2.78 13.357 2.5 13.085 2.5 12.7498C2.5 12.4147 2.78 12.1427 3.125 12.1427H5.625C5.97 12.1427 6.25 12.4147 6.25 12.7498C6.25 13.085 5.97 13.357 5.625 13.357Z" fill="url(#paint1_linear)"/>
<path d="M19.6213 1.87067L15.2462 0.0491803C15.0875 -0.0163934 14.9113 -0.0163934 14.7525 0.0491803L10.3775 1.87067C10.1488 1.96539 10 2.18518 10 2.42805V4.85671C10 8.19733 11.2713 10.15 14.6888 12.0625C14.785 12.116 14.8925 12.1427 15 12.1427C15.1075 12.1427 15.215 12.116 15.3112 12.0625C18.7288 10.1548 20 8.20219 20 4.85671V2.42805C20 2.18518 19.8512 1.96539 19.6213 1.87067ZM17.3638 4.62963L14.8637 7.66545C14.7437 7.80874 14.5638 7.89253 14.375 7.89253C14.3663 7.89253 14.3562 7.89253 14.3488 7.89253C14.15 7.88403 13.9662 7.78446 13.855 7.62295L12.605 5.80146C12.4137 5.52216 12.4912 5.14572 12.7787 4.95993C13.0637 4.77535 13.4525 4.84821 13.645 5.12872C14.0337 5.69478 14.8564 5.73057 15.2928 5.20042L16.3862 3.87189C16.6025 3.61081 16.9963 3.56952 17.265 3.77717C17.535 3.98482 17.5775 4.36733 17.3638 4.62963Z" fill="url(#paint2_linear)"/>
<defs>
<linearGradient id="paint0_linear" x1="-7.45058e-08" y1="8.5" x2="20" y2="8.5" gradientUnits="userSpaceOnUse">
<stop stop-color="#06A0DC"/>
<stop offset="1" stop-color="#065CDC"/>
</linearGradient>
<linearGradient id="paint1_linear" x1="-7.45058e-08" y1="8.5" x2="20" y2="8.5" gradientUnits="userSpaceOnUse">
<stop stop-color="#06A0DC"/>
<stop offset="1" stop-color="#065CDC"/>
</linearGradient>
<linearGradient id="paint2_linear" x1="-7.45058e-08" y1="8.5" x2="20" y2="8.5" gradientUnits="userSpaceOnUse">
<stop stop-color="#06A0DC"/>
<stop offset="1" stop-color="#065CDC"/>
</linearGradient>
</defs>
</svg>
