<svg width="79" height="79" viewBox="0 0 79 79" fill="none" xmlns="http://www.w3.org/2000/svg">
<path d="M79 39.5C79 34.5683 71.7407 30.5353 62.4073 30.0053C68.6296 23.0455 70.9111 15.0487 67.4312 11.5688C63.9513 8.08897 55.9545 10.3474 48.9948 16.5928C48.4878 7.28238 44.4318 0 39.5 0C34.5683 0 30.5353 7.25933 30.0053 16.5928C23.0456 10.3705 15.0488 8.08897 11.5689 11.5688C8.08902 15.0487 10.3475 23.0455 16.5928 30.0053C7.28241 30.5123 0 34.5683 0 39.5C0 44.4317 7.25936 48.4878 16.5928 48.9948C10.3705 55.9545 8.08902 63.9513 11.5689 67.4312C15.0488 70.911 23.0456 68.6526 30.0053 62.4072C30.5123 71.7176 34.5683 79 39.5 79C44.4318 79 48.4647 71.7407 48.9948 62.4072C55.9545 68.6295 63.9513 70.911 67.4312 67.4312C70.9111 63.9513 68.6526 55.9545 62.4073 48.9948C71.7177 48.4878 79 44.4317 79 39.5V39.5ZM38.5091 41.9428C38.3247 41.6663 38.1173 41.3897 37.8638 41.1593C37.6103 40.9058 37.3568 40.6984 37.0802 40.514C37.1494 40.1914 37.1955 39.8457 37.1955 39.5C37.1955 39.1543 37.1494 38.8086 37.0802 38.486C37.3568 38.3016 37.6334 38.0942 37.8638 37.8407C38.1173 37.5872 38.3247 37.3337 38.5091 37.0572C38.8317 37.1263 39.1774 37.1724 39.5231 37.1724C39.8688 37.1724 40.2144 37.1263 40.537 37.0572C40.7214 37.3337 40.9289 37.6103 41.1824 37.8407C41.4359 38.0712 41.6894 38.3016 41.9659 38.486C41.8968 38.8086 41.8507 39.1543 41.8507 39.5C41.8507 39.8457 41.8968 40.1914 41.9659 40.514C41.6894 40.6984 41.4128 40.9058 41.1824 41.1593C40.9289 41.4128 40.7214 41.6663 40.537 41.9428C40.2144 41.8737 39.8688 41.8276 39.5231 41.8276C39.1774 41.8276 38.8317 41.8737 38.5091 41.9428Z" fill="#FF995B"/>
<path d="M51.9443 39.1318C51.9443 46.0224 46.3443 51.6224 39.4537 51.6224C32.5631 51.6224 26.963 46.0224 26.963 39.1318C26.963 32.2412 32.5631 26.6411 39.4537 26.6411C46.3443 26.6411 51.9443 32.2412 51.9443 39.1318V39.1318Z" fill="#1A0A1B"/>
</svg>
