<svg width="84" height="84" viewBox="0 0 84 84" fill="none" xmlns="http://www.w3.org/2000/svg">
<path d="M42 84C65.196 84 84 65.196 84 42C84 18.804 65.196 0 42 0C18.804 0 0 18.804 0 42C0 65.196 18.804 84 42 84Z" fill="#EEF5FF"/>
<path d="M42 73.1353C59.1957 73.1353 73.1355 59.1955 73.1355 41.9999C73.1355 24.8043 59.1957 10.8645 42 10.8645C24.8044 10.8645 10.8646 24.8043 10.8646 41.9999C10.8646 59.1955 24.8044 73.1353 42 73.1353Z" fill="#D0E4F2"/>
<path d="M52.4443 31.0289C50.4547 24.3861 42.0836 15.0111 42.0836 15.0111C42.0836 15.0111 33.7126 24.3861 31.723 31.0289C29.7334 37.6716 33.7126 45.5613 42.0836 45.5613C50.4547 45.5613 54.4339 37.6716 52.4443 31.0289V31.0289Z" fill="#FFECD6" stroke="#141431" stroke-linecap="round" stroke-linejoin="round"/>
<path d="M35.4033 33.2161C35.4033 33.2161 37.0805 34.4539 39.0957 38.5773C39.0957 38.5773 42.2641 32.0807 47.6632 27.2605" stroke="url(#paint0_linear_103_5364)" stroke-width="5" stroke-linecap="round" stroke-linejoin="round"/>
<path d="M64.3221 30.1396C64.3221 30.1396 62.9834 28.6222 60.9938 31.8679C59.0042 35.1136 55.0938 45.268 55.0938 45.268C55.0938 45.268 60.9938 44.9242 62.0253 42.5632C63.0568 40.2023 64.3221 30.1396 64.3221 30.1396V30.1396Z" fill="white" stroke="#141431" stroke-linejoin="bevel"/>
<path d="M43.2525 71C43.2525 71 41.4829 53.5886 44.912 51.4843C48.3411 49.3801 56.1987 44.7362 58.1884 43.1866C60.178 41.6371 63.9418 29.0255 65.4913 28.5808C67.0408 28.1362 68.0723 28.8376 67.1141 35.4024C66.0231 42.8887 66.4861 50.595 63.5016 53.1439C60.5126 55.6882 53.7782 60.7769 53.8836 62.1063C53.9891 63.4358 53.8836 71 53.8836 71L43.2571 73L43.2525 71Z" fill="white" stroke="#141431" stroke-linejoin="bevel"/>
<path d="M57.1889 43.9018C57.1889 43.9018 59.6644 42.1185 60.8426 43.2967C62.0208 44.4749 60.916 46.3957 58.4083 49.4168C55.9007 52.4425 55.0892 53.2539 55.0892 53.2539" stroke="#141431" stroke-linejoin="bevel"/>
<path d="M19.8447 30.1396C19.8447 30.1396 21.1834 28.6222 23.173 31.8679C25.1626 35.1136 29.0731 45.268 29.0731 45.268C29.0731 45.268 23.173 44.9242 22.1415 42.5632C21.11 40.2023 19.8447 30.1396 19.8447 30.1396Z" fill="white" stroke="#141431" stroke-linejoin="bevel"/>
<path d="M40.9146 71C40.9146 71 42.6842 53.5886 39.255 51.4843C35.8259 49.3801 27.9683 44.7362 25.9787 43.1866C23.9891 41.6371 20.2253 29.0255 18.6758 28.5808C17.1263 28.1362 16.0948 28.8376 17.0529 35.4024C18.144 42.8887 17.681 50.595 20.6654 53.1439C23.6544 55.6882 30.3889 60.7769 30.2834 62.1063C30.178 63.4358 30.2834 71 30.2834 71L40.91 73L40.9146 71Z" fill="white" stroke="#141431" stroke-linejoin="bevel"/>
<path d="M26.9781 43.9018C26.9781 43.9018 24.5025 42.1185 23.3243 43.2967C22.1461 44.4749 23.251 46.3957 25.7586 49.4168C28.2663 52.4425 29.0777 53.2539 29.0777 53.2539" stroke="#141431" stroke-linejoin="bevel"/>
<path d="M35 16C35 16 34.6382 20.6097 30 22C34.6382 23.3903 35 28 35 28C35 28 35.3618 23.3903 40 22C35.3618 20.6097 35 16 35 16Z" fill="white" stroke="#141431" stroke-linecap="round" stroke-linejoin="round"/>
<path d="M49.7625 36C49.7625 36 49.4903 39.6264 46 40.7201C49.4903 41.8139 49.7625 45.4403 49.7625 45.4403C49.7625 45.4403 50.0347 41.8139 53.525 40.7201C50.0347 39.6264 49.7625 36 49.7625 36Z" fill="white" stroke="#141431" stroke-linecap="round" stroke-linejoin="round"/>
<path d="M10.8365 24.918C11.3177 25.2048 11.6191 25.5888 11.7358 26.0701C11.8573 26.5465 11.7747 27.0618 11.5024 27.6062C11.2011 28.2041 10.7636 28.5687 10.1899 28.7097C9.61633 28.8507 8.97952 28.7388 8.27952 28.3888L7.99758 28.2479C7.55036 28.0243 7.1955 27.7423 6.93786 27.4166C6.67536 27.0861 6.52952 26.7312 6.4955 26.3472C6.46147 25.9632 6.54411 25.5791 6.73855 25.1902C7.01077 24.6555 7.3705 24.2958 7.82258 24.1111C8.27466 23.9263 8.77536 23.9409 9.3198 24.1548L8.83369 25.1125C8.52258 24.9861 8.26008 24.9569 8.05591 25.0347C7.84688 25.1125 7.67188 25.2972 7.52119 25.5888C7.36077 25.9097 7.35105 26.2062 7.50175 26.4784C7.65244 26.7507 7.96355 27.0132 8.4448 27.2611L8.7948 27.4409C9.2955 27.6937 9.70383 27.8055 10.0101 27.7715C10.3212 27.7375 10.5545 27.5527 10.7198 27.227C10.8705 26.9305 10.9142 26.6777 10.8511 26.4638C10.7879 26.25 10.6226 26.0604 10.3504 25.8951L10.8365 24.9375V24.918Z" fill="#5D5D70"/>
<path d="M12.5816 23.8681L13.8503 21.9771L14.5649 22.4584L12.6982 25.2389L8.37671 22.3368L8.97463 21.4473L12.5816 23.8681V23.8681Z" fill="#5D5D70"/>
<path d="M15.6296 21.1848L14.9588 22.0209L10.8998 18.7591L11.5706 17.923L15.6296 21.1848Z" fill="#5D5D70"/>
<path d="M19.1198 17.4757L18.3664 18.2389L14.4629 17.3153L16.8983 19.7264L16.1448 20.4896L12.4407 16.8292L13.1941 16.066L17.1073 16.9896L14.6671 14.5785L15.4205 13.8202L19.1247 17.4806L19.1198 17.4757Z" fill="#5D5D70"/>
<path d="M20.6462 16.2653L19.8198 16.9458L16.5094 12.9257L17.3358 12.2451L20.6462 16.2653Z" fill="#5D5D70"/>
<path d="M23.733 11.9632C24.0101 12.4493 24.0879 12.9305 23.9566 13.4069C23.8254 13.8833 23.5094 14.2916 23.0039 14.6319C22.4497 15.0062 21.8907 15.1132 21.3219 14.9528C20.7532 14.7923 20.2525 14.3889 19.815 13.7375L19.6351 13.475C19.3532 13.0618 19.183 12.6437 19.115 12.2305C19.0469 11.8173 19.0955 11.4333 19.2511 11.0784C19.4115 10.7284 19.6691 10.4271 20.0289 10.1889C20.5296 9.85345 21.0205 9.71734 21.5018 9.78053C21.9879 9.84373 22.4157 10.1014 22.7851 10.5486L21.8955 11.1465C21.6865 10.884 21.4726 10.7333 21.2539 10.6944C21.0351 10.6604 20.7921 10.7333 20.5198 10.918C20.2233 11.1173 20.0726 11.375 20.0678 11.6861C20.0629 11.9972 20.2087 12.3764 20.5053 12.8284L20.724 13.1541C21.04 13.6208 21.3365 13.9173 21.6233 14.034C21.9101 14.1555 22.2066 14.1118 22.508 13.9076C22.7851 13.7229 22.9455 13.5236 22.999 13.3048C23.0476 13.0861 22.999 12.843 22.8386 12.5659L23.7282 11.968L23.733 11.9632Z" fill="#5D5D70"/>
<path d="M27.3351 10.889L25.6434 11.7153L25.7941 12.8383L24.7684 13.339L24.2191 7.80701L25.1136 7.36951L29.1531 11.1903L28.1275 11.691L27.3302 10.8841L27.3351 10.889ZM25.5219 10.8063L26.6934 10.2327L25.2497 8.76951L25.5268 10.8063H25.5219Z" fill="#5D5D70"/>
<path d="M31.1316 10.5049L29.7656 5.47851L31.3115 5.05559C31.7538 4.93406 32.1767 4.9292 32.5802 5.03129C32.9837 5.13337 33.3337 5.3424 33.6253 5.65837C33.9219 5.97434 34.1309 6.36323 34.2573 6.8299L34.3205 7.06323C34.4469 7.5299 34.4663 7.97226 34.374 8.38545C34.2816 8.80351 34.0872 9.15837 33.7906 9.45004C33.4941 9.74656 33.1295 9.95559 32.692 10.0771L31.1365 10.5L31.1316 10.5049ZM31.0295 6.03754L31.9434 9.3917L32.4441 9.25559C32.8476 9.14379 33.1247 8.9299 33.2656 8.6042C33.4066 8.27851 33.4115 7.87504 33.2851 7.3792L33.2122 7.11184C33.0712 6.60143 32.8622 6.2417 32.5802 6.03754C32.2983 5.83337 31.9531 5.78476 31.5448 5.89656L31.0344 6.03754H31.0295Z" fill="#5D5D70"/>
<path d="M38.3796 6.68887L36.3379 6.97567L36.5323 8.35623L38.924 8.01595L39.0455 8.87151L35.5893 9.35762L34.8601 4.19998L38.3115 3.71387L38.433 4.57428L36.0462 4.9097L36.2212 6.13956L38.2629 5.85276L38.3796 6.68401V6.68887Z" fill="#5D5D70"/>
<path d="M41.4129 6.89789L40.5573 6.91248L40.5914 8.81803L39.517 8.83748L39.4247 3.63123L41.3594 3.5972C41.9719 3.58748 42.4532 3.71387 42.7886 3.98123C43.1288 4.24859 43.299 4.63262 43.3087 5.13331C43.3136 5.48817 43.2455 5.7847 43.0948 6.02776C42.9441 6.26595 42.7157 6.46039 42.4045 6.60623L43.5664 8.71595V8.76456L42.4143 8.78401L41.4032 6.89303L41.4129 6.89789ZM40.5427 6.04234L41.408 6.02776C41.6754 6.02776 41.8844 5.94998 42.0302 5.80901C42.1761 5.66803 42.2441 5.47845 42.2441 5.24026C42.2441 4.9972 42.1663 4.80276 42.0254 4.66664C41.8844 4.53053 41.6657 4.46248 41.3789 4.46734L40.5184 4.48192L40.5476 6.04234H40.5427Z" fill="#5D5D70"/>
<path d="M46.1088 3.78199L46.9157 7.70491L48.7484 4.14657L50.1435 4.34102L49.4338 9.49866L48.3692 9.35282L48.5636 7.9431L49.006 5.52227L47.081 9.17296L46.3518 9.07088L45.4914 5.04102L45.2629 7.48616L45.0685 8.89588L44.0039 8.75005L44.7136 3.59241L46.1039 3.78199H46.1088Z" fill="#5D5D70"/>
<path d="M53.2789 9.5521L51.4802 8.99794L50.824 9.91669L49.7351 9.58127L53.1184 5.17224L54.0712 5.46391L54.4066 11.0153L53.3177 10.6799L53.2886 9.54724L53.2789 9.5521ZM52.0101 8.25419L53.2546 8.63821L53.2011 6.58196L52.0101 8.25419Z" fill="#5D5D70"/>
<path d="M59.647 8.65768L58.1886 8.00629L56.4192 11.9681L55.4373 11.5306L57.2067 7.56879L55.7678 6.92713L56.1227 6.13477L59.997 7.86532L59.6421 8.65768H59.647Z" fill="#5D5D70"/>
<path d="M63.1324 12.9111C62.8651 13.3486 62.5491 13.6841 62.1942 13.9174C61.8394 14.1507 61.4602 14.2674 61.0616 14.2723C60.663 14.2723 60.279 14.1605 59.9095 13.932C59.5401 13.7035 59.2678 13.4167 59.088 13.0618C58.9081 12.707 58.8401 12.3181 58.8838 11.8903C58.9276 11.4625 59.0783 11.0396 59.3408 10.6118L59.4769 10.3931C59.7442 9.95559 60.0602 9.62018 60.4248 9.38684C60.7894 9.15351 61.1637 9.03198 61.5623 9.03198C61.9609 9.03198 62.3401 9.14379 62.7095 9.37226C63.079 9.60073 63.3512 9.8924 63.531 10.2473C63.7109 10.6021 63.7741 10.9959 63.7255 11.4236C63.6769 11.8514 63.5213 12.2841 63.2539 12.7167L63.1324 12.916V12.9111ZM62.3303 12.1382C62.6171 11.6716 62.7533 11.2681 62.7338 10.923C62.7144 10.5778 62.5539 10.3105 62.2428 10.1209C61.9366 9.93129 61.6255 9.90698 61.3144 10.0431C60.9984 10.1792 60.7019 10.4757 60.4151 10.9375L60.2838 11.1514C60.0067 11.6035 59.8706 12.007 59.8852 12.357C59.8998 12.707 60.0602 12.9841 60.3713 13.1736C60.6776 13.3632 60.9887 13.3875 61.2998 13.2466C61.6109 13.1056 61.9123 12.8091 62.1991 12.3473L62.3303 12.1285V12.1382Z" fill="#5D5D70"/>
<path d="M63.6915 15.4291L65.4658 16.8583L64.9262 17.5291L62.3158 15.4243L65.5873 11.3701L66.4234 12.0458L63.6963 15.4291H63.6915Z" fill="#5D5D70"/>
<path d="M69.8747 19.0118C69.5101 19.3715 69.1212 19.6194 68.7177 19.7555C68.3143 19.8965 67.9205 19.9159 67.5365 19.8236C67.1525 19.7264 66.8073 19.5222 66.5011 19.2111C66.1997 18.9 66.0053 18.5548 65.9178 18.1659C65.8303 17.7771 65.8594 17.3833 66.0052 16.9847C66.1511 16.5812 66.4039 16.2069 66.7587 15.8569L66.9434 15.6771C67.3129 15.3173 67.6969 15.0694 68.1053 14.9333C68.5136 14.7923 68.9122 14.7729 69.2962 14.8701C69.6802 14.9673 70.0254 15.1715 70.3268 15.4826C70.6282 15.7937 70.8226 16.1437 70.9101 16.5277C70.9976 16.9166 70.9636 17.3104 70.8129 17.7139C70.6622 18.1173 70.4046 18.4965 70.04 18.8562L69.8747 19.0166V19.0118ZM69.2865 18.0687C69.6754 17.6896 69.9087 17.3298 69.9719 16.9896C70.0351 16.6493 69.9476 16.3527 69.6948 16.0951C69.4421 15.8375 69.1504 15.7354 68.815 15.7889C68.4796 15.8423 68.115 16.0611 67.7261 16.4354L67.5414 16.6104C67.1622 16.9798 66.9337 17.3396 66.8608 17.6847C66.7879 18.0298 66.8803 18.3312 67.133 18.5986C67.3858 18.8562 67.6775 18.9583 68.0177 18.9C68.3532 18.8416 68.7177 18.6229 69.1066 18.2486L69.2865 18.0736V18.0687Z" fill="#5D5D70"/>
<path d="M71.4351 24.15C71.1337 24.1306 70.8275 24.0139 70.5164 23.8049C70.2053 23.5959 69.9233 23.3188 69.6706 22.9688C69.4032 22.6042 69.2525 22.2299 69.2087 21.8361C69.165 21.4472 69.2428 21.0632 69.4372 20.6938C69.6317 20.3243 69.9282 19.9889 70.3365 19.6827L70.6233 19.4736C71.0414 19.1674 71.4594 18.9729 71.8678 18.8903C72.2761 18.8077 72.6601 18.8368 73.0199 18.9875C73.3796 19.1334 73.6858 19.3861 73.9483 19.7459C74.3129 20.2466 74.4782 20.7229 74.449 21.175C74.415 21.632 74.1914 22.05 73.7782 22.4341L73.1608 21.5931C73.3747 21.3792 73.4865 21.1653 73.5011 20.9514C73.5157 20.7375 73.4379 20.5139 73.2726 20.2854C73.0587 19.9889 72.7817 19.8479 72.4511 19.8577C72.1157 19.8674 71.7317 20.0278 71.2942 20.3438L71.0268 20.5382C70.5844 20.8591 70.3171 21.1896 70.2101 21.5202C70.108 21.8507 70.1761 22.1813 70.4094 22.5021C70.6476 22.8278 70.8858 23.0077 71.124 23.0466L71.8483 22.5167L71.2699 21.7292L71.9067 21.2625L73.1171 22.9153L71.44 24.1403L71.4351 24.15Z" fill="#5D5D70"/>
<path d="M71.8338 26.1917L71.2893 25.2681L75.781 22.6285L76.3254 23.5522L71.8338 26.1917Z" fill="#5D5D70"/>
<path d="M75.6691 28.8118L74.7844 26.95L73.5254 27.5479L74.5608 29.7305L73.783 30.1L72.2858 26.9451L76.9913 24.7139L78.4837 27.859L77.6962 28.2333L76.6656 26.0555L75.5427 26.5854L76.4274 28.4472L75.6691 28.8069V28.8118Z" fill="#5D5D70"/>
<path d="M27.4566 79.1291L26.3046 78.6819L28.4823 73.0868L29.6344 73.534L27.4566 79.1291V79.1291Z" fill="#5D5D70"/>
<path d="M28.9197 79.698L30.4606 73.8938L32.2447 74.3702C32.7551 74.5063 33.1829 74.7396 33.5231 75.0799C33.8634 75.4153 34.0919 75.8285 34.2037 76.3098C34.3155 76.791 34.3009 77.3063 34.16 77.8459L34.087 78.1132C33.9461 78.6528 33.703 79.1049 33.3725 79.4646C33.037 79.8244 32.6384 80.0674 32.1766 80.1938C31.7148 80.3202 31.2238 80.3153 30.7183 80.1792L28.9197 79.7028V79.698ZM31.3988 75.182L30.3683 79.0563L30.9468 79.2119C31.4134 79.3382 31.812 79.2799 32.1426 79.0369C32.4732 78.7987 32.7113 78.3952 32.8718 77.8264L32.9544 77.5202C33.11 76.932 33.1051 76.4507 32.9447 76.0813C32.7794 75.7119 32.4634 75.4639 31.9919 75.3375L31.4037 75.182H31.3988Z" fill="#5D5D70"/>
<path d="M38.6517 78.959L36.2941 78.6673L36.0948 80.2618L38.8608 80.6021L38.7392 81.5889L34.7434 81.0979L35.4774 75.1382L39.4635 75.6292L39.342 76.6257L36.5809 76.2854L36.4059 77.7048L38.7635 77.9965L38.6469 78.959H38.6517Z" fill="#5D5D70"/>
<path d="M42.1613 79.4549L41.1745 79.4695L41.2037 81.6667L39.969 81.6861L39.8815 75.6827L42.1127 75.6486C42.8224 75.6389 43.3717 75.7896 43.7606 76.1007C44.1495 76.4118 44.3488 76.8542 44.3586 77.4327C44.3634 77.841 44.2808 78.1861 44.1058 78.4632C43.9308 78.7403 43.6683 78.9591 43.3086 79.1292L44.6405 81.5646V81.6229L43.3134 81.6424L42.1565 79.4598L42.1613 79.4549ZM41.1599 78.4681L42.1565 78.4535C42.4676 78.4535 42.7058 78.366 42.8759 78.2056C43.0461 78.0452 43.1238 77.8264 43.1238 77.5493C43.1238 77.2674 43.0363 77.0438 42.8711 76.8834C42.7058 76.7229 42.4579 76.6452 42.1273 76.65L41.1356 76.6646L41.1599 78.4681V78.4681Z" fill="#5D5D70"/>
<path d="M46.5364 75.4201L48.7531 79.4743L49.5746 74.9291L51.1788 74.6715L52.1364 80.6021L50.9114 80.8014L50.6489 79.1826L50.3184 76.368L49.4288 81.0444L48.5878 81.1805L46.2788 77.0243L46.8524 79.8L47.1149 81.4187L45.8948 81.618L44.9371 75.6875L46.5316 75.4298L46.5364 75.4201Z" fill="#5D5D70"/>
<path d="M56.5989 77.8167L54.5524 78.5313L54.5718 79.8341L53.3274 80.2667L53.4586 73.8598L54.5427 73.4806L58.6454 78.4098L57.4059 78.8424L56.6038 77.8118L56.5989 77.8167ZM54.5378 77.4764L55.9573 76.9806L54.5038 75.1091L54.5427 77.4764H54.5378Z" fill="#5D5D70"/>
<path d="M7.53582 32.2145C6.65109 35.3256 6.17957 38.6068 6.17957 41.9999C6.17957 55.3388 13.4761 66.9666 24.2872 73.1353" stroke="#98DBF8" stroke-width="2" stroke-miterlimit="10"/>
<path d="M59.7198 73.1353C70.531 66.9666 77.8275 55.3388 77.8275 41.9999C77.8275 39.1319 77.4872 36.3416 76.8504 33.668" stroke="#98DBF8" stroke-width="2" stroke-miterlimit="10"/>
<defs>
<linearGradient id="paint0_linear_103_5364" x1="47.6047" y1="27.2605" x2="42.8957" y2="41.1141" gradientUnits="userSpaceOnUse">
<stop stop-color="#CC7F32"/>
<stop offset="1" stop-color="#FFCC8F"/>
</linearGradient>
</defs>
</svg>
