<svg width="115" height="115" viewBox="0 0 115 115" fill="none" xmlns="http://www.w3.org/2000/svg">
<path d="M92.6458 18.5479H23.1743C23.2452 20.05 23.8741 21.4716 24.9378 22.5345L24.9441 22.5408C25.5052 23.1035 26.1718 23.55 26.9058 23.8545C27.6397 24.159 28.4266 24.3155 29.2212 24.3152H86.5952C88.1497 24.3093 89.643 23.7083 90.7682 22.6357C91.8935 21.5632 92.5653 20.1004 92.6458 18.5479ZM80.3895 38.0539H34.4322V94.9374C34.4326 95.1133 34.4678 95.2873 34.5357 95.4496C34.6036 95.6118 34.7028 95.7591 34.8277 95.8829C34.9521 96.007 35.0997 96.1052 35.2621 96.172C35.4245 96.2388 35.5985 96.2729 35.7741 96.2722H79.0475C79.3758 96.2731 79.6929 96.153 79.9383 95.9349L79.9939 95.8766C80.1188 95.7528 80.218 95.6056 80.2859 95.4433C80.3538 95.2811 80.389 95.107 80.3895 94.9311V38.0539ZM80.5519 34.933C80.7978 33.7423 81.3448 32.6344 82.1405 31.7152C82.6838 31.0607 83.3646 30.5339 84.1346 30.1724C84.9045 29.8109 85.7446 29.6234 86.5952 29.6234C87.4458 29.6234 88.286 29.8109 89.0559 30.1724C89.8259 30.5339 90.5067 31.0607 91.05 31.7152C92.1906 33.0445 92.8122 34.7414 92.8001 36.493C92.8048 37.5572 92.4248 38.5872 91.7299 39.3932C91.3857 39.8045 90.9555 40.1353 90.4696 40.3623C89.9837 40.5892 89.454 40.7069 88.9177 40.7069C88.3814 40.7069 87.8516 40.5892 87.3657 40.3623C86.8798 40.1353 86.4496 39.8045 86.1055 39.3932C85.4102 38.5874 85.0297 37.5573 85.0344 36.493C85.0344 36.0791 85.1988 35.6822 85.4914 35.3896C85.784 35.0969 86.1809 34.9325 86.5948 34.9325C87.0086 34.9325 87.4055 35.0969 87.6982 35.3896C87.9908 35.6822 88.1552 36.0791 88.1552 36.493C88.1463 36.8026 88.2492 37.1051 88.4449 37.3452C88.499 37.4199 88.57 37.4807 88.6521 37.5226C88.7342 37.5645 88.8251 37.5864 88.9172 37.5864C89.0094 37.5864 89.1003 37.5645 89.1824 37.5226C89.2645 37.4807 89.3355 37.4199 89.3895 37.3452C89.5857 37.1053 89.6889 36.8028 89.6802 36.493C89.6964 35.4955 89.3517 34.5257 88.7096 33.7623C88.4563 33.4445 88.1347 33.188 87.7687 33.0116C87.4026 32.8352 87.0015 32.7437 86.5952 32.7437C86.1889 32.7437 85.7878 32.8352 85.4218 33.0116C85.0557 33.188 84.7341 33.4445 84.4809 33.7623C83.8388 34.5258 83.4941 35.4955 83.5103 36.493C83.487 38.1773 84.0732 39.8133 85.1609 41.0995C85.6133 41.6603 86.1856 42.1127 86.8356 42.4235C87.4857 42.7343 88.1971 42.8957 88.9177 42.8957C89.6382 42.8957 90.3497 42.7343 90.9997 42.4235C91.6498 42.1127 92.2221 41.6603 92.6745 41.0995C93.7624 39.8134 94.3486 38.1773 94.3251 36.493C94.3553 34.121 93.5269 31.8182 91.9928 30.0089C91.3309 29.217 90.5061 28.5771 89.5744 28.1329C88.6428 27.6888 87.6263 27.4508 86.5943 27.4352H29.2248C28.9856 27.4352 28.75 27.4263 28.5179 27.4083C28.4218 27.4264 28.3242 27.4354 28.2264 27.4352C27.1944 27.4511 26.1778 27.6892 25.2461 28.1333C24.3144 28.5774 23.4893 29.2172 22.8271 30.0089C21.2929 31.8182 20.4646 34.121 20.4948 36.493C20.4713 38.1773 21.0575 39.8134 22.1453 41.0995C22.5978 41.6601 23.17 42.1124 23.82 42.4231C24.47 42.7338 25.1813 42.8951 25.9017 42.8951C26.6222 42.8951 27.3335 42.7338 27.9834 42.4231C28.6334 42.1124 29.2056 41.6601 29.6581 41.0995C30.7458 39.8133 31.332 38.1773 31.3086 36.493C31.3248 35.4955 30.9801 34.5258 30.338 33.7623C30.0848 33.4445 29.7632 33.188 29.3972 33.0116C29.0311 32.8352 28.63 32.7437 28.2237 32.7437C27.8174 32.7437 27.4163 32.8352 27.0503 33.0116C26.6842 33.188 26.3626 33.4445 26.1094 33.7623C25.4672 34.5257 25.1225 35.4955 25.1388 36.493C25.1299 36.8026 25.2328 37.1051 25.4285 37.3452C25.4826 37.4199 25.5536 37.4807 25.6357 37.5226C25.7178 37.5645 25.8086 37.5864 25.9008 37.5864C25.993 37.5864 26.0839 37.5645 26.166 37.5226C26.2481 37.4807 26.3191 37.4199 26.3731 37.3452C26.5688 37.1051 26.6716 36.8026 26.6629 36.493C26.6629 36.0791 26.8273 35.6822 27.1199 35.3896C27.4125 35.0969 27.8094 34.9325 28.2233 34.9325C28.6371 34.9325 29.034 35.0969 29.3266 35.3896C29.6193 35.6822 29.7837 36.0791 29.7837 36.493C29.7885 37.5572 29.4084 38.5872 28.7135 39.3932C28.3693 39.8045 27.9391 40.1353 27.4532 40.3623C26.9673 40.5892 26.4376 40.7069 25.9013 40.7069C25.365 40.7069 24.8352 40.5892 24.3493 40.3623C23.8634 40.1353 23.4332 39.8045 23.089 39.3932C22.3937 38.5874 22.0133 37.5573 22.018 36.493C22.0069 34.7412 22.6298 33.0446 23.7717 31.7161C24.315 31.0616 24.9958 30.5348 25.7657 30.1733C26.5357 29.8118 27.3758 29.6243 28.2264 29.6243C29.077 29.6243 29.9171 29.8118 30.6871 30.1733C31.457 30.5348 32.1378 31.0616 32.6811 31.7161C33.4757 32.6354 34.0217 33.7429 34.2671 34.933H80.5519ZM44.7688 46.1715C44.4576 46.171 44.1495 46.2319 43.8619 46.3507C43.5744 46.4696 43.3131 46.644 43.0931 46.8641L43.0868 46.8704C42.8668 47.0903 42.6923 47.3516 42.5734 47.6391C42.4546 47.9267 42.3937 48.2349 42.3943 48.5461V85.7854C42.3938 86.0966 42.4547 86.4048 42.5736 86.6923C42.6924 86.9799 42.8668 87.2412 43.0868 87.4612L43.0931 87.4674C43.3131 87.6875 43.5744 87.8619 43.8619 87.9808C44.1495 88.0996 44.4576 88.1605 44.7688 88.16C45.0803 88.1595 45.3887 88.0975 45.6763 87.9775C45.9638 87.8576 46.2249 87.6822 46.4445 87.4612C46.6645 87.2412 46.8389 86.9799 46.9578 86.6924C47.0766 86.4048 47.1375 86.0966 47.137 85.7854V48.5461C47.1398 47.9477 46.9153 47.3706 46.5091 46.9314L46.4427 46.8686C46.2232 46.648 45.9624 46.473 45.6751 46.3534C45.3879 46.2338 45.0799 46.172 44.7688 46.1715ZM44.7688 43.0506C45.4902 43.051 46.2044 43.1939 46.8705 43.471C47.5366 43.748 48.1414 44.1539 48.6503 44.6653C48.6835 44.6985 48.7158 44.7335 48.7463 44.7703C49.7192 45.7874 50.2628 47.1403 50.2641 48.5479V85.7854C50.2633 86.5064 50.1203 87.2202 49.8432 87.8858C49.5662 88.5514 49.1605 89.1558 48.6494 89.6644C48.1405 90.1758 47.5357 90.5817 46.8696 90.8588C46.2036 91.1359 45.4893 91.2787 44.7679 91.2791C44.0475 91.2779 43.3345 91.1347 42.6695 90.8577C42.0045 90.5806 41.4007 90.1751 40.8927 89.6644C40.3822 89.1565 39.9769 88.5529 39.6999 87.8883C39.4228 87.2236 39.2794 86.5109 39.278 85.7908V48.5461C39.2792 47.8256 39.4224 47.1123 39.6995 46.4472C39.9765 45.7821 40.382 45.1781 40.8927 44.6698C41.4005 44.1584 42.0041 43.7522 42.6691 43.4744C43.334 43.1965 44.0472 43.0525 44.7679 43.0506H44.7688ZM57.4108 46.1715C57.0997 46.1709 56.7915 46.2318 56.5039 46.3507C56.2164 46.4695 55.9551 46.644 55.7351 46.8641L55.7289 46.8704C55.5088 47.0903 55.3343 47.3516 55.2155 47.6391C55.0966 47.9267 55.0358 48.2349 55.0364 48.5461V85.7854C55.0359 86.0966 55.0968 86.4048 55.2156 86.6923C55.3345 86.9799 55.5089 87.2412 55.7289 87.4612L55.7351 87.4674C55.9551 87.6875 56.2164 87.8619 56.5039 87.9808C56.7915 88.0996 57.0997 88.1605 57.4108 88.16C57.722 88.1606 58.0302 88.0997 58.3177 87.9809C58.6053 87.862 58.8665 87.6875 59.0865 87.4674L59.0928 87.4612C59.3128 87.2412 59.4873 86.9799 59.6061 86.6924C59.7249 86.4048 59.7858 86.0966 59.7853 85.7854V48.5461C59.7859 48.2349 59.7251 47.9267 59.6062 47.6391C59.4874 47.3515 59.3129 47.0903 59.0928 46.8704L59.0865 46.8641C58.8665 46.644 58.6053 46.4695 58.3177 46.3507C58.0302 46.2318 57.722 46.1709 57.4108 46.1715ZM57.4108 43.0506C58.1312 43.0519 58.8442 43.1952 59.5092 43.4722C60.1741 43.7493 60.7779 44.1547 61.2861 44.6653C61.7964 45.1731 62.2016 45.7765 62.4787 46.441C62.7557 47.1055 62.8992 47.8181 62.9007 48.538V85.7854C62.8997 86.506 62.7565 87.2192 62.4794 87.8844C62.2024 88.5495 61.7968 89.1535 61.2861 89.6617C60.7783 90.172 60.1749 90.5773 59.5104 90.8544C58.846 91.1314 58.1334 91.2748 57.4135 91.2764C56.693 91.2754 55.9798 91.1322 55.3146 90.8551C54.6495 90.578 54.0456 90.1725 53.5374 89.6617C53.027 89.1538 52.6216 88.5502 52.3446 87.8856C52.0675 87.2209 51.9242 86.5082 51.9227 85.7881V48.5461C51.9239 47.8256 52.0672 47.1123 52.3442 46.4472C52.6213 45.7821 53.0267 45.1781 53.5374 44.6698C54.045 44.1587 54.6483 43.7525 55.313 43.4747C55.9776 43.1969 56.6905 43.0528 57.4108 43.0506ZM70.0538 46.1715C69.7426 46.1709 69.4344 46.2318 69.1468 46.3507C68.8593 46.4695 68.598 46.644 68.3781 46.8641L68.3718 46.8704C68.1517 47.0903 67.9773 47.3516 67.8584 47.6391C67.7396 47.9267 67.6787 48.2349 67.6793 48.5461V85.7854C67.6788 86.0966 67.7397 86.4048 67.8586 86.6923C67.9774 86.9799 68.1518 87.2412 68.3718 87.4612L68.3781 87.4674C68.5981 87.6875 68.8593 87.8619 69.1469 87.9808C69.4344 88.0996 69.7426 88.1605 70.0538 88.16C70.3649 88.1606 70.6731 88.0997 70.9607 87.9809C71.2482 87.862 71.5095 87.6875 71.7294 87.4674L71.7357 87.4612C71.9558 87.2412 72.1302 86.9799 72.249 86.6924C72.3679 86.4048 72.4288 86.0966 72.4282 85.7854V48.5461C72.4288 48.2349 72.3679 47.9267 72.2491 47.6391C72.1303 47.3516 71.9558 47.0903 71.7357 46.8704L71.7294 46.8641C71.5095 46.644 71.2482 46.4695 70.9607 46.3507C70.6731 46.2318 70.3649 46.1709 70.0538 46.1715ZM70.0538 43.0506C70.7743 43.0518 71.4875 43.1951 72.1526 43.4721C72.8177 43.7492 73.4216 44.1547 73.9299 44.6653C74.9588 45.6917 75.538 47.0847 75.5401 48.538V85.7854C75.539 86.506 75.3959 87.2192 75.1188 87.8844C74.8417 88.5495 74.4362 89.1535 73.9254 89.6617C73.4176 90.172 72.8142 90.5773 72.1498 90.8544C71.4853 91.1314 70.7728 91.2748 70.0529 91.2764C69.3324 91.2753 68.6191 91.1321 67.954 90.855C67.2889 90.578 66.685 90.1724 66.1767 89.6617C65.6663 89.1538 65.261 88.5502 64.9839 87.8856C64.7069 87.2209 64.5635 86.5082 64.5621 85.7881V48.5461C64.5633 47.8256 64.7065 47.1123 64.9836 46.4472C65.2606 45.7821 65.6661 45.1781 66.1767 44.6698C66.6846 44.1583 67.2884 43.752 67.9535 43.4741C68.6186 43.1963 69.332 43.0524 70.0529 43.0506H70.0538ZM22.8746 15.4297H92.9427C93.693 15.4309 94.4121 15.7294 94.9426 16.26C95.4732 16.7905 95.7717 17.5097 95.7729 18.26C95.7733 19.4647 95.5357 20.6576 95.0739 21.7704C94.6121 22.8831 93.9351 23.8936 93.0818 24.744C92.6889 25.1372 92.2613 25.4942 91.8044 25.8106C92.7516 26.3974 93.6052 27.1232 94.3367 27.9636C96.3699 30.3387 97.4752 33.3692 97.4486 36.4957C97.4681 38.9346 96.6046 41.2982 95.0176 43.1502C94.2673 44.0395 93.3339 44.7563 92.2811 45.2517C91.2284 45.7471 90.0811 46.0095 88.9177 46.0208C86.9068 46.0092 84.9749 45.2368 83.5103 43.8589V94.9374C83.5103 95.5232 83.3945 96.1032 83.1698 96.6441C82.945 97.1851 82.6157 97.6764 82.2006 98.0897C82.1656 98.1247 82.1289 98.1579 82.0912 98.1893C81.2668 98.9636 80.1785 99.3951 79.0475 99.3959H35.7732C35.1877 99.3949 34.6081 99.2784 34.0676 99.053C33.5272 98.8276 33.0365 98.4979 32.6237 98.0825C32.2087 97.6692 31.8794 97.1779 31.6546 96.6369C31.4299 96.096 31.3141 95.516 31.314 94.9302V43.8553C29.8495 45.2334 27.9175 46.0058 25.9066 46.0172C24.7432 46.006 23.5959 45.7436 22.5432 45.2482C21.4904 44.7528 20.557 44.0359 19.8068 43.1466C18.2198 41.2946 17.3563 38.931 17.3758 36.4921C17.3495 33.3657 18.4547 30.3353 20.4876 27.96C21.3617 26.9529 22.4116 26.113 23.586 25.4814C23.2922 25.251 23.0124 25.0033 22.7482 24.7395C21.896 23.8903 21.2197 22.8813 20.7579 21.7704C20.2961 20.6595 20.058 19.4684 20.057 18.2653C20.0578 17.894 20.1318 17.5265 20.2748 17.1839C20.4178 16.8412 20.627 16.5301 20.8904 16.2685C21.4149 15.7375 22.1283 15.4359 22.8746 15.4297Z" fill="#C52E3B"/>
</svg>
