<svg width="116" height="115" viewBox="0 0 116 115" fill="none" xmlns="http://www.w3.org/2000/svg">
<path d="M42.5185 65.3164C41.5351 64.7483 40.4687 64.3378 39.3582 64.1L39.3061 64.0892L39.2514 64.0785L39.1967 64.0668L39.1429 64.056L39.029 64.0345H39.0065L38.9724 64.0282L38.9159 64.0184L38.8899 64.0139L38.8594 64.0094L38.802 63.9995L38.7715 63.995H38.7455L38.689 63.9861L38.6549 63.9816H38.6325L38.576 63.9735L38.5374 63.9681H38.5194L38.4629 63.9609L38.4199 63.9556H38.4064L38.3033 63.943H38.2934L38.2369 63.9367L38.1848 63.9313H38.1795L38.0664 63.9206C37.0835 63.8316 36.0931 63.8741 35.1214 64.0471C32.5815 64.4918 30.281 65.8215 28.6277 67.8004C27.1766 69.595 26.0958 71.6595 25.4477 73.8745C24.7996 76.0895 24.5972 78.4111 24.8521 80.7048C25.3443 86.1745 27.3545 91.3979 30.656 95.7864C32.0078 93.0046 34.1275 90.6678 36.7648 89.0521L36.8204 89.0135L36.8312 89.0064C40.3297 86.7143 44.3215 84.1038 46.4969 80.3891L46.5381 80.3119C47.9913 77.7925 48.3846 74.7992 47.6315 71.9899C46.8784 69.1806 45.0406 66.7854 42.5221 65.3308L42.5185 65.3164ZM46.9687 99.6062C46.5565 99.6094 46.1599 99.4487 45.8662 99.1595C45.5725 98.8703 45.4057 98.4763 45.4025 98.0641C45.3992 97.6519 45.5599 97.2553 45.8491 96.9616C46.1383 96.6679 46.5323 96.501 46.9445 96.4978L52.3267 96.4548C52.7388 96.4516 53.1353 96.6122 53.4289 96.9013C53.7225 97.1904 53.8893 97.5843 53.8925 97.9964C53.8957 98.4085 53.7351 98.8049 53.446 99.0986C53.1569 99.3922 52.763 99.559 52.351 99.5622L46.9687 99.6062ZM57.0156 99.6062C56.6034 99.6094 56.2068 99.4487 55.9131 99.1595C55.6194 98.8703 55.4526 98.4763 55.4493 98.0641C55.4461 97.6519 55.6068 97.2553 55.896 96.9616C56.1852 96.6679 56.5792 96.501 56.9914 96.4978L60.2414 96.4718C60.6535 96.4686 61.0501 96.6293 61.3438 96.9185C61.6376 97.2076 61.8044 97.6017 61.8076 98.0139C61.8108 98.4261 61.6502 98.8227 61.361 99.1164C61.0718 99.4101 60.6778 99.577 60.2656 99.5802L57.0156 99.6062ZM65.7492 26.8894C66.0327 26.2291 66.3116 25.5662 66.5808 24.9014C66.9264 24.0558 67.2105 23.3357 67.433 22.7413C67.4473 22.6928 67.4635 22.6444 67.4823 22.596C67.5011 22.5475 67.5155 22.5179 67.5343 22.4802C67.9909 21.2495 68.3219 20.2304 68.5372 19.4113C67.5247 20.4544 66.5725 21.5546 65.6855 22.7063L65.6649 22.7341L65.6487 22.7538L65.6326 22.7745L65.6164 22.7951L65.5994 22.8157L65.594 22.8229L65.5832 22.8364L65.5662 22.8579L65.5492 22.8794L65.4074 23.0589C65.1087 23.4446 64.7472 23.9236 64.3247 24.487C63.9022 25.0504 63.5021 25.5967 63.1298 26.1134L63.1083 26.143L63.0922 26.1645L63.0868 26.1726L63.0652 26.2022L63.0437 26.2318L63.0114 26.2551L62.9908 26.2838L62.9738 26.3081V26.3134L62.9531 26.343L62.9325 26.3717L62.9119 26.4005L62.8912 26.4301L62.8706 26.4588L59.9103 30.605L54.938 37.569L50.3703 43.9696L56.7088 47.6109L65.4819 27.4814L65.4998 27.4411L65.5169 27.4007L65.5348 27.3603L65.5528 27.32V27.3101L65.5662 27.2796L65.5832 27.2392L65.6012 27.1988L65.6182 27.1585L65.6272 27.1387L65.6362 27.1172L65.6532 27.0768L65.6703 27.0365L65.6873 26.9961L65.7223 26.9154L65.7492 26.8894ZM50.6986 61.4016L50.7112 61.3711L55.4592 50.4761L48.552 46.5102L40.6006 57.6581L38.358 60.7979C38.5936 60.82 38.8289 60.8481 39.0639 60.8822H39.0855H39.107L39.1967 60.8947H39.2182H39.2398H39.2604H39.2819H39.3035H39.3241H39.3357H39.3456H39.3671H39.3878H39.4093H39.4308H39.4524H39.473H39.4838H39.4936H39.5152H39.5367H39.5582H39.5797H39.6004H39.6219H39.6318H39.6434H39.665H39.6856L39.7287 60.9028L39.7798 60.9127H39.7986L39.8686 60.9261L39.9278 60.9387H39.9386C41.3548 61.2356 42.7165 61.75 43.9753 62.4637C44.0476 62.4984 44.1172 62.5385 44.1834 62.5839C45.8687 63.5967 47.3223 64.9525 48.4497 66.5634L50.6986 61.4016ZM68.5731 28.1686L68.5534 28.2143L68.548 28.2269L68.5336 28.2601L68.5139 28.3058L68.4942 28.3516L68.4744 28.3982L68.4547 28.444L68.4412 28.4745L68.435 28.4906L68.4143 28.5373L68.3937 28.5821L68.3731 28.6288L68.3524 28.6763L68.3318 28.7239L53.9315 61.7721C54.8679 63.1489 55.6023 64.6527 56.1123 66.2377C56.7727 68.2773 57.2736 70.3651 57.6103 72.4823C58.8303 79.588 61.8112 83.2471 65.4666 84.3317C69.0198 85.3822 73.3229 84.094 77.3516 81.2108C81.9583 77.7833 85.5709 73.1925 87.8192 67.909C92.2685 57.6527 91.9456 44.3276 80.319 32.6961C78.55 30.9125 76.6139 29.3027 74.5375 27.8887C73.0346 26.87 71.4498 25.9776 69.7994 25.2208C69.6881 25.5013 69.5763 25.7803 69.4639 26.0578C69.2103 26.6779 68.9134 27.3816 68.5731 28.1686ZM78.8317 34.179C80.4355 35.7806 81.344 37.9493 81.3608 40.2158C81.3776 42.4823 80.5013 44.6643 78.9214 46.2895C78.8936 46.3227 78.864 46.355 78.8317 46.3864C78.0302 47.1889 77.0783 47.8255 76.0305 48.2598C74.9828 48.6942 73.8597 48.9178 72.7255 48.9178C71.5913 48.9178 70.4682 48.6942 69.4205 48.2598C68.3727 47.8255 67.4209 47.1889 66.6193 46.3864C65.0156 44.7848 64.107 42.616 64.0902 40.3495C64.0734 38.083 64.9498 35.9011 66.5296 34.2759C66.5574 34.2427 66.587 34.2104 66.6193 34.179C67.4207 33.3771 68.3723 32.7409 69.4196 32.3069C70.467 31.8728 71.5896 31.6494 72.7233 31.6494C73.857 31.6494 74.9796 31.8728 76.0269 32.3069C77.0743 32.7409 78.0258 33.3771 78.8272 34.179H78.8317ZM76.625 36.3858C75.5892 35.3524 74.1859 34.7721 72.7228 34.7721C71.2598 34.7721 69.8564 35.3524 68.8207 36.3858C68.7965 36.41 68.7704 36.4333 68.7453 36.4558C67.7446 37.499 67.1918 38.8925 67.2052 40.3381C67.2186 41.7837 67.7972 43.1667 68.8171 44.1912C69.8521 45.2252 71.2549 45.8065 72.7179 45.8077C74.1809 45.8089 75.5847 45.2298 76.6214 44.1975C76.6456 44.1733 76.6716 44.15 76.6967 44.1275C77.6977 43.0844 78.2506 41.6909 78.2372 40.2452C78.2238 38.7995 77.6451 37.4165 76.625 36.3921V36.3858ZM84.9513 59.0961C84.9511 58.2809 84.6683 57.491 84.151 56.8609C83.6337 56.2309 82.9139 55.7997 82.1144 55.6408C81.3148 55.482 80.4849 55.6053 79.766 55.9897C79.0472 56.3742 78.4839 56.996 78.1721 57.7492C77.8603 58.5024 77.8193 59.3405 78.0561 60.1205C78.2929 60.9006 78.7928 61.5744 79.4707 62.0272C80.1486 62.48 80.9625 62.6837 81.7738 62.6037C82.585 62.5236 83.3434 62.1647 83.9197 61.5882C84.2467 61.2617 84.5061 60.8739 84.6831 60.4471C84.8602 60.0202 84.9513 59.5627 84.9513 59.1006V59.0961ZM86.1256 54.3972C87.2126 55.4845 87.8891 56.915 88.0397 58.4451C88.1904 59.9752 87.8058 61.5101 86.9516 62.7885C86.0974 64.0668 84.8263 65.0094 83.3551 65.4556C81.8838 65.9018 80.3034 65.8241 78.883 65.2356C77.4626 64.6472 76.2902 63.5844 75.5656 62.2284C74.8409 60.8725 74.6088 59.3072 74.9089 57.7992C75.2089 56.2913 76.0225 54.9341 77.211 53.9588C78.3995 52.9835 79.8894 52.4505 81.4268 52.4506C82.3 52.4501 83.1646 52.6222 83.971 52.9571C84.7773 53.2919 85.5096 53.7829 86.1256 54.4017V54.3972ZM75.4579 74.114C75.4595 73.4465 75.2075 72.8033 74.7528 72.3145L74.6874 72.2535C74.1938 71.7603 73.5246 71.4832 72.8269 71.4832C72.1291 71.4832 71.4599 71.7603 70.9664 72.2535C70.4741 72.7481 70.1977 73.4175 70.1977 74.1154C70.1977 74.8132 70.4741 75.4827 70.9664 75.9773C71.3344 76.3452 71.8032 76.5958 72.3136 76.6974C72.8239 76.7989 73.353 76.7468 73.8337 76.5476C74.3145 76.3485 74.7254 76.0112 75.0145 75.5785C75.3036 75.1458 75.4579 74.6371 75.4579 74.1167V74.114ZM76.9829 70.1472C78.0416 71.2393 78.6244 72.7066 78.6036 74.2275C78.5828 75.7485 77.9601 77.1992 76.8719 78.262C75.7838 79.3248 74.3188 79.9131 72.7978 79.898C71.2768 79.8829 69.8238 79.2656 68.757 78.1814C68.2227 77.6481 67.7988 77.0147 67.5095 76.3174C67.2203 75.62 67.0714 74.8725 67.0714 74.1176C67.0714 73.3627 67.2203 72.6152 67.5095 71.9179C67.7988 71.2206 68.2227 70.5872 68.757 70.0539C69.291 69.5198 69.925 69.0961 70.6228 68.807C71.3206 68.518 72.0685 68.3692 72.8237 68.3692C73.579 68.3692 74.3269 68.518 75.0247 68.807C75.7225 69.0961 76.3565 69.5198 76.8905 70.0539C76.9264 70.0799 76.9569 70.1131 76.9856 70.1516L76.9829 70.1472ZM58.6159 26.8894L58.6877 26.962L60.3338 24.6565L60.3571 24.6242L60.3804 24.592L60.4037 24.5597L60.427 24.5274L60.4504 24.4951L60.4728 24.4637L60.4827 24.4502L60.4952 24.4314L60.5185 24.4L60.541 24.3686L60.5858 24.3058L60.6082 24.2744L60.6522 24.2125L60.6746 24.182C61.0334 23.6796 61.3624 23.2293 61.6614 22.831C50.3631 21.2342 39.7017 26.5539 33.566 33.4721C31.664 35.5509 30.169 37.9682 29.1588 40.5984L29.131 40.672C28.3169 42.7465 28.1331 45.0152 28.6026 47.1937C29.4683 50.6654 32.5846 53.5755 38.6612 55.0189L51.0915 37.6022C50.3952 37.2753 49.7608 36.83 49.2167 36.2862C48.6004 35.6704 48.1119 34.9389 47.7791 34.1338C47.4462 33.3287 47.2757 32.4657 47.2773 31.5945H47.271C47.27 30.7218 47.4415 29.8575 47.7755 29.0513C48.1096 28.245 48.5997 27.5128 49.2176 26.8965C49.8344 26.2796 50.567 25.7907 51.3734 25.4578C52.1797 25.125 53.0439 24.9548 53.9163 24.9571V24.9391C55.6305 24.9379 57.2784 25.602 58.5128 26.7916C58.5474 26.8239 58.5818 26.8565 58.6159 26.8894ZM56.4101 29.0962L56.3455 29.0271C55.6894 28.4073 54.8206 28.0627 53.9181 28.0645V28.0582C53.4548 28.0586 52.9962 28.1505 52.5686 28.3286C52.1409 28.5067 51.7527 28.7676 51.4261 29.0962C51.0985 29.4231 50.8387 29.8116 50.6617 30.2393C50.4847 30.6669 50.3939 31.1254 50.3945 31.5882H50.3882C50.3883 32.0517 50.4798 32.5106 50.6574 32.9387C50.8351 33.3668 51.0954 33.7556 51.4234 34.083C51.7287 34.3902 52.0882 34.6384 52.4837 34.815C52.6397 34.8836 52.8004 34.9408 52.9645 34.9864L56.8218 29.5797C56.6979 29.4069 56.5592 29.2451 56.4074 29.0962H56.4101ZM38.9025 34.4373C39.6578 34.4365 40.4059 34.5849 41.1037 34.874C41.8015 35.1631 42.4354 35.5872 42.9688 36.122C44.0349 37.2031 44.6301 38.6619 44.6246 40.1802C44.619 41.6985 44.0131 43.153 42.9391 44.2261C41.8652 45.2993 40.4103 45.9041 38.892 45.9085C37.3738 45.9129 35.9154 45.3165 34.8353 44.2495C34.3011 43.7155 33.8773 43.0815 33.5882 42.3837C33.2991 41.6859 33.1503 40.938 33.1503 40.1827C33.1503 39.4273 33.2991 38.6794 33.5882 37.9816C33.8773 37.2838 34.3011 36.6498 34.8353 36.1158C35.3693 35.582 36.0035 35.1589 36.7015 34.8709C37.3994 34.5829 38.1474 34.4355 38.9025 34.4373ZM40.7647 38.3279C40.2712 37.8347 39.602 37.5576 38.9043 37.5576C38.2065 37.5576 37.5373 37.8347 37.0438 38.3279C36.5506 38.8213 36.2736 39.4904 36.2736 40.188C36.2736 40.8857 36.5506 41.5547 37.0438 42.0481C37.5433 42.5129 38.2036 42.7657 38.8858 42.7534C39.568 42.741 40.2187 42.4643 40.701 41.9817C41.1832 41.4991 41.4594 40.8481 41.4713 40.1659C41.4832 39.4837 41.2299 38.8235 40.7647 38.3244V38.3279ZM26.2326 65.7937C28.3148 63.2946 31.2002 61.5962 34.3957 60.9889L36.728 57.7254C30.1375 55.8586 26.6551 52.2532 25.5787 47.9365C24.9617 45.164 25.1802 42.2708 26.2066 39.6224L26.2326 39.5372C27.3772 36.5391 29.0748 33.7827 31.2372 31.4115C38.2763 23.476 50.7659 17.4584 63.8232 20.0402C64.9803 18.5269 66.3043 17.149 67.7702 15.9325C68.1408 15.5785 68.5984 15.329 69.0966 15.2093C69.5948 15.0895 70.1158 15.1038 70.6067 15.2507C71.5818 15.649 72.0482 16.5694 71.9379 18.0496C71.752 19.498 71.3983 20.9198 70.8839 22.2865C72.7661 23.1348 74.5716 24.1439 76.2805 25.3024C78.5232 26.8275 80.6145 28.5641 82.5257 30.4884C95.2485 43.2107 95.5696 57.8492 90.6718 69.1389C88.197 74.9427 84.2233 79.9839 79.1582 83.7459C74.3734 87.17 69.1113 88.6556 64.592 87.3181C59.8251 85.9079 55.993 81.4647 54.5451 73.007C54.2358 71.0514 53.7758 69.1226 53.1691 67.238C52.9487 66.5808 52.6908 65.9369 52.3967 65.3092L50.3102 70.0978C50.4352 70.4513 50.5464 70.8101 50.6439 71.1743C51.6033 74.7387 51.1199 78.5376 49.2983 81.7481C49.2579 81.8333 49.2099 81.9147 49.1548 81.9912C46.5982 86.325 42.3166 89.1301 38.5517 91.5899L38.4836 91.633C36.5484 92.8279 34.9412 94.4859 33.8073 96.4575L42.1875 96.3857C42.5996 96.3825 42.9962 96.5431 43.2899 96.8323C43.5837 97.1215 43.7505 97.5156 43.7537 97.9278C43.7569 98.34 43.5962 98.7365 43.3071 99.0303C43.0179 99.324 42.6239 99.4908 42.2117 99.494L31.553 99.5838C30.6981 99.9668 29.8755 99.5524 28.6735 98.2301C26.1734 95.4823 22.3395 88.4852 21.7447 80.9255C21.4541 78.2318 21.7011 75.5071 22.4715 72.9096C23.2419 70.312 24.5203 67.8933 26.2326 65.7937Z" fill="#C52E3B"/>
</svg>
