<svg width="116" height="115" viewBox="0 0 116 115" fill="none" xmlns="http://www.w3.org/2000/svg">
<path d="M29.9426 29.9139C22.6042 37.253 18.4816 47.2067 18.4816 57.5855C18.4816 67.9643 22.6042 77.918 29.9426 85.2571C37.2815 92.5958 47.2349 96.7185 57.6133 96.7185C67.9917 96.7185 77.945 92.5958 85.2839 85.2571C92.6221 77.9179 96.7446 67.9642 96.7446 57.5855C96.7446 47.2068 92.6221 37.2531 85.2839 29.9139C77.945 22.5752 67.9917 18.4524 57.6133 18.4524C47.2349 18.4524 37.2815 22.5752 29.9426 29.9139ZM57.6128 48.1783C55.7526 48.1786 53.9343 48.7305 52.3877 49.7641C50.841 50.7976 49.6355 52.2666 48.9235 53.9851C48.2116 55.7037 48.025 57.5948 48.3876 59.4194C48.7501 61.244 49.6454 62.9201 50.9603 64.236C52.7245 65.9997 55.1169 66.9906 57.6115 66.9906C60.106 66.9906 62.4985 65.9997 64.2626 64.236C65.5774 62.9203 66.4726 61.2444 66.8352 59.4201C67.1979 57.5958 67.0116 55.7049 66.2999 53.9864C65.5883 52.2679 64.3832 50.799 62.8369 49.7652C61.2907 48.7314 59.4728 48.1792 57.6128 48.1783ZM48.7545 48.7273C49.9151 47.5517 51.2968 46.6173 52.82 45.9778C54.3432 45.3383 55.9778 45.0063 57.6298 45.0011C59.2817 44.9958 60.9185 45.3173 62.4457 45.9471C63.9729 46.5769 65.3605 47.5026 66.5286 48.6707C67.6967 49.8389 68.6222 51.2266 69.2519 52.7539C69.8816 54.2813 70.203 55.918 70.1977 57.5701C70.1924 59.2221 69.8604 60.8567 69.2208 62.38C68.5812 63.9032 67.6467 65.2848 66.4711 66.4455C64.1218 68.7947 60.9356 70.1145 57.6133 70.1145C54.2909 70.1145 51.1047 68.7947 48.7554 66.4455C47.592 65.2821 46.6692 63.9009 46.0396 62.3809C45.41 60.8608 45.086 59.2317 45.086 57.5864C45.086 55.9411 45.41 54.3119 46.0396 52.7919C46.6692 51.2719 47.592 49.8907 48.7554 48.7273H48.7545ZM37.3217 56.4063C37.2991 56.8185 37.1137 57.2048 36.8062 57.4803C36.4988 57.7558 36.0945 57.8979 35.6823 57.8753C35.2702 57.8526 34.8838 57.6672 34.6084 57.3598C34.3329 57.0523 34.1908 56.648 34.2134 56.2358C34.5459 50.4962 36.9756 45.0788 41.0409 41.0134C45.1061 36.948 50.5233 34.5182 56.2628 34.1857C56.4669 34.1745 56.6711 34.2037 56.864 34.2714C57.0568 34.3392 57.2344 34.4443 57.3867 34.5807C57.5389 34.7171 57.6628 34.8821 57.7512 35.0664C57.8396 35.2507 57.8909 35.4506 57.9021 35.6547C57.9133 35.8588 57.8842 36.0631 57.8164 36.2559C57.7487 36.4488 57.6436 36.6264 57.5072 36.7786C57.3708 36.9309 57.2057 37.0547 57.0215 37.1432C56.8372 37.2316 56.6373 37.2829 56.4332 37.2941C51.4584 37.5821 46.7629 39.6882 43.2393 43.2119C39.7157 46.7356 37.6097 51.4313 37.3217 56.4063ZM28.2615 57.2406C28.2567 57.6526 28.0883 58.0459 27.7935 58.3338C27.4987 58.6218 27.1015 58.7808 26.6895 58.7759C26.2774 58.771 25.8842 58.6027 25.5962 58.3078C25.3083 58.013 25.1493 57.6159 25.1542 57.2038C25.2538 48.6611 28.7177 40.5022 34.7942 34.4972C40.8707 28.4922 49.0699 25.1253 57.6128 25.1271C58.0249 25.1271 58.4201 25.2908 58.7114 25.5822C59.0028 25.8735 59.1665 26.2687 59.1665 26.6808C59.1665 27.0929 59.0028 27.4881 58.7114 27.7795C58.4201 28.0708 58.0249 28.2345 57.6128 28.2345C49.8885 28.2347 42.4757 31.2799 36.9819 36.7098C31.488 42.1398 28.356 49.5166 28.2651 57.2406H28.2615ZM58.9629 80.9861C58.7588 80.9973 58.5545 80.9682 58.3616 80.9005C58.1688 80.8327 57.9912 80.7276 57.839 80.5912C57.6867 80.4548 57.5629 80.2897 57.4744 80.1055C57.386 79.9212 57.3347 79.7213 57.3235 79.5172C57.3123 79.3131 57.3414 79.1088 57.4092 78.9159C57.477 78.7231 57.582 78.5455 57.7184 78.3932C57.8548 78.241 58.0199 78.1171 58.2042 78.0287C58.3884 77.9403 58.5883 77.889 58.7924 77.8778C63.7674 77.5902 68.4631 75.4842 71.9868 71.9604C75.5105 68.4366 77.6163 63.7407 77.9039 58.7656C77.9265 58.3534 78.1119 57.9671 78.4194 57.6916C78.7268 57.4161 79.1311 57.274 79.5433 57.2966C79.9555 57.3192 80.3418 57.5047 80.6173 57.8121C80.8927 58.1196 81.0348 58.5238 81.0122 58.936C80.6799 64.6758 78.2502 70.0933 74.185 74.1587C70.1197 78.2241 64.7024 80.6539 58.9629 80.9861ZM57.995 90.0466C57.5828 90.0515 57.1855 89.8924 56.8906 89.6044C56.5957 89.3164 56.4273 88.923 56.4224 88.5108C56.4176 88.0986 56.5766 87.7014 56.8646 87.4065C57.1526 87.1115 57.546 86.9431 57.9582 86.9382C65.6821 86.8464 73.0586 83.7135 78.4881 78.2189C83.9175 72.7242 86.9624 65.3107 86.9623 57.5859C86.9623 57.1737 87.126 56.7784 87.4175 56.487C87.7089 56.1955 88.1042 56.0318 88.5164 56.0318C88.9286 56.0318 89.3239 56.1955 89.6153 56.487C89.9068 56.7784 90.0705 57.1737 90.0705 57.5859C90.0709 66.1284 86.7036 74.3267 80.699 80.4025C74.6943 86.4784 66.5366 89.942 57.995 90.0421V90.0466ZM27.735 27.7071C31.6584 23.7831 36.3163 20.6704 41.4427 18.5468C46.5691 16.4231 52.0635 15.3301 57.6124 15.3301C63.1612 15.3301 68.6557 16.4231 73.7821 18.5468C78.9085 20.6704 83.5663 23.7831 87.4897 27.7071C91.4134 31.6306 94.5259 36.2886 96.6494 41.4151C98.7729 46.5416 99.8658 52.0361 99.8658 57.585C99.8658 63.134 98.7729 68.6285 96.6494 73.755C94.5259 78.8815 91.4134 83.5395 87.4897 87.463C83.5663 91.387 78.9085 94.4997 73.7821 96.6233C68.6557 98.747 63.1612 99.84 57.6124 99.84C52.0635 99.84 46.5691 98.747 41.4427 96.6233C36.3163 94.4997 31.6584 91.387 27.735 87.463C23.8113 83.5395 20.6988 78.8815 18.5753 73.755C16.4518 68.6285 15.3589 63.134 15.3589 57.585C15.3589 52.0361 16.4518 46.5416 18.5753 41.4151C20.6988 36.2886 23.8113 31.6306 27.735 27.7071Z" fill="#C52E3B"/>
</svg>
