<svg width="260" height="261" viewBox="0 0 260 261" fill="none" xmlns="http://www.w3.org/2000/svg">
<g opacity="0.3" filter="url(#filter0_d_49_1994)">
<path d="M125.999 193.245C125.999 193.246 125.999 193.247 125.998 193.247H125.867C98.2819 192.388 87.3245 174.539 83.2465 163.976C80.7366 157.475 80.0156 149.066 81.2095 140.292C82.5885 130.158 86.4892 119.906 92.4821 110.643C105.023 91.2612 122.289 74.8388 123.018 74.1453C124.691 72.5625 127.31 72.5625 128.983 74.1453C129.145 74.2951 132.73 77.6993 137.825 83.2115C138.38 83.8144 138.357 84.7757 137.75 85.3274L133.526 89.1887C132.927 89.7363 131.982 89.6733 131.426 89.0783C129.779 87.2974 128.294 85.7411 127.041 84.4566C126.462 83.8616 125.547 83.8538 124.972 84.4487C119.165 90.4101 108.195 102.333 99.7674 115.355C88.5223 132.735 87.4348 150.729 91.3395 160.855C95.3663 171.289 104.645 183.858 126.001 184.571C147.352 183.858 156.635 171.289 160.662 160.855C164.48 150.966 163.53 133.574 153.01 116.58C152.592 115.903 152.766 115.016 153.432 114.583L158.235 111.474C158.936 111.021 159.901 111.23 160.339 111.939C165.867 120.859 169.472 130.631 170.788 140.292C171.982 149.066 171.261 157.479 168.751 163.976C164.673 174.539 153.715 192.388 126.131 193.243H125.999C125.998 193.243 125.998 193.244 125.999 193.245Z" fill="white"/>
<path d="M171.043 106.635C183.001 128.637 179.187 145.595 177.923 151.576C173.967 170.327 157.994 192.455 126 193.128C94.0063 192.451 78.0292 170.323 74.0773 151.576C72.6549 144.842 69.4161 120.902 87.3436 95.6186C102.868 73.7274 122.296 59.2199 126 59.2199C128.298 59.2199 136.655 64.8261 146.368 74.2946C147.209 75.1139 148.548 75.141 149.407 74.3402C150.305 73.5023 150.332 72.0854 149.455 71.2254C139.485 61.4475 130.142 54.8818 126 54.8818C119.207 54.8818 98.4035 72.5217 83.8054 93.1088C71.0197 111.143 65.7951 133.333 69.8338 152.47C74.1206 172.786 91.3901 196.761 125.957 197.466H126H126.043C160.614 196.757 177.883 172.786 182.166 152.47C185.435 136.978 182.574 119.508 174.601 103.845C174.019 102.7 172.574 102.33 171.492 103.022C170.569 103.613 170.217 104.791 170.665 105.792L171.043 106.635Z" fill="white"/>
<path d="M180.708 96.6248C180.341 97.1638 180.306 97.8647 180.609 98.4416C188.319 113.09 191.64 129.549 189.703 145.346C187.922 159.901 181.078 173.506 170.444 183.659C158.679 194.889 143.305 200.941 126.023 201.169C108.699 200.945 93.3204 194.889 81.5592 183.659C70.9209 173.506 64.0809 159.901 62.3 145.346C59.7822 124.802 66.0352 103.088 79.4552 85.7754C93.9903 67.0166 115.31 51.1734 126.004 51.1734C132.809 51.1734 143.913 57.6109 154.835 67.1095C155.514 67.6998 156.53 67.6894 157.188 67.0755C157.936 66.3773 157.923 65.1859 157.15 64.515C145.534 54.4273 133.626 47.7021 126.004 47.7021C114.187 47.7021 92.0714 63.829 76.7129 83.6517C62.7413 101.682 56.2283 124.325 58.8563 145.771C60.7357 161.122 67.9501 175.468 79.1676 186.173C91.5789 198.017 107.765 204.404 126.031 204.644C144.25 204.408 160.44 198.021 172.848 186.173C184.065 175.468 191.275 161.118 193.159 145.771C195.181 129.251 191.711 112.055 183.649 96.7717C183.293 96.0961 182.529 95.7457 181.782 95.9036C181.345 95.996 180.959 96.2555 180.708 96.6248Z" fill="white"/>
<path d="M190.887 90.2212C190.701 90.5807 190.707 91.0089 190.899 91.3651C198.795 106.015 202.605 122.647 201.508 139.007C200.267 157.522 192.245 174.878 178.927 187.877C164.987 201.482 146.189 209.059 126.012 209.212C105.815 209.059 87.0165 201.482 73.0764 187.877C59.7588 174.874 51.7368 157.518 50.4956 139.007C48.9905 116.545 56.6737 93.5425 71.5831 75.9027C87.8951 56.608 110.275 43.1249 126.004 43.1249C136.75 43.1249 150.578 49.5024 163.476 59.6469C163.994 60.0549 164.735 60.0286 165.217 59.5781C165.807 59.0272 165.773 58.0808 165.138 57.5821C151.752 47.0698 137.29 40.5205 126.004 40.5205C109.562 40.5205 86.3624 54.3779 69.5933 74.2202C54.2545 92.3723 46.3467 116.048 47.8991 139.181C49.1836 158.334 57.4814 176.289 71.26 189.74C85.6808 203.818 105.121 211.659 126.016 211.817C146.89 211.659 166.327 203.818 180.752 189.74C194.53 176.289 202.828 158.334 204.113 139.181C205.241 122.382 201.351 105.31 193.279 90.2623C192.996 89.7359 192.403 89.4579 191.816 89.5703L191.739 89.5851C191.372 89.6553 191.058 89.8898 190.887 90.2212Z" fill="white"/>
<path d="M201.584 83.5455C201.367 83.815 201.336 84.1895 201.504 84.4921C209.626 99.1277 213.804 115.616 213.32 132.613C211.969 179.922 173.616 217.104 126.004 217.262C78.3876 217.104 40.0306 179.918 38.6831 132.613C37.9818 107.983 46.8746 84.3307 63.7304 66.0092C81.2757 46.9351 105.137 35.0872 126 35.0872C141.067 35.0872 157.681 41.3152 172.365 51.9345C172.705 52.1803 173.172 52.1535 173.479 51.8674C173.878 51.495 173.84 50.851 173.398 50.5312C158.41 39.6951 141.425 33.3496 126 33.3496C104.668 33.3496 80.3143 45.4142 62.4538 64.8311C45.2867 83.4875 36.2323 107.577 36.9455 132.66C38.3206 180.911 77.438 218.834 126 218.996C174.558 218.834 213.675 180.911 215.05 132.66C215.544 115.356 211.292 98.5723 203.029 83.6749C202.828 83.312 202.399 83.1417 202.003 83.2644L201.993 83.2676C201.832 83.3175 201.689 83.4142 201.584 83.5455Z" fill="white"/>
<path d="M212.333 77.5212C223.499 97.0168 227.659 119.476 223.723 143.003C216.548 185.906 181.016 219.594 137.809 224.614C68.8449 232.632 11.6621 169.346 30.5037 98.9995C32.6353 91.0326 35.8859 83.3612 40.1412 76.2966C59.0458 44.9058 91.1498 27.0414 126 27.0414C146.052 27.0414 165.177 32.9917 181.419 43.9943C181.587 44.1075 181.81 44.0904 181.957 43.9522C182.158 43.764 182.132 43.4384 181.905 43.2842C158.399 27.3585 128.914 21.9127 99.2467 29.6537C90.9528 31.8168 82.9623 35.1737 75.6218 39.6024C41.7251 60.0476 23.4863 95.7568 26.2799 133.775C29.9245 183.401 70.9646 223.432 120.657 226.033C178.214 229.043 226 183.085 226 126.174C226 108.637 221.427 91.8344 212.999 76.9848C212.879 76.7732 212.605 76.7065 212.401 76.8381C212.205 76.9639 212.147 77.2234 212.27 77.4207L212.333 77.5212Z" fill="white"/>
<path d="M147.076 89.8857C141.938 89.8857 137.757 94.0662 137.757 99.2041C137.757 104.342 141.938 108.522 147.076 108.522C152.214 108.522 156.394 104.342 156.394 99.2041C156.394 94.0662 152.214 89.8857 147.076 89.8857Z" fill="#FFECD6"/>
</g>
<defs>
<filter id="filter0_d_49_1994" x="0" y="0.173828" width="260" height="259.999" filterUnits="userSpaceOnUse" color-interpolation-filters="sRGB">
<feFlood flood-opacity="0" result="BackgroundImageFix"/>
<feColorMatrix in="SourceAlpha" type="matrix" values="0 0 0 0 0 0 0 0 0 0 0 0 0 0 0 0 0 0 127 0" result="hardAlpha"/>
<feOffset dx="4" dy="4"/>
<feGaussianBlur stdDeviation="15"/>
<feComposite in2="hardAlpha" operator="out"/>
<feColorMatrix type="matrix" values="0 0 0 0 0 0 0 0 0 0 0 0 0 0 0.196078 0 0 0 0.5 0"/>
<feBlend mode="normal" in2="BackgroundImageFix" result="effect1_dropShadow_49_1994"/>
<feBlend mode="normal" in="SourceGraphic" in2="effect1_dropShadow_49_1994" result="shape"/>
</filter>
</defs>
</svg>
