<svg width="194" height="60" viewBox="0 0 194 60" fill="none" xmlns="http://www.w3.org/2000/svg">
<path d="M29.9996 50.1214C29.9998 50.1216 29.9996 50.122 29.9993 50.122H29.96C21.6846 49.8643 18.3973 44.5097 17.1739 41.3407C16.421 39.3903 16.2047 36.8679 16.5628 34.2355C16.9765 31.1953 18.1468 28.1196 19.9446 25.3407C23.707 19.5263 28.8867 14.5996 29.1054 14.3915C29.6074 13.9167 30.3929 13.9167 30.895 14.3915C30.9434 14.4364 32.0191 15.4577 33.5475 17.1114C33.7141 17.2922 33.707 17.5806 33.525 17.7461L32.2579 18.9045C32.0782 19.0688 31.7945 19.0499 31.6278 18.8714C31.1337 18.3371 30.6881 17.8702 30.3122 17.4849C30.1385 17.3064 29.8642 17.304 29.6917 17.4825C27.9493 19.2709 24.6586 22.8478 22.1302 26.7544C18.7567 31.9683 18.4304 37.3667 19.6018 40.4045C20.8099 43.5345 23.5936 47.3052 30.0002 47.5191C36.4056 47.3052 39.1905 43.5345 40.3985 40.4045C41.5439 37.4376 41.259 32.2201 38.103 27.122C37.9777 26.9187 38.0297 26.6527 38.2295 26.5227L39.6704 25.5901C39.8808 25.4542 40.1704 25.5168 40.3016 25.7296C41.96 28.4057 43.0415 31.3371 43.4363 34.2355C43.7945 36.8679 43.5782 39.3915 42.8252 41.3407C41.6018 44.5097 38.3146 49.8643 30.0392 50.1208H29.9998C29.9995 50.1208 29.9994 50.1212 29.9996 50.1214Z" fill="#141431"/>
<path d="M43.5129 24.1386C47.1004 30.7391 45.9562 35.8266 45.5768 37.6209C44.39 43.2462 39.5981 49.8845 30 50.0866C20.4019 49.8833 15.6087 43.245 14.4232 37.6209C13.9964 35.6008 13.0248 28.4188 18.4031 20.8337C23.0603 14.2663 28.8889 9.91406 30 9.91406C30.6893 9.91406 33.1964 11.5959 36.1105 14.4365C36.3626 14.6823 36.7645 14.6904 37.0219 14.4502C37.2913 14.1988 37.2995 13.7737 37.0364 13.5157C34.0455 10.5824 31.2425 8.61264 30 8.61264C27.9621 8.61264 21.721 13.9046 17.3416 20.0807C13.5059 25.4909 11.9385 32.1481 13.1501 37.8892C14.4362 43.9838 19.617 51.1764 29.987 51.388H30H30.013C40.3841 51.1753 45.565 43.9838 46.8498 37.8892C47.8305 33.2414 46.9722 28.0004 44.5803 23.3014C44.4056 22.9581 43.9722 22.8471 43.6477 23.0547C43.3706 23.232 43.265 23.5855 43.3996 23.8857L43.5129 24.1386Z" fill="url(#paint0_linear_101_1471)"/>
<path d="M46.4124 21.1357C46.3024 21.2974 46.2918 21.5077 46.3828 21.6807C48.6957 26.0754 49.692 31.0129 49.111 35.752C48.5767 40.1185 46.5236 44.2 43.3333 47.2461C39.8037 50.6149 35.1914 52.4305 30.007 52.4991C24.8096 52.4317 20.1962 50.6149 16.6678 47.2461C13.4763 44.2 11.4243 40.1185 10.89 35.752C10.1347 29.5889 12.0106 23.0747 16.0366 17.8809C20.3971 12.2532 26.7931 7.50028 30.0011 7.50028C32.0426 7.50028 35.3738 9.43153 38.6505 12.2811C38.8541 12.4582 39.1591 12.4551 39.3564 12.2709C39.5808 12.0614 39.5769 11.704 39.3451 11.5028C35.8602 8.47645 32.2878 6.45891 30.0011 6.45891C26.4562 6.45891 19.8215 11.297 15.2139 17.2438C11.0224 22.6528 9.06851 29.4459 9.85693 35.8797C10.4208 40.4849 12.5851 44.7887 15.9503 48.0002C19.6737 51.5534 24.5295 53.4695 30.0094 53.5416C35.4751 53.4707 40.3321 51.5546 44.0543 48.0002C47.4195 44.7887 49.5827 40.4837 50.1477 35.8797C50.7544 30.9235 49.7134 25.7647 47.2948 21.1798C47.1879 20.9771 46.9587 20.872 46.7345 20.9194C46.6034 20.9471 46.4878 21.0249 46.4124 21.1357Z" fill="url(#paint1_linear_101_1471)"/>
<path d="M49.4661 19.2144C49.4104 19.3222 49.4122 19.4507 49.4698 19.5576C51.8383 23.9525 52.9815 28.9423 52.6524 33.8503C52.2801 39.4046 49.8735 44.6115 45.8782 48.511C41.6962 52.5926 36.0567 54.8656 30.0035 54.9117C23.9444 54.8656 18.3049 52.5926 14.1229 48.511C10.1276 44.6103 7.72101 39.4034 7.34867 33.8503C6.89714 27.1115 9.2021 20.2108 13.6749 14.9188C18.5685 9.13042 25.2825 5.08551 30.0011 5.08551C33.225 5.08551 37.3733 6.99875 41.2426 10.0421C41.3983 10.1645 41.6204 10.1566 41.7651 10.0215C41.9422 9.85619 41.9319 9.57226 41.7415 9.42267C37.7257 6.26898 33.387 4.30418 30.0011 4.30418C25.0685 4.30418 18.1087 8.46139 13.078 14.4141C8.47633 19.8597 6.10399 26.9626 6.56971 33.9023C6.95506 39.6481 9.44442 45.0346 13.578 49.0701C17.9042 53.2935 23.7364 55.6457 30.0047 55.693C36.2671 55.6457 42.0981 53.2935 46.4255 49.0701C50.559 45.0346 53.0484 39.6481 53.4337 33.9023C53.7723 28.8625 52.6053 23.7409 50.1837 19.2267C50.0989 19.0688 49.9209 18.9854 49.7449 19.0191L49.7216 19.0236C49.6117 19.0446 49.5175 19.115 49.4661 19.2144Z" fill="url(#paint2_linear_101_1471)"/>
<path d="M52.6751 17.2116C52.61 17.2925 52.6008 17.4048 52.6512 17.4956C55.0878 21.8863 56.3411 26.8328 56.1961 31.9318C55.7907 46.1245 44.2848 57.2793 30.0011 57.3266C15.7163 57.2793 4.20918 46.1233 3.80493 31.9318C3.59453 24.5429 6.26237 17.4472 11.3191 11.9507C16.5827 6.22851 23.7411 2.67414 29.9999 2.67414C34.5202 2.67414 39.5044 4.54254 43.9095 7.72833C44.0115 7.80205 44.1516 7.79403 44.2436 7.7082C44.3633 7.59647 44.3521 7.40328 44.2194 7.30732C39.723 4.0565 34.6275 2.15286 29.9999 2.15286C23.6004 2.15286 16.2943 5.77224 10.9361 11.5973C5.78601 17.1942 3.0697 24.4212 3.28365 31.946C3.69618 46.4211 15.4314 57.7982 29.9999 57.8467C44.5673 57.7982 56.3025 46.4211 56.715 31.946C56.8631 26.7546 55.5877 21.7197 53.1088 17.2505C53.0485 17.1416 52.9198 17.0905 52.8008 17.1273L52.7978 17.1283C52.7495 17.1432 52.7067 17.1722 52.6751 17.2116Z" fill="url(#paint3_linear_101_1471)"/>
<path d="M55.8998 15.4044C59.2497 21.2531 60.4976 27.9909 59.3168 35.0489C57.1643 47.92 46.5047 58.0264 33.5426 59.5323C12.8535 61.9377 -4.30138 42.9519 1.3511 21.8479C1.99058 19.4579 2.96576 17.1564 4.24235 15.0371C9.91374 5.6198 19.5449 0.260468 30 0.260468C36.0155 0.260468 41.753 2.04558 46.6258 5.34636C46.676 5.38032 46.743 5.37518 46.7872 5.33373C46.8473 5.27727 46.8397 5.17958 46.7714 5.13331C39.7197 0.355603 30.8743 -1.27812 21.974 1.04416C19.4858 1.69309 17.0887 2.70018 14.8866 4.02879C4.71753 10.1624 -0.754098 20.8751 0.0839626 32.2805C1.17734 47.1682 13.4894 59.1777 28.3972 59.9578C45.6643 60.8609 60 47.0737 60 30.0004C60 24.739 58.6281 19.6984 56.0996 15.2435C56.0636 15.18 55.9816 15.16 55.9202 15.1995C55.8615 15.2372 55.8441 15.3151 55.881 15.3743L55.8998 15.4044Z" fill="url(#paint4_linear_101_1471)"/>
<path d="M36.3228 19.1138C34.7814 19.1138 33.5273 20.3679 33.5273 21.9093C33.5273 23.4507 34.7814 24.7048 36.3228 24.7048C37.8642 24.7048 39.1183 23.4507 39.1183 21.9093C39.1183 20.3679 37.8642 19.1138 36.3228 19.1138Z" fill="#5D5D70"/>
<path d="M70 20.8C70 19.3749 71.1078 18.3299 72.533 18.3299C73.9581 18.3299 75.0668 19.3749 75.0668 20.8C75.0668 22.2251 73.9262 23.239 72.533 23.239C71.1397 23.239 70 22.1941 70 20.8ZM74.6237 26.1832V41.2898H70.4741V26.1832H74.6237Z" fill="#141431"/>
<path d="M96.3973 30.4276C96.3973 36.6351 91.4563 41.2907 84.8695 41.2907H76.6032V19.7551H84.8695C91.4563 19.7551 96.3973 24.3468 96.3973 30.4276ZM92.0262 30.4276C92.0262 26.7221 88.8276 23.7451 84.8686 23.7451H80.9096V37.2998H84.8686C88.8267 37.2998 92.0262 34.2599 92.0262 30.4276Z" fill="#141431"/>
<path d="M113.425 34.9565H102.34C102.658 36.6981 103.797 38.0284 106.173 38.0284C107.281 38.0284 108.041 37.8387 108.58 37.1731H113.172C112.159 40.0234 109.467 41.6701 106.142 41.6701C101.296 41.6701 98.0969 38.2499 98.0969 33.753C98.0969 29.256 101.264 25.8039 105.888 25.8039C111.082 25.8039 114.217 29.731 113.426 34.9565H113.425ZM102.435 32.1382H109.307C109.085 30.2061 107.85 29.3198 105.918 29.3198C103.891 29.3198 102.815 30.5553 102.434 32.1382H102.435Z" fill="#141431"/>
<path d="M125.028 25.9297V29.8568C122.683 29.9826 120.974 30.6801 119.675 32.1372V41.2898H115.527V26.1832H119.675V27.9256C121.038 26.6272 122.779 25.9306 125.028 25.9306V25.9297Z" fill="#141431"/>
<path d="M151.995 32.8976V41.2897H147.845V32.8976C147.845 30.5534 146.61 29.5723 144.773 29.5723C143.633 29.5723 142.461 29.9525 141.479 31.1561C141.543 31.6311 141.575 32.1061 141.575 32.6441V41.2906H137.425V32.6441C137.425 30.3327 136.19 29.5723 134.607 29.5723C133.309 29.5723 132.137 30.0792 131.155 31.3457V41.2897H127.006V26.1831H131.155V27.1961C132.168 26.3409 133.34 25.8029 135.146 25.8029C137.141 25.8029 138.819 26.4366 139.96 27.7031C141.448 26.4366 143 25.8029 145.059 25.8029C149.145 25.8029 151.995 28.3359 151.995 32.8967V32.8976Z" fill="#141431"/>
<path d="M170 26.1833V41.2898H165.85V40.4346C164.679 41.195 163.19 41.6701 161.512 41.6701C157.331 41.6701 153.974 38.1223 153.974 33.753C153.974 29.3836 157.331 25.8039 161.512 25.8039C163.19 25.8039 164.68 26.279 165.85 27.0394V26.1842H170V26.1833ZM165.85 36.1282V31.3458C164.868 29.9526 163.506 29.5724 162.145 29.5724C159.77 29.5724 158.123 31.4726 158.123 33.753C158.123 36.0334 159.77 37.9016 162.145 37.9016C163.507 37.9016 164.869 37.5214 165.85 36.1282Z" fill="#141431"/>
<defs>
<linearGradient id="paint0_linear_101_1471" x1="12.5838" y1="30.0003" x2="47.1657" y2="30.0003" gradientUnits="userSpaceOnUse">
<stop stop-color="#CC7F32"/>
<stop offset="1" stop-color="#FFCC8F"/>
</linearGradient>
<linearGradient id="paint1_linear_101_1471" x1="9.49145" y1="30.0003" x2="50.22" y2="30.0003" gradientUnits="userSpaceOnUse">
<stop stop-color="#CC7F32"/>
<stop offset="1" stop-color="#FFCC8F"/>
</linearGradient>
<linearGradient id="paint2_linear_101_1471" x1="6.28781" y1="29.9986" x2="53.3791" y2="29.9986" gradientUnits="userSpaceOnUse">
<stop stop-color="#CC7F32"/>
<stop offset="1" stop-color="#FFCC8F"/>
</linearGradient>
<linearGradient id="paint3_linear_101_1471" x1="3.01676" y1="29.9998" x2="56.5991" y2="29.9998" gradientUnits="userSpaceOnUse">
<stop stop-color="#CC7F32"/>
<stop offset="1" stop-color="#FFCC8F"/>
</linearGradient>
<linearGradient id="paint4_linear_101_1471" x1="-0.286396" y1="30" x2="59.8568" y2="30" gradientUnits="userSpaceOnUse">
<stop stop-color="#CC7F32"/>
<stop offset="1" stop-color="#FFCC8F"/>
</linearGradient>
</defs>
</svg>
