<svg width="39" height="28" viewBox="0 0 39 28" fill="none" xmlns="http://www.w3.org/2000/svg">
<path d="M35.2862 27.113H3.86235C1.88939 27.113 0.287109 25.5132 0.287109 23.5433V3.56969C0.287109 1.5998 1.88939 0 3.86235 0H35.2862C37.2592 0 38.8614 1.5998 38.8614 3.56969V23.5433C38.8614 25.5132 37.2592 27.113 35.2862 27.113Z" fill="#36495D"/>
<path d="M22.8148 7.74854H16.334V19.3769H22.8148V7.74854Z" fill="#F16522"/>
<path d="M16.7404 13.5625C16.7404 11.1986 17.8524 9.1093 19.5743 7.74828C18.3187 6.75736 16.7284 6.17236 14.9946 6.17236C10.9052 6.17236 7.59302 9.4794 7.59302 13.5625C7.59302 17.6455 10.9052 20.9526 14.9946 20.9526C16.7164 20.9526 18.3068 20.3676 19.5743 19.3767C17.8524 18.0156 16.7404 15.9144 16.7404 13.5625Z" fill="#E41B24"/>
<path d="M31.5556 13.5625C31.5556 17.6456 28.2434 20.9526 24.154 20.9526C22.4321 20.9526 20.8418 20.3676 19.5743 19.3767C21.2962 18.0276 22.3963 15.9264 22.3963 13.5625C22.3963 11.1986 21.2962 9.10933 19.5743 7.74831C20.8299 6.7574 22.4202 6.1724 24.154 6.1724C28.2434 6.16046 31.5556 9.47944 31.5556 13.5625Z" fill="#F89E1C"/>
</svg>
