<svg width="19" height="20" viewBox="0 0 19 20" fill="none" xmlns="http://www.w3.org/2000/svg">
<path d="M9.20975 6.86594C9.62552 6.44284 10.1462 6.14115 10.717 5.99265V1.67016C10.717 1.22721 10.5433 0.802396 10.2341 0.48918C9.92492 0.175963 9.50555 0 9.06826 0H1.64878C1.21149 0 0.792121 0.175963 0.482915 0.48918C0.17371 0.802396 0 1.22721 0 1.67016V9.1859C0 9.62885 0.17371 10.0537 0.482915 10.3669C0.792121 10.6801 1.21149 10.8561 1.64878 10.8561H5.27072L9.20975 6.86594ZM7.41949 2.50524C7.58254 2.50524 7.74193 2.55422 7.87749 2.64598C8.01306 2.73774 8.11873 2.86816 8.18112 3.02075C8.24352 3.17335 8.25985 3.34125 8.22804 3.50324C8.19623 3.66523 8.11771 3.81403 8.00242 3.93082C7.88713 4.04761 7.74023 4.12714 7.58032 4.15936C7.4204 4.19158 7.25465 4.17505 7.10401 4.11184C6.95337 4.04864 6.82462 3.9416 6.73404 3.80427C6.64345 3.66694 6.5951 3.50549 6.5951 3.34033C6.5951 3.11885 6.68196 2.90644 6.83656 2.74983C6.99116 2.59323 7.20085 2.50524 7.41949 2.50524ZM7.41949 5.84557C7.58254 5.84557 7.74193 5.89455 7.87749 5.98631C8.01306 6.07807 8.11873 6.20849 8.18112 6.36108C8.24352 6.51367 8.25985 6.68158 8.22804 6.84357C8.19623 7.00556 8.11771 7.15436 8.00242 7.27114C7.88713 7.38793 7.74023 7.46747 7.58032 7.49969C7.4204 7.53191 7.25465 7.51537 7.10401 7.45217C6.95337 7.38896 6.82462 7.28193 6.73404 7.1446C6.64345 7.00727 6.5951 6.84582 6.5951 6.68065C6.5951 6.45918 6.68196 6.24677 6.83656 6.09016C6.99116 5.93355 7.20085 5.84557 7.41949 5.84557ZM3.29755 2.50524C3.4606 2.50524 3.61999 2.55422 3.75556 2.64598C3.89113 2.73774 3.99679 2.86816 4.05919 3.02075C4.12158 3.17335 4.13791 3.34125 4.1061 3.50324C4.07429 3.66523 3.99577 3.81403 3.88048 3.93082C3.76519 4.04761 3.6183 4.12714 3.45838 4.15936C3.29847 4.19158 3.13271 4.17505 2.98207 4.11184C2.83143 4.04864 2.70268 3.9416 2.6121 3.80427C2.52151 3.66694 2.47316 3.50549 2.47316 3.34033C2.47316 3.11885 2.56002 2.90644 2.71462 2.74983C2.86922 2.59323 3.07891 2.50524 3.29755 2.50524ZM3.29755 8.35082C3.1345 8.35082 2.97512 8.30184 2.83955 8.21008C2.70398 8.11832 2.59831 7.9879 2.53592 7.83531C2.47352 7.68272 2.45719 7.51481 2.489 7.35282C2.52081 7.19083 2.59933 7.04203 2.71462 6.92524C2.82991 6.80845 2.97681 6.72892 3.13672 6.6967C3.29664 6.66448 3.46239 6.68101 3.61303 6.74422C3.76367 6.80743 3.89242 6.91446 3.983 7.05179C4.07359 7.18912 4.12194 7.35057 4.12194 7.51573C4.12194 7.73721 4.03508 7.94962 3.88048 8.10623C3.72588 8.26283 3.51619 8.35082 3.29755 8.35082Z" fill="url(#paint0_linear)"/>
<path d="M17.3707 11.5899L13.1523 7.31667C13.0128 7.17491 12.8493 7.05975 12.6695 6.97669C11.6255 6.49725 10.5216 6.71792 9.7927 7.45686L5.5742 11.7296C5.43426 11.8708 5.32057 12.0365 5.23857 12.2186C4.76527 13.2761 4.98312 14.3944 5.71259 15.1327L9.93099 19.4059C10.0705 19.5477 10.234 19.6629 10.4138 19.7459C11.4578 20.2254 12.5617 20.0047 13.2906 19.2658L17.5091 14.9926C17.649 14.8513 17.7627 14.6857 17.8447 14.5036C18.3176 13.4465 18.0997 12.3279 17.3707 11.5899ZM11.5414 14.1964C11.3784 14.1964 11.219 14.1474 11.0834 14.0557C10.9479 13.9639 10.8422 13.8335 10.7798 13.6809C10.7174 13.5283 10.7011 13.3604 10.7329 13.1984C10.7647 13.0364 10.8432 12.8876 10.9585 12.7708C11.0738 12.654 11.2207 12.5745 11.3806 12.5423C11.5405 12.51 11.7063 12.5266 11.8569 12.5898C12.0075 12.653 12.1363 12.76 12.2269 12.8974C12.3175 13.0347 12.3658 13.1961 12.3658 13.3613C12.3658 13.5828 12.279 13.7952 12.1244 13.9518C11.9698 14.1084 11.7601 14.1964 11.5414 14.1964Z" fill="url(#paint1_linear)"/>
<defs>
<linearGradient id="paint0_linear" x1="-6.741e-08" y1="10" x2="18.0952" y2="10" gradientUnits="userSpaceOnUse">
<stop stop-color="#F87C0A"/>
<stop offset="1" stop-color="#DC0606"/>
</linearGradient>
<linearGradient id="paint1_linear" x1="-6.741e-08" y1="10" x2="18.0952" y2="10" gradientUnits="userSpaceOnUse">
<stop stop-color="#F87C0A"/>
<stop offset="1" stop-color="#DC0606"/>
</linearGradient>
</defs>
</svg>
