<svg width="17" height="20" viewBox="0 0 17 20" fill="none" xmlns="http://www.w3.org/2000/svg">
<path d="M15 0H2.50004C1.58125 0 0.833359 0.747461 0.833359 1.66668V3.33336H0.41668C0.186367 3.33336 0 3.51973 0 3.75004C0 3.98035 0.186367 4.16672 0.41668 4.16672H2.08336C2.31285 4.16672 2.50004 4.35348 2.50004 4.5834C2.50004 4.81328 2.31285 5.00008 2.08336 5.00008H1.25004C1.01973 5 0.833359 5.18637 0.833359 5.41668V7.5H0.41668C0.186367 7.5 0 7.68637 0 7.91668C0 8.14699 0.186367 8.33336 0.41668 8.33336H2.08336C2.31285 8.33336 2.50004 8.52012 2.50004 8.75004C2.50004 8.97996 2.31285 9.16668 2.08336 9.16668H1.25004C1.01973 9.16668 0.833359 9.35305 0.833359 9.58336V11.6667H0.41668C0.186367 11.6667 0 11.853 0 12.0834C0 12.3137 0.186367 12.5 0.41668 12.5H2.08336C2.31285 12.5 2.50004 12.6868 2.50004 12.9167C2.50004 13.1466 2.31285 13.3334 2.08336 13.3334H1.25004C1.01973 13.3333 0.833359 13.5197 0.833359 13.75V15.8333H0.41668C0.186367 15.8333 0 16.0197 0 16.25C0 16.4803 0.186367 16.6667 0.41668 16.6667H2.08336C2.31285 16.6667 2.50004 16.8534 2.50004 17.0834C2.50004 17.3132 2.31285 17.5 2.08336 17.5H1.25004C1.01973 17.5 0.833359 17.6864 0.833359 17.9167V18.3334C0.833359 19.2525 1.58125 20 2.50004 20H15C15.9188 20 16.6667 19.2525 16.6667 18.3333V1.66668C16.6667 0.747461 15.9188 0 15 0ZM14.1667 13.2405C14.1667 13.7512 13.7508 14.1666 13.2406 14.1666C8.23734 14.1666 4.16668 10.096 4.16668 5.09273C4.16668 4.58207 4.58254 4.16664 5.09277 4.16664H6.875C7.38527 4.16664 7.80109 4.58207 7.80109 5.09273C7.80109 5.67137 7.89145 6.23898 8.06965 6.78055C8.17625 7.11828 8.08836 7.47797 7.8418 7.72457L7.1118 8.69664C7.73926 9.84938 8.47492 10.5851 9.63621 11.2207L10.6518 10.4537C10.8569 10.2441 11.2272 10.1562 11.5584 10.2702C12.0939 10.4468 12.6619 10.5375 13.2405 10.5375C13.7508 10.5375 14.1666 10.9529 14.1666 11.4636L14.1667 13.2405Z" fill="url(#paint0_linear)"/>
<defs>
<linearGradient id="paint0_linear" x1="-6.20884e-08" y1="10" x2="16.6667" y2="10" gradientUnits="userSpaceOnUse">
<stop stop-color="#F87C0A"/>
<stop offset="1" stop-color="#DC0606"/>
</linearGradient>
</defs>
</svg>
