<svg width="19" height="16" viewBox="0 0 19 16" fill="none" xmlns="http://www.w3.org/2000/svg">
<path d="M17.293 0H1.70703C0.765789 0 0 0.764257 0 1.70362V11.3328C0 12.2722 0.765789 13.0364 1.70703 13.0364H2.375V14.5865C2.375 15.1442 2.69039 15.6355 3.19809 15.8685C3.39031 15.9567 3.59271 16 3.7931 16C4.122 16 4.44541 15.8834 4.70907 15.6579C4.71972 15.6488 4.73004 15.6393 4.74005 15.6295L7.36892 13.0364H17.293C18.2342 13.0364 19 12.2722 19 11.3328V1.70362C19 0.764257 18.2342 0 17.293 0ZM13.7661 5.92774L12.1357 7.53125C12.0925 7.57369 12.0728 7.6345 12.083 7.69413L12.4683 9.96087C12.4996 10.1454 12.4497 10.3376 12.3222 10.4749C12.2047 10.6014 12.0454 10.6661 11.8851 10.6661C11.7897 10.6661 11.694 10.6432 11.6065 10.5968L9.58706 9.52555C9.53262 9.49667 9.46734 9.49667 9.4129 9.52555L7.40584 10.5902C7.23867 10.6789 7.03802 10.6916 6.86635 10.6119C6.61812 10.4968 6.48527 10.2342 6.52939 9.97449L6.917 7.69416C6.92713 7.63454 6.90746 7.57376 6.86431 7.53128L5.23391 5.92777C5.09983 5.79589 5.02754 5.60997 5.05114 5.42358C5.08528 5.15355 5.2941 4.94767 5.55431 4.90953L7.81438 4.57817C7.87498 4.56929 7.92727 4.53114 7.95413 4.47618L8.96024 2.41925C9.04359 2.24889 9.19923 2.12071 9.38578 2.08489C9.65523 2.03319 9.91752 2.1693 10.0336 2.40662L11.0458 4.47618C11.0727 4.5311 11.125 4.56929 11.1856 4.57817L13.4457 4.90953C13.7059 4.94767 13.9146 5.15359 13.9488 5.42358C13.9724 5.60994 13.9002 5.79585 13.7661 5.92774Z" fill="url(#paint0_linear)"/>
<defs>
<linearGradient id="paint0_linear" x1="-7.07805e-08" y1="8" x2="19" y2="8" gradientUnits="userSpaceOnUse">
<stop stop-color="#F87C0A"/>
<stop offset="1" stop-color="#DC0606"/>
</linearGradient>
</defs>
</svg>
