<svg width="20" height="20" viewBox="0 0 20 20" fill="none" xmlns="http://www.w3.org/2000/svg">
<path d="M4.12024 10.587H0C0.130582 12.8391 1.01092 14.955 2.52175 16.6481L5.42934 13.7405C4.71022 12.8635 4.2381 11.7766 4.12024 10.587Z" fill="url(#paint0_linear)"/>
<path d="M4.12024 9.41301C4.2381 8.22341 4.71018 7.13653 5.42934 6.25944L2.52175 3.35185C1.01092 5.04499 0.130582 7.16095 0 9.41301H4.12024Z" fill="url(#paint1_linear)"/>
<path d="M15.8797 10.587C15.7619 11.7766 15.2898 12.8634 14.5706 13.7405L17.4782 16.6481C18.989 14.955 19.8694 12.839 20 10.587H15.8797Z" fill="url(#paint2_linear)"/>
<path d="M9.99998 5.26507C7.38913 5.26507 5.26507 7.38913 5.26507 9.99998C5.26507 12.6108 7.38913 14.7349 9.99998 14.7349C12.6108 14.7349 14.7349 12.6108 14.7349 9.99998C14.7349 7.38913 12.6108 5.26507 9.99998 5.26507ZM10.6004 12.5381V12.6551C10.6004 12.9954 10.3296 13.2479 10.0134 13.2479C9.68928 13.2479 9.42647 12.9851 9.42647 12.6609V12.6045C9.15584 12.5571 8.90872 12.4559 8.59669 12.2516C8.31858 12.0696 8.25327 11.6989 8.42697 11.4334C8.60447 11.162 8.9682 11.086 9.23954 11.2635C9.52563 11.4507 9.61735 11.4653 10.0096 11.4626C10.3871 11.4601 10.5376 11.1636 10.567 10.9889C10.6022 10.7794 10.5124 10.6111 10.2728 10.5263C9.82608 10.3682 9.29992 10.1675 8.93169 9.87883C8.12472 9.24611 8.36859 7.79676 9.42655 7.41229V7.33317C9.42655 6.9928 9.69738 6.74032 10.0135 6.74032C10.3377 6.74032 10.6005 7.00313 10.6005 7.3273V7.3768C10.8998 7.46391 11.1305 7.61053 11.2621 7.73188C11.2578 7.73657 11.2574 7.73477 11.2613 7.73822C11.4982 7.95751 11.5137 8.32715 11.2954 8.56542C11.0768 8.80396 10.7066 8.82052 10.4676 8.60283C10.3161 8.49068 10.0853 8.44227 9.84216 8.51596C9.70325 8.55783 9.628 8.70653 9.62714 8.83981C9.62784 8.90101 9.64541 8.94085 9.65621 8.9493C9.87762 9.12296 10.2899 9.2816 10.6641 9.41383C12.202 9.95744 12.0314 12.0209 10.6004 12.5381Z" fill="url(#paint3_linear)"/>
<path d="M14.5707 6.25944C15.2898 7.13653 15.7619 8.22341 15.8798 9.41301H20C19.8694 7.16095 18.9891 5.04499 17.4782 3.35185L14.5707 6.25944Z" fill="url(#paint4_linear)"/>
<path d="M10.587 0V4.12024C11.7766 4.2381 12.8634 4.71018 13.7405 5.42934L16.6481 2.52175C14.955 1.01092 12.8391 0.130582 10.587 0Z" fill="url(#paint5_linear)"/>
<path d="M13.7406 14.5707C12.8635 15.2898 11.7766 15.7619 10.587 15.8798V20C12.8391 19.8694 14.955 18.9891 16.6482 17.4782L13.7406 14.5707Z" fill="url(#paint6_linear)"/>
<path d="M9.41301 15.8797C8.22341 15.7619 7.13653 15.2898 6.25944 14.5706L3.35185 17.4782C5.04499 18.989 7.16095 19.8694 9.41301 20V15.8797Z" fill="url(#paint7_linear)"/>
<path d="M6.25944 5.42934C7.13653 4.71022 8.22341 4.2381 9.41301 4.12024V0C7.16095 0.130582 5.04499 1.01092 3.35185 2.52175L6.25944 5.42934Z" fill="url(#paint8_linear)"/>
<defs>
<linearGradient id="paint0_linear" x1="-7.45058e-08" y1="10" x2="20" y2="10" gradientUnits="userSpaceOnUse">
<stop stop-color="#F87C0A"/>
<stop offset="1" stop-color="#DC0606"/>
</linearGradient>
<linearGradient id="paint1_linear" x1="-7.45058e-08" y1="10" x2="20" y2="10" gradientUnits="userSpaceOnUse">
<stop stop-color="#F87C0A"/>
<stop offset="1" stop-color="#DC0606"/>
</linearGradient>
<linearGradient id="paint2_linear" x1="-7.45058e-08" y1="10" x2="20" y2="10" gradientUnits="userSpaceOnUse">
<stop stop-color="#F87C0A"/>
<stop offset="1" stop-color="#DC0606"/>
</linearGradient>
<linearGradient id="paint3_linear" x1="-7.45058e-08" y1="10" x2="20" y2="10" gradientUnits="userSpaceOnUse">
<stop stop-color="#F87C0A"/>
<stop offset="1" stop-color="#DC0606"/>
</linearGradient>
<linearGradient id="paint4_linear" x1="-7.45058e-08" y1="10" x2="20" y2="10" gradientUnits="userSpaceOnUse">
<stop stop-color="#F87C0A"/>
<stop offset="1" stop-color="#DC0606"/>
</linearGradient>
<linearGradient id="paint5_linear" x1="-7.45058e-08" y1="10" x2="20" y2="10" gradientUnits="userSpaceOnUse">
<stop stop-color="#F87C0A"/>
<stop offset="1" stop-color="#DC0606"/>
</linearGradient>
<linearGradient id="paint6_linear" x1="-7.45058e-08" y1="10" x2="20" y2="10" gradientUnits="userSpaceOnUse">
<stop stop-color="#F87C0A"/>
<stop offset="1" stop-color="#DC0606"/>
</linearGradient>
<linearGradient id="paint7_linear" x1="-7.45058e-08" y1="10" x2="20" y2="10" gradientUnits="userSpaceOnUse">
<stop stop-color="#F87C0A"/>
<stop offset="1" stop-color="#DC0606"/>
</linearGradient>
<linearGradient id="paint8_linear" x1="-7.45058e-08" y1="10" x2="20" y2="10" gradientUnits="userSpaceOnUse">
<stop stop-color="#F87C0A"/>
<stop offset="1" stop-color="#DC0606"/>
</linearGradient>
</defs>
</svg>
