<svg width="20" height="20" viewBox="0 0 20 20" fill="none" xmlns="http://www.w3.org/2000/svg">
<path d="M10.9604 5.49055C10.4309 5.98555 9.5726 5.98555 9.04306 5.49055C8.51367 4.99555 8.51367 4.19294 9.04306 3.69794C9.5726 3.20294 10.4309 3.20294 10.9604 3.69794C11.4898 4.19294 11.4898 4.99555 10.9604 5.49055Z" fill="url(#paint0_linear)"/>
<path d="M12.8124 7.41118C12.6473 7.41118 12.4821 7.35213 12.3564 7.23387C12.1049 6.99797 12.1054 6.61574 12.3572 6.38029C12.8675 5.90315 13.1485 5.26884 13.1485 4.59424C13.1485 3.91965 12.8675 3.28534 12.3572 2.8082C12.1054 2.5726 12.1049 2.19052 12.3564 1.95447C12.6077 1.71856 13.0157 1.71811 13.2676 1.9537C14.0219 2.65897 14.4373 3.59662 14.4373 4.59424C14.4373 5.59171 14.0219 6.52952 13.2676 7.23479C13.1418 7.35243 12.9771 7.41118 12.8124 7.41118Z" fill="url(#paint1_linear)"/>
<path d="M14.27 9.18837C14.1048 9.18837 13.9396 9.12932 13.8139 9.01122C13.5624 8.77517 13.5629 8.39308 13.8147 8.15749C14.8327 7.20564 15.3936 5.94023 15.3936 4.59424C15.3936 3.24826 14.8327 1.98285 13.8147 1.031C13.5629 0.795405 13.5624 0.413324 13.8139 0.17727C14.0654 -0.0586318 14.4733 -0.0590895 14.7251 0.176507C15.9871 1.35647 16.6823 2.92539 16.6822 4.59424C16.6822 6.2631 15.9871 7.83217 14.7251 9.01214C14.5993 9.12963 14.4346 9.18837 14.27 9.18837Z" fill="url(#paint2_linear)"/>
<path d="M7.18776 7.41118C7.02308 7.41118 6.8584 7.35243 6.73249 7.23479C5.97815 6.52952 5.56279 5.59171 5.56279 4.59424C5.56279 3.59662 5.97815 2.65897 6.73249 1.9537C6.98431 1.71811 7.39235 1.71841 7.64368 1.95447C7.89518 2.19037 7.89469 2.5726 7.64287 2.8082C7.13254 3.28534 6.85156 3.91965 6.85156 4.59424C6.85156 5.26884 7.13254 5.90315 7.64287 6.38029C7.89469 6.61574 7.89518 6.99797 7.64368 7.23387C7.51793 7.35197 7.35277 7.41118 7.18776 7.41118Z" fill="url(#paint3_linear)"/>
<path d="M5.73024 9.18837C5.5654 9.18837 5.40072 9.12963 5.27497 9.01198C4.01291 7.83202 3.31787 6.2631 3.31787 4.59424C3.31787 2.92523 4.01291 1.35632 5.27497 0.176354C5.52679 -0.0590896 5.93483 -0.0587843 6.18616 0.17727C6.43766 0.413171 6.43717 0.795253 6.18535 1.03085C5.1673 1.9827 4.60647 3.24811 4.60647 4.59409C4.60647 5.94007 5.1673 7.20564 6.18535 8.15749C6.43717 8.39308 6.43766 8.77517 6.18616 9.01122C6.06041 9.12932 5.89524 9.18837 5.73024 9.18837Z" fill="url(#paint4_linear)"/>
<path d="M18.4928 10.2319H1.50736C0.674844 10.2319 0 10.8641 0 11.6438V18.5879C0 19.3678 0.674844 20 1.50736 20H18.4926C19.3252 20 20 19.3678 20 18.5879V11.6438C20 10.8641 19.3252 10.2319 18.4928 10.2319ZM4.95684 18.1883H2.58275C2.227 18.1883 1.93853 17.9181 1.93853 17.5847V12.6472C1.93853 12.314 2.227 12.0436 2.58275 12.0436C2.93866 12.0436 3.22713 12.3138 3.22713 12.6472V16.981H4.95684C5.31274 16.981 5.60122 17.2513 5.60122 17.5847C5.60122 17.9181 5.31274 18.1883 4.95684 18.1883ZM7.59757 17.5847C7.59757 17.9181 7.3091 18.1883 6.95319 18.1883C6.59728 18.1883 6.3088 17.9181 6.3088 17.5847V12.6472C6.3088 12.314 6.59728 12.0436 6.95319 12.0436C7.3091 12.0436 7.59757 12.3138 7.59757 12.6472V17.5847ZM13.0191 12.8218L11.4279 17.7591C11.4277 17.7596 11.4275 17.76 11.4274 17.7605C11.2546 18.313 10.3735 18.2994 10.1947 17.7605C10.1945 17.76 10.1943 17.7596 10.1942 17.7591L8.60291 12.8218C8.50013 12.5026 8.69283 12.1658 9.03359 12.0694C9.37402 11.9731 9.73384 12.1536 9.83662 12.4728L10.811 15.4961L11.7854 12.4728C11.8884 12.1536 12.2479 11.973 12.5886 12.0694C12.9292 12.1658 13.1221 12.5026 13.0191 12.8218ZM16.9833 14.2015C17.3392 14.2015 17.6277 14.4717 17.6277 14.8051C17.6277 15.1384 17.3392 15.4088 16.9833 15.4088H15.1547V16.981H17.3304C17.6863 16.981 17.9748 17.2513 17.9748 17.5847C17.9748 17.9181 17.6863 18.1883 17.3304 18.1883H14.5104C14.1545 18.1883 13.866 17.9181 13.866 17.5847V12.6472C13.866 12.314 14.1545 12.0436 14.5104 12.0436H17.4173C17.773 12.0436 18.0616 12.3138 18.0616 12.6472C18.0616 12.9806 17.773 13.2509 17.4173 13.2509H15.1546V14.2015H16.9833Z" fill="url(#paint5_linear)"/>
<defs>
<linearGradient id="paint0_linear" x1="-7.45058e-08" y1="10" x2="20" y2="10" gradientUnits="userSpaceOnUse">
<stop stop-color="#F87C0A"/>
<stop offset="1" stop-color="#DC0606"/>
</linearGradient>
<linearGradient id="paint1_linear" x1="-7.45058e-08" y1="10" x2="20" y2="10" gradientUnits="userSpaceOnUse">
<stop stop-color="#F87C0A"/>
<stop offset="1" stop-color="#DC0606"/>
</linearGradient>
<linearGradient id="paint2_linear" x1="-7.45058e-08" y1="10" x2="20" y2="10" gradientUnits="userSpaceOnUse">
<stop stop-color="#F87C0A"/>
<stop offset="1" stop-color="#DC0606"/>
</linearGradient>
<linearGradient id="paint3_linear" x1="-7.45058e-08" y1="10" x2="20" y2="10" gradientUnits="userSpaceOnUse">
<stop stop-color="#F87C0A"/>
<stop offset="1" stop-color="#DC0606"/>
</linearGradient>
<linearGradient id="paint4_linear" x1="-7.45058e-08" y1="10" x2="20" y2="10" gradientUnits="userSpaceOnUse">
<stop stop-color="#F87C0A"/>
<stop offset="1" stop-color="#DC0606"/>
</linearGradient>
<linearGradient id="paint5_linear" x1="-7.45058e-08" y1="10" x2="20" y2="10" gradientUnits="userSpaceOnUse">
<stop stop-color="#F87C0A"/>
<stop offset="1" stop-color="#DC0606"/>
</linearGradient>
</defs>
</svg>
