<svg width="18" height="18" viewBox="0 0 18 18" fill="none" xmlns="http://www.w3.org/2000/svg">
<path d="M15.7404 1.05469H15.7779C16.0692 1.05469 16.3052 0.818578 16.3052 0.527344C16.3052 0.236109 16.0692 0 15.7779 0H3.63384C2.56438 0 1.69434 0.870047 1.69434 1.9395V16.0606C1.69434 17.13 2.56438 18 3.63384 18H14.3658C15.4352 18 16.3053 17.13 16.3053 16.0606V4.76367C16.3053 4.23098 16.0893 3.74787 15.7405 3.39704V1.05469H15.7404ZM12.4746 10.0923L11.1198 11.4129L11.4347 13.2489C11.4433 13.2868 11.4479 13.3262 11.4479 13.3667C11.4479 13.6577 11.2122 13.8937 10.9213 13.8941C10.9208 13.8941 10.9203 13.8941 10.9198 13.8941C10.8359 13.8941 10.7516 13.8741 10.6745 13.8335L8.99984 12.953L7.32517 13.8335C7.14749 13.9268 6.9322 13.9113 6.76981 13.7933C6.60742 13.6754 6.52607 13.4754 6.56003 13.2776L6.87988 11.4129L5.5251 10.0923C5.38135 9.95221 5.32963 9.74264 5.39165 9.55171C5.4537 9.36081 5.61872 9.22166 5.81736 9.19283L7.68964 8.92083L8.52692 7.22422C8.61573 7.04422 8.79906 6.93028 8.99981 6.93028C9.20051 6.93028 9.38385 7.04422 9.47266 7.22422L10.31 8.92083L12.1823 9.19283C12.3809 9.22166 12.5459 9.36081 12.608 9.55171C12.67 9.74261 12.6183 9.95217 12.4746 10.0923ZM14.6857 2.85117C14.5816 2.8338 14.4748 2.82428 14.3657 2.82428H3.63384C3.14594 2.82428 2.74902 2.42736 2.74902 1.9395C2.74902 1.4516 3.14594 1.05469 3.63384 1.05469H14.6857V2.85117Z" fill="url(#paint0_linear)"/>
<defs>
<linearGradient id="paint0_linear" x1="1.69434" y1="9" x2="16.3053" y2="9" gradientUnits="userSpaceOnUse">
<stop stop-color="#F87C0A"/>
<stop offset="1" stop-color="#DC0606"/>
</linearGradient>
</defs>
</svg>
