<svg width="46" height="52" viewBox="0 0 46 52" fill="none" xmlns="http://www.w3.org/2000/svg">
<path d="M23.0947 12.8596V8.31251C22.0252 8.56574 21.2788 9.5126 21.2788 10.5916C21.2788 11.6705 22.0363 12.6064 23.0947 12.8596Z" fill="url(#paint0_linear)"/>
<path d="M14.6946 13.5422C14.6946 18.4307 18.7053 22.3942 23.6517 22.3942C28.5982 22.3942 32.6089 18.4307 32.6089 13.5422C32.6089 8.65382 28.5982 4.69024 23.6517 4.69024C18.7053 4.70125 14.7057 8.65382 14.6946 13.5422ZM20.2093 10.0411C20.4543 8.57675 21.613 7.42071 23.0947 7.1895V6.68304C23.0947 6.37476 23.3398 6.13254 23.6517 6.13254C23.9637 6.13254 24.2088 6.37476 24.2088 6.68304V7.17849C24.7101 7.25556 25.178 7.44273 25.6014 7.71798C25.8242 7.50879 26.1807 7.5198 26.3923 7.74C26.4926 7.83909 26.5483 7.98221 26.5483 8.11433V9.25937C26.5483 9.56765 26.3032 9.80987 25.9913 9.80987C25.6793 9.80987 25.4342 9.56765 25.4342 9.25937V9.00614C25.1112 8.65382 24.6878 8.40059 24.2199 8.29049V12.9587C26.125 13.267 27.4173 15.0286 27.1054 16.9113C26.8603 18.3756 25.7016 19.5317 24.2199 19.7629V20.4014C24.2199 20.7097 23.9748 20.9519 23.6629 20.9519C23.3509 20.9519 23.1058 20.7097 23.1058 20.4014V19.7629C22.5934 19.6858 22.1143 19.4876 21.6798 19.2014C21.4459 19.3995 21.1005 19.3775 20.9 19.1573C20.8109 19.0582 20.7663 18.9261 20.7663 18.794V17.6379C20.7663 17.3297 21.0114 17.0874 21.3233 17.0874C21.6353 17.0874 21.8804 17.3297 21.8804 17.6379V17.9132C22.2034 18.2765 22.6268 18.5408 23.1058 18.6509V13.9826C21.2008 13.6854 19.9085 11.9128 20.2093 10.0411Z" fill="url(#paint1_linear)"/>
<path d="M24.2088 23.4842V27.0845C27.4619 26.9524 30.559 25.6862 32.9431 23.5062L30.3696 20.9629C28.6651 22.4713 26.4926 23.3631 24.2088 23.4842Z" fill="url(#paint2_linear)"/>
<path d="M32.9431 3.58924C30.559 1.40927 27.4619 0.132119 24.2088 0.01101V3.61126C26.4926 3.73237 28.6651 4.62418 30.3696 6.13254L32.9431 3.58924Z" fill="url(#paint3_linear)"/>
<path d="M37.3659 14.0927H33.7229C33.6004 16.3498 32.698 18.4967 31.1717 20.1812L33.7452 22.7245C35.9511 20.3684 37.2323 17.3076 37.3659 14.0927Z" fill="url(#paint4_linear)"/>
<path d="M26.0247 16.3828C26.0247 15.3038 25.2671 14.357 24.2088 14.1037V18.6619C25.2783 18.3976 26.0247 17.4618 26.0247 16.3828Z" fill="url(#paint5_linear)"/>
<path d="M16.154 6.91425L13.5805 4.37095C11.3747 6.72708 10.0823 9.78785 9.9598 13.0028H13.6028C13.7254 10.7347 14.6278 8.58776 16.154 6.91425Z" fill="url(#paint6_linear)"/>
<path d="M16.154 20.1812C14.6278 18.4967 13.7254 16.3498 13.6028 14.0927H9.9598C10.0935 17.3076 11.3747 20.3684 13.5805 22.7245L16.154 20.1812Z" fill="url(#paint7_linear)"/>
<path d="M33.7118 12.9917H37.3659C37.2323 9.77684 35.9511 6.71607 33.7452 4.35994L31.1717 6.90324C32.6868 8.58776 33.5892 10.7347 33.7118 12.9917Z" fill="url(#paint8_linear)"/>
<path d="M14.3604 23.5062C16.7445 25.6862 19.8416 26.9634 23.0947 27.0845V23.4842C20.8109 23.3631 18.6384 22.4713 16.9339 20.9629L14.3604 23.5062Z" fill="url(#paint9_linear)"/>
<path d="M23.0947 3.61126V0C19.8416 0.132119 16.7445 1.39826 14.3604 3.57823L16.9339 6.12153C18.6384 4.62418 20.8109 3.73237 23.0947 3.61126Z" fill="url(#paint10_linear)"/>
<path d="M35.1267 29.837C33.9346 29.2204 32.4529 29.3085 31.35 30.1342L31.3388 30.1452L29.7234 31.2793C30.5813 31.3013 31.3834 31.5435 32.0964 31.9509L35.1267 29.837Z" fill="url(#paint11_linear)"/>
<path d="M34.1463 34.1859L34.5808 33.8886L40.2402 29.9581C39.427 29.2534 38.2126 29.0773 37.3994 29.6058L33.0211 32.6335C33.489 33.0739 33.8789 33.5914 34.1463 34.1859Z" fill="url(#paint12_linear)"/>
<path d="M29.5897 34.6593C29.055 34.7364 28.6539 35.0997 28.5091 35.5732C28.6205 35.5621 28.7208 35.5511 28.8322 35.5511L33.0656 35.2429C32.2858 34.4722 30.8152 34.4832 29.5897 34.6593Z" fill="url(#paint13_linear)"/>
<path d="M42.1453 29.9691L35.2158 34.7804L34.4916 35.2649C34.5139 35.397 34.5362 35.5181 34.5585 35.6502C34.5808 35.8044 34.5362 35.9475 34.4359 36.0686C34.3357 36.1897 34.202 36.2558 34.046 36.2668L28.9101 36.6411C27.8406 36.7182 26.76 36.8723 25.7016 37.0815C25.4008 37.1476 25.1112 36.9494 25.0443 36.6521C24.9775 36.3549 25.178 36.0686 25.4788 36.0025C26.0915 35.8814 26.7154 35.7713 27.3504 35.6943C27.4619 34.6153 28.2974 33.7235 29.4338 33.5583C30.6481 33.3822 31.6842 33.4262 32.5086 33.6794C31.6842 32.7546 30.4253 32.2261 29.0995 32.3803L23.1058 33.0849C21.9583 33.217 20.7663 33.0959 19.6745 32.7216C16.3991 31.5986 13.1572 31.7637 10.9959 33.14C10.1938 33.6574 9.67014 34.3841 9.12424 35.1548C8.93485 35.43 8.72318 35.7053 8.5115 35.9805C7.7985 36.8833 7.02979 37.7091 6.09397 38.678C5.35868 39.4266 4.58997 40.1973 3.7767 40.968C3.84355 41.5295 4.09978 42.9278 4.89077 44.3701C5.0356 44.3151 5.18043 44.282 5.3364 44.26C6.38363 44.1389 7.34173 44.8766 7.46428 45.9225C7.50884 46.3079 7.442 46.6822 7.26374 47.0235C8.04359 47.563 8.92371 47.9593 9.91523 48.2016L13.8033 44.0288C13.8256 44.0068 13.859 43.9737 13.8813 43.9517C14.6946 43.3682 15.6861 43.115 16.6776 43.2361L25.8576 43.8196C28.0635 43.9517 30.3027 43.3682 32.1521 42.1901L46 30.1893C44.9528 29.2645 43.3485 29.1433 42.1453 29.9691Z" fill="url(#paint14_linear)"/>
<path d="M5.78203 48.0474C5.70404 48.0584 5.62606 48.0584 5.55922 48.0584C4.60111 48.0584 3.7767 47.3538 3.65415 46.3849C3.59845 45.9115 3.721 45.4491 3.99952 45.0637C3.31993 43.8747 2.97457 42.7186 2.80746 41.9039C1.92734 42.7296 0.991523 43.5774 0 44.4472L6.38363 52L9.06854 49.1264C8.11044 48.8181 7.24146 48.3887 6.47275 47.8272C6.24994 47.9483 6.01599 48.0144 5.78203 48.0474Z" fill="url(#paint15_linear)"/>
<path d="M5.64834 46.9574C5.86002 46.9354 6.04941 46.8253 6.1831 46.6602C6.31678 46.495 6.37249 46.2858 6.35021 46.0766C6.30564 45.6693 5.94914 45.372 5.54808 45.372C5.51465 45.372 5.48123 45.372 5.44781 45.383C5.23614 45.405 5.04674 45.5151 4.91305 45.6803C4.77937 45.8454 4.72366 46.0546 4.74594 46.2638C4.81279 46.6932 5.20271 47.0015 5.64834 46.9574Z" fill="url(#paint16_linear)"/>
<defs>
<linearGradient id="paint0_linear" x1="-1.71363e-07" y1="26" x2="46" y2="26" gradientUnits="userSpaceOnUse">
<stop stop-color="#06A0DC"/>
<stop offset="1" stop-color="#065CDC"/>
</linearGradient>
<linearGradient id="paint1_linear" x1="-1.71363e-07" y1="26" x2="46" y2="26" gradientUnits="userSpaceOnUse">
<stop stop-color="#06A0DC"/>
<stop offset="1" stop-color="#065CDC"/>
</linearGradient>
<linearGradient id="paint2_linear" x1="-1.71363e-07" y1="26" x2="46" y2="26" gradientUnits="userSpaceOnUse">
<stop stop-color="#06A0DC"/>
<stop offset="1" stop-color="#065CDC"/>
</linearGradient>
<linearGradient id="paint3_linear" x1="-1.71363e-07" y1="26" x2="46" y2="26" gradientUnits="userSpaceOnUse">
<stop stop-color="#06A0DC"/>
<stop offset="1" stop-color="#065CDC"/>
</linearGradient>
<linearGradient id="paint4_linear" x1="-1.71363e-07" y1="26" x2="46" y2="26" gradientUnits="userSpaceOnUse">
<stop stop-color="#06A0DC"/>
<stop offset="1" stop-color="#065CDC"/>
</linearGradient>
<linearGradient id="paint5_linear" x1="-1.71363e-07" y1="26" x2="46" y2="26" gradientUnits="userSpaceOnUse">
<stop stop-color="#06A0DC"/>
<stop offset="1" stop-color="#065CDC"/>
</linearGradient>
<linearGradient id="paint6_linear" x1="-1.71363e-07" y1="26" x2="46" y2="26" gradientUnits="userSpaceOnUse">
<stop stop-color="#06A0DC"/>
<stop offset="1" stop-color="#065CDC"/>
</linearGradient>
<linearGradient id="paint7_linear" x1="-1.71363e-07" y1="26" x2="46" y2="26" gradientUnits="userSpaceOnUse">
<stop stop-color="#06A0DC"/>
<stop offset="1" stop-color="#065CDC"/>
</linearGradient>
<linearGradient id="paint8_linear" x1="-1.71363e-07" y1="26" x2="46" y2="26" gradientUnits="userSpaceOnUse">
<stop stop-color="#06A0DC"/>
<stop offset="1" stop-color="#065CDC"/>
</linearGradient>
<linearGradient id="paint9_linear" x1="-1.71363e-07" y1="26" x2="46" y2="26" gradientUnits="userSpaceOnUse">
<stop stop-color="#06A0DC"/>
<stop offset="1" stop-color="#065CDC"/>
</linearGradient>
<linearGradient id="paint10_linear" x1="-1.71363e-07" y1="26" x2="46" y2="26" gradientUnits="userSpaceOnUse">
<stop stop-color="#06A0DC"/>
<stop offset="1" stop-color="#065CDC"/>
</linearGradient>
<linearGradient id="paint11_linear" x1="-1.71363e-07" y1="26" x2="46" y2="26" gradientUnits="userSpaceOnUse">
<stop stop-color="#06A0DC"/>
<stop offset="1" stop-color="#065CDC"/>
</linearGradient>
<linearGradient id="paint12_linear" x1="-1.71363e-07" y1="26" x2="46" y2="26" gradientUnits="userSpaceOnUse">
<stop stop-color="#06A0DC"/>
<stop offset="1" stop-color="#065CDC"/>
</linearGradient>
<linearGradient id="paint13_linear" x1="-1.71363e-07" y1="26" x2="46" y2="26" gradientUnits="userSpaceOnUse">
<stop stop-color="#06A0DC"/>
<stop offset="1" stop-color="#065CDC"/>
</linearGradient>
<linearGradient id="paint14_linear" x1="-1.71363e-07" y1="26" x2="46" y2="26" gradientUnits="userSpaceOnUse">
<stop stop-color="#06A0DC"/>
<stop offset="1" stop-color="#065CDC"/>
</linearGradient>
<linearGradient id="paint15_linear" x1="-1.71363e-07" y1="26" x2="46" y2="26" gradientUnits="userSpaceOnUse">
<stop stop-color="#06A0DC"/>
<stop offset="1" stop-color="#065CDC"/>
</linearGradient>
<linearGradient id="paint16_linear" x1="-1.71363e-07" y1="26" x2="46" y2="26" gradientUnits="userSpaceOnUse">
<stop stop-color="#06A0DC"/>
<stop offset="1" stop-color="#065CDC"/>
</linearGradient>
</defs>
</svg>
