<svg width="59" height="40" viewBox="0 0 59 40" fill="none" xmlns="http://www.w3.org/2000/svg">
<path d="M26.845 6.34247L26.2796 9.45476L29.205 7.99293C29.3894 7.89862 29.5983 7.89862 29.7827 7.99293L32.6958 9.46655L32.1427 6.34247C32.1058 6.15385 32.1796 5.95343 32.3148 5.82375L34.6871 3.61922L31.4298 3.15945C31.2331 3.13587 31.061 3.00619 30.9627 2.84114L29.5123 0L28.0496 2.82935C27.9635 3.00619 27.7915 3.12408 27.5825 3.14766L24.3129 3.59564L26.6729 5.81197C26.8204 5.95343 26.8819 6.15385 26.845 6.34247Z" fill="url(#paint0_linear)"/>
<path d="M46.0077 8.93605L45.5283 11.5768L47.999 10.3389C48.1833 10.2446 48.3923 10.2446 48.5767 10.3389L51.0473 11.5886L50.5802 8.94783C50.5433 8.75921 50.6171 8.5588 50.7523 8.42912L52.7558 6.56646L49.9902 6.17742C49.7935 6.15385 49.6215 6.02417 49.5231 5.85912L48.294 3.45417L47.0525 5.85912C46.9665 6.03596 46.7944 6.15385 46.5854 6.17742L43.8198 6.55467L45.811 8.42912C45.9708 8.54701 46.0446 8.74742 46.0077 8.93605Z" fill="url(#paint1_linear)"/>
<path d="M8.4075 8.93605L7.92812 11.5768L10.3988 10.3389C10.5831 10.2446 10.7921 10.2446 10.9765 10.3389L13.4471 11.5886L12.98 8.94783C12.9431 8.75921 13.0169 8.5588 13.1521 8.42912L15.1556 6.56646L12.39 6.17742C12.1933 6.15385 12.0212 6.02417 11.9229 5.85912L10.6938 3.45417L9.46458 5.83554C9.37854 6.01238 9.20646 6.13027 8.9975 6.15385L6.23187 6.53109L8.23542 8.40554C8.38292 8.54701 8.44438 8.74742 8.4075 8.93605Z" fill="url(#paint2_linear)"/>
<path d="M24.9398 17.4241V20.7368C24.9398 23.1536 26.9802 25.1105 29.5 25.1105C32.0198 25.1105 34.0602 23.1536 34.0602 20.7368V17.4241C34.0602 15.0074 32.0198 13.0504 29.5 13.0504C26.9802 13.0504 24.9398 15.0074 24.9398 17.4241Z" fill="url(#paint3_linear)"/>
<path d="M36.3956 26.2894H34.1831C34.1708 26.2894 34.1585 26.2894 34.1462 26.2894C33.63 26.2776 33.126 26.0772 32.745 25.7353L32.3763 26.7256C31.8108 28.2464 30.0654 29.0363 28.4798 28.494C27.6071 28.1992 26.931 27.5273 26.6238 26.6902L26.2796 25.7235C25.8863 26.0772 25.3577 26.2776 24.8046 26.2776H22.5921C19.5929 26.2776 17.1715 28.6118 17.1715 31.4766V39.9882H41.8163V31.4766C41.8163 28.6236 39.3948 26.3012 36.3956 26.2894Z" fill="url(#paint4_linear)"/>
<path d="M47.8515 26.7138C50.1131 26.7138 51.9446 24.9573 51.9446 22.7881V19.7819C51.9446 17.6127 50.1131 15.8562 47.8515 15.8562C45.5898 15.8562 43.7583 17.6127 43.7583 19.7819V22.7881C43.7583 24.9573 45.5898 26.702 47.8515 26.7138Z" fill="url(#paint5_linear)"/>
<path d="M54.1202 27.6452H52.1167C52.1044 27.6452 52.0921 27.6452 52.0798 27.6452C51.625 27.6334 51.1825 27.4683 50.8383 27.1854L50.531 28.0106C50.0025 29.4253 48.38 30.1562 46.9173 29.6493C46.106 29.3663 45.4792 28.7533 45.1965 27.9752L44.9137 27.1736C44.545 27.4683 44.0779 27.6334 43.5985 27.6334H41.7179C42.5906 28.7415 43.07 30.0973 43.07 31.4766V39.9882H59V32.3018C59 29.7436 56.8121 27.6569 54.1202 27.6452Z" fill="url(#paint6_linear)"/>
<path d="M15.4137 27.6452C15.4015 27.6452 15.3892 27.6452 15.3769 27.6452C14.9221 27.6334 14.4796 27.4683 14.1354 27.1854L13.8281 28.0106C13.2996 29.4253 11.6771 30.1562 10.2144 29.6493C9.40312 29.3663 8.77625 28.7533 8.49354 27.9752L8.21083 27.1736C7.84208 27.4683 7.375 27.6334 6.89563 27.6334H4.87979C2.18792 27.6334 0.0122917 29.7318 0 32.3136V40H15.9423V31.4884C15.9423 30.0973 16.4094 28.7415 17.2944 27.6452H15.4137Z" fill="url(#paint7_linear)"/>
<path d="M11.1485 15.8562C8.88688 15.8562 7.05542 17.6127 7.05542 19.7819V22.7881C7.05542 24.9573 8.88688 26.7138 11.1485 26.7138C13.4102 26.7138 15.2417 24.9573 15.2417 22.7881V19.7819C15.2417 17.6127 13.4102 15.8562 11.1485 15.8562Z" fill="url(#paint8_linear)"/>
<defs>
<linearGradient id="paint0_linear" x1="-2.19792e-07" y1="20" x2="59" y2="20" gradientUnits="userSpaceOnUse">
<stop stop-color="#06A0DC"/>
<stop offset="1" stop-color="#065CDC"/>
</linearGradient>
<linearGradient id="paint1_linear" x1="-2.19792e-07" y1="20" x2="59" y2="20" gradientUnits="userSpaceOnUse">
<stop stop-color="#06A0DC"/>
<stop offset="1" stop-color="#065CDC"/>
</linearGradient>
<linearGradient id="paint2_linear" x1="-2.19792e-07" y1="20" x2="59" y2="20" gradientUnits="userSpaceOnUse">
<stop stop-color="#06A0DC"/>
<stop offset="1" stop-color="#065CDC"/>
</linearGradient>
<linearGradient id="paint3_linear" x1="-2.19792e-07" y1="20" x2="59" y2="20" gradientUnits="userSpaceOnUse">
<stop stop-color="#06A0DC"/>
<stop offset="1" stop-color="#065CDC"/>
</linearGradient>
<linearGradient id="paint4_linear" x1="-2.19792e-07" y1="20" x2="59" y2="20" gradientUnits="userSpaceOnUse">
<stop stop-color="#06A0DC"/>
<stop offset="1" stop-color="#065CDC"/>
</linearGradient>
<linearGradient id="paint5_linear" x1="-2.19792e-07" y1="20" x2="59" y2="20" gradientUnits="userSpaceOnUse">
<stop stop-color="#06A0DC"/>
<stop offset="1" stop-color="#065CDC"/>
</linearGradient>
<linearGradient id="paint6_linear" x1="-2.19792e-07" y1="20" x2="59" y2="20" gradientUnits="userSpaceOnUse">
<stop stop-color="#06A0DC"/>
<stop offset="1" stop-color="#065CDC"/>
</linearGradient>
<linearGradient id="paint7_linear" x1="-2.19792e-07" y1="20" x2="59" y2="20" gradientUnits="userSpaceOnUse">
<stop stop-color="#06A0DC"/>
<stop offset="1" stop-color="#065CDC"/>
</linearGradient>
<linearGradient id="paint8_linear" x1="-2.19792e-07" y1="20" x2="59" y2="20" gradientUnits="userSpaceOnUse">
<stop stop-color="#06A0DC"/>
<stop offset="1" stop-color="#065CDC"/>
</linearGradient>
</defs>
</svg>
