<svg width="46" height="60" viewBox="0 0 46 60" fill="none" xmlns="http://www.w3.org/2000/svg">
<path d="M42.1914 18.3453H34.7492C33.5077 17.2579 31.9081 16.6582 30.2517 16.659H28.0515C27.8312 16.6586 27.6202 16.5715 27.4647 16.417C27.3091 16.2624 27.2218 16.0529 27.2218 15.8346C27.2218 15.663 27.1606 15.4969 27.0489 15.3658C26.9372 15.2348 26.7823 15.1472 26.6117 15.1185C26.4411 15.0899 26.2658 15.1222 26.1169 15.2096C25.9679 15.2969 25.855 15.4338 25.7982 15.5959L24.7274 16.659H21.8798L20.691 15.3327C20.6246 15.2587 20.5437 15.1989 20.4532 15.1571C20.3627 15.1152 20.2646 15.0922 20.1648 15.0894C20.065 15.0865 19.9656 15.104 19.8729 15.1406C19.7801 15.1773 19.6959 15.2323 19.6254 15.3024L19.6058 15.3219C19.4689 15.458 19.3921 15.6424 19.3921 15.8346C19.3921 16.0529 19.3048 16.2624 19.1492 16.417C18.9936 16.5715 18.7826 16.6586 18.5624 16.659H16.3307C14.6743 16.6581 13.0747 17.2579 11.8332 18.3453H3.8086C2.7979 18.3474 1.82929 18.747 1.11529 19.4563C0.401287 20.1657 0.000191694 21.127 0 22.1292V46.9803C0.000191694 47.9826 0.401287 48.9438 1.11529 49.6532C1.82929 50.3626 2.7979 50.7621 3.8086 50.7642H16.3826V58.0775H13.5444C13.3502 58.0775 13.164 58.154 13.0267 58.2901C12.8894 58.4263 12.8123 58.6109 12.8123 58.8034C12.8123 58.996 12.8894 59.1806 13.0267 59.3168C13.164 59.4529 13.3502 59.5294 13.5444 59.5294H32.3991C32.5933 59.5294 32.7795 59.4529 32.9168 59.3168C33.0541 59.1806 33.1312 58.996 33.1312 58.8034C33.1312 58.6109 33.0541 58.4263 32.9168 58.2901C32.7795 58.154 32.5933 58.0775 32.3991 58.0775H29.6172V50.7642H42.1914C43.2021 50.7621 44.1707 50.3626 44.8847 49.6532C45.5987 48.9438 45.9998 47.9826 46 46.9803V22.1292C45.9998 21.127 45.5987 20.1657 44.8847 19.4563C44.1707 18.747 43.2021 18.3474 42.1914 18.3453ZM24.0069 18.111L23.6136 19.2504H22.9688L22.5755 18.111H24.0069ZM23.2516 20.7023H23.4914L24.7191 27.7129L23.2712 29.3918L21.8681 27.7252L23.2516 20.7023ZM10.9726 23.4315C10.9733 22.0218 11.5378 20.67 12.5423 19.6725C13.5468 18.6751 14.9093 18.1135 16.3309 18.111H18.5625C18.9198 18.111 19.2722 18.0281 19.5914 17.869C19.9106 17.7098 20.1879 17.4789 20.4011 17.1946L20.9063 17.7582L21.8413 20.2891L20.3649 27.7861C20.344 27.8921 20.3472 28.0015 20.3743 28.1061C20.4013 28.2108 20.4516 28.3081 20.5215 28.3911L22.7028 30.9824C22.771 31.0635 22.8562 31.1288 22.9525 31.1738C23.0489 31.2188 23.1539 31.2425 23.2604 31.2431H23.2648C23.3705 31.2431 23.475 31.2204 23.5711 31.1766C23.6671 31.1327 23.7524 31.0687 23.8212 30.989L26.0556 28.3975C26.1257 28.3163 26.1768 28.2208 26.2053 28.1177C26.2338 28.0147 26.239 27.9067 26.2206 27.8014L24.8688 20.0829L25.6691 17.7796L26.2324 17.2202C26.4388 17.4876 26.7026 17.7061 27.0046 17.8601C27.3065 18.014 27.6392 18.0995 27.9786 18.1104C27.9923 18.1104 28.0061 18.1115 28.02 18.1115H30.2517C31.6732 18.114 33.0357 18.6756 34.0402 19.673C35.0447 20.6705 35.6092 22.0223 35.6099 23.432V32.2078H10.9726V23.4315ZM28.1532 58.0775H17.8468V50.7642H28.1532V58.0775ZM44.5358 46.9803C44.5361 47.5976 44.2894 48.1898 43.8499 48.627C43.4104 49.0642 42.8139 49.3106 42.1914 49.3123H3.8086C3.18609 49.3106 2.58964 49.0642 2.15013 48.627C1.71062 48.1898 1.46393 47.5976 1.46419 46.9803V44.9143H44.5358V46.9803ZM44.5358 43.4624H1.46419V22.1292C1.46393 21.5119 1.71062 20.9197 2.15013 20.4825C2.58964 20.0454 3.18609 19.7989 3.8086 19.7973H10.5788C9.87904 20.8823 9.50772 22.1435 9.50882 23.4315V32.9333C9.50882 33.1259 9.58595 33.3105 9.72325 33.4467C9.86054 33.5828 10.0468 33.6593 10.2409 33.6593H36.342C36.5361 33.6593 36.7223 33.5828 36.8596 33.4467C36.9969 33.3105 37.074 33.1259 37.074 32.9333V23.4315C37.0751 22.1435 36.7037 20.8823 36.004 19.7973H42.1914C42.8139 19.7989 43.4104 20.0454 43.8499 20.4825C44.2894 20.9197 44.5361 21.5119 44.5358 22.1292V43.4624Z" fill="url(#paint0_linear)"/>
<path d="M10.755 40.3517H12.84V40.5695C12.84 40.7621 12.9171 40.9467 13.0544 41.0829C13.1917 41.219 13.3779 41.2955 13.5721 41.2955C13.7662 41.2955 13.9524 41.219 14.0897 41.0829C14.227 40.9467 14.3042 40.7621 14.3042 40.5695V40.3517H35.8095C36.0036 40.3517 36.1898 40.2753 36.3271 40.1391C36.4644 40.003 36.5416 39.8183 36.5416 39.6258C36.5416 39.4332 36.4644 39.2486 36.3271 39.1124C36.1898 38.9763 36.0036 38.8998 35.8095 38.8998H14.3042V38.5695C14.3042 38.377 14.227 38.1923 14.0897 38.0562C13.9524 37.92 13.7662 37.8435 13.5721 37.8435C13.3779 37.8435 13.1917 37.92 13.0544 38.0562C12.9171 38.1923 12.84 38.377 12.84 38.5695V38.8998H10.755C10.5608 38.8998 10.3746 38.9763 10.2373 39.1124C10.1 39.2486 10.0229 39.4332 10.0229 39.6258C10.0229 39.8183 10.1 40.003 10.2373 40.1391C10.3746 40.2753 10.5608 40.3517 10.755 40.3517Z" fill="url(#paint1_linear)"/>
<path d="M23.2913 15.2727C24.8694 15.2709 26.3823 14.6485 27.4982 13.5419C28.6141 12.4354 29.2418 10.9351 29.2436 9.3702V5.90249C29.2436 4.33705 28.6164 2.83573 27.5002 1.7288C26.3839 0.621867 24.8699 0 23.2913 0C21.7126 0 20.1986 0.621867 19.0823 1.7288C17.9661 2.83573 17.339 4.33705 17.339 5.90249V9.3702C17.3407 10.9351 17.9684 12.4354 19.0843 13.5419C20.2002 14.6485 21.7131 15.2709 23.2913 15.2727ZM18.8027 5.90249C18.8027 4.72213 19.2755 3.59011 20.1172 2.75547C20.9589 1.92083 22.1004 1.45194 23.2908 1.45194C24.4811 1.45194 25.6227 1.92083 26.4643 2.75547C27.306 3.59011 27.7789 4.72213 27.7789 5.90249V9.3702C27.7789 10.5506 27.306 11.6826 26.4643 12.5172C25.6227 13.3518 24.4811 13.8207 23.2908 13.8207C22.1004 13.8207 20.9589 13.3518 20.1172 12.5172C19.2755 11.6826 18.8027 10.5506 18.8027 9.3702V5.90249Z" fill="url(#paint2_linear)"/>
<path d="M28.5115 24.6234H31.8619C32.0561 24.6234 32.2423 24.5469 32.3796 24.4108C32.5169 24.2746 32.594 24.09 32.594 23.8974C32.594 23.7049 32.5169 23.5202 32.3796 23.3841C32.2423 23.2479 32.0561 23.1715 31.8619 23.1715H28.5115C28.3173 23.1715 28.1311 23.2479 27.9938 23.3841C27.8565 23.5202 27.7794 23.7049 27.7794 23.8974C27.7794 24.09 27.8565 24.2746 27.9938 24.4108C28.1311 24.5469 28.3173 24.6234 28.5115 24.6234Z" fill="url(#paint3_linear)"/>
<defs>
<linearGradient id="paint0_linear" x1="-1.71363e-07" y1="29.7647" x2="46" y2="29.7647" gradientUnits="userSpaceOnUse">
<stop stop-color="#06A0DC"/>
<stop offset="1" stop-color="#065CDC"/>
</linearGradient>
<linearGradient id="paint1_linear" x1="-1.71363e-07" y1="29.7647" x2="46" y2="29.7647" gradientUnits="userSpaceOnUse">
<stop stop-color="#06A0DC"/>
<stop offset="1" stop-color="#065CDC"/>
</linearGradient>
<linearGradient id="paint2_linear" x1="-1.71363e-07" y1="29.7647" x2="46" y2="29.7647" gradientUnits="userSpaceOnUse">
<stop stop-color="#06A0DC"/>
<stop offset="1" stop-color="#065CDC"/>
</linearGradient>
<linearGradient id="paint3_linear" x1="-1.71363e-07" y1="29.7647" x2="46" y2="29.7647" gradientUnits="userSpaceOnUse">
<stop stop-color="#06A0DC"/>
<stop offset="1" stop-color="#065CDC"/>
</linearGradient>
</defs>
</svg>
