<svg width="46" height="46" viewBox="0 0 46 46" fill="none" xmlns="http://www.w3.org/2000/svg">
<path d="M6.41691 20.8617H11.8299C12.0484 20.8615 12.2578 20.7754 12.4123 20.6222C12.5668 20.469 12.6538 20.2613 12.6541 20.0446V18.2294C12.6541 18.0807 12.5945 17.938 12.4884 17.8328C12.3823 17.7276 12.2385 17.6685 12.0885 17.6685C11.9385 17.6685 11.7946 17.7276 11.6886 17.8328C11.5825 17.938 11.5229 18.0807 11.5229 18.2294V19.7398H6.72392V14.9874H9.12337C9.27336 14.9874 9.41722 14.9283 9.52329 14.8231C9.62935 14.7179 9.68894 14.5752 9.68894 14.4264C9.68894 14.2776 9.62935 14.1349 9.52329 14.0297C9.41722 13.9245 9.27336 13.8654 9.12337 13.8654H6.41691C6.19844 13.8656 5.98898 13.9518 5.83447 14.105C5.67997 14.2582 5.59305 14.4659 5.59277 14.6826V20.0446C5.59307 20.2613 5.68 20.469 5.8345 20.6222C5.989 20.7754 6.19845 20.8615 6.41691 20.8617Z" fill="url(#paint0_linear)"/>
<path d="M13.1213 13.5506C13.0642 13.5035 12.9983 13.468 12.9274 13.4461C12.8565 13.4243 12.7819 13.4165 12.7079 13.4232C12.634 13.4299 12.5621 13.451 12.4963 13.4853C12.4306 13.5196 12.3723 13.5664 12.3248 13.623L9.62682 16.8386L8.76112 16.1438C8.70348 16.0965 8.63695 16.0609 8.56536 16.0393C8.49378 16.0176 8.41858 16.0103 8.34411 16.0176C8.26964 16.025 8.19738 16.047 8.13153 16.0823C8.06569 16.1175 8.00755 16.1654 7.9605 16.2231C7.91344 16.2809 7.87841 16.3473 7.85743 16.4185C7.83644 16.4898 7.82992 16.5645 7.83825 16.6382C7.84657 16.712 7.86957 16.7834 7.90592 16.8483C7.94227 16.9132 7.99124 16.9703 8.05 17.0162L9.09066 17.8514C9.26166 17.9909 9.47865 18.0627 9.69985 18.053C9.92105 18.0433 10.1308 17.9527 10.2887 17.7988L10.3114 17.7772L13.1944 14.3409C13.2419 14.2842 13.2777 14.2189 13.2998 14.1485C13.3218 14.0781 13.3297 14.0041 13.3229 13.9307C13.3161 13.8574 13.2948 13.786 13.2602 13.7208C13.2256 13.6556 13.1784 13.5978 13.1213 13.5506Z" fill="url(#paint1_linear)"/>
<path d="M40.5422 14.2564H18.4731C18.3231 14.2564 18.1792 14.3155 18.0731 14.4207C17.9671 14.5259 17.9075 14.6686 17.9075 14.8174C17.9075 14.9662 17.9671 15.1089 18.0731 15.2141C18.1792 15.3193 18.3231 15.3784 18.4731 15.3784H40.5422C40.6922 15.3784 40.8361 15.3193 40.9421 15.2141C41.0482 15.1089 41.1078 14.9662 41.1078 14.8174C41.1078 14.6686 41.0482 14.5259 40.9421 14.4207C40.8361 14.3155 40.6922 14.2564 40.5422 14.2564Z" fill="url(#paint2_linear)"/>
<path d="M40.5422 18.9042H18.4731C18.3231 18.9042 18.1792 18.9633 18.0731 19.0685C17.9671 19.1737 17.9075 19.3164 17.9075 19.4652C17.9075 19.614 17.9671 19.7566 18.0731 19.8619C18.1792 19.9671 18.3231 20.0262 18.4731 20.0262H40.5422C40.6922 20.0262 40.8361 19.9671 40.9421 19.8619C41.0482 19.7566 41.1078 19.614 41.1078 19.4652C41.1078 19.3164 41.0482 19.1737 40.9421 19.0685C40.8361 18.9633 40.6922 18.9042 40.5422 18.9042Z" fill="url(#paint3_linear)"/>
<path d="M12.0885 29.5582C11.9385 29.5582 11.7946 29.6173 11.6886 29.7225C11.5825 29.8277 11.5229 29.9704 11.5229 30.1191V31.6296H6.72392V26.8771H9.12337C9.27336 26.8771 9.41722 26.818 9.52329 26.7128C9.62935 26.6076 9.68894 26.4649 9.68894 26.3161C9.68894 26.1673 9.62935 26.0246 9.52329 25.9194C9.41722 25.8142 9.27336 25.7551 9.12337 25.7551H6.41691C6.19845 25.7553 5.989 25.8415 5.8345 25.9947C5.68 26.1479 5.59307 26.3556 5.59277 26.5723V31.9343C5.59305 32.151 5.67997 32.3587 5.83447 32.5119C5.98897 32.6651 6.19843 32.7513 6.41691 32.7515H11.8299C12.0484 32.7513 12.2579 32.6651 12.4124 32.5119C12.5669 32.3587 12.6538 32.151 12.6541 31.9343V30.1191C12.6541 29.9704 12.5945 29.8277 12.4884 29.7225C12.3823 29.6173 12.2385 29.5582 12.0885 29.5582Z" fill="url(#paint4_linear)"/>
<path d="M13.1213 25.4402C13.0642 25.3931 12.9983 25.3576 12.9274 25.3357C12.8565 25.3139 12.7819 25.3061 12.7079 25.3128C12.634 25.3196 12.5621 25.3407 12.4963 25.375C12.4306 25.4092 12.3723 25.456 12.3248 25.5127L9.6271 28.7282L8.7614 28.0335C8.70377 27.9863 8.63727 27.9508 8.56573 27.9292C8.4942 27.9076 8.41905 27.9003 8.34465 27.9077C8.27025 27.9151 8.19806 27.937 8.13227 27.9722C8.06647 28.0075 8.00837 28.0553 7.96134 28.113C7.9143 28.1706 7.87926 28.237 7.85824 28.3081C7.83721 28.3793 7.83063 28.4539 7.83887 28.5276C7.84711 28.6014 7.87 28.6727 7.90622 28.7376C7.94245 28.8025 7.99128 28.8596 8.04991 28.9056L9.09056 29.7407C9.26156 29.8803 9.47855 29.9521 9.69974 29.9424C9.92093 29.9327 10.1307 29.8422 10.2886 29.6883L10.3114 29.6666L13.1943 26.2303C13.2418 26.1736 13.2776 26.1083 13.2996 26.0379C13.3217 25.9676 13.3295 25.8936 13.3228 25.8203C13.316 25.7469 13.2947 25.6756 13.2601 25.6104C13.2256 25.5452 13.1784 25.4873 13.1213 25.4402Z" fill="url(#paint5_linear)"/>
<path d="M40.5422 26.1461H35.9471C35.7971 26.1461 35.6533 26.2052 35.5472 26.3104C35.4411 26.4156 35.3815 26.5583 35.3815 26.7071C35.3815 26.8559 35.4411 26.9986 35.5472 27.1038C35.6533 27.209 35.7971 27.2681 35.9471 27.2681H40.5422C40.6922 27.2681 40.8361 27.209 40.9421 27.1038C41.0482 26.9986 41.1078 26.8559 41.1078 26.7071C41.1078 26.5583 41.0482 26.4156 40.9421 26.3104C40.8361 26.2052 40.6922 26.1461 40.5422 26.1461Z" fill="url(#paint6_linear)"/>
<path d="M25.6407 26.1461H18.4731C18.3231 26.1461 18.1792 26.2052 18.0731 26.3104C17.9671 26.4156 17.9075 26.5583 17.9075 26.7071C17.9075 26.8559 17.9671 26.9986 18.0731 27.1038C18.1792 27.209 18.3231 27.2681 18.4731 27.2681H25.6407C25.7907 27.2681 25.9345 27.209 26.0406 27.1038C26.1467 26.9986 26.2062 26.8559 26.2062 26.7071C26.2062 26.5583 26.1467 26.4156 26.0406 26.3104C25.9345 26.2052 25.7907 26.1461 25.6407 26.1461Z" fill="url(#paint7_linear)"/>
<path d="M20.4048 30.794H18.4731C18.3231 30.794 18.1792 30.8531 18.0731 30.9583C17.9671 31.0635 17.9075 31.2062 17.9075 31.355C17.9075 31.5037 17.9671 31.6464 18.0731 31.7516C18.1792 31.8568 18.3231 31.9159 18.4731 31.9159H20.4048C20.5548 31.9159 20.6986 31.8568 20.8047 31.7516C20.9108 31.6464 20.9703 31.5037 20.9703 31.355C20.9703 31.2062 20.9108 31.0635 20.8047 30.9583C20.6986 30.8531 20.5548 30.794 20.4048 30.794Z" fill="url(#paint8_linear)"/>
<path d="M43.395 0H2.60503C1.91442 0.000717564 1.2523 0.273123 0.763929 0.757453C0.275558 1.24178 0.000823411 1.89848 0 2.58348V36.1111C0.000621982 36.7955 0.274752 37.4517 0.762313 37.9359C1.24987 38.4202 1.9111 38.6929 2.60107 38.6945L24.1718 38.8458L25.2645 43.1048C25.2663 43.1123 25.2685 43.1199 25.2708 43.1275C25.5179 43.9596 26.0308 44.6897 26.7323 45.2077C27.4338 45.7258 28.286 46.0038 29.1606 46H37.0465C38.1234 45.9985 39.1558 45.5735 39.9172 44.818C40.6785 44.0626 41.1067 43.0385 41.1078 41.9703V38.8195L43.4115 38.6948C44.0992 38.6898 44.7571 38.4155 45.2419 37.9316C45.7267 37.4478 45.9992 36.7935 46 36.1114V2.58348C45.9992 1.89848 45.7244 1.24178 45.2361 0.757453C44.7477 0.273123 44.0856 0.000717564 43.395 0ZM2.60503 1.12195H43.395C43.7857 1.12232 44.1603 1.27641 44.4366 1.55041C44.7129 1.82441 44.8684 2.19594 44.8689 2.58348V8.26326H1.13115V2.58348C1.13162 2.19594 1.28707 1.82441 1.56339 1.55041C1.8397 1.27641 2.21431 1.12232 2.60503 1.12195ZM39.9766 41.9703C39.9759 42.741 39.667 43.4799 39.1177 44.025C38.5684 44.5701 37.8235 44.8769 37.0465 44.878H29.1606C28.5316 44.8808 27.9185 44.6814 27.4133 44.3098C26.908 43.9381 26.5376 43.4142 26.3576 42.8163L25.1605 38.1499C24.8783 37.051 24.5018 35.9781 24.0352 34.943L23.9426 34.7251C24.5453 34.7251 25.139 34.8702 25.6726 35.1481C26.2062 35.4259 26.6639 35.8281 27.0061 36.3201L27.9787 37.7178V39.8012C27.9787 39.95 28.0383 40.0927 28.1444 40.1979C28.2505 40.3031 28.3943 40.3622 28.5443 40.3622C28.6943 40.3622 28.8382 40.3031 28.9442 40.1979C29.0503 40.0927 29.1099 39.95 29.1099 39.8012V24.5547C29.1099 24.2749 29.222 24.0065 29.4215 23.8086C29.621 23.6107 29.8916 23.4995 30.1737 23.4995C30.4559 23.4995 30.7265 23.6107 30.926 23.8086C31.1255 24.0065 31.2376 24.2749 31.2376 24.5547V34.5127C31.2376 34.5675 31.2457 34.622 31.2617 34.6744V36.9613C31.2617 37.11 31.3213 37.2527 31.4274 37.3579C31.5334 37.4631 31.6773 37.5222 31.8273 37.5222C31.9773 37.5222 32.1211 37.4631 32.2272 37.3579C32.3333 37.2527 32.3929 37.11 32.3929 36.9613V33.8281C32.3929 33.6062 32.4817 33.3933 32.64 33.2364C32.7982 33.0795 33.0128 32.9913 33.2365 32.9913C33.4603 32.9913 33.6748 33.0795 33.8331 33.2364C33.9913 33.3933 34.0802 33.6062 34.0802 33.8281V34.4639C34.0655 34.5618 34.0582 34.6606 34.0581 34.7596V36.9616C34.0581 37.1104 34.1177 37.2531 34.2238 37.3583C34.3298 37.4635 34.4737 37.5226 34.6237 37.5226H34.6347C34.6347 37.5226 34.642 37.5226 34.6457 37.5226C34.7957 37.5226 34.9396 37.4635 35.0457 37.3583C35.1517 37.2531 35.2113 37.1104 35.2113 36.9616V34.5642C35.2594 34.3474 35.3866 34.1558 35.5685 34.0263C35.7503 33.8969 35.974 33.8387 36.1965 33.8628C36.4191 33.887 36.6247 33.9919 36.774 34.1574C36.9232 34.3229 37.0056 34.5372 37.0052 34.7592V37.5431C37.0052 37.6919 37.0648 37.8345 37.1709 37.9397C37.2769 38.0449 37.4208 38.104 37.5708 38.104C37.7208 38.104 37.8646 38.0449 37.9707 37.9397C38.0768 37.8345 38.1364 37.6919 38.1364 37.5431V35.6385C38.1351 35.5179 38.158 35.3982 38.2037 35.2864C38.2494 35.1746 38.317 35.0729 38.4025 34.9872C38.4881 34.9015 38.5899 34.8334 38.7021 34.787C38.8144 34.7405 38.9348 34.7166 39.0564 34.7166C39.178 34.7166 39.2984 34.7405 39.4107 34.787C39.5229 34.8334 39.6247 34.9015 39.7103 34.9872C39.7958 35.0729 39.8634 35.1746 39.9091 35.2864C39.9548 35.3982 39.9777 35.5179 39.9764 35.6385L39.9766 41.9703ZM43.3952 37.5733C43.3849 37.5733 43.3746 37.5733 43.3643 37.5742L41.1078 37.6958V35.6388C41.1083 35.2739 41.0097 34.9156 40.8224 34.6015C40.6352 34.2875 40.3661 34.0291 40.0435 33.8537C39.7209 33.6783 39.3567 33.5923 38.989 33.6047C38.6213 33.6171 38.2637 33.7274 37.9539 33.924C37.835 33.6634 37.6617 33.4307 37.4454 33.2415C37.2291 33.0522 36.9747 32.9107 36.6991 32.8263C36.4236 32.7418 36.133 32.7164 35.8468 32.7517C35.5606 32.7869 35.2852 32.8821 35.0388 33.0309C34.9316 32.7901 34.7763 32.5734 34.5824 32.3938C34.3885 32.2142 34.1599 32.0753 33.9104 31.9856C33.661 31.8959 33.3958 31.8573 33.1309 31.8719C32.866 31.8866 32.6068 31.9543 32.3689 32.0709V24.5547C32.3689 23.9773 32.1377 23.4235 31.726 23.0152C31.3144 22.607 30.7561 22.3776 30.1739 22.3776C29.5918 22.3776 29.0335 22.607 28.6218 23.0152C28.2102 23.4235 27.9789 23.9773 27.9789 24.5547V35.7427L27.9373 35.6829C27.491 35.0413 26.8943 34.5168 26.1985 34.1545C25.5026 33.7923 24.7285 33.603 23.9426 33.6032C23.7533 33.6032 23.5669 33.6502 23.4005 33.7399C23.2342 33.8297 23.0931 33.9593 22.9901 34.1169C22.8871 34.2745 22.8256 34.4552 22.811 34.6425C22.7964 34.8298 22.8293 35.0177 22.9067 35.1891L23.002 35.4006C23.3416 36.1547 23.6307 36.9302 23.8673 37.722L2.60466 37.5724C2.21408 37.572 1.83964 37.4179 1.56342 37.144C1.2872 36.8701 1.13175 36.4988 1.13115 36.1114V9.38521H44.8689V36.1114C44.8684 36.4989 44.7129 36.8704 44.4366 37.1444C44.1603 37.4184 43.7857 37.5724 43.395 37.5728L43.3952 37.5733Z" fill="url(#paint9_linear)"/>
<path d="M4.73197 6.772C5.16076 6.772 5.57993 6.64588 5.93646 6.40959C6.29299 6.1733 6.57087 5.83745 6.73497 5.44452C6.89906 5.05158 6.942 4.61921 6.85834 4.20207C6.77469 3.78493 6.5682 3.40177 6.265 3.10103C5.96179 2.80029 5.57549 2.59548 5.15493 2.51251C4.73437 2.42953 4.29845 2.47212 3.9023 2.63488C3.50614 2.79764 3.16754 3.07326 2.92931 3.42689C2.69109 3.78052 2.56393 4.19628 2.56393 4.62159C2.56453 5.19173 2.79314 5.73835 3.1996 6.1415C3.60605 6.54465 4.15715 6.7714 4.73197 6.772ZM4.73197 3.59389C4.93704 3.59389 5.13751 3.65421 5.30803 3.76721C5.47854 3.88022 5.61145 4.04084 5.68992 4.22877C5.7684 4.41669 5.78894 4.62348 5.74893 4.82298C5.70892 5.02248 5.61017 5.20574 5.46516 5.34957C5.32014 5.4934 5.13539 5.59135 4.93425 5.63103C4.73312 5.67072 4.52463 5.65035 4.33517 5.57251C4.1457 5.49467 3.98376 5.36285 3.86983 5.19372C3.75589 5.02459 3.69508 4.82575 3.69508 4.62234C3.69533 4.34965 3.80465 4.08821 3.99905 3.89539C4.19345 3.70257 4.45704 3.59414 4.73197 3.59389Z" fill="url(#paint10_linear)"/>
<path d="M10.4474 6.772C10.8762 6.772 11.2953 6.64588 11.6519 6.40959C12.0084 6.1733 12.2863 5.83745 12.4504 5.44452C12.6145 5.05158 12.6574 4.61921 12.5737 4.20207C12.4901 3.78493 12.2836 3.40177 11.9804 3.10103C11.6772 2.80029 11.2909 2.59548 10.8703 2.51251C10.4498 2.42953 10.0139 2.47212 9.6177 2.63488C9.22155 2.79764 8.88295 3.07326 8.64472 3.42689C8.40649 3.78052 8.27934 4.19628 8.27934 4.62159C8.27994 5.19173 8.50855 5.73835 8.915 6.1415C9.32146 6.54465 9.87256 6.7714 10.4474 6.772ZM10.4474 3.59389C10.6524 3.59389 10.8529 3.65421 11.0234 3.76721C11.194 3.88022 11.3269 4.04084 11.4053 4.22877C11.4838 4.41669 11.5043 4.62348 11.4643 4.82298C11.4243 5.02248 11.3256 5.20574 11.1806 5.34957C11.0356 5.4934 10.8508 5.59135 10.6497 5.63103C10.4485 5.67072 10.24 5.65035 10.0506 5.57251C9.86111 5.49467 9.69917 5.36285 9.58523 5.19372C9.4713 5.02459 9.41049 4.82575 9.41049 4.62234C9.41074 4.34965 9.52006 4.08821 9.71446 3.89539C9.90886 3.70257 10.1725 3.59414 10.4474 3.59389Z" fill="url(#paint11_linear)"/>
<path d="M16.1629 6.772C16.5917 6.772 17.0108 6.64588 17.3674 6.40959C17.7239 6.1733 18.0018 5.83745 18.1659 5.44452C18.33 5.05158 18.3729 4.61921 18.2892 4.20207C18.2056 3.78493 17.9991 3.40177 17.6959 3.10103C17.3927 2.80029 17.0064 2.59548 16.5858 2.51251C16.1653 2.42953 15.7294 2.47212 15.3332 2.63488C14.937 2.79764 14.5984 3.07326 14.3602 3.42689C14.122 3.78052 13.9948 4.19628 13.9948 4.62159C13.9954 5.19173 14.224 5.73835 14.6305 6.1415C15.037 6.54465 15.5881 6.7714 16.1629 6.772ZM16.1629 3.59389C16.3679 3.59389 16.5684 3.65421 16.7389 3.76721C16.9095 3.88022 17.0424 4.04084 17.1208 4.22877C17.1993 4.41669 17.2198 4.62348 17.1798 4.82298C17.1398 5.02248 17.0411 5.20574 16.8961 5.34957C16.7511 5.4934 16.5663 5.59135 16.3652 5.63103C16.164 5.67072 15.9555 5.65035 15.7661 5.57251C15.5766 5.49467 15.4147 5.36285 15.3007 5.19372C15.1868 5.02459 15.126 4.82575 15.126 4.62234C15.1262 4.34965 15.2356 4.08821 15.43 3.89539C15.6244 3.70257 15.8879 3.59414 16.1629 3.59389Z" fill="url(#paint12_linear)"/>
<path d="M24.6025 5.07683H42.9773C43.1273 5.07683 43.2711 5.01772 43.3772 4.91252C43.4833 4.80732 43.5429 4.66463 43.5429 4.51585C43.5429 4.36707 43.4833 4.22438 43.3772 4.11918C43.2711 4.01398 43.1273 3.95487 42.9773 3.95487H24.6025C24.4525 3.95487 24.3086 4.01398 24.2025 4.11918C24.0965 4.22438 24.0369 4.36707 24.0369 4.51585C24.0369 4.66463 24.0965 4.80732 24.2025 4.91252C24.3086 5.01772 24.4525 5.07683 24.6025 5.07683Z" fill="url(#paint13_linear)"/>
<defs>
<linearGradient id="paint0_linear" x1="-1.71363e-07" y1="23" x2="46" y2="23" gradientUnits="userSpaceOnUse">
<stop stop-color="#06A0DC"/>
<stop offset="1" stop-color="#065CDC"/>
</linearGradient>
<linearGradient id="paint1_linear" x1="-1.71363e-07" y1="23" x2="46" y2="23" gradientUnits="userSpaceOnUse">
<stop stop-color="#06A0DC"/>
<stop offset="1" stop-color="#065CDC"/>
</linearGradient>
<linearGradient id="paint2_linear" x1="-1.71363e-07" y1="23" x2="46" y2="23" gradientUnits="userSpaceOnUse">
<stop stop-color="#06A0DC"/>
<stop offset="1" stop-color="#065CDC"/>
</linearGradient>
<linearGradient id="paint3_linear" x1="-1.71363e-07" y1="23" x2="46" y2="23" gradientUnits="userSpaceOnUse">
<stop stop-color="#06A0DC"/>
<stop offset="1" stop-color="#065CDC"/>
</linearGradient>
<linearGradient id="paint4_linear" x1="-1.71363e-07" y1="23" x2="46" y2="23" gradientUnits="userSpaceOnUse">
<stop stop-color="#06A0DC"/>
<stop offset="1" stop-color="#065CDC"/>
</linearGradient>
<linearGradient id="paint5_linear" x1="-1.71363e-07" y1="23" x2="46" y2="23" gradientUnits="userSpaceOnUse">
<stop stop-color="#06A0DC"/>
<stop offset="1" stop-color="#065CDC"/>
</linearGradient>
<linearGradient id="paint6_linear" x1="-1.71363e-07" y1="23" x2="46" y2="23" gradientUnits="userSpaceOnUse">
<stop stop-color="#06A0DC"/>
<stop offset="1" stop-color="#065CDC"/>
</linearGradient>
<linearGradient id="paint7_linear" x1="-1.71363e-07" y1="23" x2="46" y2="23" gradientUnits="userSpaceOnUse">
<stop stop-color="#06A0DC"/>
<stop offset="1" stop-color="#065CDC"/>
</linearGradient>
<linearGradient id="paint8_linear" x1="-1.71363e-07" y1="23" x2="46" y2="23" gradientUnits="userSpaceOnUse">
<stop stop-color="#06A0DC"/>
<stop offset="1" stop-color="#065CDC"/>
</linearGradient>
<linearGradient id="paint9_linear" x1="-1.71363e-07" y1="23" x2="46" y2="23" gradientUnits="userSpaceOnUse">
<stop stop-color="#06A0DC"/>
<stop offset="1" stop-color="#065CDC"/>
</linearGradient>
<linearGradient id="paint10_linear" x1="-1.71363e-07" y1="23" x2="46" y2="23" gradientUnits="userSpaceOnUse">
<stop stop-color="#06A0DC"/>
<stop offset="1" stop-color="#065CDC"/>
</linearGradient>
<linearGradient id="paint11_linear" x1="-1.71363e-07" y1="23" x2="46" y2="23" gradientUnits="userSpaceOnUse">
<stop stop-color="#06A0DC"/>
<stop offset="1" stop-color="#065CDC"/>
</linearGradient>
<linearGradient id="paint12_linear" x1="-1.71363e-07" y1="23" x2="46" y2="23" gradientUnits="userSpaceOnUse">
<stop stop-color="#06A0DC"/>
<stop offset="1" stop-color="#065CDC"/>
</linearGradient>
<linearGradient id="paint13_linear" x1="-1.71363e-07" y1="23" x2="46" y2="23" gradientUnits="userSpaceOnUse">
<stop stop-color="#06A0DC"/>
<stop offset="1" stop-color="#065CDC"/>
</linearGradient>
</defs>
</svg>
