<svg width="46" height="46" viewBox="0 0 46 46" fill="none" xmlns="http://www.w3.org/2000/svg">
<path d="M26.6993 25.0661C26.7065 25.0579 26.712 25.0489 26.7197 25.0412C26.7275 25.0334 26.7357 25.0286 26.7434 25.022C27.0849 24.6762 27.3766 24.2846 27.6102 23.8585C26.1857 24.5972 24.6046 24.9828 23 24.9828C21.3954 24.9828 19.8143 24.5972 18.3899 23.8585C18.6235 24.2846 18.9152 24.6762 19.2566 25.022C19.2643 25.0288 19.2729 25.034 19.2803 25.0412C19.2876 25.0483 19.2936 25.0579 19.3007 25.0661C20.2859 26.0395 21.615 26.5853 23 26.5853C24.385 26.5853 25.7141 26.0395 26.6993 25.0661Z" fill="url(#paint0_linear)"/>
<path d="M23.4792 24.0115C25.5565 23.9026 27.5328 23.0807 29.0747 21.6844L27.4933 20.1006C26.3732 21.0799 24.9635 21.666 23.4792 21.7695V24.0115Z" fill="url(#paint1_linear)"/>
<path d="M31.1295 21.3145C31.1295 21.1566 31.1249 20.999 31.1156 20.8417C30.8184 21.2496 30.4912 21.6346 30.1366 21.9938C30.1259 22.0085 30.1144 22.0225 30.1021 22.0359C30.0892 22.0477 30.0756 22.0587 30.0615 22.069C29.7257 22.402 29.367 22.711 28.9881 22.994C28.7457 23.869 28.3144 24.6803 27.7246 25.3706L29.0732 26.7219C30.3992 25.233 31.1312 23.3083 31.1295 21.3145Z" fill="url(#paint2_linear)"/>
<path d="M22.5208 27.5246C21.2045 27.4247 19.9544 26.9074 18.9524 26.048L17.6034 27.3992C18.9645 28.6168 20.6977 29.3379 22.5208 29.445V27.5246Z" fill="url(#paint3_linear)"/>
<path d="M27.0475 26.048C26.0455 26.9073 24.7955 27.4246 23.4792 27.5246V29.445C25.3023 29.338 27.0355 28.6171 28.3967 27.3996L27.0475 26.048Z" fill="url(#paint4_linear)"/>
<path d="M16.1623 14.4409C16.2649 12.9542 16.8501 11.5416 17.829 10.4179L16.2464 8.8323C16.2159 8.86622 16.1843 8.89938 16.1543 8.9333C14.817 10.4686 14.033 12.4077 13.9274 14.4409H16.1623Z" fill="url(#paint5_linear)"/>
<path d="M16.2482 21.006L17.8289 19.4224C16.8501 18.2986 16.2649 16.886 16.1623 15.3993H13.9262C14.034 17.4792 14.8539 19.4588 16.2482 21.006Z" fill="url(#paint6_linear)"/>
<path d="M29.8374 15.3993C29.7347 16.886 29.1495 18.2986 28.1707 19.4224L29.7515 21.006C31.1458 19.4588 31.9656 17.4792 32.0735 15.3993H29.8374Z" fill="url(#paint7_linear)"/>
<path d="M18.2752 25.37C17.6853 24.6796 17.254 23.8684 17.0117 22.9933C16.6328 22.7104 16.2741 22.4013 15.9383 22.0683C15.9242 22.058 15.9107 22.047 15.8978 22.0353C15.8855 22.0219 15.8739 22.0078 15.8633 21.9931C15.5087 21.634 15.1815 21.249 14.8843 20.8413C14.8753 20.9985 14.8706 21.1561 14.8704 21.314C14.8688 23.3075 15.6006 25.2319 16.9264 26.7207L18.2752 25.37Z" fill="url(#paint8_linear)"/>
<path d="M16.9252 21.6844C18.4671 23.0807 20.4434 23.9027 22.5208 24.0115V21.769C21.0364 21.6656 19.6265 21.0795 18.5063 20.1001L16.9252 21.6844Z" fill="url(#paint9_linear)"/>
<path d="M23.4792 8.07071C24.9636 8.17409 26.3735 8.76021 27.4937 9.73965L29.075 8.15581C27.5331 6.75941 25.5567 5.93747 23.4792 5.82859V8.07071Z" fill="url(#paint10_linear)"/>
<path d="M36.2821 19.4847C36.0625 14.9039 35.1816 10.0701 34.6761 7.59633C34.5884 7.1671 34.4994 6.74591 34.4113 6.34446C34.3891 6.24365 34.3612 6.11868 34.3318 5.98815C34.2046 5.42168 34.1606 5.21746 34.1507 5.1245C34.1437 5.05719 34.1119 4.99486 34.0616 4.94958C34.0113 4.9043 33.946 4.87928 33.8783 4.87936C33.0142 4.88054 32.1664 5.11558 31.425 5.55956C30.6836 6.00353 30.0762 6.63988 29.6672 7.40112C29.8018 7.52104 29.9332 7.64444 30.0614 7.77133C30.0756 7.78164 30.0892 7.79271 30.1021 7.80448C30.1145 7.8179 30.126 7.83201 30.1367 7.84675C31.6324 9.35881 32.6103 11.306 32.9301 13.4086C33.2499 15.5112 32.895 17.661 31.9164 19.5493C32.0304 20.1308 32.0878 20.722 32.0879 21.3145C32.0897 23.7113 31.144 26.0117 29.457 27.7143C29.4472 27.7276 29.4368 27.7404 29.4257 27.7527C29.414 27.7633 29.4018 27.7733 29.389 27.7826C27.6913 29.471 25.3943 30.4188 22.9999 30.4188C20.6054 30.4188 18.3084 29.471 16.6107 27.7826C16.5836 27.7648 16.5605 27.7416 16.5427 27.7145C14.8557 26.0119 13.91 23.7115 13.9118 21.3147C13.9119 20.7221 13.9694 20.131 14.0833 19.5495C13.4274 18.2874 13.0482 16.8999 12.971 15.4796L4.61231 7.10509C4.36155 6.85385 4.0637 6.65454 3.7358 6.51858C3.40789 6.38262 3.05639 6.31268 2.70142 6.31276C2.34644 6.31284 1.99497 6.38294 1.66713 6.51905C1.33929 6.65516 1.04153 6.8546 0.790883 7.10595C0.284353 7.615 0 8.30389 0 9.022C0 9.7401 0.284353 10.429 0.790883 10.938L12.9427 23.1131C13.0318 23.2032 13.0817 23.3249 13.0813 23.4516C13.0809 23.5784 13.0303 23.6998 12.9406 23.7893C12.8509 23.8788 12.7294 23.9291 12.6026 23.9293C12.4759 23.9294 12.3543 23.8794 12.2644 23.7901L4.16312 15.673C3.97146 15.4808 3.74374 15.3282 3.49303 15.2242C3.24231 15.1201 2.97353 15.0666 2.70208 15.0666C2.43062 15.0666 2.16184 15.1201 1.91112 15.2242C1.66041 15.3282 1.4327 15.4808 1.24103 15.673C0.853692 16.0622 0.636248 16.589 0.636248 17.1381C0.636248 17.6872 0.853692 18.214 1.24103 18.6033L15.3123 32.7004C17.2704 34.674 19.8849 35.8604 22.6598 36.0344L22.883 36.0469C23.0564 36.0545 23.2305 36.0589 23.4052 36.0589C24.9093 36.0628 26.3993 35.7679 27.7885 35.1913C29.1777 34.6148 30.4386 33.7681 31.498 32.7004L34.2922 29.901C35.8461 28.3449 36.5341 24.7429 36.2821 19.4847Z" fill="url(#paint11_linear)"/>
<path d="M29.7515 8.83412L28.1707 10.4179C29.1495 11.5417 29.7347 12.9542 29.8374 14.4409H32.0735C31.9656 12.361 31.1458 10.3814 29.7515 8.83412Z" fill="url(#paint12_linear)"/>
<path d="M5.29075 6.42813L5.29161 6.42889L12.9874 14.1391C13.142 12.1322 13.895 10.2177 15.149 8.64322L11.8145 5.30256L11.8137 5.3017L8.21379 1.69501C7.96308 1.44359 7.66521 1.2441 7.33726 1.10799C7.00931 0.971876 6.65772 0.901813 6.30265 0.901813C5.94757 0.901813 5.59598 0.971876 5.26803 1.10799C4.94008 1.2441 4.64222 1.44359 4.3915 1.69501C3.88495 2.20405 3.60058 2.89294 3.60058 3.61106C3.60058 4.32917 3.88495 5.01807 4.3915 5.5271L5.29075 6.42813Z" fill="url(#paint13_linear)"/>
<path d="M37.2031 23.9753C36.96 27.1191 36.2138 29.3331 34.9701 30.5782L32.1758 33.3777C29.9636 35.6073 26.9826 36.9067 23.8434 37.0096L32.2116 45.3936C32.4033 45.5858 32.631 45.7383 32.8817 45.8424C33.1325 45.9464 33.4012 46 33.6727 46C33.9442 46 34.213 45.9464 34.4637 45.8424C34.7144 45.7383 34.9421 45.5858 35.1338 45.3936L45.3951 35.1133C45.7825 34.7241 46 34.1973 46 33.6481C46 33.099 45.7825 32.5722 45.3951 32.1829L37.2031 23.9753ZM38.5391 32.7244C38.5068 32.8731 37.6963 36.3893 33.1827 38.1402C33.1239 38.164 33.0609 38.1758 32.9974 38.175C32.934 38.1742 32.8713 38.1608 32.8131 38.1356C32.7548 38.1104 32.7022 38.0738 32.6582 38.0281C32.6142 37.9824 32.5797 37.9283 32.5567 37.8692C32.5338 37.81 32.5228 37.7469 32.5245 37.6835C32.5261 37.62 32.5403 37.5575 32.5663 37.4996C32.5923 37.4417 32.6295 37.3896 32.6758 37.3462C32.7222 37.3028 32.7766 37.269 32.8361 37.2469C36.8742 35.6802 37.5958 32.5526 37.6026 32.5211C37.6154 32.4591 37.6404 32.4003 37.6761 32.348C37.7118 32.2957 37.7575 32.251 37.8106 32.2165C37.8637 32.182 37.9231 32.1584 37.9854 32.1469C38.0477 32.1355 38.1116 32.1365 38.1735 32.15C38.2353 32.1634 38.2939 32.189 38.3459 32.2252C38.3978 32.2614 38.4421 32.3075 38.4761 32.361C38.5101 32.4144 38.5331 32.474 38.544 32.5364C38.5548 32.5988 38.5531 32.6627 38.5391 32.7244Z" fill="url(#paint14_linear)"/>
<path d="M22.5208 5.82993C22.2429 5.8444 21.9666 5.8699 21.694 5.90919C19.9165 6.16791 18.2559 6.94924 16.9235 8.15389L18.5063 9.73965C19.6265 8.76024 21.0364 8.17412 22.5208 8.07071V5.82993Z" fill="url(#paint15_linear)"/>
<path d="M14.4038 9.09594e-06C14.0486 -0.000902122 13.6968 0.0687467 13.3687 0.204913C13.0406 0.341079 12.7428 0.541051 12.4927 0.793222C11.9863 1.30212 11.7019 1.99077 11.7018 2.70868C11.7016 3.42658 11.9857 4.11535 12.4919 4.62445L15.7834 7.92236C15.8154 7.8893 15.8485 7.85729 15.8809 7.82461C15.8867 7.81809 15.8911 7.81071 15.8974 7.80448C15.9037 7.79825 15.9103 7.79442 15.9165 7.78886C17.2206 6.48681 18.8579 5.56886 20.6491 5.13562L16.3149 0.793222C16.0648 0.541041 15.767 0.341062 15.439 0.204894C15.1109 0.0687269 14.7591 -0.000915964 14.4038 9.09594e-06Z" fill="url(#paint16_linear)"/>
<path d="M21.5153 12.9079C21.5156 13.2179 21.6126 13.5201 21.7929 13.7724C21.9731 14.0247 22.2276 14.2144 22.5208 14.3151V11.5008C22.2276 11.6015 21.9731 11.7912 21.7929 12.0434C21.6126 12.2957 21.5156 12.5979 21.5153 12.9079Z" fill="url(#paint17_linear)"/>
<path d="M23 9.01035C21.8306 9.00793 20.6867 9.35246 19.7132 10.0004C18.7397 10.6483 17.9803 11.5704 17.5311 12.65C17.0819 13.7297 16.9631 14.9183 17.1898 16.0655C17.4164 17.2127 17.9783 18.2669 18.8044 19.0946C19.6304 19.9223 20.6835 20.4864 21.8302 20.7154C22.977 20.9444 24.1659 20.8281 25.2466 20.3812C26.3272 19.9342 27.2509 19.1768 27.9009 18.2047C28.5508 17.2325 28.8977 16.0895 28.8977 14.9201C28.8976 13.3549 28.2765 11.8537 27.1709 10.7458C26.0652 9.6379 24.5652 9.01378 23 9.01035ZM23.4792 19.2418V19.5895C23.4792 19.7166 23.4287 19.8385 23.3388 19.9283C23.249 20.0182 23.1271 20.0687 23 20.0687C22.8729 20.0687 22.751 20.0182 22.6612 19.9283C22.5713 19.8385 22.5208 19.7166 22.5208 19.5895V19.2417C22.2198 19.1829 21.9328 19.067 21.6753 18.9004C21.6029 18.9444 21.52 18.9683 21.4352 18.9696C21.3505 18.9709 21.2669 18.9496 21.1931 18.9078C21.1193 18.866 21.058 18.8053 21.0155 18.732C20.973 18.6586 20.9509 18.5752 20.9514 18.4905V17.7082C20.9514 17.5811 21.0019 17.4592 21.0917 17.3694C21.1816 17.2795 21.3035 17.229 21.4306 17.229C21.5576 17.229 21.6795 17.2795 21.7694 17.3694C21.8593 17.4592 21.9097 17.5811 21.9097 17.7082V17.8506C22.0765 18.0334 22.2866 18.1712 22.5208 18.2511V15.307C21.9668 15.1953 21.4685 14.8954 21.1106 14.4581C20.7526 14.0208 20.557 13.4731 20.557 12.9079C20.557 12.3428 20.7526 11.7951 21.1106 11.3578C21.4685 10.9205 21.9668 10.6206 22.5208 10.5089V10.2507C22.5208 10.1236 22.5713 10.0018 22.6612 9.9119C22.751 9.82204 22.8729 9.77156 23 9.77156C23.1271 9.77156 23.249 9.82204 23.3388 9.9119C23.4287 10.0018 23.4792 10.1236 23.4792 10.2507V10.5089C23.7699 10.5661 24.0475 10.6763 24.2982 10.8342C24.3704 10.7869 24.4541 10.7601 24.5403 10.7566C24.6265 10.753 24.712 10.7729 24.7879 10.814C24.8637 10.8551 24.927 10.916 24.9711 10.9902C25.0152 11.0643 25.0383 11.149 25.0382 11.2353V11.6735C25.04 11.6971 25.04 11.7208 25.0382 11.7444V12.0175C25.0382 12.1446 24.9877 12.2665 24.8978 12.3563C24.808 12.4462 24.6861 12.4967 24.559 12.4967C24.4319 12.4967 24.31 12.4462 24.2201 12.3563C24.1303 12.2665 24.0798 12.1446 24.0798 12.0175V11.8877C23.9146 11.7109 23.7083 11.5778 23.4792 11.5V14.4441C24.0332 14.5558 24.5315 14.8557 24.8894 15.293C25.2474 15.7303 25.443 16.278 25.443 16.8431C25.443 17.4083 25.2474 17.956 24.8894 18.3933C24.5315 18.8306 24.0332 19.1305 23.4792 19.2422V19.2418Z" fill="url(#paint18_linear)"/>
<path d="M23.4792 15.4356V18.2499C23.7726 18.1494 24.0272 17.9598 24.2075 17.7075C24.3877 17.4552 24.4847 17.1529 24.4847 16.8428C24.4847 16.5327 24.3877 16.2303 24.2075 15.978C24.0272 15.7257 23.7726 15.5361 23.4792 15.4356Z" fill="url(#paint19_linear)"/>
<defs>
<linearGradient id="paint0_linear" x1="-1.71363e-07" y1="23" x2="46" y2="23" gradientUnits="userSpaceOnUse">
<stop stop-color="#06A0DC"/>
<stop offset="1" stop-color="#065CDC"/>
</linearGradient>
<linearGradient id="paint1_linear" x1="-1.71363e-07" y1="23" x2="46" y2="23" gradientUnits="userSpaceOnUse">
<stop stop-color="#06A0DC"/>
<stop offset="1" stop-color="#065CDC"/>
</linearGradient>
<linearGradient id="paint2_linear" x1="-1.71363e-07" y1="23" x2="46" y2="23" gradientUnits="userSpaceOnUse">
<stop stop-color="#06A0DC"/>
<stop offset="1" stop-color="#065CDC"/>
</linearGradient>
<linearGradient id="paint3_linear" x1="-1.71363e-07" y1="23" x2="46" y2="23" gradientUnits="userSpaceOnUse">
<stop stop-color="#06A0DC"/>
<stop offset="1" stop-color="#065CDC"/>
</linearGradient>
<linearGradient id="paint4_linear" x1="-1.71363e-07" y1="23" x2="46" y2="23" gradientUnits="userSpaceOnUse">
<stop stop-color="#06A0DC"/>
<stop offset="1" stop-color="#065CDC"/>
</linearGradient>
<linearGradient id="paint5_linear" x1="-1.71363e-07" y1="23" x2="46" y2="23" gradientUnits="userSpaceOnUse">
<stop stop-color="#06A0DC"/>
<stop offset="1" stop-color="#065CDC"/>
</linearGradient>
<linearGradient id="paint6_linear" x1="-1.71363e-07" y1="23" x2="46" y2="23" gradientUnits="userSpaceOnUse">
<stop stop-color="#06A0DC"/>
<stop offset="1" stop-color="#065CDC"/>
</linearGradient>
<linearGradient id="paint7_linear" x1="-1.71363e-07" y1="23" x2="46" y2="23" gradientUnits="userSpaceOnUse">
<stop stop-color="#06A0DC"/>
<stop offset="1" stop-color="#065CDC"/>
</linearGradient>
<linearGradient id="paint8_linear" x1="-1.71363e-07" y1="23" x2="46" y2="23" gradientUnits="userSpaceOnUse">
<stop stop-color="#06A0DC"/>
<stop offset="1" stop-color="#065CDC"/>
</linearGradient>
<linearGradient id="paint9_linear" x1="-1.71363e-07" y1="23" x2="46" y2="23" gradientUnits="userSpaceOnUse">
<stop stop-color="#06A0DC"/>
<stop offset="1" stop-color="#065CDC"/>
</linearGradient>
<linearGradient id="paint10_linear" x1="-1.71363e-07" y1="23" x2="46" y2="23" gradientUnits="userSpaceOnUse">
<stop stop-color="#06A0DC"/>
<stop offset="1" stop-color="#065CDC"/>
</linearGradient>
<linearGradient id="paint11_linear" x1="-1.71363e-07" y1="23" x2="46" y2="23" gradientUnits="userSpaceOnUse">
<stop stop-color="#06A0DC"/>
<stop offset="1" stop-color="#065CDC"/>
</linearGradient>
<linearGradient id="paint12_linear" x1="-1.71363e-07" y1="23" x2="46" y2="23" gradientUnits="userSpaceOnUse">
<stop stop-color="#06A0DC"/>
<stop offset="1" stop-color="#065CDC"/>
</linearGradient>
<linearGradient id="paint13_linear" x1="-1.71363e-07" y1="23" x2="46" y2="23" gradientUnits="userSpaceOnUse">
<stop stop-color="#06A0DC"/>
<stop offset="1" stop-color="#065CDC"/>
</linearGradient>
<linearGradient id="paint14_linear" x1="-1.71363e-07" y1="23" x2="46" y2="23" gradientUnits="userSpaceOnUse">
<stop stop-color="#06A0DC"/>
<stop offset="1" stop-color="#065CDC"/>
</linearGradient>
<linearGradient id="paint15_linear" x1="-1.71363e-07" y1="23" x2="46" y2="23" gradientUnits="userSpaceOnUse">
<stop stop-color="#06A0DC"/>
<stop offset="1" stop-color="#065CDC"/>
</linearGradient>
<linearGradient id="paint16_linear" x1="-1.71363e-07" y1="23" x2="46" y2="23" gradientUnits="userSpaceOnUse">
<stop stop-color="#06A0DC"/>
<stop offset="1" stop-color="#065CDC"/>
</linearGradient>
<linearGradient id="paint17_linear" x1="-1.71363e-07" y1="23" x2="46" y2="23" gradientUnits="userSpaceOnUse">
<stop stop-color="#06A0DC"/>
<stop offset="1" stop-color="#065CDC"/>
</linearGradient>
<linearGradient id="paint18_linear" x1="-1.71363e-07" y1="23" x2="46" y2="23" gradientUnits="userSpaceOnUse">
<stop stop-color="#06A0DC"/>
<stop offset="1" stop-color="#065CDC"/>
</linearGradient>
<linearGradient id="paint19_linear" x1="-1.71363e-07" y1="23" x2="46" y2="23" gradientUnits="userSpaceOnUse">
<stop stop-color="#06A0DC"/>
<stop offset="1" stop-color="#065CDC"/>
</linearGradient>
</defs>
</svg>
