<svg width="46" height="46" viewBox="0 0 46 46" fill="none" xmlns="http://www.w3.org/2000/svg">
<path d="M0.909604 20.3869H2.88769V41.0868C2.89074 43.7991 5.12718 45.997 7.88645 46H38.1141C40.8733 45.997 43.1093 43.7991 43.1123 41.0868V20.3869H45.0904C45.5929 20.3869 46 19.9868 46 19.4928V13.8836C45.997 11.1713 43.761 8.97298 41.0017 8.96998H36.0817L37.0928 7.94963C38.9429 6.13096 38.9429 3.18267 37.0928 1.364C35.2426 -0.454668 32.2432 -0.454668 30.3931 1.364L23.1117 8.52093L17.7018 3.20313C15.9973 1.52766 13.2847 1.37698 11.3995 2.85386C9.5143 4.33026 9.05798 6.96321 10.3391 8.96998H4.99826C2.23899 8.97348 0.00304556 11.1713 0 13.8836V19.4928C0 19.9868 0.407596 20.3869 0.909604 20.3869ZM41.2931 41.0868C41.2911 42.8122 39.8688 44.2103 38.1141 44.2118H7.88645C6.1312 44.2103 4.70893 42.8122 4.7069 41.0868V20.3869H41.2931V41.0868ZM23.0041 10.7582C23.0127 10.7582 23.0218 10.7597 23.0299 10.7597C23.0381 10.7597 23.0477 10.7587 23.0558 10.7582H27.4181V18.5987H18.8418V10.7582H23.0041ZM44.1808 13.8836V18.5987H29.2373V10.7582H41.0017C42.7565 10.7607 44.1788 12.1583 44.1808 13.8836ZM31.6793 2.62834C32.8214 1.51019 34.669 1.51369 35.8065 2.63632C36.944 3.75896 36.9405 5.57563 35.7984 6.69378L33.5422 8.96998H25.2278L31.6793 2.62834ZM12.2878 8.52442C11.1482 7.40428 11.1482 5.58761 12.2878 4.46747C13.4278 3.34733 15.2755 3.34733 16.415 4.46747L20.9955 8.96998H12.7416L12.2878 8.52442ZM1.81921 13.8836C1.82175 12.1583 3.24351 10.7607 4.99876 10.7582H17.0226V18.5987H1.81921V13.8836Z" fill="url(#paint0_linear)"/>
<path d="M13.8354 34.8684L13.6816 37.903C13.6603 38.3232 13.9395 38.7009 14.3522 38.8106L17.3358 39.6055L19.0261 42.1491C19.2601 42.5014 19.7118 42.6456 20.1118 42.4959L23 41.4137L25.8887 42.4954C26.2882 42.6451 26.7404 42.5009 26.9739 42.1486L28.6642 39.6055L31.6478 38.8111C32.061 38.7014 32.3402 38.3237 32.3189 37.9035L32.1646 34.8689L34.1041 32.5029C34.3721 32.1756 34.3721 31.7086 34.1041 31.3808L32.1646 29.0148L32.3189 25.9802C32.3402 25.5605 32.061 25.1823 31.6478 25.0726L28.6642 24.2787L26.9739 21.7346C26.7404 21.3828 26.2882 21.2381 25.8887 21.3883L23 22.4691L20.1118 21.3873C19.7118 21.2376 19.2601 21.3818 19.0261 21.7341L17.3358 24.2782L14.3522 25.0721C13.9395 25.1818 13.6603 25.5595 13.6816 25.9797L13.8354 29.0143L11.8964 31.3803C11.6279 31.7076 11.6279 32.1751 11.8964 32.5024L13.8354 34.8684ZM15.4694 29.871C15.6095 29.7003 15.681 29.4848 15.6699 29.2652L15.5348 26.6098L18.1459 25.9153C18.3611 25.8579 18.5479 25.7247 18.6697 25.5411L20.1489 23.3148L22.6762 24.2618C22.8848 24.3396 23.1152 24.3396 23.3238 24.2618L25.8517 23.3148L27.3303 25.5411C27.4526 25.7247 27.6389 25.8579 27.8541 25.9153L30.4652 26.6098L30.3306 29.2652C30.3195 29.4848 30.3905 29.7003 30.5306 29.871L32.2275 31.9416L30.5306 34.0117C30.3905 34.1829 30.3195 34.3979 30.3306 34.6175L30.4652 37.2729L27.8541 37.9674C27.6389 38.0248 27.4526 38.158 27.3303 38.3416L25.8517 40.5679L23.3238 39.6214C23.1152 39.5431 22.8848 39.5431 22.6762 39.6214L20.1489 40.5679L18.6697 38.3416C18.5479 38.158 18.3611 38.0248 18.1459 37.9674L15.5348 37.2729L15.6699 34.6175C15.681 34.3979 15.6095 34.1829 15.4694 34.0117L13.7725 31.9416L15.4694 29.871Z" fill="url(#paint1_linear)"/>
<path d="M19.857 31.1503C21.3458 31.1503 22.5523 29.9638 22.5523 28.5004C22.5523 27.0369 21.3458 25.8509 19.857 25.8509C18.3682 25.8509 17.1612 27.0374 17.1612 28.5004C17.1632 29.9633 18.3687 31.1488 19.857 31.1503ZM19.857 27.6392C20.3412 27.6392 20.7331 28.0249 20.7331 28.5009C20.7331 28.9763 20.3407 29.362 19.857 29.362C19.3727 29.362 18.9804 28.9763 18.9804 28.5004C18.9809 28.0249 19.3733 27.6397 19.857 27.6392Z" fill="url(#paint2_linear)"/>
<path d="M23.3051 35.5226C23.3051 36.986 24.5116 38.172 26.0004 38.172C27.4891 38.172 28.6962 36.986 28.6962 35.5226C28.6962 34.0591 27.4891 32.8726 26.0004 32.8731C24.5121 32.8746 23.3066 34.0596 23.3051 35.5226ZM26.8765 35.5226C26.8765 35.9981 26.4841 36.3838 26.0004 36.3838C25.5161 36.3838 25.1243 35.9981 25.1243 35.5226C25.1243 35.0466 25.5161 34.6614 26.0004 34.6614C26.4841 34.6619 26.876 35.0471 26.8765 35.5226Z" fill="url(#paint3_linear)"/>
<path d="M19.7834 36.7894C20.2047 37.0588 20.7681 36.9426 21.0427 36.5289L26.7623 27.9076C26.944 27.6402 26.9658 27.2969 26.8186 27.0095C26.6719 26.7221 26.379 26.534 26.0516 26.518C25.7248 26.5016 25.4141 26.6592 25.2385 26.9307L19.5184 35.552C19.2443 35.9656 19.3631 36.5195 19.7834 36.7894Z" fill="url(#paint4_linear)"/>
<defs>
<linearGradient id="paint0_linear" x1="-1.71363e-07" y1="23" x2="46" y2="23" gradientUnits="userSpaceOnUse">
<stop stop-color="#06A0DC"/>
<stop offset="1" stop-color="#065CDC"/>
</linearGradient>
<linearGradient id="paint1_linear" x1="-1.71363e-07" y1="23" x2="46" y2="23" gradientUnits="userSpaceOnUse">
<stop stop-color="#06A0DC"/>
<stop offset="1" stop-color="#065CDC"/>
</linearGradient>
<linearGradient id="paint2_linear" x1="-1.71363e-07" y1="23" x2="46" y2="23" gradientUnits="userSpaceOnUse">
<stop stop-color="#06A0DC"/>
<stop offset="1" stop-color="#065CDC"/>
</linearGradient>
<linearGradient id="paint3_linear" x1="-1.71363e-07" y1="23" x2="46" y2="23" gradientUnits="userSpaceOnUse">
<stop stop-color="#06A0DC"/>
<stop offset="1" stop-color="#065CDC"/>
</linearGradient>
<linearGradient id="paint4_linear" x1="-1.71363e-07" y1="23" x2="46" y2="23" gradientUnits="userSpaceOnUse">
<stop stop-color="#06A0DC"/>
<stop offset="1" stop-color="#065CDC"/>
</linearGradient>
</defs>
</svg>
