<svg width="46" height="46" viewBox="0 0 46 46" fill="none" xmlns="http://www.w3.org/2000/svg">
<path d="M41.376 0H19.5577C17.005 0.00292398 14.9365 2.08018 14.9336 4.64365V5.36461L4.57995 14.0337C4.56082 14.0496 4.54252 14.0663 4.52546 14.0842C3.67361 14.951 3.19736 16.1206 3.20027 17.3382V36.4203H0.74537C0.333586 36.4203 0 36.7553 0 37.1688V45.2515C0 45.6646 0.333586 46 0.74537 46H21.5945C22.0059 46 22.3399 45.6646 22.3399 45.2515V37.1688C22.3399 36.7553 22.0059 36.4203 21.5945 36.4203H19.818V33.9617C22.0533 33.592 23.6938 31.653 23.6971 29.3782V21.5888C23.6971 21.5123 23.6855 21.4363 23.6626 21.3632H41.376C43.9286 21.3603 45.9975 19.2826 46 16.7191V4.64365C45.9971 2.08018 43.9286 0.00292398 41.376 0ZM16.4239 6.85332H44.5093V9.25138H16.4239V6.85332ZM19.5577 1.49748H41.3755C43.1055 1.49915 44.5072 2.90682 44.5093 4.64365V5.35626H16.4239V4.64407C16.426 2.90682 17.8277 1.49915 19.5577 1.49706V1.49748ZM20.8492 44.5034H1.49074V37.9174H20.8492V44.5034ZM22.2064 21.5888V29.379C22.2043 31.1163 20.8026 32.5239 19.0727 32.526C18.6613 32.526 18.3273 32.861 18.3273 33.2746V36.4203H4.69101V17.3382C4.68893 16.5253 5.00213 15.7434 5.56407 15.1586L14.9328 7.31363V14.6072C14.9332 14.6456 14.9365 14.6837 14.9423 14.7217L8.89536 19.5299C8.57301 19.7864 8.51852 20.2575 8.77391 20.5813C9.0293 20.9054 9.49806 20.9601 9.82084 20.7037L18.6164 13.7104L18.8327 13.9276C19.6762 14.7768 19.6762 16.1515 18.8327 17.0003L14.7186 21.1318C14.5892 21.2617 14.5123 21.4346 14.5014 21.6176L14.4495 22.519C14.4486 22.5332 14.4482 22.5478 14.4482 22.5616C14.4524 23.2458 14.6079 23.9204 14.9032 24.537C15.5675 25.9697 15.4427 27.6459 14.5734 28.9634C14.4919 29.0862 14.4482 29.2307 14.4482 29.3782V31.3259C14.4482 31.7395 14.7822 32.0745 15.1936 32.0745C15.6054 32.0745 15.9389 31.7395 15.9389 31.3259V29.5971C16.9842 27.8698 17.1019 25.7328 16.2526 23.9008C16.0537 23.4893 15.9468 23.0395 15.9389 22.5825L15.9735 21.9889L17.2275 20.7291C17.9351 21.1431 18.7387 21.3615 19.5572 21.3628H22.2405C22.2176 21.4359 22.206 21.5119 22.2064 21.5888ZM41.376 19.8662H19.5577C19.138 19.867 18.7224 19.7822 18.336 19.6172L19.8875 18.0592C21.3121 16.6252 21.3121 14.3035 19.8875 12.8691L19.2016 12.1803C18.9342 11.9113 18.5082 11.8867 18.2112 12.1231L16.4239 13.5442V10.7484H44.5093V16.7191C44.5072 18.456 43.1055 19.8636 41.376 19.8657V19.8662Z" fill="url(#paint0_linear)"/>
<path d="M4.96345 39.0498C4.04962 39.0297 3.21483 39.5673 2.85129 40.4094C2.48776 41.2519 2.66786 42.231 3.30717 42.8872C3.94647 43.5435 4.91728 43.7456 5.76373 43.3989C6.61017 43.0522 7.16338 42.2256 7.16338 41.3079C7.17544 40.0748 6.19132 39.0648 4.96345 39.0498ZM4.96345 42.0685C4.65233 42.0894 4.36033 41.9169 4.22723 41.6341C4.09371 41.3513 4.14612 41.0151 4.35909 40.7866C4.57205 40.5581 4.90231 40.4833 5.19222 40.5986C5.48213 40.7135 5.67263 40.9946 5.67263 41.3079C5.68511 41.7143 5.36816 42.0543 4.96345 42.0685Z" fill="url(#paint1_linear)"/>
<path d="M37.7394 12.3675C37.2332 12.3662 36.7344 12.4878 36.2848 12.7221C34.9513 12.0304 33.3175 12.3729 32.3708 13.5429C31.4241 14.7125 31.4241 16.3883 32.3708 17.5583C33.3175 18.7279 34.9513 19.0704 36.2848 18.3787C37.4528 18.9844 38.8716 18.8035 39.8515 17.9238C40.8315 17.0441 41.1692 15.6481 40.7005 14.4151C40.2317 13.182 39.0537 12.3675 37.7394 12.3671V12.3675ZM33.1515 15.5504C33.1515 14.6193 33.9031 13.8645 34.8303 13.8645C35.7578 13.8645 36.509 14.6198 36.509 15.5508C36.509 16.4819 35.7574 17.2367 34.8303 17.2363C33.9035 17.235 33.1528 16.4811 33.1515 15.5504ZM37.7394 17.2363C37.6678 17.2363 37.5959 17.2321 37.5247 17.2229C37.5322 17.2108 37.5385 17.1987 37.5455 17.1866C37.568 17.1485 37.5896 17.1105 37.6108 17.0717C37.6225 17.0504 37.6345 17.0282 37.6458 17.0061C37.667 16.9643 37.6878 16.9213 37.7073 16.8779C37.7161 16.8591 37.7252 16.8407 37.7331 16.8219C37.7602 16.7597 37.786 16.697 37.8088 16.6331C37.8109 16.6277 37.8126 16.6222 37.8147 16.6164C37.835 16.5579 37.8542 16.499 37.8716 16.4397C37.8779 16.4184 37.8833 16.3963 37.8891 16.3745C37.9012 16.3303 37.9124 16.286 37.9224 16.2413C37.9278 16.2166 37.9328 16.1916 37.9378 16.1665C37.9465 16.1239 37.954 16.0809 37.9611 16.0374C37.9648 16.012 37.9686 15.9869 37.9715 15.9614C37.9777 15.9155 37.9823 15.8687 37.9864 15.8227C37.9885 15.8006 37.9906 15.7789 37.9923 15.7567C37.9968 15.6882 37.9993 15.6193 37.9993 15.5504C37.9993 15.4815 37.9968 15.4109 37.9923 15.3415C37.991 15.3194 37.9885 15.2977 37.9869 15.2755C37.9827 15.2283 37.9781 15.1816 37.9723 15.1348C37.969 15.1093 37.9652 15.0842 37.9615 15.0592C37.9548 15.0157 37.9473 14.9723 37.939 14.9289C37.934 14.9042 37.929 14.8791 37.9236 14.8541C37.9136 14.809 37.9024 14.7647 37.8908 14.7204C37.8849 14.6991 37.8804 14.677 37.8737 14.6557C37.8567 14.5968 37.8379 14.5379 37.8176 14.4802C37.8155 14.4744 37.8138 14.4685 37.8117 14.4627C37.7889 14.3996 37.7639 14.337 37.7373 14.2756C37.7286 14.2559 37.7194 14.2371 37.7103 14.2175C37.6911 14.1757 37.6716 14.134 37.6508 14.093C37.6387 14.0705 37.6266 14.0479 37.6146 14.0258C37.5942 13.9882 37.5734 13.9514 37.5514 13.9151C37.5439 13.9025 37.5376 13.8896 37.5301 13.8771C38.1499 13.7994 38.7618 14.0734 39.1178 14.5888C39.4743 15.1039 39.5159 15.7755 39.2264 16.3315C38.9373 16.8871 38.3645 17.2358 37.7398 17.2363H37.7394Z" fill="url(#paint2_linear)"/>
<defs>
<linearGradient id="paint0_linear" x1="-1.71363e-07" y1="23" x2="46" y2="23" gradientUnits="userSpaceOnUse">
<stop stop-color="#06A0DC"/>
<stop offset="1" stop-color="#065CDC"/>
</linearGradient>
<linearGradient id="paint1_linear" x1="-1.71363e-07" y1="23" x2="46" y2="23" gradientUnits="userSpaceOnUse">
<stop stop-color="#06A0DC"/>
<stop offset="1" stop-color="#065CDC"/>
</linearGradient>
<linearGradient id="paint2_linear" x1="-1.71363e-07" y1="23" x2="46" y2="23" gradientUnits="userSpaceOnUse">
<stop stop-color="#06A0DC"/>
<stop offset="1" stop-color="#065CDC"/>
</linearGradient>
</defs>
</svg>
