<svg width="39" height="28" viewBox="0 0 39 28" fill="none" xmlns="http://www.w3.org/2000/svg">
<path d="M35.1257 27.113H3.71379C1.74083 27.113 0.13855 25.5132 0.13855 23.5433V3.56969C0.13855 1.5998 1.74083 0 3.71379 0H35.1376C37.1106 0 38.7129 1.5998 38.7129 3.56969V23.5433C38.7009 25.5132 37.0986 27.113 35.1257 27.113Z" fill="#253B80"/>
<path d="M9.39348 11.9257C9.2739 12.6779 8.69995 12.6779 8.14992 12.6779H7.82707L8.05426 11.2691C8.06621 11.1855 8.13796 11.1258 8.22166 11.1258H8.36515C8.74778 11.1258 9.1065 11.1258 9.28586 11.3407C9.40543 11.4721 9.44131 11.6631 9.39348 11.9257ZM9.15433 9.96777H7.04984C6.90635 9.96777 6.78678 10.0752 6.76287 10.2185L5.9139 15.6029C5.90194 15.7103 5.97368 15.8058 6.0813 15.8058H7.08571C7.2292 15.8058 7.34878 15.6984 7.37269 15.5551L7.59988 14.0986C7.62379 13.9553 7.74337 13.8479 7.88685 13.8479H8.55646C9.94351 13.8479 10.7447 13.1793 10.9479 11.8541C11.0436 11.2691 10.9479 10.8154 10.6849 10.505C10.3859 10.1469 9.85981 9.96777 9.15433 9.96777Z" fill="white"/>
<path d="M14.033 13.8611C13.9374 14.4341 13.483 14.8162 12.8971 14.8162C12.6101 14.8162 12.371 14.7207 12.2275 14.5416C12.084 14.3625 12.0242 14.1118 12.072 13.8372C12.1677 13.2641 12.6221 12.8702 13.196 12.8702C13.483 12.8702 13.7102 12.9657 13.8656 13.1448C14.0211 13.3358 14.0809 13.5865 14.033 13.8611ZM15.432 11.9031H14.4276C14.3439 11.9031 14.2722 11.9628 14.2602 12.0464L14.2124 12.3329L14.1407 12.2255C13.9254 11.9151 13.4352 11.8076 12.9569 11.8076C11.8448 11.8076 10.9002 12.6433 10.7089 13.8253C10.6132 14.4103 10.7448 14.9714 11.0796 15.3654C11.3905 15.7235 11.8209 15.8787 12.3471 15.8787C13.2439 15.8787 13.7341 15.3057 13.7341 15.3057L13.6863 15.5803C13.6743 15.6877 13.7461 15.7832 13.8537 15.7832H14.7624C14.9059 15.7832 15.0255 15.6758 15.0494 15.5325L15.5875 12.0941C15.6234 11.9986 15.5397 11.9031 15.432 11.9031Z" fill="white"/>
<path d="M20.8008 11.9028H19.7844C19.6888 11.9028 19.5931 11.9506 19.5453 12.0342L18.1463 14.0876L17.5603 12.1177C17.5245 11.9983 17.4049 11.9148 17.2853 11.9148H16.2809C16.1613 11.9148 16.0776 12.0342 16.1135 12.1416L17.2255 15.4009L16.1733 16.8813C16.0896 17.0007 16.1733 17.1559 16.3168 17.1559H17.3212C17.4168 17.1559 17.5125 17.1081 17.5603 17.0365L20.9443 12.1774C21.0161 12.058 20.9324 11.9028 20.8008 11.9028Z" fill="white"/>
<path d="M24.388 11.9267C24.2684 12.6789 23.6945 12.6789 23.1444 12.6789H22.8335L23.0607 11.2701C23.0727 11.1865 23.1444 11.1268 23.2281 11.1268H23.3716C23.7542 11.1268 24.113 11.1268 24.2923 11.3417C24.388 11.473 24.4239 11.6641 24.388 11.9267ZM24.1369 9.96875H22.0324C21.8889 9.96875 21.7693 10.0762 21.7454 10.2195L20.8964 15.6039C20.8845 15.7113 20.9562 15.8068 21.0638 15.8068H22.14C22.2357 15.8068 22.3313 15.7352 22.3433 15.6397L22.5824 14.1115C22.6063 13.9682 22.7259 13.8608 22.8694 13.8608H23.539C24.9261 13.8608 25.7272 13.1922 25.9305 11.867C26.0261 11.282 25.9305 10.8283 25.6674 10.5179C25.3804 10.1478 24.8424 9.96875 24.1369 9.96875Z" fill="white"/>
<path d="M29.0155 13.8611C28.9198 14.4341 28.4654 14.8162 27.8795 14.8162C27.5925 14.8162 27.3534 14.7207 27.2099 14.5416C27.0664 14.3625 27.0066 14.1118 27.0545 13.8372C27.1501 13.2641 27.6045 12.8702 28.1785 12.8702C28.4654 12.8702 28.6926 12.9657 28.8481 13.1448C29.0035 13.3358 29.0633 13.5865 29.0155 13.8611ZM30.4264 11.9031H29.422C29.3383 11.9031 29.2666 11.9628 29.2546 12.0464L29.2068 12.3329L29.135 12.2255C28.9198 11.9151 28.4296 11.8076 27.9513 11.8076C26.8392 11.8076 25.8946 12.6433 25.7033 13.8253C25.6076 14.4103 25.7392 14.9714 26.074 15.3654C26.3849 15.7235 26.8153 15.8787 27.3414 15.8787C28.2382 15.8787 28.7285 15.3057 28.7285 15.3057L28.6807 15.5803C28.6687 15.6877 28.7404 15.7832 28.8481 15.7832H29.7568C29.9003 15.7832 30.0199 15.6758 30.0438 15.5325L30.5938 12.0941C30.6177 11.9986 30.534 11.9031 30.4264 11.9031Z" fill="white"/>
<path d="M31.6102 10.1122L30.7492 15.5921C30.7373 15.6996 30.809 15.7951 30.9166 15.7951H31.7895C31.933 15.7951 32.0526 15.6876 32.0765 15.5444L32.9255 10.16C32.9374 10.0525 32.8657 9.95703 32.7581 9.95703H31.7895C31.6939 9.96897 31.6221 10.0287 31.6102 10.1122Z" fill="white"/>
</svg>
