<svg width="84" height="84" viewBox="0 0 84 84" fill="none" xmlns="http://www.w3.org/2000/svg">
<path d="M51.3004 32.5426H1V82.843H51.3004V32.5426Z" fill="#F1CDFF" stroke="#1A0A1B" stroke-miterlimit="10" stroke-linecap="round"/>
<path d="M26.1501 42.0238C34.8034 42.0238 41.8193 49.0397 41.8193 57.6929C41.8193 63.4419 38.723 68.4729 34.1036 71.1987" fill="#F1CDFF"/>
<path d="M26.1501 42.0238C34.8034 42.0238 41.8193 49.0397 41.8193 57.6929C41.8193 63.4419 38.723 68.4729 34.1036 71.1987" stroke="#1A0A1B" stroke-miterlimit="10" stroke-linecap="round"/>
<path d="M26.1502 73.3666C17.497 73.3666 10.4811 66.3507 10.4811 57.6975C10.4811 52.9821 12.5666 48.747 15.8642 45.8748" fill="#F1CDFF"/>
<path d="M26.1502 73.3666C17.497 73.3666 10.4811 66.3507 10.4811 57.6975C10.4811 52.9821 12.5666 48.747 15.8642 45.8748" stroke="#1A0A1B" stroke-miterlimit="10" stroke-linecap="round"/>
<path d="M1 37.5596H8.79797" stroke="#1A0A1B" stroke-miterlimit="10" stroke-linecap="round"/>
<path d="M20.5521 28.5086L44.5498 5.47137L48.1675 2L83 38.2869L55.7459 64.4524" stroke="#1A0A1B" stroke-miterlimit="10" stroke-linecap="round"/>
<path d="M58.7462 26.7067C64.7422 32.9496 64.5409 42.8743 58.298 48.8657C57.4976 49.6341 56.6332 50.3018 55.7322 50.8644" stroke="#1A0A1B" stroke-miterlimit="10" stroke-linecap="round"/>
<path d="M32.974 43.5838V43.5787" stroke="#1A0A1B" stroke-miterlimit="10" stroke-linecap="round"/>
<path d="M34.4238 28.8289C35.0367 27.9142 35.7593 27.0452 36.5871 26.2494C39.9899 22.9838 44.4903 21.5569 48.8444 21.9502" stroke="#1A0A1B" stroke-miterlimit="10" stroke-linecap="round"/>
<path d="M44.5497 5.47131L49.9511 11.0968" stroke="#1A0A1B" stroke-miterlimit="10" stroke-linecap="round"/>
</svg>
