<svg xmlns="http://www.w3.org/2000/svg" viewBox="0 0 73.95 76.41"><defs><style>.cls-1,.cls-4{fill:none;stroke:#141414;stroke-miterlimit:10;stroke-width:3px;}.cls-1{stroke-linecap:square;}.cls-2{fill:#fc6a42;}.cls-3{fill:#31dbce;}.cls-5{fill:#f9bd3a;}</style></defs><title>12Seo_1</title><g id="Слой_2" data-name="Слой 2"><g id="Logo"><circle id="_Контур_" data-name="&lt;Контур&gt;" class="cls-1" cx="38.19" cy="38.22" r="29.91"/><path class="cls-2" d="M38.19,17.91A20.31,20.31,0,1,0,58.5,38.22,20.3,20.3,0,0,0,38.19,17.91Zm0,31.2a10.9,10.9,0,1,1,10.9-10.89A10.9,10.9,0,0,1,38.19,49.11Z"/><path class="cls-3" d="M66.91,13.36a32.41,32.41,0,0,0-2.43-2.69A35.39,35.39,0,0,0,42,.39L36.46,0h0l.36,7.77L37,11.06h0l1.23,27.16L61.06,23.58h0l9.33-6Z"/><path id="_Контур_2" data-name="&lt;Контур&gt;" class="cls-1" d="M6.32,50.79A33.83,33.83,0,0,1,4,40.82"/><path id="_Контур_3" data-name="&lt;Контур&gt;" class="cls-1" d="M71.16,28.88a34.47,34.47,0,0,1,.46,16.85"/><path id="_Контур_4" data-name="&lt;Контур&gt;" class="cls-1" d="M17.4,70.5l-3.27,3.27a3.91,3.91,0,0,1-5.52,0l-6-6a3.91,3.91,0,0,1,0-5.52L15.05,49.87a3.91,3.91,0,0,1,5.52,0l6,6a3.91,3.91,0,0,1,0,5.52l-2.29,2.29"/><circle class="cls-4" cx="3.81" cy="36.47" r="0.26"/><circle class="cls-4" cx="20.31" cy="67.38" r="0.26"/><circle class="cls-4" cx="70.53" cy="50.01" r="0.26"/><circle class="cls-4" cx="38.19" cy="38.22" r="20.5"/><path class="cls-5" d="M19.17,19.19a26.69,26.69,0,0,0-5.37,7.65L38.19,38.22,28.62,13.07A26.63,26.63,0,0,0,19.17,19.19Z"/><circle class="cls-1" cx="38.19" cy="38.22" r="11"/></g></g></svg>