<svg width="55" height="55" viewBox="0 0 55 55" fill="none" xmlns="http://www.w3.org/2000/svg">
<path d="M3.75 16.25H46.25C46.9412 16.25 47.5 15.6912 47.5 15C47.5 14.3088 46.9412 13.75 46.25 13.75H3.75C3.06 13.75 2.5 13.19 2.5 12.5C2.5 11.81 3.06 11.25 3.75 11.25H16.25H38.75H51.25C51.94 11.25 52.5 11.81 52.5 12.5C52.5 13.19 51.94 13.75 51.25 13.75C50.5588 13.75 50 14.3088 50 15V42.5C50 43.1912 50.5588 43.75 51.25 43.75C51.9412 43.75 52.5 43.1912 52.5 42.5V16.0363C53.955 15.52 55 14.13 55 12.5C55 10.4325 53.3175 8.75 51.25 8.75H39.9275C39.7775 7.34125 39.3813 5.95875 38.7487 4.69375L37.3688 1.94C37.1562 1.5175 36.7238 1.25 36.25 1.25H18.75C18.2763 1.25 17.8438 1.5175 17.6312 1.94125L16.25 4.705C15.6187 5.9675 15.2238 7.34625 15.0737 8.75H3.75C1.6825 8.75 0 10.4325 0 12.5C0 14.5675 1.6825 16.25 3.75 16.25ZM18.4862 5.8225L19.5225 3.75H35.4787L36.5112 5.81375C36.9712 6.7325 37.2775 7.73125 37.4163 8.75H17.585C17.7237 7.735 18.0287 6.74 18.4862 5.8225Z" fill="#E05D68"/>
<path d="M51.25 46.25H45V25C45 22.9325 43.3175 21.25 41.25 21.25H13.75C11.6825 21.25 10 22.9325 10 25V46.25H8.75C8.05875 46.25 7.5 46.8088 7.5 47.5C7.5 48.1912 8.05875 48.75 8.75 48.75H11.25H43.75H51.25C51.94 48.75 52.5 49.31 52.5 50V51.25H2.5V50C2.5 49.31 3.06 48.75 3.75 48.75C4.44125 48.75 5 48.1912 5 47.5V20C5 19.3088 4.44125 18.75 3.75 18.75C3.05875 18.75 2.5 19.3088 2.5 20V46.4638C1.045 46.98 0 48.37 0 50V52.5C0 53.1912 0.55875 53.75 1.25 53.75H53.75C54.4412 53.75 55 53.1912 55 52.5V50C55 47.9325 53.3175 46.25 51.25 46.25ZM12.5 46.25V25C12.5 24.31 13.06 23.75 13.75 23.75H41.25C41.94 23.75 42.5 24.31 42.5 25V46.25H12.5Z" fill="#E05D68"/>
<path d="M36.1675 38.0625C35.1612 37.3075 34.5837 36.2137 34.5837 35C34.5837 34.3088 34.025 33.75 33.3337 33.75C32.3825 33.75 31.4825 34.0075 30.6612 34.4688C29.0725 30.9713 26.5925 28.75 23.75 28.75C23.0588 28.75 22.5 29.4012 22.5 30.0912C22.5 32.1488 21.7287 34.0725 20.3825 35.37C18.5512 37.1362 17.5 39.7162 17.5 42.4487V43.75C17.5 44.4412 18.0588 45 18.75 45C19.4412 45 20 44.4412 20 43.75V42.4487C20 40.3912 20.7713 38.4663 22.1175 37.1688C23.6225 35.7188 24.6 33.7175 24.9012 31.4825C26.3875 32.0875 27.7188 33.8325 28.6488 36.2025C27.1738 38.0225 26.25 40.7037 26.25 43.75C26.25 44.4412 26.8088 45 27.5 45C28.1912 45 28.75 44.4412 28.75 43.75C28.75 42.1838 29.0725 40.7237 29.5988 39.5062C29.8575 40.8437 30 42.2775 30 43.75C30 44.4412 30.5588 45 31.25 45C31.9412 45 32.5 44.4412 32.5 43.75C32.5 41.2513 32.1538 38.92 31.5487 36.8675C31.775 36.705 32.01 36.5713 32.2525 36.47C32.5913 37.87 33.43 39.1337 34.6675 40.0612C35.6725 40.8162 36.25 41.9112 36.25 43.065V43.75C36.25 44.4412 36.8088 45 37.5 45C38.1912 45 38.75 44.4412 38.75 43.75V43.065C38.75 41.1175 37.8075 39.2938 36.1675 38.0625Z" fill="#E05D68"/>
</svg>
