<svg width="55" height="55" viewBox="0 0 55 55" fill="none" xmlns="http://www.w3.org/2000/svg">
<path d="M15 43.75C15 41.6825 13.3175 40 11.25 40C9.1825 40 7.5 41.6825 7.5 43.75C7.5 45.8175 9.1825 47.5 11.25 47.5C13.3175 47.5 15 45.8175 15 43.75ZM10 43.75C10 43.06 10.5612 42.5 11.25 42.5C11.9387 42.5 12.5 43.06 12.5 43.75C12.5 44.44 11.9387 45 11.25 45C10.5612 45 10 44.44 10 43.75Z" fill="#E05D68"/>
<path d="M27.1338 15.2602L34.5163 7.87898C35.0038 7.39023 35.8525 7.39023 36.3413 7.87898L47.1213 18.659C47.625 19.1615 47.625 19.9827 47.1213 20.4852L44.0613 23.5452L34.6325 14.1165C34.1438 13.6277 33.3538 13.6277 32.865 14.1165C32.3763 14.6052 32.3763 15.3952 32.865 15.884L42.2938 25.3127L39.7388 27.8665C39.25 28.3552 39.25 29.1452 39.7388 29.634C39.9838 29.8777 40.3038 30.0002 40.6238 30.0002C40.9438 30.0002 41.2638 29.8777 41.5075 29.634L48.89 22.2527C50.3675 20.774 50.3675 18.3702 48.89 16.8915L38.1088 6.11148C36.6763 4.67898 34.1788 4.67898 32.7475 6.11148L25.365 13.4927C24.8763 13.9815 24.8763 14.7715 25.365 15.2602C25.8538 15.749 26.645 15.749 27.1338 15.2602Z" fill="#E05D68"/>
<path d="M51.25 32.5H26.25C25.56 32.5 25 33.0588 25 33.75C25 34.4412 25.56 35 26.25 35H51.25C51.9387 35 52.5 35.56 52.5 36.25V51.25C52.5 51.94 51.9387 52.5 51.25 52.5H47.5V38.75C47.5 38.0588 46.94 37.5 46.25 37.5C45.56 37.5 45 38.0588 45 38.75V52.5H40V38.75C40 38.0588 39.44 37.5 38.75 37.5C38.06 37.5 37.5 38.0588 37.5 38.75V52.5H32.5V38.75C32.5 38.0588 31.94 37.5 31.25 37.5C30.56 37.5 30 38.0588 30 38.75V52.5H26.25C25.56 52.5 25 53.0588 25 53.75C25 54.4412 25.56 55 26.25 55H51.25C53.3175 55 55 53.3175 55 51.25V36.25C55 34.1825 53.3175 32.5 51.25 32.5Z" fill="#E05D68"/>
<path d="M27.2413 19.7416C26.7525 20.2303 26.7525 21.0203 27.2413 21.5091L35.3663 29.6341C35.61 29.8778 35.93 30.0003 36.25 30.0003C36.57 30.0003 36.89 29.8778 37.1338 29.6341C37.6225 29.1453 37.6225 28.3553 37.1338 27.8666L29.0088 19.7416C28.52 19.2528 27.73 19.2528 27.2413 19.7416Z" fill="#E05D68"/>
<path d="M18.75 0H3.75C1.6825 0 0 1.6825 0 3.75V31.25C0 31.9412 0.56 32.5 1.25 32.5H16.25C16.94 32.5 17.5 31.9412 17.5 31.25C17.5 30.5588 16.94 30 16.25 30H2.5V25H16.25C16.94 25 17.5 24.4412 17.5 23.75C17.5 23.0588 16.94 22.5 16.25 22.5H2.5V17.5H16.25C16.94 17.5 17.5 16.9412 17.5 16.25C17.5 15.5588 16.94 15 16.25 15H2.5V10H16.25C16.94 10 17.5 9.44125 17.5 8.75C17.5 8.05875 16.94 7.5 16.25 7.5H2.5V3.75C2.5 3.06 3.06125 2.5 3.75 2.5H18.75C19.4387 2.5 20 3.06 20 3.75V51.25C20 51.94 19.4387 52.5 18.75 52.5H3.75C3.06125 52.5 2.5 51.94 2.5 51.25V36.25C2.5 35.5588 1.94 35 1.25 35C0.56 35 0 35.5588 0 36.25V51.25C0 53.3175 1.6825 55 3.75 55H18.75C20.8175 55 22.5 53.3175 22.5 51.25V3.75C22.5 1.6825 20.8175 0 18.75 0Z" fill="#E05D68"/>
</svg>
