<svg width="84" height="84" viewBox="0 0 84 84" fill="none" xmlns="http://www.w3.org/2000/svg">
<path d="M60.1067 18.2791H69.3978L72.4949 83H12L14.9141 18.2791H24.0267" stroke="#1A0A1B" stroke-miterlimit="10" stroke-linecap="round"/>
<path d="M33.2598 18.2791H50.1417" stroke="#1A0A1B" stroke-miterlimit="10" stroke-linecap="round"/>
<path d="M51.003 12.9731C49.4812 8.38554 46.0852 5.10553 42.2474 5.10553C38.4096 5.10553 34.9064 8.48818 33.4249 13.1828" stroke="#1A0A1B" stroke-miterlimit="10" stroke-linecap="round"/>
<path d="M29.7478 25.3613C28.9668 23.2058 28.5429 20.8005 28.5429 18.2747C28.5429 8.73366 34.6745 1 42.2475 1C49.8205 1 55.9521 8.73366 55.9521 18.2747C55.9521 20.805 55.5237 23.1925 54.7428 25.3613" stroke="#1A0A1B" stroke-miterlimit="10" stroke-linecap="round"/>
<path d="M34.0228 22.8311C35.3393 23.853 36.1872 25.4506 36.1872 27.2401C36.1872 30.3193 33.6837 32.8228 30.6045 32.8228C28.2973 32.8228 26.3115 31.4126 25.4636 29.4134" stroke="#1A0A1B" stroke-miterlimit="10" stroke-linecap="round"/>
<path d="M50.6907 22.8311C49.3742 23.853 48.5264 25.4506 48.5264 27.2401C48.5264 30.3193 51.0299 32.8228 54.1091 32.8228C56.4162 32.8228 58.4021 31.4126 59.25 29.4134" stroke="#1A0A1B" stroke-miterlimit="10" stroke-linecap="round"/>
<path d="M32.6707 27.2445C32.6707 28.3869 31.7469 29.3107 30.6045 29.3107C29.4621 29.3107 28.5383 28.3869 28.5383 27.2445C28.5383 26.1021 29.4621 25.1783 30.6045 25.1783C31.7469 25.1783 32.6707 26.1021 32.6707 27.2445Z" stroke="#1A0A1B" stroke-miterlimit="10" stroke-linecap="round"/>
<path d="M55.9521 27.2445C55.9521 28.3869 55.0283 29.3107 53.8859 29.3107C52.7435 29.3107 51.8197 28.3869 51.8197 27.2445C51.8197 26.1021 52.7435 25.1783 53.8859 25.1783C55.0283 25.1783 55.9521 26.1021 55.9521 27.2445Z" stroke="#1A0A1B" stroke-miterlimit="10" stroke-linecap="round"/>
<path d="M50.6211 65.0261C56.3997 60.3701 57.3096 51.9111 52.6536 46.1326C47.9975 40.354 39.5386 39.444 33.76 44.1001C27.9814 48.7561 27.0714 57.2151 31.7275 62.9937C36.3835 68.7722 44.8425 69.6822 50.6211 65.0261Z" fill="#ECBEFF" stroke="#1A0A1B" stroke-miterlimit="10" stroke-linecap="round"/>
<path d="M47.5981 58.0944C45.871 59.4867 43.8897 60.5354 42.0689 61.8117C40.2839 60.4863 38.3337 59.3885 36.6424 57.9471C35.085 56.6217 33.6748 54.8099 34.0006 52.6411C34.362 50.2179 36.7451 48.6783 39.1147 49.129C40.8864 49.4637 41.8547 50.7757 42.2117 51.3737C42.5821 50.7891 43.5907 49.4994 45.3668 49.2138C47.7498 48.83 50.0882 50.4276 50.3872 52.8642C50.6505 55.042 49.1957 56.8136 47.5981 58.0988V58.0944Z" fill="#DF92FF" stroke="#1A0A1B" stroke-miterlimit="10" stroke-linecap="round"/>
</svg>
