<svg xmlns="http://www.w3.org/2000/svg" viewBox="0 0 73.95 69.6"><defs><style>.cls-1{fill:#f9bd3a;}.cls-2{fill:#31dbce;}.cls-3,.cls-5,.cls-6{fill:none;stroke:#141414;stroke-miterlimit:10;}.cls-3,.cls-6{stroke-linecap:square;}.cls-3,.cls-5{stroke-width:3px;}.cls-4{fill:#fc6a42;}.cls-6{stroke-width:4px;}</style></defs><title>12Web design</title><g id="Слой_2" data-name="Слой 2"><g id="Logo"><polygon class="cls-1" points="45.78 9.51 51.8 15.77 35.2 34.01 29.7 25.59 45.78 9.51"/><circle class="cls-2" cx="51.4" cy="32.98" r="13.89"/><polygon class="cls-1" points="52.63 16.36 58.65 22.61 42.97 39.51 36.55 32.44 52.63 16.36"/><line class="cls-3" x1="36.54" y1="32.43" x2="53.21" y2="15.77"/><polygon class="cls-1" points="51.8 15.77 41.23 5.2 19.06 14.44 35.77 31.15 51.8 15.77"/><polygon class="cls-4" points="19.66 35.54 26.27 29.18 44.38 47.3 41.91 58.09 19.66 35.54"/><path id="_Контур_" data-name="&lt;Контур&gt;" class="cls-3" d="M66.41,21.46A29.91,29.91,0,1,1,47.52,3"/><path id="_Контур_2" data-name="&lt;Контур&gt;" class="cls-3" d="M6.32,44A33.9,33.9,0,0,1,4,34"/><path id="_Контур_3" data-name="&lt;Контур&gt;" class="cls-3" d="M71.16,22.07a34.47,34.47,0,0,1,.46,16.85"/><path id="_Контур_4" data-name="&lt;Контур&gt;" class="cls-3" d="M17.4,63.69,14.13,67a3.91,3.91,0,0,1-5.52,0l-6-6a3.91,3.91,0,0,1,0-5.52L15.05,43.06a3.91,3.91,0,0,1,5.52,0l6,6a3.91,3.91,0,0,1,0,5.52l-2.29,2.29"/><circle class="cls-5" cx="3.81" cy="29.66" r="0.26"/><circle class="cls-5" cx="20.31" cy="60.57" r="0.26"/><circle class="cls-5" cx="70.53" cy="43.2" r="0.26"/><path class="cls-3" d="M54.36,14.62c-1.23,1.23-3.75.69-5.64-1.2S46.29,9,47.51,7.78L29.7,25.59,43.39,39.28,61.2,21.47c-1.23,1.22-3.75.68-5.64-1.21s-2.43-4.41-1.2-5.64"/><polyline class="cls-3" points="47.52 7.78 48.39 6.91 62.77 6.21 62.07 20.59 61.2 21.46"/><line class="cls-6" x1="29.11" y1="29.18" x2="39.79" y2="39.86"/><path class="cls-3" d="M19.88,35.45H39.22a0,0,0,0,1,0,0v7a1,1,0,0,1-1,1H20.88a1,1,0,0,1-1-1v-7a0,0,0,0,1,0,0Z" transform="translate(36.54 -9.35) rotate(45)"/><line class="cls-3" x1="61.56" y1="7.42" x2="59.47" y2="9.51"/></g></g></svg>