<svg width="103" height="33" viewBox="0 0 103 33" fill="none" xmlns="http://www.w3.org/2000/svg">
<g clip-path="url(#clip0_752_12141)">
<path d="M4.73069 15.2522C4.73069 15.6623 5.00217 15.9974 5.5509 16.2573C6.09964 16.5172 6.7639 16.7425 7.54368 16.9389C8.32924 17.1353 9.10902 17.3836 9.89458 17.6782C10.6801 17.9786 11.3444 18.4753 11.8874 19.18C12.4361 19.8789 12.7076 20.7569 12.7076 21.8082C12.7076 23.3966 12.1126 24.6154 10.9285 25.4703C9.7444 26.3252 8.2657 26.7526 6.49242 26.7526C3.3213 26.7526 1.15523 25.528 0 23.0732L3.45993 21.1266C3.91047 22.4667 4.9213 23.1367 6.48664 23.1367C7.90758 23.1367 8.61805 22.6919 8.61805 21.8082C8.61805 21.3981 8.34657 21.0631 7.79783 20.8031C7.2491 20.5432 6.58484 20.3122 5.80505 20.11C5.01949 19.902 4.23971 19.6479 3.45415 19.336C2.66859 19.0241 2.00433 18.5389 1.46137 17.8688C0.912635 17.1988 0.641155 16.3613 0.641155 15.3504C0.641155 13.8255 1.20144 12.6241 2.3278 11.7519C3.44838 10.8739 4.84621 10.4407 6.51552 10.4407C7.77473 10.4407 8.91841 10.7237 9.94657 11.2898C10.9747 11.8558 11.7892 12.6645 12.3899 13.7158L8.98773 15.5699C8.49097 14.5187 7.67076 13.993 6.51552 13.993C6.00144 13.993 5.57401 14.1085 5.23321 14.3338C4.89242 14.5591 4.72491 14.871 4.72491 15.2638L4.73069 15.2522Z" fill="white"/>
<path d="M31.7169 10.8625H35.5465L31.0411 26.3196H27.1307L24.2079 16.9564L21.2852 26.3196H17.3747L12.8289 10.8625H17.0455L19.691 20.3528L22.5039 10.8625H26.2758L29.0888 20.3875L31.7112 10.8625H31.7169Z" fill="white"/>
<path d="M59.7314 13.5252C60.3899 12.5375 61.2217 11.7923 62.2209 11.3014C63.2202 10.8046 64.2484 10.562 65.2996 10.562L64.7913 12.318C64.3986 13.6696 63.3704 14.7959 62.0072 15.1541C61.5105 15.2811 61.0195 15.4833 60.5285 15.7606C59.3848 16.4017 58.5935 17.4588 58.1661 18.9432L56.0116 26.331H52.026L56.5314 10.8739H60.517L59.743 13.531L59.7314 13.5252Z" fill="white"/>
<path d="M77.0715 4.68188H81.057V26.3194H77.0715V24.4942C75.8989 25.996 74.2296 26.7526 72.0635 26.7526C69.8975 26.7526 68.205 25.9671 66.7321 24.3902C65.2592 22.8133 64.5198 20.8841 64.5198 18.5967C64.5198 16.3093 65.2534 14.3801 66.7321 12.8032C68.2108 11.2263 69.9841 10.4407 72.0635 10.4407C74.1429 10.4407 75.8989 11.1916 77.0715 12.6992V4.68188ZM69.7299 21.7274C70.5444 22.5418 71.5668 22.9461 72.8086 22.9461C74.0505 22.9461 75.0671 22.5418 75.87 21.7274C76.6729 20.9129 77.0772 19.8674 77.0772 18.5909C77.0772 17.3144 76.6729 16.2689 75.87 15.4544C75.0671 14.64 74.0448 14.2357 72.8086 14.2357C71.5725 14.2357 70.5444 14.64 69.7299 15.4544C68.9155 16.2689 68.5112 17.3144 68.5112 18.5909C68.5112 19.8674 68.9155 20.9129 69.7299 21.7274Z" fill="white"/>
<path d="M85.6318 9.0083C84.9733 9.0083 84.4015 8.7657 83.9163 8.2805C83.4311 7.7953 83.1885 7.22346 83.1885 6.56498C83.1885 5.90649 83.4311 5.32887 83.9163 4.83212C84.4015 4.33537 84.9733 4.09277 85.6318 4.09277C86.2903 4.09277 86.891 4.34115 87.3762 4.83212C87.8614 5.32887 88.104 5.90649 88.104 6.56498C88.104 7.22346 87.8614 7.7953 87.3762 8.2805C86.891 8.7657 86.3076 9.0083 85.6318 9.0083ZM83.6506 26.3195V10.8624H87.6361V26.3195H83.6506Z" fill="white"/>
<path d="M94.3133 15.2522C94.3133 15.6623 94.5848 15.9974 95.1335 16.2573C95.6765 16.5172 96.3408 16.7425 97.1263 16.9389C97.9119 17.1353 98.6917 17.3836 99.4772 17.6782C100.263 17.9786 100.927 18.4753 101.47 19.18C102.019 19.8789 102.29 20.7569 102.29 21.8082C102.29 23.3966 101.695 24.6154 100.511 25.4703C99.327 26.3252 97.8483 26.7526 96.0751 26.7526C92.9039 26.7526 90.7379 25.528 89.5826 23.0732L93.0426 21.1266C93.4931 22.4667 94.5039 23.1367 96.0693 23.1367C97.4902 23.1367 98.2007 22.6919 98.2007 21.8082C98.2007 21.3981 97.9292 21.0631 97.3805 20.8031C96.8317 20.5432 96.1675 20.3122 95.3877 20.11C94.6021 19.902 93.8224 19.6479 93.0368 19.336C92.2512 19.0241 91.587 18.5389 91.044 17.8688C90.4953 17.1988 90.2238 16.3613 90.2238 15.3504C90.2238 13.8255 90.7841 12.6241 91.9104 11.7519C93.031 10.8739 94.4288 10.4407 96.0982 10.4407C97.3574 10.4407 98.5011 10.7237 99.5292 11.2898C100.557 11.8558 101.372 12.6645 101.973 13.7158L98.5704 15.5699C98.0736 14.5187 97.2534 13.993 96.0982 13.993C95.5841 13.993 95.1566 14.1085 94.8159 14.3338C94.4751 14.5591 94.3076 14.871 94.3076 15.2638L94.3133 15.2522Z" fill="white"/>
<path d="M47.8094 19.8444C47.7978 19.8848 47.7863 19.9252 47.7747 19.9657L45.8686 26.4985C47.2606 26.152 48.5025 25.4588 49.5769 24.3902C51.1653 22.8133 51.9567 20.8841 51.9567 18.5967C51.9567 16.3094 51.2289 14.5707 49.7964 13.04L47.8094 19.8444Z" fill="white"/>
<path d="M39.9827 25.8747L41.1264 21.9642C41.0108 21.866 40.8953 21.7678 40.7856 21.6523C39.9942 20.8494 39.5957 19.827 39.5957 18.5909C39.5957 17.3548 39.9942 16.3324 40.7856 15.5296C41.4845 14.8191 42.3394 14.4263 43.3502 14.3397L44.4823 10.4581C44.2455 10.4408 44.0087 10.4292 43.7661 10.4292C41.4787 10.4292 39.5495 11.2148 37.9726 12.7917C36.3957 14.3685 35.6101 16.2978 35.6101 18.5852C35.6101 20.8725 36.3957 22.8018 37.9726 24.3787C38.5906 24.9967 39.2607 25.4877 39.9884 25.8631L39.9827 25.8747Z" fill="white"/>
<path d="M45.7357 9.73024L39.0931 32.5057C41.4556 32.5057 43.535 30.9461 44.1993 28.6761L50.6166 6.68042L47.2375 8.0667C46.5097 8.36706 45.961 8.97934 45.7415 9.73024H45.7357Z" fill="#FF3D00"/>
<path d="M51.1942 4.68195L52.413 0.5H49.3921C48.8202 0.5 48.3177 0.875451 48.156 1.42419L47.2029 4.68195H43.2751C42.5646 4.68195 41.987 5.25957 41.987 5.97004V6.67473H54.3191C55.0296 6.67473 55.6072 6.09711 55.6072 5.38664V4.68195H51.1942ZM49.7733 1.713L50.6513 2.59097L49.7733 3.46895L48.8953 2.59097L49.7733 1.713Z" fill="#FF3D00"/>
</g>
<defs>
<clipPath id="clip0_752_12141">
<rect width="102.29" height="32" fill="white" transform="translate(0 0.5)"/>
</clipPath>
</defs>
</svg>
